M48
; DRILL file {KiCad (5.1.4)-1} date 3/30/2020 8:51:39 PM
; FORMAT={-:-/ absolute / inch / decimal}
; #@! TF.CreationDate,2020-03-30T20:51:39+09:00
; #@! TF.GenerationSoftware,Kicad,Pcbnew,(5.1.4)-1
; #@! TF.FileFunction,NonPlated,1,2,NPTH
FMAT,2
INCH
T1C0.1200
T2C0.1570
%
G90
G05
T1
X2.7953Y-1.9685
X2.5197Y-3.4449
X4.4488Y-3.4449
X4.7244Y-1.9685
X3.8976Y-3.4449
X4.1732Y-3.4449
X3.622Y-3.4449
X3.3465Y-3.4449
X3.3465Y-1.9685
X2.2441Y-3.4449
X5.0Y-3.4449
X1.9685Y-1.9685
X4.7244Y-3.4449
X1.9685Y-3.4449
X2.2441Y-1.9685
X4.1732Y-1.9685
X4.4488Y-1.9685
X2.5197Y-1.9685
X3.0709Y-1.9685
X5.0Y-1.9685
X2.7953Y-3.4449
X3.0709Y-3.4449
X3.622Y-1.9685
X3.8976Y-1.9685
T2
X2.7953Y-1.3685
X2.7953Y-2.5685
X2.5197Y-2.8449
X2.5197Y-4.0449
X4.4488Y-2.8449
X4.4488Y-4.0449
X4.7244Y-1.3685
X4.7244Y-2.5685
X3.8976Y-2.8449
X3.8976Y-4.0449
X4.1732Y-2.8449
X4.1732Y-4.0449
X3.622Y-2.8449
X3.622Y-4.0449
X3.3465Y-2.8449
X3.3465Y-4.0449
X3.3465Y-1.3685
X3.3465Y-2.5685
X2.2441Y-2.8449
X2.2441Y-4.0449
X5.0Y-2.8449
X5.0Y-4.0449
X1.9685Y-1.3685
X1.9685Y-2.5685
X4.7244Y-2.8449
X4.7244Y-4.0449
X1.9685Y-2.8449
X1.9685Y-4.0449
X2.2441Y-1.3685
X2.2441Y-2.5685
X4.1732Y-1.3685
X4.1732Y-2.5685
X4.4488Y-1.3685
X4.4488Y-2.5685
X2.5197Y-1.3685
X2.5197Y-2.5685
X3.0709Y-1.3685
X3.0709Y-2.5685
X5.0Y-1.3685
X5.0Y-2.5685
X2.7953Y-2.8449
X2.7953Y-4.0449
X3.0709Y-2.8449
X3.0709Y-4.0449
X3.622Y-1.3685
X3.622Y-2.5685
X3.8976Y-1.3685
X3.8976Y-2.5685
T0
M30
