G04 #@! TF.GenerationSoftware,KiCad,Pcbnew,(5.1.2)-1*
G04 #@! TF.CreationDate,2019-08-09T16:06:09+09:00*
G04 #@! TF.ProjectId,StabilizerShims,53746162-696c-4697-9a65-725368696d73,rev?*
G04 #@! TF.SameCoordinates,Original*
G04 #@! TF.FileFunction,Soldermask,Top*
G04 #@! TF.FilePolarity,Negative*
%FSLAX46Y46*%
G04 Gerber Fmt 4.6, Leading zero omitted, Abs format (unit mm)*
G04 Created by KiCad (PCBNEW (5.1.2)-1) date 2019-08-09 16:06:09*
%MOMM*%
%LPD*%
G04 APERTURE LIST*
%ADD10C,0.100000*%
G04 APERTURE END LIST*
D10*
G36*
X215096474Y-133038684D02*
G01*
X215314474Y-133128983D01*
X215468623Y-133192833D01*
X215803548Y-133416623D01*
X216088377Y-133701452D01*
X216312167Y-134036377D01*
X216312167Y-134036378D01*
X216466316Y-134408526D01*
X216544900Y-134803594D01*
X216544900Y-135206406D01*
X216466316Y-135601474D01*
X216376017Y-135819474D01*
X216312167Y-135973623D01*
X216088377Y-136308548D01*
X215803548Y-136593377D01*
X215468623Y-136817167D01*
X215314474Y-136881017D01*
X215096474Y-136971316D01*
X214701406Y-137049900D01*
X214298594Y-137049900D01*
X213903526Y-136971316D01*
X213685526Y-136881017D01*
X213531377Y-136817167D01*
X213196452Y-136593377D01*
X212911623Y-136308548D01*
X212687833Y-135973623D01*
X212623983Y-135819474D01*
X212533684Y-135601474D01*
X212455100Y-135206406D01*
X212455100Y-134803594D01*
X212533684Y-134408526D01*
X212687833Y-134036378D01*
X212687833Y-134036377D01*
X212911623Y-133701452D01*
X213196452Y-133416623D01*
X213531377Y-133192833D01*
X213685526Y-133128983D01*
X213903526Y-133038684D01*
X214298594Y-132960100D01*
X214701406Y-132960100D01*
X215096474Y-133038684D01*
X215096474Y-133038684D01*
G37*
G36*
X207096474Y-133038684D02*
G01*
X207314474Y-133128983D01*
X207468623Y-133192833D01*
X207803548Y-133416623D01*
X208088377Y-133701452D01*
X208312167Y-134036377D01*
X208312167Y-134036378D01*
X208466316Y-134408526D01*
X208544900Y-134803594D01*
X208544900Y-135206406D01*
X208466316Y-135601474D01*
X208376017Y-135819474D01*
X208312167Y-135973623D01*
X208088377Y-136308548D01*
X207803548Y-136593377D01*
X207468623Y-136817167D01*
X207314474Y-136881017D01*
X207096474Y-136971316D01*
X206701406Y-137049900D01*
X206298594Y-137049900D01*
X205903526Y-136971316D01*
X205685526Y-136881017D01*
X205531377Y-136817167D01*
X205196452Y-136593377D01*
X204911623Y-136308548D01*
X204687833Y-135973623D01*
X204623983Y-135819474D01*
X204533684Y-135601474D01*
X204455100Y-135206406D01*
X204455100Y-134803594D01*
X204533684Y-134408526D01*
X204687833Y-134036378D01*
X204687833Y-134036377D01*
X204911623Y-133701452D01*
X205196452Y-133416623D01*
X205531377Y-133192833D01*
X205685526Y-133128983D01*
X205903526Y-133038684D01*
X206298594Y-132960100D01*
X206701406Y-132960100D01*
X207096474Y-133038684D01*
X207096474Y-133038684D01*
G37*
G36*
X127096474Y-133038684D02*
G01*
X127314474Y-133128983D01*
X127468623Y-133192833D01*
X127803548Y-133416623D01*
X128088377Y-133701452D01*
X128312167Y-134036377D01*
X128312167Y-134036378D01*
X128466316Y-134408526D01*
X128544900Y-134803594D01*
X128544900Y-135206406D01*
X128466316Y-135601474D01*
X128376017Y-135819474D01*
X128312167Y-135973623D01*
X128088377Y-136308548D01*
X127803548Y-136593377D01*
X127468623Y-136817167D01*
X127314474Y-136881017D01*
X127096474Y-136971316D01*
X126701406Y-137049900D01*
X126298594Y-137049900D01*
X125903526Y-136971316D01*
X125685526Y-136881017D01*
X125531377Y-136817167D01*
X125196452Y-136593377D01*
X124911623Y-136308548D01*
X124687833Y-135973623D01*
X124623983Y-135819474D01*
X124533684Y-135601474D01*
X124455100Y-135206406D01*
X124455100Y-134803594D01*
X124533684Y-134408526D01*
X124687833Y-134036378D01*
X124687833Y-134036377D01*
X124911623Y-133701452D01*
X125196452Y-133416623D01*
X125531377Y-133192833D01*
X125685526Y-133128983D01*
X125903526Y-133038684D01*
X126298594Y-132960100D01*
X126701406Y-132960100D01*
X127096474Y-133038684D01*
X127096474Y-133038684D01*
G37*
G36*
X135096474Y-133038684D02*
G01*
X135314474Y-133128983D01*
X135468623Y-133192833D01*
X135803548Y-133416623D01*
X136088377Y-133701452D01*
X136312167Y-134036377D01*
X136312167Y-134036378D01*
X136466316Y-134408526D01*
X136544900Y-134803594D01*
X136544900Y-135206406D01*
X136466316Y-135601474D01*
X136376017Y-135819474D01*
X136312167Y-135973623D01*
X136088377Y-136308548D01*
X135803548Y-136593377D01*
X135468623Y-136817167D01*
X135314474Y-136881017D01*
X135096474Y-136971316D01*
X134701406Y-137049900D01*
X134298594Y-137049900D01*
X133903526Y-136971316D01*
X133685526Y-136881017D01*
X133531377Y-136817167D01*
X133196452Y-136593377D01*
X132911623Y-136308548D01*
X132687833Y-135973623D01*
X132623983Y-135819474D01*
X132533684Y-135601474D01*
X132455100Y-135206406D01*
X132455100Y-134803594D01*
X132533684Y-134408526D01*
X132687833Y-134036378D01*
X132687833Y-134036377D01*
X132911623Y-133701452D01*
X133196452Y-133416623D01*
X133531377Y-133192833D01*
X133685526Y-133128983D01*
X133903526Y-133038684D01*
X134298594Y-132960100D01*
X134701406Y-132960100D01*
X135096474Y-133038684D01*
X135096474Y-133038684D01*
G37*
G36*
X143096474Y-133038684D02*
G01*
X143314474Y-133128983D01*
X143468623Y-133192833D01*
X143803548Y-133416623D01*
X144088377Y-133701452D01*
X144312167Y-134036377D01*
X144312167Y-134036378D01*
X144466316Y-134408526D01*
X144544900Y-134803594D01*
X144544900Y-135206406D01*
X144466316Y-135601474D01*
X144376017Y-135819474D01*
X144312167Y-135973623D01*
X144088377Y-136308548D01*
X143803548Y-136593377D01*
X143468623Y-136817167D01*
X143314474Y-136881017D01*
X143096474Y-136971316D01*
X142701406Y-137049900D01*
X142298594Y-137049900D01*
X141903526Y-136971316D01*
X141685526Y-136881017D01*
X141531377Y-136817167D01*
X141196452Y-136593377D01*
X140911623Y-136308548D01*
X140687833Y-135973623D01*
X140623983Y-135819474D01*
X140533684Y-135601474D01*
X140455100Y-135206406D01*
X140455100Y-134803594D01*
X140533684Y-134408526D01*
X140687833Y-134036378D01*
X140687833Y-134036377D01*
X140911623Y-133701452D01*
X141196452Y-133416623D01*
X141531377Y-133192833D01*
X141685526Y-133128983D01*
X141903526Y-133038684D01*
X142298594Y-132960100D01*
X142701406Y-132960100D01*
X143096474Y-133038684D01*
X143096474Y-133038684D01*
G37*
G36*
X151096474Y-133038684D02*
G01*
X151314474Y-133128983D01*
X151468623Y-133192833D01*
X151803548Y-133416623D01*
X152088377Y-133701452D01*
X152312167Y-134036377D01*
X152312167Y-134036378D01*
X152466316Y-134408526D01*
X152544900Y-134803594D01*
X152544900Y-135206406D01*
X152466316Y-135601474D01*
X152376017Y-135819474D01*
X152312167Y-135973623D01*
X152088377Y-136308548D01*
X151803548Y-136593377D01*
X151468623Y-136817167D01*
X151314474Y-136881017D01*
X151096474Y-136971316D01*
X150701406Y-137049900D01*
X150298594Y-137049900D01*
X149903526Y-136971316D01*
X149685526Y-136881017D01*
X149531377Y-136817167D01*
X149196452Y-136593377D01*
X148911623Y-136308548D01*
X148687833Y-135973623D01*
X148623983Y-135819474D01*
X148533684Y-135601474D01*
X148455100Y-135206406D01*
X148455100Y-134803594D01*
X148533684Y-134408526D01*
X148687833Y-134036378D01*
X148687833Y-134036377D01*
X148911623Y-133701452D01*
X149196452Y-133416623D01*
X149531377Y-133192833D01*
X149685526Y-133128983D01*
X149903526Y-133038684D01*
X150298594Y-132960100D01*
X150701406Y-132960100D01*
X151096474Y-133038684D01*
X151096474Y-133038684D01*
G37*
G36*
X159096474Y-133038684D02*
G01*
X159314474Y-133128983D01*
X159468623Y-133192833D01*
X159803548Y-133416623D01*
X160088377Y-133701452D01*
X160312167Y-134036377D01*
X160312167Y-134036378D01*
X160466316Y-134408526D01*
X160544900Y-134803594D01*
X160544900Y-135206406D01*
X160466316Y-135601474D01*
X160376017Y-135819474D01*
X160312167Y-135973623D01*
X160088377Y-136308548D01*
X159803548Y-136593377D01*
X159468623Y-136817167D01*
X159314474Y-136881017D01*
X159096474Y-136971316D01*
X158701406Y-137049900D01*
X158298594Y-137049900D01*
X157903526Y-136971316D01*
X157685526Y-136881017D01*
X157531377Y-136817167D01*
X157196452Y-136593377D01*
X156911623Y-136308548D01*
X156687833Y-135973623D01*
X156623983Y-135819474D01*
X156533684Y-135601474D01*
X156455100Y-135206406D01*
X156455100Y-134803594D01*
X156533684Y-134408526D01*
X156687833Y-134036378D01*
X156687833Y-134036377D01*
X156911623Y-133701452D01*
X157196452Y-133416623D01*
X157531377Y-133192833D01*
X157685526Y-133128983D01*
X157903526Y-133038684D01*
X158298594Y-132960100D01*
X158701406Y-132960100D01*
X159096474Y-133038684D01*
X159096474Y-133038684D01*
G37*
G36*
X167096474Y-133038684D02*
G01*
X167314474Y-133128983D01*
X167468623Y-133192833D01*
X167803548Y-133416623D01*
X168088377Y-133701452D01*
X168312167Y-134036377D01*
X168312167Y-134036378D01*
X168466316Y-134408526D01*
X168544900Y-134803594D01*
X168544900Y-135206406D01*
X168466316Y-135601474D01*
X168376017Y-135819474D01*
X168312167Y-135973623D01*
X168088377Y-136308548D01*
X167803548Y-136593377D01*
X167468623Y-136817167D01*
X167314474Y-136881017D01*
X167096474Y-136971316D01*
X166701406Y-137049900D01*
X166298594Y-137049900D01*
X165903526Y-136971316D01*
X165685526Y-136881017D01*
X165531377Y-136817167D01*
X165196452Y-136593377D01*
X164911623Y-136308548D01*
X164687833Y-135973623D01*
X164623983Y-135819474D01*
X164533684Y-135601474D01*
X164455100Y-135206406D01*
X164455100Y-134803594D01*
X164533684Y-134408526D01*
X164687833Y-134036378D01*
X164687833Y-134036377D01*
X164911623Y-133701452D01*
X165196452Y-133416623D01*
X165531377Y-133192833D01*
X165685526Y-133128983D01*
X165903526Y-133038684D01*
X166298594Y-132960100D01*
X166701406Y-132960100D01*
X167096474Y-133038684D01*
X167096474Y-133038684D01*
G37*
G36*
X175096474Y-133038684D02*
G01*
X175314474Y-133128983D01*
X175468623Y-133192833D01*
X175803548Y-133416623D01*
X176088377Y-133701452D01*
X176312167Y-134036377D01*
X176312167Y-134036378D01*
X176466316Y-134408526D01*
X176544900Y-134803594D01*
X176544900Y-135206406D01*
X176466316Y-135601474D01*
X176376017Y-135819474D01*
X176312167Y-135973623D01*
X176088377Y-136308548D01*
X175803548Y-136593377D01*
X175468623Y-136817167D01*
X175314474Y-136881017D01*
X175096474Y-136971316D01*
X174701406Y-137049900D01*
X174298594Y-137049900D01*
X173903526Y-136971316D01*
X173685526Y-136881017D01*
X173531377Y-136817167D01*
X173196452Y-136593377D01*
X172911623Y-136308548D01*
X172687833Y-135973623D01*
X172623983Y-135819474D01*
X172533684Y-135601474D01*
X172455100Y-135206406D01*
X172455100Y-134803594D01*
X172533684Y-134408526D01*
X172687833Y-134036378D01*
X172687833Y-134036377D01*
X172911623Y-133701452D01*
X173196452Y-133416623D01*
X173531377Y-133192833D01*
X173685526Y-133128983D01*
X173903526Y-133038684D01*
X174298594Y-132960100D01*
X174701406Y-132960100D01*
X175096474Y-133038684D01*
X175096474Y-133038684D01*
G37*
G36*
X183096474Y-133038684D02*
G01*
X183314474Y-133128983D01*
X183468623Y-133192833D01*
X183803548Y-133416623D01*
X184088377Y-133701452D01*
X184312167Y-134036377D01*
X184312167Y-134036378D01*
X184466316Y-134408526D01*
X184544900Y-134803594D01*
X184544900Y-135206406D01*
X184466316Y-135601474D01*
X184376017Y-135819474D01*
X184312167Y-135973623D01*
X184088377Y-136308548D01*
X183803548Y-136593377D01*
X183468623Y-136817167D01*
X183314474Y-136881017D01*
X183096474Y-136971316D01*
X182701406Y-137049900D01*
X182298594Y-137049900D01*
X181903526Y-136971316D01*
X181685526Y-136881017D01*
X181531377Y-136817167D01*
X181196452Y-136593377D01*
X180911623Y-136308548D01*
X180687833Y-135973623D01*
X180623983Y-135819474D01*
X180533684Y-135601474D01*
X180455100Y-135206406D01*
X180455100Y-134803594D01*
X180533684Y-134408526D01*
X180687833Y-134036378D01*
X180687833Y-134036377D01*
X180911623Y-133701452D01*
X181196452Y-133416623D01*
X181531377Y-133192833D01*
X181685526Y-133128983D01*
X181903526Y-133038684D01*
X182298594Y-132960100D01*
X182701406Y-132960100D01*
X183096474Y-133038684D01*
X183096474Y-133038684D01*
G37*
G36*
X191096474Y-133038684D02*
G01*
X191314474Y-133128983D01*
X191468623Y-133192833D01*
X191803548Y-133416623D01*
X192088377Y-133701452D01*
X192312167Y-134036377D01*
X192312167Y-134036378D01*
X192466316Y-134408526D01*
X192544900Y-134803594D01*
X192544900Y-135206406D01*
X192466316Y-135601474D01*
X192376017Y-135819474D01*
X192312167Y-135973623D01*
X192088377Y-136308548D01*
X191803548Y-136593377D01*
X191468623Y-136817167D01*
X191314474Y-136881017D01*
X191096474Y-136971316D01*
X190701406Y-137049900D01*
X190298594Y-137049900D01*
X189903526Y-136971316D01*
X189685526Y-136881017D01*
X189531377Y-136817167D01*
X189196452Y-136593377D01*
X188911623Y-136308548D01*
X188687833Y-135973623D01*
X188623983Y-135819474D01*
X188533684Y-135601474D01*
X188455100Y-135206406D01*
X188455100Y-134803594D01*
X188533684Y-134408526D01*
X188687833Y-134036378D01*
X188687833Y-134036377D01*
X188911623Y-133701452D01*
X189196452Y-133416623D01*
X189531377Y-133192833D01*
X189685526Y-133128983D01*
X189903526Y-133038684D01*
X190298594Y-132960100D01*
X190701406Y-132960100D01*
X191096474Y-133038684D01*
X191096474Y-133038684D01*
G37*
G36*
X199096474Y-133038684D02*
G01*
X199314474Y-133128983D01*
X199468623Y-133192833D01*
X199803548Y-133416623D01*
X200088377Y-133701452D01*
X200312167Y-134036377D01*
X200312167Y-134036378D01*
X200466316Y-134408526D01*
X200544900Y-134803594D01*
X200544900Y-135206406D01*
X200466316Y-135601474D01*
X200376017Y-135819474D01*
X200312167Y-135973623D01*
X200088377Y-136308548D01*
X199803548Y-136593377D01*
X199468623Y-136817167D01*
X199314474Y-136881017D01*
X199096474Y-136971316D01*
X198701406Y-137049900D01*
X198298594Y-137049900D01*
X197903526Y-136971316D01*
X197685526Y-136881017D01*
X197531377Y-136817167D01*
X197196452Y-136593377D01*
X196911623Y-136308548D01*
X196687833Y-135973623D01*
X196623983Y-135819474D01*
X196533684Y-135601474D01*
X196455100Y-135206406D01*
X196455100Y-134803594D01*
X196533684Y-134408526D01*
X196687833Y-134036378D01*
X196687833Y-134036377D01*
X196911623Y-133701452D01*
X197196452Y-133416623D01*
X197531377Y-133192833D01*
X197685526Y-133128983D01*
X197903526Y-133038684D01*
X198298594Y-132960100D01*
X198701406Y-132960100D01*
X199096474Y-133038684D01*
X199096474Y-133038684D01*
G37*
G36*
X184504053Y-122750534D02*
G01*
X184504059Y-122750534D01*
X184621292Y-122765968D01*
X184621294Y-122765969D01*
X184629410Y-122767037D01*
X184636975Y-122770170D01*
X184636977Y-122770171D01*
X184706620Y-122799018D01*
X184750000Y-122816987D01*
X184853553Y-122896447D01*
X184933013Y-123000000D01*
X184982963Y-123120590D01*
X185000000Y-123250000D01*
X185000000Y-131250000D01*
X184982963Y-131379410D01*
X184933013Y-131500000D01*
X184853553Y-131603553D01*
X184750000Y-131683013D01*
X184742431Y-131686148D01*
X184636977Y-131729829D01*
X184636975Y-131729830D01*
X184629410Y-131732963D01*
X184621294Y-131734031D01*
X184621292Y-131734032D01*
X184504059Y-131749466D01*
X184504053Y-131749466D01*
X184500000Y-131750000D01*
X180500000Y-131750000D01*
X180495947Y-131749466D01*
X180495941Y-131749466D01*
X180378708Y-131734032D01*
X180378706Y-131734031D01*
X180370590Y-131732963D01*
X180363025Y-131729830D01*
X180363023Y-131729829D01*
X180257569Y-131686148D01*
X180250000Y-131683013D01*
X180146447Y-131603553D01*
X180066987Y-131500000D01*
X180017037Y-131379410D01*
X180000000Y-131250000D01*
X180000000Y-123250000D01*
X180017037Y-123120590D01*
X180066987Y-123000000D01*
X180146447Y-122896447D01*
X180250000Y-122816987D01*
X180293380Y-122799018D01*
X180363023Y-122770171D01*
X180363025Y-122770170D01*
X180370590Y-122767037D01*
X180378706Y-122765969D01*
X180378708Y-122765968D01*
X180495941Y-122750534D01*
X180495947Y-122750534D01*
X180500000Y-122750000D01*
X184500000Y-122750000D01*
X184504053Y-122750534D01*
X184504053Y-122750534D01*
G37*
G36*
X200504053Y-122750534D02*
G01*
X200504059Y-122750534D01*
X200621292Y-122765968D01*
X200621294Y-122765969D01*
X200629410Y-122767037D01*
X200636975Y-122770170D01*
X200636977Y-122770171D01*
X200706620Y-122799018D01*
X200750000Y-122816987D01*
X200853553Y-122896447D01*
X200933013Y-123000000D01*
X200982963Y-123120590D01*
X201000000Y-123250000D01*
X201000000Y-131250000D01*
X200982963Y-131379410D01*
X200933013Y-131500000D01*
X200853553Y-131603553D01*
X200750000Y-131683013D01*
X200742431Y-131686148D01*
X200636977Y-131729829D01*
X200636975Y-131729830D01*
X200629410Y-131732963D01*
X200621294Y-131734031D01*
X200621292Y-131734032D01*
X200504059Y-131749466D01*
X200504053Y-131749466D01*
X200500000Y-131750000D01*
X196500000Y-131750000D01*
X196495947Y-131749466D01*
X196495941Y-131749466D01*
X196378708Y-131734032D01*
X196378706Y-131734031D01*
X196370590Y-131732963D01*
X196363025Y-131729830D01*
X196363023Y-131729829D01*
X196257569Y-131686148D01*
X196250000Y-131683013D01*
X196146447Y-131603553D01*
X196066987Y-131500000D01*
X196017037Y-131379410D01*
X196000000Y-131250000D01*
X196000000Y-123250000D01*
X196017037Y-123120590D01*
X196066987Y-123000000D01*
X196146447Y-122896447D01*
X196250000Y-122816987D01*
X196293380Y-122799018D01*
X196363023Y-122770171D01*
X196363025Y-122770170D01*
X196370590Y-122767037D01*
X196378706Y-122765969D01*
X196378708Y-122765968D01*
X196495941Y-122750534D01*
X196495947Y-122750534D01*
X196500000Y-122750000D01*
X200500000Y-122750000D01*
X200504053Y-122750534D01*
X200504053Y-122750534D01*
G37*
G36*
X192504053Y-122750534D02*
G01*
X192504059Y-122750534D01*
X192621292Y-122765968D01*
X192621294Y-122765969D01*
X192629410Y-122767037D01*
X192636975Y-122770170D01*
X192636977Y-122770171D01*
X192706620Y-122799018D01*
X192750000Y-122816987D01*
X192853553Y-122896447D01*
X192933013Y-123000000D01*
X192982963Y-123120590D01*
X193000000Y-123250000D01*
X193000000Y-131250000D01*
X192982963Y-131379410D01*
X192933013Y-131500000D01*
X192853553Y-131603553D01*
X192750000Y-131683013D01*
X192742431Y-131686148D01*
X192636977Y-131729829D01*
X192636975Y-131729830D01*
X192629410Y-131732963D01*
X192621294Y-131734031D01*
X192621292Y-131734032D01*
X192504059Y-131749466D01*
X192504053Y-131749466D01*
X192500000Y-131750000D01*
X188500000Y-131750000D01*
X188495947Y-131749466D01*
X188495941Y-131749466D01*
X188378708Y-131734032D01*
X188378706Y-131734031D01*
X188370590Y-131732963D01*
X188363025Y-131729830D01*
X188363023Y-131729829D01*
X188257569Y-131686148D01*
X188250000Y-131683013D01*
X188146447Y-131603553D01*
X188066987Y-131500000D01*
X188017037Y-131379410D01*
X188000000Y-131250000D01*
X188000000Y-123250000D01*
X188017037Y-123120590D01*
X188066987Y-123000000D01*
X188146447Y-122896447D01*
X188250000Y-122816987D01*
X188293380Y-122799018D01*
X188363023Y-122770171D01*
X188363025Y-122770170D01*
X188370590Y-122767037D01*
X188378706Y-122765969D01*
X188378708Y-122765968D01*
X188495941Y-122750534D01*
X188495947Y-122750534D01*
X188500000Y-122750000D01*
X192500000Y-122750000D01*
X192504053Y-122750534D01*
X192504053Y-122750534D01*
G37*
G36*
X176504053Y-122750534D02*
G01*
X176504059Y-122750534D01*
X176621292Y-122765968D01*
X176621294Y-122765969D01*
X176629410Y-122767037D01*
X176636975Y-122770170D01*
X176636977Y-122770171D01*
X176706620Y-122799018D01*
X176750000Y-122816987D01*
X176853553Y-122896447D01*
X176933013Y-123000000D01*
X176982963Y-123120590D01*
X177000000Y-123250000D01*
X177000000Y-131250000D01*
X176982963Y-131379410D01*
X176933013Y-131500000D01*
X176853553Y-131603553D01*
X176750000Y-131683013D01*
X176742431Y-131686148D01*
X176636977Y-131729829D01*
X176636975Y-131729830D01*
X176629410Y-131732963D01*
X176621294Y-131734031D01*
X176621292Y-131734032D01*
X176504059Y-131749466D01*
X176504053Y-131749466D01*
X176500000Y-131750000D01*
X172500000Y-131750000D01*
X172495947Y-131749466D01*
X172495941Y-131749466D01*
X172378708Y-131734032D01*
X172378706Y-131734031D01*
X172370590Y-131732963D01*
X172363025Y-131729830D01*
X172363023Y-131729829D01*
X172257569Y-131686148D01*
X172250000Y-131683013D01*
X172146447Y-131603553D01*
X172066987Y-131500000D01*
X172017037Y-131379410D01*
X172000000Y-131250000D01*
X172000000Y-123250000D01*
X172017037Y-123120590D01*
X172066987Y-123000000D01*
X172146447Y-122896447D01*
X172250000Y-122816987D01*
X172293380Y-122799018D01*
X172363023Y-122770171D01*
X172363025Y-122770170D01*
X172370590Y-122767037D01*
X172378706Y-122765969D01*
X172378708Y-122765968D01*
X172495941Y-122750534D01*
X172495947Y-122750534D01*
X172500000Y-122750000D01*
X176500000Y-122750000D01*
X176504053Y-122750534D01*
X176504053Y-122750534D01*
G37*
G36*
X168504053Y-122750534D02*
G01*
X168504059Y-122750534D01*
X168621292Y-122765968D01*
X168621294Y-122765969D01*
X168629410Y-122767037D01*
X168636975Y-122770170D01*
X168636977Y-122770171D01*
X168706620Y-122799018D01*
X168750000Y-122816987D01*
X168853553Y-122896447D01*
X168933013Y-123000000D01*
X168982963Y-123120590D01*
X169000000Y-123250000D01*
X169000000Y-131250000D01*
X168982963Y-131379410D01*
X168933013Y-131500000D01*
X168853553Y-131603553D01*
X168750000Y-131683013D01*
X168742431Y-131686148D01*
X168636977Y-131729829D01*
X168636975Y-131729830D01*
X168629410Y-131732963D01*
X168621294Y-131734031D01*
X168621292Y-131734032D01*
X168504059Y-131749466D01*
X168504053Y-131749466D01*
X168500000Y-131750000D01*
X164500000Y-131750000D01*
X164495947Y-131749466D01*
X164495941Y-131749466D01*
X164378708Y-131734032D01*
X164378706Y-131734031D01*
X164370590Y-131732963D01*
X164363025Y-131729830D01*
X164363023Y-131729829D01*
X164257569Y-131686148D01*
X164250000Y-131683013D01*
X164146447Y-131603553D01*
X164066987Y-131500000D01*
X164017037Y-131379410D01*
X164000000Y-131250000D01*
X164000000Y-123250000D01*
X164017037Y-123120590D01*
X164066987Y-123000000D01*
X164146447Y-122896447D01*
X164250000Y-122816987D01*
X164293380Y-122799018D01*
X164363023Y-122770171D01*
X164363025Y-122770170D01*
X164370590Y-122767037D01*
X164378706Y-122765969D01*
X164378708Y-122765968D01*
X164495941Y-122750534D01*
X164495947Y-122750534D01*
X164500000Y-122750000D01*
X168500000Y-122750000D01*
X168504053Y-122750534D01*
X168504053Y-122750534D01*
G37*
G36*
X160504053Y-122750534D02*
G01*
X160504059Y-122750534D01*
X160621292Y-122765968D01*
X160621294Y-122765969D01*
X160629410Y-122767037D01*
X160636975Y-122770170D01*
X160636977Y-122770171D01*
X160706620Y-122799018D01*
X160750000Y-122816987D01*
X160853553Y-122896447D01*
X160933013Y-123000000D01*
X160982963Y-123120590D01*
X161000000Y-123250000D01*
X161000000Y-131250000D01*
X160982963Y-131379410D01*
X160933013Y-131500000D01*
X160853553Y-131603553D01*
X160750000Y-131683013D01*
X160742431Y-131686148D01*
X160636977Y-131729829D01*
X160636975Y-131729830D01*
X160629410Y-131732963D01*
X160621294Y-131734031D01*
X160621292Y-131734032D01*
X160504059Y-131749466D01*
X160504053Y-131749466D01*
X160500000Y-131750000D01*
X156500000Y-131750000D01*
X156495947Y-131749466D01*
X156495941Y-131749466D01*
X156378708Y-131734032D01*
X156378706Y-131734031D01*
X156370590Y-131732963D01*
X156363025Y-131729830D01*
X156363023Y-131729829D01*
X156257569Y-131686148D01*
X156250000Y-131683013D01*
X156146447Y-131603553D01*
X156066987Y-131500000D01*
X156017037Y-131379410D01*
X156000000Y-131250000D01*
X156000000Y-123250000D01*
X156017037Y-123120590D01*
X156066987Y-123000000D01*
X156146447Y-122896447D01*
X156250000Y-122816987D01*
X156293380Y-122799018D01*
X156363023Y-122770171D01*
X156363025Y-122770170D01*
X156370590Y-122767037D01*
X156378706Y-122765969D01*
X156378708Y-122765968D01*
X156495941Y-122750534D01*
X156495947Y-122750534D01*
X156500000Y-122750000D01*
X160500000Y-122750000D01*
X160504053Y-122750534D01*
X160504053Y-122750534D01*
G37*
G36*
X144504053Y-122750534D02*
G01*
X144504059Y-122750534D01*
X144621292Y-122765968D01*
X144621294Y-122765969D01*
X144629410Y-122767037D01*
X144636975Y-122770170D01*
X144636977Y-122770171D01*
X144706620Y-122799018D01*
X144750000Y-122816987D01*
X144853553Y-122896447D01*
X144933013Y-123000000D01*
X144982963Y-123120590D01*
X145000000Y-123250000D01*
X145000000Y-131250000D01*
X144982963Y-131379410D01*
X144933013Y-131500000D01*
X144853553Y-131603553D01*
X144750000Y-131683013D01*
X144742431Y-131686148D01*
X144636977Y-131729829D01*
X144636975Y-131729830D01*
X144629410Y-131732963D01*
X144621294Y-131734031D01*
X144621292Y-131734032D01*
X144504059Y-131749466D01*
X144504053Y-131749466D01*
X144500000Y-131750000D01*
X140500000Y-131750000D01*
X140495947Y-131749466D01*
X140495941Y-131749466D01*
X140378708Y-131734032D01*
X140378706Y-131734031D01*
X140370590Y-131732963D01*
X140363025Y-131729830D01*
X140363023Y-131729829D01*
X140257569Y-131686148D01*
X140250000Y-131683013D01*
X140146447Y-131603553D01*
X140066987Y-131500000D01*
X140017037Y-131379410D01*
X140000000Y-131250000D01*
X140000000Y-123250000D01*
X140017037Y-123120590D01*
X140066987Y-123000000D01*
X140146447Y-122896447D01*
X140250000Y-122816987D01*
X140293380Y-122799018D01*
X140363023Y-122770171D01*
X140363025Y-122770170D01*
X140370590Y-122767037D01*
X140378706Y-122765969D01*
X140378708Y-122765968D01*
X140495941Y-122750534D01*
X140495947Y-122750534D01*
X140500000Y-122750000D01*
X144500000Y-122750000D01*
X144504053Y-122750534D01*
X144504053Y-122750534D01*
G37*
G36*
X136504053Y-122750534D02*
G01*
X136504059Y-122750534D01*
X136621292Y-122765968D01*
X136621294Y-122765969D01*
X136629410Y-122767037D01*
X136636975Y-122770170D01*
X136636977Y-122770171D01*
X136706620Y-122799018D01*
X136750000Y-122816987D01*
X136853553Y-122896447D01*
X136933013Y-123000000D01*
X136982963Y-123120590D01*
X137000000Y-123250000D01*
X137000000Y-131250000D01*
X136982963Y-131379410D01*
X136933013Y-131500000D01*
X136853553Y-131603553D01*
X136750000Y-131683013D01*
X136742431Y-131686148D01*
X136636977Y-131729829D01*
X136636975Y-131729830D01*
X136629410Y-131732963D01*
X136621294Y-131734031D01*
X136621292Y-131734032D01*
X136504059Y-131749466D01*
X136504053Y-131749466D01*
X136500000Y-131750000D01*
X132500000Y-131750000D01*
X132495947Y-131749466D01*
X132495941Y-131749466D01*
X132378708Y-131734032D01*
X132378706Y-131734031D01*
X132370590Y-131732963D01*
X132363025Y-131729830D01*
X132363023Y-131729829D01*
X132257569Y-131686148D01*
X132250000Y-131683013D01*
X132146447Y-131603553D01*
X132066987Y-131500000D01*
X132017037Y-131379410D01*
X132000000Y-131250000D01*
X132000000Y-123250000D01*
X132017037Y-123120590D01*
X132066987Y-123000000D01*
X132146447Y-122896447D01*
X132250000Y-122816987D01*
X132293380Y-122799018D01*
X132363023Y-122770171D01*
X132363025Y-122770170D01*
X132370590Y-122767037D01*
X132378706Y-122765969D01*
X132378708Y-122765968D01*
X132495941Y-122750534D01*
X132495947Y-122750534D01*
X132500000Y-122750000D01*
X136500000Y-122750000D01*
X136504053Y-122750534D01*
X136504053Y-122750534D01*
G37*
G36*
X216504053Y-122750534D02*
G01*
X216504059Y-122750534D01*
X216621292Y-122765968D01*
X216621294Y-122765969D01*
X216629410Y-122767037D01*
X216636975Y-122770170D01*
X216636977Y-122770171D01*
X216706620Y-122799018D01*
X216750000Y-122816987D01*
X216853553Y-122896447D01*
X216933013Y-123000000D01*
X216982963Y-123120590D01*
X217000000Y-123250000D01*
X217000000Y-131250000D01*
X216982963Y-131379410D01*
X216933013Y-131500000D01*
X216853553Y-131603553D01*
X216750000Y-131683013D01*
X216742431Y-131686148D01*
X216636977Y-131729829D01*
X216636975Y-131729830D01*
X216629410Y-131732963D01*
X216621294Y-131734031D01*
X216621292Y-131734032D01*
X216504059Y-131749466D01*
X216504053Y-131749466D01*
X216500000Y-131750000D01*
X212500000Y-131750000D01*
X212495947Y-131749466D01*
X212495941Y-131749466D01*
X212378708Y-131734032D01*
X212378706Y-131734031D01*
X212370590Y-131732963D01*
X212363025Y-131729830D01*
X212363023Y-131729829D01*
X212257569Y-131686148D01*
X212250000Y-131683013D01*
X212146447Y-131603553D01*
X212066987Y-131500000D01*
X212017037Y-131379410D01*
X212000000Y-131250000D01*
X212000000Y-123250000D01*
X212017037Y-123120590D01*
X212066987Y-123000000D01*
X212146447Y-122896447D01*
X212250000Y-122816987D01*
X212293380Y-122799018D01*
X212363023Y-122770171D01*
X212363025Y-122770170D01*
X212370590Y-122767037D01*
X212378706Y-122765969D01*
X212378708Y-122765968D01*
X212495941Y-122750534D01*
X212495947Y-122750534D01*
X212500000Y-122750000D01*
X216500000Y-122750000D01*
X216504053Y-122750534D01*
X216504053Y-122750534D01*
G37*
G36*
X128504053Y-122750534D02*
G01*
X128504059Y-122750534D01*
X128621292Y-122765968D01*
X128621294Y-122765969D01*
X128629410Y-122767037D01*
X128636975Y-122770170D01*
X128636977Y-122770171D01*
X128706620Y-122799018D01*
X128750000Y-122816987D01*
X128853553Y-122896447D01*
X128933013Y-123000000D01*
X128982963Y-123120590D01*
X129000000Y-123250000D01*
X129000000Y-131250000D01*
X128982963Y-131379410D01*
X128933013Y-131500000D01*
X128853553Y-131603553D01*
X128750000Y-131683013D01*
X128742431Y-131686148D01*
X128636977Y-131729829D01*
X128636975Y-131729830D01*
X128629410Y-131732963D01*
X128621294Y-131734031D01*
X128621292Y-131734032D01*
X128504059Y-131749466D01*
X128504053Y-131749466D01*
X128500000Y-131750000D01*
X124500000Y-131750000D01*
X124495947Y-131749466D01*
X124495941Y-131749466D01*
X124378708Y-131734032D01*
X124378706Y-131734031D01*
X124370590Y-131732963D01*
X124363025Y-131729830D01*
X124363023Y-131729829D01*
X124257569Y-131686148D01*
X124250000Y-131683013D01*
X124146447Y-131603553D01*
X124066987Y-131500000D01*
X124017037Y-131379410D01*
X124000000Y-131250000D01*
X124000000Y-123250000D01*
X124017037Y-123120590D01*
X124066987Y-123000000D01*
X124146447Y-122896447D01*
X124250000Y-122816987D01*
X124293380Y-122799018D01*
X124363023Y-122770171D01*
X124363025Y-122770170D01*
X124370590Y-122767037D01*
X124378706Y-122765969D01*
X124378708Y-122765968D01*
X124495941Y-122750534D01*
X124495947Y-122750534D01*
X124500000Y-122750000D01*
X128500000Y-122750000D01*
X128504053Y-122750534D01*
X128504053Y-122750534D01*
G37*
G36*
X208504053Y-122750534D02*
G01*
X208504059Y-122750534D01*
X208621292Y-122765968D01*
X208621294Y-122765969D01*
X208629410Y-122767037D01*
X208636975Y-122770170D01*
X208636977Y-122770171D01*
X208706620Y-122799018D01*
X208750000Y-122816987D01*
X208853553Y-122896447D01*
X208933013Y-123000000D01*
X208982963Y-123120590D01*
X209000000Y-123250000D01*
X209000000Y-131250000D01*
X208982963Y-131379410D01*
X208933013Y-131500000D01*
X208853553Y-131603553D01*
X208750000Y-131683013D01*
X208742431Y-131686148D01*
X208636977Y-131729829D01*
X208636975Y-131729830D01*
X208629410Y-131732963D01*
X208621294Y-131734031D01*
X208621292Y-131734032D01*
X208504059Y-131749466D01*
X208504053Y-131749466D01*
X208500000Y-131750000D01*
X204500000Y-131750000D01*
X204495947Y-131749466D01*
X204495941Y-131749466D01*
X204378708Y-131734032D01*
X204378706Y-131734031D01*
X204370590Y-131732963D01*
X204363025Y-131729830D01*
X204363023Y-131729829D01*
X204257569Y-131686148D01*
X204250000Y-131683013D01*
X204146447Y-131603553D01*
X204066987Y-131500000D01*
X204017037Y-131379410D01*
X204000000Y-131250000D01*
X204000000Y-123250000D01*
X204017037Y-123120590D01*
X204066987Y-123000000D01*
X204146447Y-122896447D01*
X204250000Y-122816987D01*
X204293380Y-122799018D01*
X204363023Y-122770171D01*
X204363025Y-122770170D01*
X204370590Y-122767037D01*
X204378706Y-122765969D01*
X204378708Y-122765968D01*
X204495941Y-122750534D01*
X204495947Y-122750534D01*
X204500000Y-122750000D01*
X208500000Y-122750000D01*
X208504053Y-122750534D01*
X208504053Y-122750534D01*
G37*
G36*
X152504053Y-122750534D02*
G01*
X152504059Y-122750534D01*
X152621292Y-122765968D01*
X152621294Y-122765969D01*
X152629410Y-122767037D01*
X152636975Y-122770170D01*
X152636977Y-122770171D01*
X152706620Y-122799018D01*
X152750000Y-122816987D01*
X152853553Y-122896447D01*
X152933013Y-123000000D01*
X152982963Y-123120590D01*
X153000000Y-123250000D01*
X153000000Y-131250000D01*
X152982963Y-131379410D01*
X152933013Y-131500000D01*
X152853553Y-131603553D01*
X152750000Y-131683013D01*
X152742431Y-131686148D01*
X152636977Y-131729829D01*
X152636975Y-131729830D01*
X152629410Y-131732963D01*
X152621294Y-131734031D01*
X152621292Y-131734032D01*
X152504059Y-131749466D01*
X152504053Y-131749466D01*
X152500000Y-131750000D01*
X148500000Y-131750000D01*
X148495947Y-131749466D01*
X148495941Y-131749466D01*
X148378708Y-131734032D01*
X148378706Y-131734031D01*
X148370590Y-131732963D01*
X148363025Y-131729830D01*
X148363023Y-131729829D01*
X148257569Y-131686148D01*
X148250000Y-131683013D01*
X148146447Y-131603553D01*
X148066987Y-131500000D01*
X148017037Y-131379410D01*
X148000000Y-131250000D01*
X148000000Y-123250000D01*
X148017037Y-123120590D01*
X148066987Y-123000000D01*
X148146447Y-122896447D01*
X148250000Y-122816987D01*
X148293380Y-122799018D01*
X148363023Y-122770171D01*
X148363025Y-122770170D01*
X148370590Y-122767037D01*
X148378706Y-122765969D01*
X148378708Y-122765968D01*
X148495941Y-122750534D01*
X148495947Y-122750534D01*
X148500000Y-122750000D01*
X152500000Y-122750000D01*
X152504053Y-122750534D01*
X152504053Y-122750534D01*
G37*
G36*
X142807267Y-118220263D02*
G01*
X142959411Y-118250526D01*
X143078137Y-118299704D01*
X143246041Y-118369252D01*
X143246042Y-118369253D01*
X143504004Y-118541617D01*
X143723383Y-118760996D01*
X143838553Y-118933361D01*
X143895748Y-119018959D01*
X144014474Y-119305590D01*
X144075000Y-119609875D01*
X144075000Y-119920125D01*
X144014474Y-120224410D01*
X143895748Y-120511041D01*
X143895747Y-120511042D01*
X143723383Y-120769004D01*
X143504004Y-120988383D01*
X143331639Y-121103553D01*
X143246041Y-121160748D01*
X143078137Y-121230296D01*
X142959411Y-121279474D01*
X142655125Y-121340000D01*
X142344875Y-121340000D01*
X142040589Y-121279474D01*
X141921863Y-121230296D01*
X141753959Y-121160748D01*
X141668361Y-121103553D01*
X141495996Y-120988383D01*
X141276617Y-120769004D01*
X141104253Y-120511042D01*
X141104252Y-120511041D01*
X140985526Y-120224410D01*
X140925000Y-119920125D01*
X140925000Y-119609875D01*
X140985526Y-119305590D01*
X141104252Y-119018959D01*
X141161447Y-118933361D01*
X141276617Y-118760996D01*
X141495996Y-118541617D01*
X141753958Y-118369253D01*
X141753959Y-118369252D01*
X141921863Y-118299704D01*
X142040589Y-118250526D01*
X142192733Y-118220263D01*
X142344875Y-118190000D01*
X142655125Y-118190000D01*
X142807267Y-118220263D01*
X142807267Y-118220263D01*
G37*
G36*
X126807267Y-118220263D02*
G01*
X126959411Y-118250526D01*
X127078137Y-118299704D01*
X127246041Y-118369252D01*
X127246042Y-118369253D01*
X127504004Y-118541617D01*
X127723383Y-118760996D01*
X127838553Y-118933361D01*
X127895748Y-119018959D01*
X128014474Y-119305590D01*
X128075000Y-119609875D01*
X128075000Y-119920125D01*
X128014474Y-120224410D01*
X127895748Y-120511041D01*
X127895747Y-120511042D01*
X127723383Y-120769004D01*
X127504004Y-120988383D01*
X127331639Y-121103553D01*
X127246041Y-121160748D01*
X127078137Y-121230296D01*
X126959411Y-121279474D01*
X126655125Y-121340000D01*
X126344875Y-121340000D01*
X126040589Y-121279474D01*
X125921863Y-121230296D01*
X125753959Y-121160748D01*
X125668361Y-121103553D01*
X125495996Y-120988383D01*
X125276617Y-120769004D01*
X125104253Y-120511042D01*
X125104252Y-120511041D01*
X124985526Y-120224410D01*
X124925000Y-119920125D01*
X124925000Y-119609875D01*
X124985526Y-119305590D01*
X125104252Y-119018959D01*
X125161447Y-118933361D01*
X125276617Y-118760996D01*
X125495996Y-118541617D01*
X125753958Y-118369253D01*
X125753959Y-118369252D01*
X125921863Y-118299704D01*
X126040589Y-118250526D01*
X126192733Y-118220263D01*
X126344875Y-118190000D01*
X126655125Y-118190000D01*
X126807267Y-118220263D01*
X126807267Y-118220263D01*
G37*
G36*
X214807267Y-118220263D02*
G01*
X214959411Y-118250526D01*
X215078137Y-118299704D01*
X215246041Y-118369252D01*
X215246042Y-118369253D01*
X215504004Y-118541617D01*
X215723383Y-118760996D01*
X215838553Y-118933361D01*
X215895748Y-119018959D01*
X216014474Y-119305590D01*
X216075000Y-119609875D01*
X216075000Y-119920125D01*
X216014474Y-120224410D01*
X215895748Y-120511041D01*
X215895747Y-120511042D01*
X215723383Y-120769004D01*
X215504004Y-120988383D01*
X215331639Y-121103553D01*
X215246041Y-121160748D01*
X215078137Y-121230296D01*
X214959411Y-121279474D01*
X214655125Y-121340000D01*
X214344875Y-121340000D01*
X214040589Y-121279474D01*
X213921863Y-121230296D01*
X213753959Y-121160748D01*
X213668361Y-121103553D01*
X213495996Y-120988383D01*
X213276617Y-120769004D01*
X213104253Y-120511042D01*
X213104252Y-120511041D01*
X212985526Y-120224410D01*
X212925000Y-119920125D01*
X212925000Y-119609875D01*
X212985526Y-119305590D01*
X213104252Y-119018959D01*
X213161447Y-118933361D01*
X213276617Y-118760996D01*
X213495996Y-118541617D01*
X213753958Y-118369253D01*
X213753959Y-118369252D01*
X213921863Y-118299704D01*
X214040589Y-118250526D01*
X214192733Y-118220263D01*
X214344875Y-118190000D01*
X214655125Y-118190000D01*
X214807267Y-118220263D01*
X214807267Y-118220263D01*
G37*
G36*
X198807267Y-118220263D02*
G01*
X198959411Y-118250526D01*
X199078137Y-118299704D01*
X199246041Y-118369252D01*
X199246042Y-118369253D01*
X199504004Y-118541617D01*
X199723383Y-118760996D01*
X199838553Y-118933361D01*
X199895748Y-119018959D01*
X200014474Y-119305590D01*
X200075000Y-119609875D01*
X200075000Y-119920125D01*
X200014474Y-120224410D01*
X199895748Y-120511041D01*
X199895747Y-120511042D01*
X199723383Y-120769004D01*
X199504004Y-120988383D01*
X199331639Y-121103553D01*
X199246041Y-121160748D01*
X199078137Y-121230296D01*
X198959411Y-121279474D01*
X198655125Y-121340000D01*
X198344875Y-121340000D01*
X198040589Y-121279474D01*
X197921863Y-121230296D01*
X197753959Y-121160748D01*
X197668361Y-121103553D01*
X197495996Y-120988383D01*
X197276617Y-120769004D01*
X197104253Y-120511042D01*
X197104252Y-120511041D01*
X196985526Y-120224410D01*
X196925000Y-119920125D01*
X196925000Y-119609875D01*
X196985526Y-119305590D01*
X197104252Y-119018959D01*
X197161447Y-118933361D01*
X197276617Y-118760996D01*
X197495996Y-118541617D01*
X197753958Y-118369253D01*
X197753959Y-118369252D01*
X197921863Y-118299704D01*
X198040589Y-118250526D01*
X198192733Y-118220263D01*
X198344875Y-118190000D01*
X198655125Y-118190000D01*
X198807267Y-118220263D01*
X198807267Y-118220263D01*
G37*
G36*
X150807267Y-118220263D02*
G01*
X150959411Y-118250526D01*
X151078137Y-118299704D01*
X151246041Y-118369252D01*
X151246042Y-118369253D01*
X151504004Y-118541617D01*
X151723383Y-118760996D01*
X151838553Y-118933361D01*
X151895748Y-119018959D01*
X152014474Y-119305590D01*
X152075000Y-119609875D01*
X152075000Y-119920125D01*
X152014474Y-120224410D01*
X151895748Y-120511041D01*
X151895747Y-120511042D01*
X151723383Y-120769004D01*
X151504004Y-120988383D01*
X151331639Y-121103553D01*
X151246041Y-121160748D01*
X151078137Y-121230296D01*
X150959411Y-121279474D01*
X150655125Y-121340000D01*
X150344875Y-121340000D01*
X150040589Y-121279474D01*
X149921863Y-121230296D01*
X149753959Y-121160748D01*
X149668361Y-121103553D01*
X149495996Y-120988383D01*
X149276617Y-120769004D01*
X149104253Y-120511042D01*
X149104252Y-120511041D01*
X148985526Y-120224410D01*
X148925000Y-119920125D01*
X148925000Y-119609875D01*
X148985526Y-119305590D01*
X149104252Y-119018959D01*
X149161447Y-118933361D01*
X149276617Y-118760996D01*
X149495996Y-118541617D01*
X149753958Y-118369253D01*
X149753959Y-118369252D01*
X149921863Y-118299704D01*
X150040589Y-118250526D01*
X150192733Y-118220263D01*
X150344875Y-118190000D01*
X150655125Y-118190000D01*
X150807267Y-118220263D01*
X150807267Y-118220263D01*
G37*
G36*
X190807267Y-118220263D02*
G01*
X190959411Y-118250526D01*
X191078137Y-118299704D01*
X191246041Y-118369252D01*
X191246042Y-118369253D01*
X191504004Y-118541617D01*
X191723383Y-118760996D01*
X191838553Y-118933361D01*
X191895748Y-119018959D01*
X192014474Y-119305590D01*
X192075000Y-119609875D01*
X192075000Y-119920125D01*
X192014474Y-120224410D01*
X191895748Y-120511041D01*
X191895747Y-120511042D01*
X191723383Y-120769004D01*
X191504004Y-120988383D01*
X191331639Y-121103553D01*
X191246041Y-121160748D01*
X191078137Y-121230296D01*
X190959411Y-121279474D01*
X190655125Y-121340000D01*
X190344875Y-121340000D01*
X190040589Y-121279474D01*
X189921863Y-121230296D01*
X189753959Y-121160748D01*
X189668361Y-121103553D01*
X189495996Y-120988383D01*
X189276617Y-120769004D01*
X189104253Y-120511042D01*
X189104252Y-120511041D01*
X188985526Y-120224410D01*
X188925000Y-119920125D01*
X188925000Y-119609875D01*
X188985526Y-119305590D01*
X189104252Y-119018959D01*
X189161447Y-118933361D01*
X189276617Y-118760996D01*
X189495996Y-118541617D01*
X189753958Y-118369253D01*
X189753959Y-118369252D01*
X189921863Y-118299704D01*
X190040589Y-118250526D01*
X190192733Y-118220263D01*
X190344875Y-118190000D01*
X190655125Y-118190000D01*
X190807267Y-118220263D01*
X190807267Y-118220263D01*
G37*
G36*
X158807267Y-118220263D02*
G01*
X158959411Y-118250526D01*
X159078137Y-118299704D01*
X159246041Y-118369252D01*
X159246042Y-118369253D01*
X159504004Y-118541617D01*
X159723383Y-118760996D01*
X159838553Y-118933361D01*
X159895748Y-119018959D01*
X160014474Y-119305590D01*
X160075000Y-119609875D01*
X160075000Y-119920125D01*
X160014474Y-120224410D01*
X159895748Y-120511041D01*
X159895747Y-120511042D01*
X159723383Y-120769004D01*
X159504004Y-120988383D01*
X159331639Y-121103553D01*
X159246041Y-121160748D01*
X159078137Y-121230296D01*
X158959411Y-121279474D01*
X158655125Y-121340000D01*
X158344875Y-121340000D01*
X158040589Y-121279474D01*
X157921863Y-121230296D01*
X157753959Y-121160748D01*
X157668361Y-121103553D01*
X157495996Y-120988383D01*
X157276617Y-120769004D01*
X157104253Y-120511042D01*
X157104252Y-120511041D01*
X156985526Y-120224410D01*
X156925000Y-119920125D01*
X156925000Y-119609875D01*
X156985526Y-119305590D01*
X157104252Y-119018959D01*
X157161447Y-118933361D01*
X157276617Y-118760996D01*
X157495996Y-118541617D01*
X157753958Y-118369253D01*
X157753959Y-118369252D01*
X157921863Y-118299704D01*
X158040589Y-118250526D01*
X158192733Y-118220263D01*
X158344875Y-118190000D01*
X158655125Y-118190000D01*
X158807267Y-118220263D01*
X158807267Y-118220263D01*
G37*
G36*
X206807267Y-118220263D02*
G01*
X206959411Y-118250526D01*
X207078137Y-118299704D01*
X207246041Y-118369252D01*
X207246042Y-118369253D01*
X207504004Y-118541617D01*
X207723383Y-118760996D01*
X207838553Y-118933361D01*
X207895748Y-119018959D01*
X208014474Y-119305590D01*
X208075000Y-119609875D01*
X208075000Y-119920125D01*
X208014474Y-120224410D01*
X207895748Y-120511041D01*
X207895747Y-120511042D01*
X207723383Y-120769004D01*
X207504004Y-120988383D01*
X207331639Y-121103553D01*
X207246041Y-121160748D01*
X207078137Y-121230296D01*
X206959411Y-121279474D01*
X206655125Y-121340000D01*
X206344875Y-121340000D01*
X206040589Y-121279474D01*
X205921863Y-121230296D01*
X205753959Y-121160748D01*
X205668361Y-121103553D01*
X205495996Y-120988383D01*
X205276617Y-120769004D01*
X205104253Y-120511042D01*
X205104252Y-120511041D01*
X204985526Y-120224410D01*
X204925000Y-119920125D01*
X204925000Y-119609875D01*
X204985526Y-119305590D01*
X205104252Y-119018959D01*
X205161447Y-118933361D01*
X205276617Y-118760996D01*
X205495996Y-118541617D01*
X205753958Y-118369253D01*
X205753959Y-118369252D01*
X205921863Y-118299704D01*
X206040589Y-118250526D01*
X206192733Y-118220263D01*
X206344875Y-118190000D01*
X206655125Y-118190000D01*
X206807267Y-118220263D01*
X206807267Y-118220263D01*
G37*
G36*
X174807267Y-118220263D02*
G01*
X174959411Y-118250526D01*
X175078137Y-118299704D01*
X175246041Y-118369252D01*
X175246042Y-118369253D01*
X175504004Y-118541617D01*
X175723383Y-118760996D01*
X175838553Y-118933361D01*
X175895748Y-119018959D01*
X176014474Y-119305590D01*
X176075000Y-119609875D01*
X176075000Y-119920125D01*
X176014474Y-120224410D01*
X175895748Y-120511041D01*
X175895747Y-120511042D01*
X175723383Y-120769004D01*
X175504004Y-120988383D01*
X175331639Y-121103553D01*
X175246041Y-121160748D01*
X175078137Y-121230296D01*
X174959411Y-121279474D01*
X174655125Y-121340000D01*
X174344875Y-121340000D01*
X174040589Y-121279474D01*
X173921863Y-121230296D01*
X173753959Y-121160748D01*
X173668361Y-121103553D01*
X173495996Y-120988383D01*
X173276617Y-120769004D01*
X173104253Y-120511042D01*
X173104252Y-120511041D01*
X172985526Y-120224410D01*
X172925000Y-119920125D01*
X172925000Y-119609875D01*
X172985526Y-119305590D01*
X173104252Y-119018959D01*
X173161447Y-118933361D01*
X173276617Y-118760996D01*
X173495996Y-118541617D01*
X173753958Y-118369253D01*
X173753959Y-118369252D01*
X173921863Y-118299704D01*
X174040589Y-118250526D01*
X174192733Y-118220263D01*
X174344875Y-118190000D01*
X174655125Y-118190000D01*
X174807267Y-118220263D01*
X174807267Y-118220263D01*
G37*
G36*
X166807267Y-118220263D02*
G01*
X166959411Y-118250526D01*
X167078137Y-118299704D01*
X167246041Y-118369252D01*
X167246042Y-118369253D01*
X167504004Y-118541617D01*
X167723383Y-118760996D01*
X167838553Y-118933361D01*
X167895748Y-119018959D01*
X168014474Y-119305590D01*
X168075000Y-119609875D01*
X168075000Y-119920125D01*
X168014474Y-120224410D01*
X167895748Y-120511041D01*
X167895747Y-120511042D01*
X167723383Y-120769004D01*
X167504004Y-120988383D01*
X167331639Y-121103553D01*
X167246041Y-121160748D01*
X167078137Y-121230296D01*
X166959411Y-121279474D01*
X166655125Y-121340000D01*
X166344875Y-121340000D01*
X166040589Y-121279474D01*
X165921863Y-121230296D01*
X165753959Y-121160748D01*
X165668361Y-121103553D01*
X165495996Y-120988383D01*
X165276617Y-120769004D01*
X165104253Y-120511042D01*
X165104252Y-120511041D01*
X164985526Y-120224410D01*
X164925000Y-119920125D01*
X164925000Y-119609875D01*
X164985526Y-119305590D01*
X165104252Y-119018959D01*
X165161447Y-118933361D01*
X165276617Y-118760996D01*
X165495996Y-118541617D01*
X165753958Y-118369253D01*
X165753959Y-118369252D01*
X165921863Y-118299704D01*
X166040589Y-118250526D01*
X166192733Y-118220263D01*
X166344875Y-118190000D01*
X166655125Y-118190000D01*
X166807267Y-118220263D01*
X166807267Y-118220263D01*
G37*
G36*
X134807267Y-118220263D02*
G01*
X134959411Y-118250526D01*
X135078137Y-118299704D01*
X135246041Y-118369252D01*
X135246042Y-118369253D01*
X135504004Y-118541617D01*
X135723383Y-118760996D01*
X135838553Y-118933361D01*
X135895748Y-119018959D01*
X136014474Y-119305590D01*
X136075000Y-119609875D01*
X136075000Y-119920125D01*
X136014474Y-120224410D01*
X135895748Y-120511041D01*
X135895747Y-120511042D01*
X135723383Y-120769004D01*
X135504004Y-120988383D01*
X135331639Y-121103553D01*
X135246041Y-121160748D01*
X135078137Y-121230296D01*
X134959411Y-121279474D01*
X134655125Y-121340000D01*
X134344875Y-121340000D01*
X134040589Y-121279474D01*
X133921863Y-121230296D01*
X133753959Y-121160748D01*
X133668361Y-121103553D01*
X133495996Y-120988383D01*
X133276617Y-120769004D01*
X133104253Y-120511042D01*
X133104252Y-120511041D01*
X132985526Y-120224410D01*
X132925000Y-119920125D01*
X132925000Y-119609875D01*
X132985526Y-119305590D01*
X133104252Y-119018959D01*
X133161447Y-118933361D01*
X133276617Y-118760996D01*
X133495996Y-118541617D01*
X133753958Y-118369253D01*
X133753959Y-118369252D01*
X133921863Y-118299704D01*
X134040589Y-118250526D01*
X134192733Y-118220263D01*
X134344875Y-118190000D01*
X134655125Y-118190000D01*
X134807267Y-118220263D01*
X134807267Y-118220263D01*
G37*
G36*
X182807267Y-118220263D02*
G01*
X182959411Y-118250526D01*
X183078137Y-118299704D01*
X183246041Y-118369252D01*
X183246042Y-118369253D01*
X183504004Y-118541617D01*
X183723383Y-118760996D01*
X183838553Y-118933361D01*
X183895748Y-119018959D01*
X184014474Y-119305590D01*
X184075000Y-119609875D01*
X184075000Y-119920125D01*
X184014474Y-120224410D01*
X183895748Y-120511041D01*
X183895747Y-120511042D01*
X183723383Y-120769004D01*
X183504004Y-120988383D01*
X183331639Y-121103553D01*
X183246041Y-121160748D01*
X183078137Y-121230296D01*
X182959411Y-121279474D01*
X182655125Y-121340000D01*
X182344875Y-121340000D01*
X182040589Y-121279474D01*
X181921863Y-121230296D01*
X181753959Y-121160748D01*
X181668361Y-121103553D01*
X181495996Y-120988383D01*
X181276617Y-120769004D01*
X181104253Y-120511042D01*
X181104252Y-120511041D01*
X180985526Y-120224410D01*
X180925000Y-119920125D01*
X180925000Y-119609875D01*
X180985526Y-119305590D01*
X181104252Y-119018959D01*
X181161447Y-118933361D01*
X181276617Y-118760996D01*
X181495996Y-118541617D01*
X181753958Y-118369253D01*
X181753959Y-118369252D01*
X181921863Y-118299704D01*
X182040589Y-118250526D01*
X182192733Y-118220263D01*
X182344875Y-118190000D01*
X182655125Y-118190000D01*
X182807267Y-118220263D01*
X182807267Y-118220263D01*
G37*
G36*
X191096474Y-112288684D02*
G01*
X191314474Y-112378983D01*
X191468623Y-112442833D01*
X191803548Y-112666623D01*
X192088377Y-112951452D01*
X192312167Y-113286377D01*
X192312167Y-113286378D01*
X192466316Y-113658526D01*
X192544900Y-114053594D01*
X192544900Y-114456406D01*
X192466316Y-114851474D01*
X192376017Y-115069474D01*
X192312167Y-115223623D01*
X192088377Y-115558548D01*
X191803548Y-115843377D01*
X191468623Y-116067167D01*
X191314474Y-116131017D01*
X191096474Y-116221316D01*
X190701406Y-116299900D01*
X190298594Y-116299900D01*
X189903526Y-116221316D01*
X189685526Y-116131017D01*
X189531377Y-116067167D01*
X189196452Y-115843377D01*
X188911623Y-115558548D01*
X188687833Y-115223623D01*
X188623983Y-115069474D01*
X188533684Y-114851474D01*
X188455100Y-114456406D01*
X188455100Y-114053594D01*
X188533684Y-113658526D01*
X188687833Y-113286378D01*
X188687833Y-113286377D01*
X188911623Y-112951452D01*
X189196452Y-112666623D01*
X189531377Y-112442833D01*
X189685526Y-112378983D01*
X189903526Y-112288684D01*
X190298594Y-112210100D01*
X190701406Y-112210100D01*
X191096474Y-112288684D01*
X191096474Y-112288684D01*
G37*
G36*
X127096474Y-112288684D02*
G01*
X127314474Y-112378983D01*
X127468623Y-112442833D01*
X127803548Y-112666623D01*
X128088377Y-112951452D01*
X128312167Y-113286377D01*
X128312167Y-113286378D01*
X128466316Y-113658526D01*
X128544900Y-114053594D01*
X128544900Y-114456406D01*
X128466316Y-114851474D01*
X128376017Y-115069474D01*
X128312167Y-115223623D01*
X128088377Y-115558548D01*
X127803548Y-115843377D01*
X127468623Y-116067167D01*
X127314474Y-116131017D01*
X127096474Y-116221316D01*
X126701406Y-116299900D01*
X126298594Y-116299900D01*
X125903526Y-116221316D01*
X125685526Y-116131017D01*
X125531377Y-116067167D01*
X125196452Y-115843377D01*
X124911623Y-115558548D01*
X124687833Y-115223623D01*
X124623983Y-115069474D01*
X124533684Y-114851474D01*
X124455100Y-114456406D01*
X124455100Y-114053594D01*
X124533684Y-113658526D01*
X124687833Y-113286378D01*
X124687833Y-113286377D01*
X124911623Y-112951452D01*
X125196452Y-112666623D01*
X125531377Y-112442833D01*
X125685526Y-112378983D01*
X125903526Y-112288684D01*
X126298594Y-112210100D01*
X126701406Y-112210100D01*
X127096474Y-112288684D01*
X127096474Y-112288684D01*
G37*
G36*
X135096474Y-112288684D02*
G01*
X135314474Y-112378983D01*
X135468623Y-112442833D01*
X135803548Y-112666623D01*
X136088377Y-112951452D01*
X136312167Y-113286377D01*
X136312167Y-113286378D01*
X136466316Y-113658526D01*
X136544900Y-114053594D01*
X136544900Y-114456406D01*
X136466316Y-114851474D01*
X136376017Y-115069474D01*
X136312167Y-115223623D01*
X136088377Y-115558548D01*
X135803548Y-115843377D01*
X135468623Y-116067167D01*
X135314474Y-116131017D01*
X135096474Y-116221316D01*
X134701406Y-116299900D01*
X134298594Y-116299900D01*
X133903526Y-116221316D01*
X133685526Y-116131017D01*
X133531377Y-116067167D01*
X133196452Y-115843377D01*
X132911623Y-115558548D01*
X132687833Y-115223623D01*
X132623983Y-115069474D01*
X132533684Y-114851474D01*
X132455100Y-114456406D01*
X132455100Y-114053594D01*
X132533684Y-113658526D01*
X132687833Y-113286378D01*
X132687833Y-113286377D01*
X132911623Y-112951452D01*
X133196452Y-112666623D01*
X133531377Y-112442833D01*
X133685526Y-112378983D01*
X133903526Y-112288684D01*
X134298594Y-112210100D01*
X134701406Y-112210100D01*
X135096474Y-112288684D01*
X135096474Y-112288684D01*
G37*
G36*
X143096474Y-112288684D02*
G01*
X143314474Y-112378983D01*
X143468623Y-112442833D01*
X143803548Y-112666623D01*
X144088377Y-112951452D01*
X144312167Y-113286377D01*
X144312167Y-113286378D01*
X144466316Y-113658526D01*
X144544900Y-114053594D01*
X144544900Y-114456406D01*
X144466316Y-114851474D01*
X144376017Y-115069474D01*
X144312167Y-115223623D01*
X144088377Y-115558548D01*
X143803548Y-115843377D01*
X143468623Y-116067167D01*
X143314474Y-116131017D01*
X143096474Y-116221316D01*
X142701406Y-116299900D01*
X142298594Y-116299900D01*
X141903526Y-116221316D01*
X141685526Y-116131017D01*
X141531377Y-116067167D01*
X141196452Y-115843377D01*
X140911623Y-115558548D01*
X140687833Y-115223623D01*
X140623983Y-115069474D01*
X140533684Y-114851474D01*
X140455100Y-114456406D01*
X140455100Y-114053594D01*
X140533684Y-113658526D01*
X140687833Y-113286378D01*
X140687833Y-113286377D01*
X140911623Y-112951452D01*
X141196452Y-112666623D01*
X141531377Y-112442833D01*
X141685526Y-112378983D01*
X141903526Y-112288684D01*
X142298594Y-112210100D01*
X142701406Y-112210100D01*
X143096474Y-112288684D01*
X143096474Y-112288684D01*
G37*
G36*
X151096474Y-112288684D02*
G01*
X151314474Y-112378983D01*
X151468623Y-112442833D01*
X151803548Y-112666623D01*
X152088377Y-112951452D01*
X152312167Y-113286377D01*
X152312167Y-113286378D01*
X152466316Y-113658526D01*
X152544900Y-114053594D01*
X152544900Y-114456406D01*
X152466316Y-114851474D01*
X152376017Y-115069474D01*
X152312167Y-115223623D01*
X152088377Y-115558548D01*
X151803548Y-115843377D01*
X151468623Y-116067167D01*
X151314474Y-116131017D01*
X151096474Y-116221316D01*
X150701406Y-116299900D01*
X150298594Y-116299900D01*
X149903526Y-116221316D01*
X149685526Y-116131017D01*
X149531377Y-116067167D01*
X149196452Y-115843377D01*
X148911623Y-115558548D01*
X148687833Y-115223623D01*
X148623983Y-115069474D01*
X148533684Y-114851474D01*
X148455100Y-114456406D01*
X148455100Y-114053594D01*
X148533684Y-113658526D01*
X148687833Y-113286378D01*
X148687833Y-113286377D01*
X148911623Y-112951452D01*
X149196452Y-112666623D01*
X149531377Y-112442833D01*
X149685526Y-112378983D01*
X149903526Y-112288684D01*
X150298594Y-112210100D01*
X150701406Y-112210100D01*
X151096474Y-112288684D01*
X151096474Y-112288684D01*
G37*
G36*
X159096474Y-112288684D02*
G01*
X159314474Y-112378983D01*
X159468623Y-112442833D01*
X159803548Y-112666623D01*
X160088377Y-112951452D01*
X160312167Y-113286377D01*
X160312167Y-113286378D01*
X160466316Y-113658526D01*
X160544900Y-114053594D01*
X160544900Y-114456406D01*
X160466316Y-114851474D01*
X160376017Y-115069474D01*
X160312167Y-115223623D01*
X160088377Y-115558548D01*
X159803548Y-115843377D01*
X159468623Y-116067167D01*
X159314474Y-116131017D01*
X159096474Y-116221316D01*
X158701406Y-116299900D01*
X158298594Y-116299900D01*
X157903526Y-116221316D01*
X157685526Y-116131017D01*
X157531377Y-116067167D01*
X157196452Y-115843377D01*
X156911623Y-115558548D01*
X156687833Y-115223623D01*
X156623983Y-115069474D01*
X156533684Y-114851474D01*
X156455100Y-114456406D01*
X156455100Y-114053594D01*
X156533684Y-113658526D01*
X156687833Y-113286378D01*
X156687833Y-113286377D01*
X156911623Y-112951452D01*
X157196452Y-112666623D01*
X157531377Y-112442833D01*
X157685526Y-112378983D01*
X157903526Y-112288684D01*
X158298594Y-112210100D01*
X158701406Y-112210100D01*
X159096474Y-112288684D01*
X159096474Y-112288684D01*
G37*
G36*
X175096474Y-112288684D02*
G01*
X175314474Y-112378983D01*
X175468623Y-112442833D01*
X175803548Y-112666623D01*
X176088377Y-112951452D01*
X176312167Y-113286377D01*
X176312167Y-113286378D01*
X176466316Y-113658526D01*
X176544900Y-114053594D01*
X176544900Y-114456406D01*
X176466316Y-114851474D01*
X176376017Y-115069474D01*
X176312167Y-115223623D01*
X176088377Y-115558548D01*
X175803548Y-115843377D01*
X175468623Y-116067167D01*
X175314474Y-116131017D01*
X175096474Y-116221316D01*
X174701406Y-116299900D01*
X174298594Y-116299900D01*
X173903526Y-116221316D01*
X173685526Y-116131017D01*
X173531377Y-116067167D01*
X173196452Y-115843377D01*
X172911623Y-115558548D01*
X172687833Y-115223623D01*
X172623983Y-115069474D01*
X172533684Y-114851474D01*
X172455100Y-114456406D01*
X172455100Y-114053594D01*
X172533684Y-113658526D01*
X172687833Y-113286378D01*
X172687833Y-113286377D01*
X172911623Y-112951452D01*
X173196452Y-112666623D01*
X173531377Y-112442833D01*
X173685526Y-112378983D01*
X173903526Y-112288684D01*
X174298594Y-112210100D01*
X174701406Y-112210100D01*
X175096474Y-112288684D01*
X175096474Y-112288684D01*
G37*
G36*
X183096474Y-112288684D02*
G01*
X183314474Y-112378983D01*
X183468623Y-112442833D01*
X183803548Y-112666623D01*
X184088377Y-112951452D01*
X184312167Y-113286377D01*
X184312167Y-113286378D01*
X184466316Y-113658526D01*
X184544900Y-114053594D01*
X184544900Y-114456406D01*
X184466316Y-114851474D01*
X184376017Y-115069474D01*
X184312167Y-115223623D01*
X184088377Y-115558548D01*
X183803548Y-115843377D01*
X183468623Y-116067167D01*
X183314474Y-116131017D01*
X183096474Y-116221316D01*
X182701406Y-116299900D01*
X182298594Y-116299900D01*
X181903526Y-116221316D01*
X181685526Y-116131017D01*
X181531377Y-116067167D01*
X181196452Y-115843377D01*
X180911623Y-115558548D01*
X180687833Y-115223623D01*
X180623983Y-115069474D01*
X180533684Y-114851474D01*
X180455100Y-114456406D01*
X180455100Y-114053594D01*
X180533684Y-113658526D01*
X180687833Y-113286378D01*
X180687833Y-113286377D01*
X180911623Y-112951452D01*
X181196452Y-112666623D01*
X181531377Y-112442833D01*
X181685526Y-112378983D01*
X181903526Y-112288684D01*
X182298594Y-112210100D01*
X182701406Y-112210100D01*
X183096474Y-112288684D01*
X183096474Y-112288684D01*
G37*
G36*
X207096474Y-112288684D02*
G01*
X207314474Y-112378983D01*
X207468623Y-112442833D01*
X207803548Y-112666623D01*
X208088377Y-112951452D01*
X208312167Y-113286377D01*
X208312167Y-113286378D01*
X208466316Y-113658526D01*
X208544900Y-114053594D01*
X208544900Y-114456406D01*
X208466316Y-114851474D01*
X208376017Y-115069474D01*
X208312167Y-115223623D01*
X208088377Y-115558548D01*
X207803548Y-115843377D01*
X207468623Y-116067167D01*
X207314474Y-116131017D01*
X207096474Y-116221316D01*
X206701406Y-116299900D01*
X206298594Y-116299900D01*
X205903526Y-116221316D01*
X205685526Y-116131017D01*
X205531377Y-116067167D01*
X205196452Y-115843377D01*
X204911623Y-115558548D01*
X204687833Y-115223623D01*
X204623983Y-115069474D01*
X204533684Y-114851474D01*
X204455100Y-114456406D01*
X204455100Y-114053594D01*
X204533684Y-113658526D01*
X204687833Y-113286378D01*
X204687833Y-113286377D01*
X204911623Y-112951452D01*
X205196452Y-112666623D01*
X205531377Y-112442833D01*
X205685526Y-112378983D01*
X205903526Y-112288684D01*
X206298594Y-112210100D01*
X206701406Y-112210100D01*
X207096474Y-112288684D01*
X207096474Y-112288684D01*
G37*
G36*
X215096474Y-112288684D02*
G01*
X215314474Y-112378983D01*
X215468623Y-112442833D01*
X215803548Y-112666623D01*
X216088377Y-112951452D01*
X216312167Y-113286377D01*
X216312167Y-113286378D01*
X216466316Y-113658526D01*
X216544900Y-114053594D01*
X216544900Y-114456406D01*
X216466316Y-114851474D01*
X216376017Y-115069474D01*
X216312167Y-115223623D01*
X216088377Y-115558548D01*
X215803548Y-115843377D01*
X215468623Y-116067167D01*
X215314474Y-116131017D01*
X215096474Y-116221316D01*
X214701406Y-116299900D01*
X214298594Y-116299900D01*
X213903526Y-116221316D01*
X213685526Y-116131017D01*
X213531377Y-116067167D01*
X213196452Y-115843377D01*
X212911623Y-115558548D01*
X212687833Y-115223623D01*
X212623983Y-115069474D01*
X212533684Y-114851474D01*
X212455100Y-114456406D01*
X212455100Y-114053594D01*
X212533684Y-113658526D01*
X212687833Y-113286378D01*
X212687833Y-113286377D01*
X212911623Y-112951452D01*
X213196452Y-112666623D01*
X213531377Y-112442833D01*
X213685526Y-112378983D01*
X213903526Y-112288684D01*
X214298594Y-112210100D01*
X214701406Y-112210100D01*
X215096474Y-112288684D01*
X215096474Y-112288684D01*
G37*
G36*
X199096474Y-112288684D02*
G01*
X199314474Y-112378983D01*
X199468623Y-112442833D01*
X199803548Y-112666623D01*
X200088377Y-112951452D01*
X200312167Y-113286377D01*
X200312167Y-113286378D01*
X200466316Y-113658526D01*
X200544900Y-114053594D01*
X200544900Y-114456406D01*
X200466316Y-114851474D01*
X200376017Y-115069474D01*
X200312167Y-115223623D01*
X200088377Y-115558548D01*
X199803548Y-115843377D01*
X199468623Y-116067167D01*
X199314474Y-116131017D01*
X199096474Y-116221316D01*
X198701406Y-116299900D01*
X198298594Y-116299900D01*
X197903526Y-116221316D01*
X197685526Y-116131017D01*
X197531377Y-116067167D01*
X197196452Y-115843377D01*
X196911623Y-115558548D01*
X196687833Y-115223623D01*
X196623983Y-115069474D01*
X196533684Y-114851474D01*
X196455100Y-114456406D01*
X196455100Y-114053594D01*
X196533684Y-113658526D01*
X196687833Y-113286378D01*
X196687833Y-113286377D01*
X196911623Y-112951452D01*
X197196452Y-112666623D01*
X197531377Y-112442833D01*
X197685526Y-112378983D01*
X197903526Y-112288684D01*
X198298594Y-112210100D01*
X198701406Y-112210100D01*
X199096474Y-112288684D01*
X199096474Y-112288684D01*
G37*
G36*
X167096474Y-112288684D02*
G01*
X167314474Y-112378983D01*
X167468623Y-112442833D01*
X167803548Y-112666623D01*
X168088377Y-112951452D01*
X168312167Y-113286377D01*
X168312167Y-113286378D01*
X168466316Y-113658526D01*
X168544900Y-114053594D01*
X168544900Y-114456406D01*
X168466316Y-114851474D01*
X168376017Y-115069474D01*
X168312167Y-115223623D01*
X168088377Y-115558548D01*
X167803548Y-115843377D01*
X167468623Y-116067167D01*
X167314474Y-116131017D01*
X167096474Y-116221316D01*
X166701406Y-116299900D01*
X166298594Y-116299900D01*
X165903526Y-116221316D01*
X165685526Y-116131017D01*
X165531377Y-116067167D01*
X165196452Y-115843377D01*
X164911623Y-115558548D01*
X164687833Y-115223623D01*
X164623983Y-115069474D01*
X164533684Y-114851474D01*
X164455100Y-114456406D01*
X164455100Y-114053594D01*
X164533684Y-113658526D01*
X164687833Y-113286378D01*
X164687833Y-113286377D01*
X164911623Y-112951452D01*
X165196452Y-112666623D01*
X165531377Y-112442833D01*
X165685526Y-112378983D01*
X165903526Y-112288684D01*
X166298594Y-112210100D01*
X166701406Y-112210100D01*
X167096474Y-112288684D01*
X167096474Y-112288684D01*
G37*
G36*
X208504053Y-102000534D02*
G01*
X208504059Y-102000534D01*
X208621292Y-102015968D01*
X208621294Y-102015969D01*
X208629410Y-102017037D01*
X208636975Y-102020170D01*
X208636977Y-102020171D01*
X208706620Y-102049018D01*
X208750000Y-102066987D01*
X208853553Y-102146447D01*
X208933013Y-102250000D01*
X208982963Y-102370590D01*
X209000000Y-102500000D01*
X209000000Y-110500000D01*
X208982963Y-110629410D01*
X208933013Y-110750000D01*
X208853553Y-110853553D01*
X208750000Y-110933013D01*
X208742431Y-110936148D01*
X208636977Y-110979829D01*
X208636975Y-110979830D01*
X208629410Y-110982963D01*
X208621294Y-110984031D01*
X208621292Y-110984032D01*
X208504059Y-110999466D01*
X208504053Y-110999466D01*
X208500000Y-111000000D01*
X204500000Y-111000000D01*
X204495947Y-110999466D01*
X204495941Y-110999466D01*
X204378708Y-110984032D01*
X204378706Y-110984031D01*
X204370590Y-110982963D01*
X204363025Y-110979830D01*
X204363023Y-110979829D01*
X204257569Y-110936148D01*
X204250000Y-110933013D01*
X204146447Y-110853553D01*
X204066987Y-110750000D01*
X204017037Y-110629410D01*
X204000000Y-110500000D01*
X204000000Y-102500000D01*
X204017037Y-102370590D01*
X204066987Y-102250000D01*
X204146447Y-102146447D01*
X204250000Y-102066987D01*
X204293380Y-102049018D01*
X204363023Y-102020171D01*
X204363025Y-102020170D01*
X204370590Y-102017037D01*
X204378706Y-102015969D01*
X204378708Y-102015968D01*
X204495941Y-102000534D01*
X204495947Y-102000534D01*
X204500000Y-102000000D01*
X208500000Y-102000000D01*
X208504053Y-102000534D01*
X208504053Y-102000534D01*
G37*
G36*
X176504053Y-102000534D02*
G01*
X176504059Y-102000534D01*
X176621292Y-102015968D01*
X176621294Y-102015969D01*
X176629410Y-102017037D01*
X176636975Y-102020170D01*
X176636977Y-102020171D01*
X176706620Y-102049018D01*
X176750000Y-102066987D01*
X176853553Y-102146447D01*
X176933013Y-102250000D01*
X176982963Y-102370590D01*
X177000000Y-102500000D01*
X177000000Y-110500000D01*
X176982963Y-110629410D01*
X176933013Y-110750000D01*
X176853553Y-110853553D01*
X176750000Y-110933013D01*
X176742431Y-110936148D01*
X176636977Y-110979829D01*
X176636975Y-110979830D01*
X176629410Y-110982963D01*
X176621294Y-110984031D01*
X176621292Y-110984032D01*
X176504059Y-110999466D01*
X176504053Y-110999466D01*
X176500000Y-111000000D01*
X172500000Y-111000000D01*
X172495947Y-110999466D01*
X172495941Y-110999466D01*
X172378708Y-110984032D01*
X172378706Y-110984031D01*
X172370590Y-110982963D01*
X172363025Y-110979830D01*
X172363023Y-110979829D01*
X172257569Y-110936148D01*
X172250000Y-110933013D01*
X172146447Y-110853553D01*
X172066987Y-110750000D01*
X172017037Y-110629410D01*
X172000000Y-110500000D01*
X172000000Y-102500000D01*
X172017037Y-102370590D01*
X172066987Y-102250000D01*
X172146447Y-102146447D01*
X172250000Y-102066987D01*
X172293380Y-102049018D01*
X172363023Y-102020171D01*
X172363025Y-102020170D01*
X172370590Y-102017037D01*
X172378706Y-102015969D01*
X172378708Y-102015968D01*
X172495941Y-102000534D01*
X172495947Y-102000534D01*
X172500000Y-102000000D01*
X176500000Y-102000000D01*
X176504053Y-102000534D01*
X176504053Y-102000534D01*
G37*
G36*
X184504053Y-102000534D02*
G01*
X184504059Y-102000534D01*
X184621292Y-102015968D01*
X184621294Y-102015969D01*
X184629410Y-102017037D01*
X184636975Y-102020170D01*
X184636977Y-102020171D01*
X184706620Y-102049018D01*
X184750000Y-102066987D01*
X184853553Y-102146447D01*
X184933013Y-102250000D01*
X184982963Y-102370590D01*
X185000000Y-102500000D01*
X185000000Y-110500000D01*
X184982963Y-110629410D01*
X184933013Y-110750000D01*
X184853553Y-110853553D01*
X184750000Y-110933013D01*
X184742431Y-110936148D01*
X184636977Y-110979829D01*
X184636975Y-110979830D01*
X184629410Y-110982963D01*
X184621294Y-110984031D01*
X184621292Y-110984032D01*
X184504059Y-110999466D01*
X184504053Y-110999466D01*
X184500000Y-111000000D01*
X180500000Y-111000000D01*
X180495947Y-110999466D01*
X180495941Y-110999466D01*
X180378708Y-110984032D01*
X180378706Y-110984031D01*
X180370590Y-110982963D01*
X180363025Y-110979830D01*
X180363023Y-110979829D01*
X180257569Y-110936148D01*
X180250000Y-110933013D01*
X180146447Y-110853553D01*
X180066987Y-110750000D01*
X180017037Y-110629410D01*
X180000000Y-110500000D01*
X180000000Y-102500000D01*
X180017037Y-102370590D01*
X180066987Y-102250000D01*
X180146447Y-102146447D01*
X180250000Y-102066987D01*
X180293380Y-102049018D01*
X180363023Y-102020171D01*
X180363025Y-102020170D01*
X180370590Y-102017037D01*
X180378706Y-102015969D01*
X180378708Y-102015968D01*
X180495941Y-102000534D01*
X180495947Y-102000534D01*
X180500000Y-102000000D01*
X184500000Y-102000000D01*
X184504053Y-102000534D01*
X184504053Y-102000534D01*
G37*
G36*
X192504053Y-102000534D02*
G01*
X192504059Y-102000534D01*
X192621292Y-102015968D01*
X192621294Y-102015969D01*
X192629410Y-102017037D01*
X192636975Y-102020170D01*
X192636977Y-102020171D01*
X192706620Y-102049018D01*
X192750000Y-102066987D01*
X192853553Y-102146447D01*
X192933013Y-102250000D01*
X192982963Y-102370590D01*
X193000000Y-102500000D01*
X193000000Y-110500000D01*
X192982963Y-110629410D01*
X192933013Y-110750000D01*
X192853553Y-110853553D01*
X192750000Y-110933013D01*
X192742431Y-110936148D01*
X192636977Y-110979829D01*
X192636975Y-110979830D01*
X192629410Y-110982963D01*
X192621294Y-110984031D01*
X192621292Y-110984032D01*
X192504059Y-110999466D01*
X192504053Y-110999466D01*
X192500000Y-111000000D01*
X188500000Y-111000000D01*
X188495947Y-110999466D01*
X188495941Y-110999466D01*
X188378708Y-110984032D01*
X188378706Y-110984031D01*
X188370590Y-110982963D01*
X188363025Y-110979830D01*
X188363023Y-110979829D01*
X188257569Y-110936148D01*
X188250000Y-110933013D01*
X188146447Y-110853553D01*
X188066987Y-110750000D01*
X188017037Y-110629410D01*
X188000000Y-110500000D01*
X188000000Y-102500000D01*
X188017037Y-102370590D01*
X188066987Y-102250000D01*
X188146447Y-102146447D01*
X188250000Y-102066987D01*
X188293380Y-102049018D01*
X188363023Y-102020171D01*
X188363025Y-102020170D01*
X188370590Y-102017037D01*
X188378706Y-102015969D01*
X188378708Y-102015968D01*
X188495941Y-102000534D01*
X188495947Y-102000534D01*
X188500000Y-102000000D01*
X192500000Y-102000000D01*
X192504053Y-102000534D01*
X192504053Y-102000534D01*
G37*
G36*
X152504053Y-102000534D02*
G01*
X152504059Y-102000534D01*
X152621292Y-102015968D01*
X152621294Y-102015969D01*
X152629410Y-102017037D01*
X152636975Y-102020170D01*
X152636977Y-102020171D01*
X152706620Y-102049018D01*
X152750000Y-102066987D01*
X152853553Y-102146447D01*
X152933013Y-102250000D01*
X152982963Y-102370590D01*
X153000000Y-102500000D01*
X153000000Y-110500000D01*
X152982963Y-110629410D01*
X152933013Y-110750000D01*
X152853553Y-110853553D01*
X152750000Y-110933013D01*
X152742431Y-110936148D01*
X152636977Y-110979829D01*
X152636975Y-110979830D01*
X152629410Y-110982963D01*
X152621294Y-110984031D01*
X152621292Y-110984032D01*
X152504059Y-110999466D01*
X152504053Y-110999466D01*
X152500000Y-111000000D01*
X148500000Y-111000000D01*
X148495947Y-110999466D01*
X148495941Y-110999466D01*
X148378708Y-110984032D01*
X148378706Y-110984031D01*
X148370590Y-110982963D01*
X148363025Y-110979830D01*
X148363023Y-110979829D01*
X148257569Y-110936148D01*
X148250000Y-110933013D01*
X148146447Y-110853553D01*
X148066987Y-110750000D01*
X148017037Y-110629410D01*
X148000000Y-110500000D01*
X148000000Y-102500000D01*
X148017037Y-102370590D01*
X148066987Y-102250000D01*
X148146447Y-102146447D01*
X148250000Y-102066987D01*
X148293380Y-102049018D01*
X148363023Y-102020171D01*
X148363025Y-102020170D01*
X148370590Y-102017037D01*
X148378706Y-102015969D01*
X148378708Y-102015968D01*
X148495941Y-102000534D01*
X148495947Y-102000534D01*
X148500000Y-102000000D01*
X152500000Y-102000000D01*
X152504053Y-102000534D01*
X152504053Y-102000534D01*
G37*
G36*
X200504053Y-102000534D02*
G01*
X200504059Y-102000534D01*
X200621292Y-102015968D01*
X200621294Y-102015969D01*
X200629410Y-102017037D01*
X200636975Y-102020170D01*
X200636977Y-102020171D01*
X200706620Y-102049018D01*
X200750000Y-102066987D01*
X200853553Y-102146447D01*
X200933013Y-102250000D01*
X200982963Y-102370590D01*
X201000000Y-102500000D01*
X201000000Y-110500000D01*
X200982963Y-110629410D01*
X200933013Y-110750000D01*
X200853553Y-110853553D01*
X200750000Y-110933013D01*
X200742431Y-110936148D01*
X200636977Y-110979829D01*
X200636975Y-110979830D01*
X200629410Y-110982963D01*
X200621294Y-110984031D01*
X200621292Y-110984032D01*
X200504059Y-110999466D01*
X200504053Y-110999466D01*
X200500000Y-111000000D01*
X196500000Y-111000000D01*
X196495947Y-110999466D01*
X196495941Y-110999466D01*
X196378708Y-110984032D01*
X196378706Y-110984031D01*
X196370590Y-110982963D01*
X196363025Y-110979830D01*
X196363023Y-110979829D01*
X196257569Y-110936148D01*
X196250000Y-110933013D01*
X196146447Y-110853553D01*
X196066987Y-110750000D01*
X196017037Y-110629410D01*
X196000000Y-110500000D01*
X196000000Y-102500000D01*
X196017037Y-102370590D01*
X196066987Y-102250000D01*
X196146447Y-102146447D01*
X196250000Y-102066987D01*
X196293380Y-102049018D01*
X196363023Y-102020171D01*
X196363025Y-102020170D01*
X196370590Y-102017037D01*
X196378706Y-102015969D01*
X196378708Y-102015968D01*
X196495941Y-102000534D01*
X196495947Y-102000534D01*
X196500000Y-102000000D01*
X200500000Y-102000000D01*
X200504053Y-102000534D01*
X200504053Y-102000534D01*
G37*
G36*
X160504053Y-102000534D02*
G01*
X160504059Y-102000534D01*
X160621292Y-102015968D01*
X160621294Y-102015969D01*
X160629410Y-102017037D01*
X160636975Y-102020170D01*
X160636977Y-102020171D01*
X160706620Y-102049018D01*
X160750000Y-102066987D01*
X160853553Y-102146447D01*
X160933013Y-102250000D01*
X160982963Y-102370590D01*
X161000000Y-102500000D01*
X161000000Y-110500000D01*
X160982963Y-110629410D01*
X160933013Y-110750000D01*
X160853553Y-110853553D01*
X160750000Y-110933013D01*
X160742431Y-110936148D01*
X160636977Y-110979829D01*
X160636975Y-110979830D01*
X160629410Y-110982963D01*
X160621294Y-110984031D01*
X160621292Y-110984032D01*
X160504059Y-110999466D01*
X160504053Y-110999466D01*
X160500000Y-111000000D01*
X156500000Y-111000000D01*
X156495947Y-110999466D01*
X156495941Y-110999466D01*
X156378708Y-110984032D01*
X156378706Y-110984031D01*
X156370590Y-110982963D01*
X156363025Y-110979830D01*
X156363023Y-110979829D01*
X156257569Y-110936148D01*
X156250000Y-110933013D01*
X156146447Y-110853553D01*
X156066987Y-110750000D01*
X156017037Y-110629410D01*
X156000000Y-110500000D01*
X156000000Y-102500000D01*
X156017037Y-102370590D01*
X156066987Y-102250000D01*
X156146447Y-102146447D01*
X156250000Y-102066987D01*
X156293380Y-102049018D01*
X156363023Y-102020171D01*
X156363025Y-102020170D01*
X156370590Y-102017037D01*
X156378706Y-102015969D01*
X156378708Y-102015968D01*
X156495941Y-102000534D01*
X156495947Y-102000534D01*
X156500000Y-102000000D01*
X160500000Y-102000000D01*
X160504053Y-102000534D01*
X160504053Y-102000534D01*
G37*
G36*
X168504053Y-102000534D02*
G01*
X168504059Y-102000534D01*
X168621292Y-102015968D01*
X168621294Y-102015969D01*
X168629410Y-102017037D01*
X168636975Y-102020170D01*
X168636977Y-102020171D01*
X168706620Y-102049018D01*
X168750000Y-102066987D01*
X168853553Y-102146447D01*
X168933013Y-102250000D01*
X168982963Y-102370590D01*
X169000000Y-102500000D01*
X169000000Y-110500000D01*
X168982963Y-110629410D01*
X168933013Y-110750000D01*
X168853553Y-110853553D01*
X168750000Y-110933013D01*
X168742431Y-110936148D01*
X168636977Y-110979829D01*
X168636975Y-110979830D01*
X168629410Y-110982963D01*
X168621294Y-110984031D01*
X168621292Y-110984032D01*
X168504059Y-110999466D01*
X168504053Y-110999466D01*
X168500000Y-111000000D01*
X164500000Y-111000000D01*
X164495947Y-110999466D01*
X164495941Y-110999466D01*
X164378708Y-110984032D01*
X164378706Y-110984031D01*
X164370590Y-110982963D01*
X164363025Y-110979830D01*
X164363023Y-110979829D01*
X164257569Y-110936148D01*
X164250000Y-110933013D01*
X164146447Y-110853553D01*
X164066987Y-110750000D01*
X164017037Y-110629410D01*
X164000000Y-110500000D01*
X164000000Y-102500000D01*
X164017037Y-102370590D01*
X164066987Y-102250000D01*
X164146447Y-102146447D01*
X164250000Y-102066987D01*
X164293380Y-102049018D01*
X164363023Y-102020171D01*
X164363025Y-102020170D01*
X164370590Y-102017037D01*
X164378706Y-102015969D01*
X164378708Y-102015968D01*
X164495941Y-102000534D01*
X164495947Y-102000534D01*
X164500000Y-102000000D01*
X168500000Y-102000000D01*
X168504053Y-102000534D01*
X168504053Y-102000534D01*
G37*
G36*
X136504053Y-102000534D02*
G01*
X136504059Y-102000534D01*
X136621292Y-102015968D01*
X136621294Y-102015969D01*
X136629410Y-102017037D01*
X136636975Y-102020170D01*
X136636977Y-102020171D01*
X136706620Y-102049018D01*
X136750000Y-102066987D01*
X136853553Y-102146447D01*
X136933013Y-102250000D01*
X136982963Y-102370590D01*
X137000000Y-102500000D01*
X137000000Y-110500000D01*
X136982963Y-110629410D01*
X136933013Y-110750000D01*
X136853553Y-110853553D01*
X136750000Y-110933013D01*
X136742431Y-110936148D01*
X136636977Y-110979829D01*
X136636975Y-110979830D01*
X136629410Y-110982963D01*
X136621294Y-110984031D01*
X136621292Y-110984032D01*
X136504059Y-110999466D01*
X136504053Y-110999466D01*
X136500000Y-111000000D01*
X132500000Y-111000000D01*
X132495947Y-110999466D01*
X132495941Y-110999466D01*
X132378708Y-110984032D01*
X132378706Y-110984031D01*
X132370590Y-110982963D01*
X132363025Y-110979830D01*
X132363023Y-110979829D01*
X132257569Y-110936148D01*
X132250000Y-110933013D01*
X132146447Y-110853553D01*
X132066987Y-110750000D01*
X132017037Y-110629410D01*
X132000000Y-110500000D01*
X132000000Y-102500000D01*
X132017037Y-102370590D01*
X132066987Y-102250000D01*
X132146447Y-102146447D01*
X132250000Y-102066987D01*
X132293380Y-102049018D01*
X132363023Y-102020171D01*
X132363025Y-102020170D01*
X132370590Y-102017037D01*
X132378706Y-102015969D01*
X132378708Y-102015968D01*
X132495941Y-102000534D01*
X132495947Y-102000534D01*
X132500000Y-102000000D01*
X136500000Y-102000000D01*
X136504053Y-102000534D01*
X136504053Y-102000534D01*
G37*
G36*
X144504053Y-102000534D02*
G01*
X144504059Y-102000534D01*
X144621292Y-102015968D01*
X144621294Y-102015969D01*
X144629410Y-102017037D01*
X144636975Y-102020170D01*
X144636977Y-102020171D01*
X144706620Y-102049018D01*
X144750000Y-102066987D01*
X144853553Y-102146447D01*
X144933013Y-102250000D01*
X144982963Y-102370590D01*
X145000000Y-102500000D01*
X145000000Y-110500000D01*
X144982963Y-110629410D01*
X144933013Y-110750000D01*
X144853553Y-110853553D01*
X144750000Y-110933013D01*
X144742431Y-110936148D01*
X144636977Y-110979829D01*
X144636975Y-110979830D01*
X144629410Y-110982963D01*
X144621294Y-110984031D01*
X144621292Y-110984032D01*
X144504059Y-110999466D01*
X144504053Y-110999466D01*
X144500000Y-111000000D01*
X140500000Y-111000000D01*
X140495947Y-110999466D01*
X140495941Y-110999466D01*
X140378708Y-110984032D01*
X140378706Y-110984031D01*
X140370590Y-110982963D01*
X140363025Y-110979830D01*
X140363023Y-110979829D01*
X140257569Y-110936148D01*
X140250000Y-110933013D01*
X140146447Y-110853553D01*
X140066987Y-110750000D01*
X140017037Y-110629410D01*
X140000000Y-110500000D01*
X140000000Y-102500000D01*
X140017037Y-102370590D01*
X140066987Y-102250000D01*
X140146447Y-102146447D01*
X140250000Y-102066987D01*
X140293380Y-102049018D01*
X140363023Y-102020171D01*
X140363025Y-102020170D01*
X140370590Y-102017037D01*
X140378706Y-102015969D01*
X140378708Y-102015968D01*
X140495941Y-102000534D01*
X140495947Y-102000534D01*
X140500000Y-102000000D01*
X144500000Y-102000000D01*
X144504053Y-102000534D01*
X144504053Y-102000534D01*
G37*
G36*
X128504053Y-102000534D02*
G01*
X128504059Y-102000534D01*
X128621292Y-102015968D01*
X128621294Y-102015969D01*
X128629410Y-102017037D01*
X128636975Y-102020170D01*
X128636977Y-102020171D01*
X128706620Y-102049018D01*
X128750000Y-102066987D01*
X128853553Y-102146447D01*
X128933013Y-102250000D01*
X128982963Y-102370590D01*
X129000000Y-102500000D01*
X129000000Y-110500000D01*
X128982963Y-110629410D01*
X128933013Y-110750000D01*
X128853553Y-110853553D01*
X128750000Y-110933013D01*
X128742431Y-110936148D01*
X128636977Y-110979829D01*
X128636975Y-110979830D01*
X128629410Y-110982963D01*
X128621294Y-110984031D01*
X128621292Y-110984032D01*
X128504059Y-110999466D01*
X128504053Y-110999466D01*
X128500000Y-111000000D01*
X124500000Y-111000000D01*
X124495947Y-110999466D01*
X124495941Y-110999466D01*
X124378708Y-110984032D01*
X124378706Y-110984031D01*
X124370590Y-110982963D01*
X124363025Y-110979830D01*
X124363023Y-110979829D01*
X124257569Y-110936148D01*
X124250000Y-110933013D01*
X124146447Y-110853553D01*
X124066987Y-110750000D01*
X124017037Y-110629410D01*
X124000000Y-110500000D01*
X124000000Y-102500000D01*
X124017037Y-102370590D01*
X124066987Y-102250000D01*
X124146447Y-102146447D01*
X124250000Y-102066987D01*
X124293380Y-102049018D01*
X124363023Y-102020171D01*
X124363025Y-102020170D01*
X124370590Y-102017037D01*
X124378706Y-102015969D01*
X124378708Y-102015968D01*
X124495941Y-102000534D01*
X124495947Y-102000534D01*
X124500000Y-102000000D01*
X128500000Y-102000000D01*
X128504053Y-102000534D01*
X128504053Y-102000534D01*
G37*
G36*
X216504053Y-102000534D02*
G01*
X216504059Y-102000534D01*
X216621292Y-102015968D01*
X216621294Y-102015969D01*
X216629410Y-102017037D01*
X216636975Y-102020170D01*
X216636977Y-102020171D01*
X216706620Y-102049018D01*
X216750000Y-102066987D01*
X216853553Y-102146447D01*
X216933013Y-102250000D01*
X216982963Y-102370590D01*
X217000000Y-102500000D01*
X217000000Y-110500000D01*
X216982963Y-110629410D01*
X216933013Y-110750000D01*
X216853553Y-110853553D01*
X216750000Y-110933013D01*
X216742431Y-110936148D01*
X216636977Y-110979829D01*
X216636975Y-110979830D01*
X216629410Y-110982963D01*
X216621294Y-110984031D01*
X216621292Y-110984032D01*
X216504059Y-110999466D01*
X216504053Y-110999466D01*
X216500000Y-111000000D01*
X212500000Y-111000000D01*
X212495947Y-110999466D01*
X212495941Y-110999466D01*
X212378708Y-110984032D01*
X212378706Y-110984031D01*
X212370590Y-110982963D01*
X212363025Y-110979830D01*
X212363023Y-110979829D01*
X212257569Y-110936148D01*
X212250000Y-110933013D01*
X212146447Y-110853553D01*
X212066987Y-110750000D01*
X212017037Y-110629410D01*
X212000000Y-110500000D01*
X212000000Y-102500000D01*
X212017037Y-102370590D01*
X212066987Y-102250000D01*
X212146447Y-102146447D01*
X212250000Y-102066987D01*
X212293380Y-102049018D01*
X212363023Y-102020171D01*
X212363025Y-102020170D01*
X212370590Y-102017037D01*
X212378706Y-102015969D01*
X212378708Y-102015968D01*
X212495941Y-102000534D01*
X212495947Y-102000534D01*
X212500000Y-102000000D01*
X216500000Y-102000000D01*
X216504053Y-102000534D01*
X216504053Y-102000534D01*
G37*
G36*
X190807267Y-97470263D02*
G01*
X190959411Y-97500526D01*
X191078137Y-97549704D01*
X191246041Y-97619252D01*
X191246042Y-97619253D01*
X191504004Y-97791617D01*
X191723383Y-98010996D01*
X191838553Y-98183361D01*
X191895748Y-98268959D01*
X192014474Y-98555590D01*
X192075000Y-98859875D01*
X192075000Y-99170125D01*
X192014474Y-99474410D01*
X191895748Y-99761041D01*
X191895747Y-99761042D01*
X191723383Y-100019004D01*
X191504004Y-100238383D01*
X191331639Y-100353553D01*
X191246041Y-100410748D01*
X191078137Y-100480296D01*
X190959411Y-100529474D01*
X190807267Y-100559737D01*
X190655125Y-100590000D01*
X190344875Y-100590000D01*
X190192733Y-100559737D01*
X190040589Y-100529474D01*
X189921863Y-100480296D01*
X189753959Y-100410748D01*
X189668361Y-100353553D01*
X189495996Y-100238383D01*
X189276617Y-100019004D01*
X189104253Y-99761042D01*
X189104252Y-99761041D01*
X188985526Y-99474410D01*
X188925000Y-99170125D01*
X188925000Y-98859875D01*
X188985526Y-98555590D01*
X189104252Y-98268959D01*
X189161447Y-98183361D01*
X189276617Y-98010996D01*
X189495996Y-97791617D01*
X189753958Y-97619253D01*
X189753959Y-97619252D01*
X189921863Y-97549704D01*
X190040589Y-97500526D01*
X190192733Y-97470263D01*
X190344875Y-97440000D01*
X190655125Y-97440000D01*
X190807267Y-97470263D01*
X190807267Y-97470263D01*
G37*
G36*
X126807267Y-97470263D02*
G01*
X126959411Y-97500526D01*
X127078137Y-97549704D01*
X127246041Y-97619252D01*
X127246042Y-97619253D01*
X127504004Y-97791617D01*
X127723383Y-98010996D01*
X127838553Y-98183361D01*
X127895748Y-98268959D01*
X128014474Y-98555590D01*
X128075000Y-98859875D01*
X128075000Y-99170125D01*
X128014474Y-99474410D01*
X127895748Y-99761041D01*
X127895747Y-99761042D01*
X127723383Y-100019004D01*
X127504004Y-100238383D01*
X127331639Y-100353553D01*
X127246041Y-100410748D01*
X127078137Y-100480296D01*
X126959411Y-100529474D01*
X126807267Y-100559737D01*
X126655125Y-100590000D01*
X126344875Y-100590000D01*
X126192733Y-100559737D01*
X126040589Y-100529474D01*
X125921863Y-100480296D01*
X125753959Y-100410748D01*
X125668361Y-100353553D01*
X125495996Y-100238383D01*
X125276617Y-100019004D01*
X125104253Y-99761042D01*
X125104252Y-99761041D01*
X124985526Y-99474410D01*
X124925000Y-99170125D01*
X124925000Y-98859875D01*
X124985526Y-98555590D01*
X125104252Y-98268959D01*
X125161447Y-98183361D01*
X125276617Y-98010996D01*
X125495996Y-97791617D01*
X125753958Y-97619253D01*
X125753959Y-97619252D01*
X125921863Y-97549704D01*
X126040589Y-97500526D01*
X126192733Y-97470263D01*
X126344875Y-97440000D01*
X126655125Y-97440000D01*
X126807267Y-97470263D01*
X126807267Y-97470263D01*
G37*
G36*
X134807267Y-97470263D02*
G01*
X134959411Y-97500526D01*
X135078137Y-97549704D01*
X135246041Y-97619252D01*
X135246042Y-97619253D01*
X135504004Y-97791617D01*
X135723383Y-98010996D01*
X135838553Y-98183361D01*
X135895748Y-98268959D01*
X136014474Y-98555590D01*
X136075000Y-98859875D01*
X136075000Y-99170125D01*
X136014474Y-99474410D01*
X135895748Y-99761041D01*
X135895747Y-99761042D01*
X135723383Y-100019004D01*
X135504004Y-100238383D01*
X135331639Y-100353553D01*
X135246041Y-100410748D01*
X135078137Y-100480296D01*
X134959411Y-100529474D01*
X134807267Y-100559737D01*
X134655125Y-100590000D01*
X134344875Y-100590000D01*
X134192733Y-100559737D01*
X134040589Y-100529474D01*
X133921863Y-100480296D01*
X133753959Y-100410748D01*
X133668361Y-100353553D01*
X133495996Y-100238383D01*
X133276617Y-100019004D01*
X133104253Y-99761042D01*
X133104252Y-99761041D01*
X132985526Y-99474410D01*
X132925000Y-99170125D01*
X132925000Y-98859875D01*
X132985526Y-98555590D01*
X133104252Y-98268959D01*
X133161447Y-98183361D01*
X133276617Y-98010996D01*
X133495996Y-97791617D01*
X133753958Y-97619253D01*
X133753959Y-97619252D01*
X133921863Y-97549704D01*
X134040589Y-97500526D01*
X134192733Y-97470263D01*
X134344875Y-97440000D01*
X134655125Y-97440000D01*
X134807267Y-97470263D01*
X134807267Y-97470263D01*
G37*
G36*
X142807267Y-97470263D02*
G01*
X142959411Y-97500526D01*
X143078137Y-97549704D01*
X143246041Y-97619252D01*
X143246042Y-97619253D01*
X143504004Y-97791617D01*
X143723383Y-98010996D01*
X143838553Y-98183361D01*
X143895748Y-98268959D01*
X144014474Y-98555590D01*
X144075000Y-98859875D01*
X144075000Y-99170125D01*
X144014474Y-99474410D01*
X143895748Y-99761041D01*
X143895747Y-99761042D01*
X143723383Y-100019004D01*
X143504004Y-100238383D01*
X143331639Y-100353553D01*
X143246041Y-100410748D01*
X143078137Y-100480296D01*
X142959411Y-100529474D01*
X142807267Y-100559737D01*
X142655125Y-100590000D01*
X142344875Y-100590000D01*
X142192733Y-100559737D01*
X142040589Y-100529474D01*
X141921863Y-100480296D01*
X141753959Y-100410748D01*
X141668361Y-100353553D01*
X141495996Y-100238383D01*
X141276617Y-100019004D01*
X141104253Y-99761042D01*
X141104252Y-99761041D01*
X140985526Y-99474410D01*
X140925000Y-99170125D01*
X140925000Y-98859875D01*
X140985526Y-98555590D01*
X141104252Y-98268959D01*
X141161447Y-98183361D01*
X141276617Y-98010996D01*
X141495996Y-97791617D01*
X141753958Y-97619253D01*
X141753959Y-97619252D01*
X141921863Y-97549704D01*
X142040589Y-97500526D01*
X142192733Y-97470263D01*
X142344875Y-97440000D01*
X142655125Y-97440000D01*
X142807267Y-97470263D01*
X142807267Y-97470263D01*
G37*
G36*
X158807267Y-97470263D02*
G01*
X158959411Y-97500526D01*
X159078137Y-97549704D01*
X159246041Y-97619252D01*
X159246042Y-97619253D01*
X159504004Y-97791617D01*
X159723383Y-98010996D01*
X159838553Y-98183361D01*
X159895748Y-98268959D01*
X160014474Y-98555590D01*
X160075000Y-98859875D01*
X160075000Y-99170125D01*
X160014474Y-99474410D01*
X159895748Y-99761041D01*
X159895747Y-99761042D01*
X159723383Y-100019004D01*
X159504004Y-100238383D01*
X159331639Y-100353553D01*
X159246041Y-100410748D01*
X159078137Y-100480296D01*
X158959411Y-100529474D01*
X158807267Y-100559737D01*
X158655125Y-100590000D01*
X158344875Y-100590000D01*
X158192733Y-100559737D01*
X158040589Y-100529474D01*
X157921863Y-100480296D01*
X157753959Y-100410748D01*
X157668361Y-100353553D01*
X157495996Y-100238383D01*
X157276617Y-100019004D01*
X157104253Y-99761042D01*
X157104252Y-99761041D01*
X156985526Y-99474410D01*
X156925000Y-99170125D01*
X156925000Y-98859875D01*
X156985526Y-98555590D01*
X157104252Y-98268959D01*
X157161447Y-98183361D01*
X157276617Y-98010996D01*
X157495996Y-97791617D01*
X157753958Y-97619253D01*
X157753959Y-97619252D01*
X157921863Y-97549704D01*
X158040589Y-97500526D01*
X158192733Y-97470263D01*
X158344875Y-97440000D01*
X158655125Y-97440000D01*
X158807267Y-97470263D01*
X158807267Y-97470263D01*
G37*
G36*
X166807267Y-97470263D02*
G01*
X166959411Y-97500526D01*
X167078137Y-97549704D01*
X167246041Y-97619252D01*
X167246042Y-97619253D01*
X167504004Y-97791617D01*
X167723383Y-98010996D01*
X167838553Y-98183361D01*
X167895748Y-98268959D01*
X168014474Y-98555590D01*
X168075000Y-98859875D01*
X168075000Y-99170125D01*
X168014474Y-99474410D01*
X167895748Y-99761041D01*
X167895747Y-99761042D01*
X167723383Y-100019004D01*
X167504004Y-100238383D01*
X167331639Y-100353553D01*
X167246041Y-100410748D01*
X167078137Y-100480296D01*
X166959411Y-100529474D01*
X166807267Y-100559737D01*
X166655125Y-100590000D01*
X166344875Y-100590000D01*
X166192733Y-100559737D01*
X166040589Y-100529474D01*
X165921863Y-100480296D01*
X165753959Y-100410748D01*
X165668361Y-100353553D01*
X165495996Y-100238383D01*
X165276617Y-100019004D01*
X165104253Y-99761042D01*
X165104252Y-99761041D01*
X164985526Y-99474410D01*
X164925000Y-99170125D01*
X164925000Y-98859875D01*
X164985526Y-98555590D01*
X165104252Y-98268959D01*
X165161447Y-98183361D01*
X165276617Y-98010996D01*
X165495996Y-97791617D01*
X165753958Y-97619253D01*
X165753959Y-97619252D01*
X165921863Y-97549704D01*
X166040589Y-97500526D01*
X166192733Y-97470263D01*
X166344875Y-97440000D01*
X166655125Y-97440000D01*
X166807267Y-97470263D01*
X166807267Y-97470263D01*
G37*
G36*
X150807267Y-97470263D02*
G01*
X150959411Y-97500526D01*
X151078137Y-97549704D01*
X151246041Y-97619252D01*
X151246042Y-97619253D01*
X151504004Y-97791617D01*
X151723383Y-98010996D01*
X151838553Y-98183361D01*
X151895748Y-98268959D01*
X152014474Y-98555590D01*
X152075000Y-98859875D01*
X152075000Y-99170125D01*
X152014474Y-99474410D01*
X151895748Y-99761041D01*
X151895747Y-99761042D01*
X151723383Y-100019004D01*
X151504004Y-100238383D01*
X151331639Y-100353553D01*
X151246041Y-100410748D01*
X151078137Y-100480296D01*
X150959411Y-100529474D01*
X150807267Y-100559737D01*
X150655125Y-100590000D01*
X150344875Y-100590000D01*
X150192733Y-100559737D01*
X150040589Y-100529474D01*
X149921863Y-100480296D01*
X149753959Y-100410748D01*
X149668361Y-100353553D01*
X149495996Y-100238383D01*
X149276617Y-100019004D01*
X149104253Y-99761042D01*
X149104252Y-99761041D01*
X148985526Y-99474410D01*
X148925000Y-99170125D01*
X148925000Y-98859875D01*
X148985526Y-98555590D01*
X149104252Y-98268959D01*
X149161447Y-98183361D01*
X149276617Y-98010996D01*
X149495996Y-97791617D01*
X149753958Y-97619253D01*
X149753959Y-97619252D01*
X149921863Y-97549704D01*
X150040589Y-97500526D01*
X150192733Y-97470263D01*
X150344875Y-97440000D01*
X150655125Y-97440000D01*
X150807267Y-97470263D01*
X150807267Y-97470263D01*
G37*
G36*
X174807267Y-97470263D02*
G01*
X174959411Y-97500526D01*
X175078137Y-97549704D01*
X175246041Y-97619252D01*
X175246042Y-97619253D01*
X175504004Y-97791617D01*
X175723383Y-98010996D01*
X175838553Y-98183361D01*
X175895748Y-98268959D01*
X176014474Y-98555590D01*
X176075000Y-98859875D01*
X176075000Y-99170125D01*
X176014474Y-99474410D01*
X175895748Y-99761041D01*
X175895747Y-99761042D01*
X175723383Y-100019004D01*
X175504004Y-100238383D01*
X175331639Y-100353553D01*
X175246041Y-100410748D01*
X175078137Y-100480296D01*
X174959411Y-100529474D01*
X174807267Y-100559737D01*
X174655125Y-100590000D01*
X174344875Y-100590000D01*
X174192733Y-100559737D01*
X174040589Y-100529474D01*
X173921863Y-100480296D01*
X173753959Y-100410748D01*
X173668361Y-100353553D01*
X173495996Y-100238383D01*
X173276617Y-100019004D01*
X173104253Y-99761042D01*
X173104252Y-99761041D01*
X172985526Y-99474410D01*
X172925000Y-99170125D01*
X172925000Y-98859875D01*
X172985526Y-98555590D01*
X173104252Y-98268959D01*
X173161447Y-98183361D01*
X173276617Y-98010996D01*
X173495996Y-97791617D01*
X173753958Y-97619253D01*
X173753959Y-97619252D01*
X173921863Y-97549704D01*
X174040589Y-97500526D01*
X174192733Y-97470263D01*
X174344875Y-97440000D01*
X174655125Y-97440000D01*
X174807267Y-97470263D01*
X174807267Y-97470263D01*
G37*
G36*
X182807267Y-97470263D02*
G01*
X182959411Y-97500526D01*
X183078137Y-97549704D01*
X183246041Y-97619252D01*
X183246042Y-97619253D01*
X183504004Y-97791617D01*
X183723383Y-98010996D01*
X183838553Y-98183361D01*
X183895748Y-98268959D01*
X184014474Y-98555590D01*
X184075000Y-98859875D01*
X184075000Y-99170125D01*
X184014474Y-99474410D01*
X183895748Y-99761041D01*
X183895747Y-99761042D01*
X183723383Y-100019004D01*
X183504004Y-100238383D01*
X183331639Y-100353553D01*
X183246041Y-100410748D01*
X183078137Y-100480296D01*
X182959411Y-100529474D01*
X182807267Y-100559737D01*
X182655125Y-100590000D01*
X182344875Y-100590000D01*
X182192733Y-100559737D01*
X182040589Y-100529474D01*
X181921863Y-100480296D01*
X181753959Y-100410748D01*
X181668361Y-100353553D01*
X181495996Y-100238383D01*
X181276617Y-100019004D01*
X181104253Y-99761042D01*
X181104252Y-99761041D01*
X180985526Y-99474410D01*
X180925000Y-99170125D01*
X180925000Y-98859875D01*
X180985526Y-98555590D01*
X181104252Y-98268959D01*
X181161447Y-98183361D01*
X181276617Y-98010996D01*
X181495996Y-97791617D01*
X181753958Y-97619253D01*
X181753959Y-97619252D01*
X181921863Y-97549704D01*
X182040589Y-97500526D01*
X182192733Y-97470263D01*
X182344875Y-97440000D01*
X182655125Y-97440000D01*
X182807267Y-97470263D01*
X182807267Y-97470263D01*
G37*
G36*
X214807267Y-97470263D02*
G01*
X214959411Y-97500526D01*
X215078137Y-97549704D01*
X215246041Y-97619252D01*
X215246042Y-97619253D01*
X215504004Y-97791617D01*
X215723383Y-98010996D01*
X215838553Y-98183361D01*
X215895748Y-98268959D01*
X216014474Y-98555590D01*
X216075000Y-98859875D01*
X216075000Y-99170125D01*
X216014474Y-99474410D01*
X215895748Y-99761041D01*
X215895747Y-99761042D01*
X215723383Y-100019004D01*
X215504004Y-100238383D01*
X215331639Y-100353553D01*
X215246041Y-100410748D01*
X215078137Y-100480296D01*
X214959411Y-100529474D01*
X214807267Y-100559737D01*
X214655125Y-100590000D01*
X214344875Y-100590000D01*
X214192733Y-100559737D01*
X214040589Y-100529474D01*
X213921863Y-100480296D01*
X213753959Y-100410748D01*
X213668361Y-100353553D01*
X213495996Y-100238383D01*
X213276617Y-100019004D01*
X213104253Y-99761042D01*
X213104252Y-99761041D01*
X212985526Y-99474410D01*
X212925000Y-99170125D01*
X212925000Y-98859875D01*
X212985526Y-98555590D01*
X213104252Y-98268959D01*
X213161447Y-98183361D01*
X213276617Y-98010996D01*
X213495996Y-97791617D01*
X213753958Y-97619253D01*
X213753959Y-97619252D01*
X213921863Y-97549704D01*
X214040589Y-97500526D01*
X214192733Y-97470263D01*
X214344875Y-97440000D01*
X214655125Y-97440000D01*
X214807267Y-97470263D01*
X214807267Y-97470263D01*
G37*
G36*
X198807267Y-97470263D02*
G01*
X198959411Y-97500526D01*
X199078137Y-97549704D01*
X199246041Y-97619252D01*
X199246042Y-97619253D01*
X199504004Y-97791617D01*
X199723383Y-98010996D01*
X199838553Y-98183361D01*
X199895748Y-98268959D01*
X200014474Y-98555590D01*
X200075000Y-98859875D01*
X200075000Y-99170125D01*
X200014474Y-99474410D01*
X199895748Y-99761041D01*
X199895747Y-99761042D01*
X199723383Y-100019004D01*
X199504004Y-100238383D01*
X199331639Y-100353553D01*
X199246041Y-100410748D01*
X199078137Y-100480296D01*
X198959411Y-100529474D01*
X198807267Y-100559737D01*
X198655125Y-100590000D01*
X198344875Y-100590000D01*
X198192733Y-100559737D01*
X198040589Y-100529474D01*
X197921863Y-100480296D01*
X197753959Y-100410748D01*
X197668361Y-100353553D01*
X197495996Y-100238383D01*
X197276617Y-100019004D01*
X197104253Y-99761042D01*
X197104252Y-99761041D01*
X196985526Y-99474410D01*
X196925000Y-99170125D01*
X196925000Y-98859875D01*
X196985526Y-98555590D01*
X197104252Y-98268959D01*
X197161447Y-98183361D01*
X197276617Y-98010996D01*
X197495996Y-97791617D01*
X197753958Y-97619253D01*
X197753959Y-97619252D01*
X197921863Y-97549704D01*
X198040589Y-97500526D01*
X198192733Y-97470263D01*
X198344875Y-97440000D01*
X198655125Y-97440000D01*
X198807267Y-97470263D01*
X198807267Y-97470263D01*
G37*
G36*
X206807267Y-97470263D02*
G01*
X206959411Y-97500526D01*
X207078137Y-97549704D01*
X207246041Y-97619252D01*
X207246042Y-97619253D01*
X207504004Y-97791617D01*
X207723383Y-98010996D01*
X207838553Y-98183361D01*
X207895748Y-98268959D01*
X208014474Y-98555590D01*
X208075000Y-98859875D01*
X208075000Y-99170125D01*
X208014474Y-99474410D01*
X207895748Y-99761041D01*
X207895747Y-99761042D01*
X207723383Y-100019004D01*
X207504004Y-100238383D01*
X207331639Y-100353553D01*
X207246041Y-100410748D01*
X207078137Y-100480296D01*
X206959411Y-100529474D01*
X206807267Y-100559737D01*
X206655125Y-100590000D01*
X206344875Y-100590000D01*
X206192733Y-100559737D01*
X206040589Y-100529474D01*
X205921863Y-100480296D01*
X205753959Y-100410748D01*
X205668361Y-100353553D01*
X205495996Y-100238383D01*
X205276617Y-100019004D01*
X205104253Y-99761042D01*
X205104252Y-99761041D01*
X204985526Y-99474410D01*
X204925000Y-99170125D01*
X204925000Y-98859875D01*
X204985526Y-98555590D01*
X205104252Y-98268959D01*
X205161447Y-98183361D01*
X205276617Y-98010996D01*
X205495996Y-97791617D01*
X205753958Y-97619253D01*
X205753959Y-97619252D01*
X205921863Y-97549704D01*
X206040589Y-97500526D01*
X206192733Y-97470263D01*
X206344875Y-97440000D01*
X206655125Y-97440000D01*
X206807267Y-97470263D01*
X206807267Y-97470263D01*
G37*
G36*
X159096474Y-91538684D02*
G01*
X159314474Y-91628983D01*
X159468623Y-91692833D01*
X159803548Y-91916623D01*
X160088377Y-92201452D01*
X160312167Y-92536377D01*
X160312167Y-92536378D01*
X160466316Y-92908526D01*
X160544900Y-93303594D01*
X160544900Y-93706406D01*
X160466316Y-94101474D01*
X160376017Y-94319474D01*
X160312167Y-94473623D01*
X160088377Y-94808548D01*
X159803548Y-95093377D01*
X159468623Y-95317167D01*
X159314474Y-95381017D01*
X159096474Y-95471316D01*
X158701406Y-95549900D01*
X158298594Y-95549900D01*
X157903526Y-95471316D01*
X157685526Y-95381017D01*
X157531377Y-95317167D01*
X157196452Y-95093377D01*
X156911623Y-94808548D01*
X156687833Y-94473623D01*
X156623983Y-94319474D01*
X156533684Y-94101474D01*
X156455100Y-93706406D01*
X156455100Y-93303594D01*
X156533684Y-92908526D01*
X156687833Y-92536378D01*
X156687833Y-92536377D01*
X156911623Y-92201452D01*
X157196452Y-91916623D01*
X157531377Y-91692833D01*
X157685526Y-91628983D01*
X157903526Y-91538684D01*
X158298594Y-91460100D01*
X158701406Y-91460100D01*
X159096474Y-91538684D01*
X159096474Y-91538684D01*
G37*
G36*
X127096474Y-91538684D02*
G01*
X127314474Y-91628983D01*
X127468623Y-91692833D01*
X127803548Y-91916623D01*
X128088377Y-92201452D01*
X128312167Y-92536377D01*
X128312167Y-92536378D01*
X128466316Y-92908526D01*
X128544900Y-93303594D01*
X128544900Y-93706406D01*
X128466316Y-94101474D01*
X128376017Y-94319474D01*
X128312167Y-94473623D01*
X128088377Y-94808548D01*
X127803548Y-95093377D01*
X127468623Y-95317167D01*
X127314474Y-95381017D01*
X127096474Y-95471316D01*
X126701406Y-95549900D01*
X126298594Y-95549900D01*
X125903526Y-95471316D01*
X125685526Y-95381017D01*
X125531377Y-95317167D01*
X125196452Y-95093377D01*
X124911623Y-94808548D01*
X124687833Y-94473623D01*
X124623983Y-94319474D01*
X124533684Y-94101474D01*
X124455100Y-93706406D01*
X124455100Y-93303594D01*
X124533684Y-92908526D01*
X124687833Y-92536378D01*
X124687833Y-92536377D01*
X124911623Y-92201452D01*
X125196452Y-91916623D01*
X125531377Y-91692833D01*
X125685526Y-91628983D01*
X125903526Y-91538684D01*
X126298594Y-91460100D01*
X126701406Y-91460100D01*
X127096474Y-91538684D01*
X127096474Y-91538684D01*
G37*
G36*
X135096474Y-91538684D02*
G01*
X135314474Y-91628983D01*
X135468623Y-91692833D01*
X135803548Y-91916623D01*
X136088377Y-92201452D01*
X136312167Y-92536377D01*
X136312167Y-92536378D01*
X136466316Y-92908526D01*
X136544900Y-93303594D01*
X136544900Y-93706406D01*
X136466316Y-94101474D01*
X136376017Y-94319474D01*
X136312167Y-94473623D01*
X136088377Y-94808548D01*
X135803548Y-95093377D01*
X135468623Y-95317167D01*
X135314474Y-95381017D01*
X135096474Y-95471316D01*
X134701406Y-95549900D01*
X134298594Y-95549900D01*
X133903526Y-95471316D01*
X133685526Y-95381017D01*
X133531377Y-95317167D01*
X133196452Y-95093377D01*
X132911623Y-94808548D01*
X132687833Y-94473623D01*
X132623983Y-94319474D01*
X132533684Y-94101474D01*
X132455100Y-93706406D01*
X132455100Y-93303594D01*
X132533684Y-92908526D01*
X132687833Y-92536378D01*
X132687833Y-92536377D01*
X132911623Y-92201452D01*
X133196452Y-91916623D01*
X133531377Y-91692833D01*
X133685526Y-91628983D01*
X133903526Y-91538684D01*
X134298594Y-91460100D01*
X134701406Y-91460100D01*
X135096474Y-91538684D01*
X135096474Y-91538684D01*
G37*
G36*
X143096474Y-91538684D02*
G01*
X143314474Y-91628983D01*
X143468623Y-91692833D01*
X143803548Y-91916623D01*
X144088377Y-92201452D01*
X144312167Y-92536377D01*
X144312167Y-92536378D01*
X144466316Y-92908526D01*
X144544900Y-93303594D01*
X144544900Y-93706406D01*
X144466316Y-94101474D01*
X144376017Y-94319474D01*
X144312167Y-94473623D01*
X144088377Y-94808548D01*
X143803548Y-95093377D01*
X143468623Y-95317167D01*
X143314474Y-95381017D01*
X143096474Y-95471316D01*
X142701406Y-95549900D01*
X142298594Y-95549900D01*
X141903526Y-95471316D01*
X141685526Y-95381017D01*
X141531377Y-95317167D01*
X141196452Y-95093377D01*
X140911623Y-94808548D01*
X140687833Y-94473623D01*
X140623983Y-94319474D01*
X140533684Y-94101474D01*
X140455100Y-93706406D01*
X140455100Y-93303594D01*
X140533684Y-92908526D01*
X140687833Y-92536378D01*
X140687833Y-92536377D01*
X140911623Y-92201452D01*
X141196452Y-91916623D01*
X141531377Y-91692833D01*
X141685526Y-91628983D01*
X141903526Y-91538684D01*
X142298594Y-91460100D01*
X142701406Y-91460100D01*
X143096474Y-91538684D01*
X143096474Y-91538684D01*
G37*
G36*
X215096474Y-91538684D02*
G01*
X215314474Y-91628983D01*
X215468623Y-91692833D01*
X215803548Y-91916623D01*
X216088377Y-92201452D01*
X216312167Y-92536377D01*
X216312167Y-92536378D01*
X216466316Y-92908526D01*
X216544900Y-93303594D01*
X216544900Y-93706406D01*
X216466316Y-94101474D01*
X216376017Y-94319474D01*
X216312167Y-94473623D01*
X216088377Y-94808548D01*
X215803548Y-95093377D01*
X215468623Y-95317167D01*
X215314474Y-95381017D01*
X215096474Y-95471316D01*
X214701406Y-95549900D01*
X214298594Y-95549900D01*
X213903526Y-95471316D01*
X213685526Y-95381017D01*
X213531377Y-95317167D01*
X213196452Y-95093377D01*
X212911623Y-94808548D01*
X212687833Y-94473623D01*
X212623983Y-94319474D01*
X212533684Y-94101474D01*
X212455100Y-93706406D01*
X212455100Y-93303594D01*
X212533684Y-92908526D01*
X212687833Y-92536378D01*
X212687833Y-92536377D01*
X212911623Y-92201452D01*
X213196452Y-91916623D01*
X213531377Y-91692833D01*
X213685526Y-91628983D01*
X213903526Y-91538684D01*
X214298594Y-91460100D01*
X214701406Y-91460100D01*
X215096474Y-91538684D01*
X215096474Y-91538684D01*
G37*
G36*
X207096474Y-91538684D02*
G01*
X207314474Y-91628983D01*
X207468623Y-91692833D01*
X207803548Y-91916623D01*
X208088377Y-92201452D01*
X208312167Y-92536377D01*
X208312167Y-92536378D01*
X208466316Y-92908526D01*
X208544900Y-93303594D01*
X208544900Y-93706406D01*
X208466316Y-94101474D01*
X208376017Y-94319474D01*
X208312167Y-94473623D01*
X208088377Y-94808548D01*
X207803548Y-95093377D01*
X207468623Y-95317167D01*
X207314474Y-95381017D01*
X207096474Y-95471316D01*
X206701406Y-95549900D01*
X206298594Y-95549900D01*
X205903526Y-95471316D01*
X205685526Y-95381017D01*
X205531377Y-95317167D01*
X205196452Y-95093377D01*
X204911623Y-94808548D01*
X204687833Y-94473623D01*
X204623983Y-94319474D01*
X204533684Y-94101474D01*
X204455100Y-93706406D01*
X204455100Y-93303594D01*
X204533684Y-92908526D01*
X204687833Y-92536378D01*
X204687833Y-92536377D01*
X204911623Y-92201452D01*
X205196452Y-91916623D01*
X205531377Y-91692833D01*
X205685526Y-91628983D01*
X205903526Y-91538684D01*
X206298594Y-91460100D01*
X206701406Y-91460100D01*
X207096474Y-91538684D01*
X207096474Y-91538684D01*
G37*
G36*
X183096474Y-91538684D02*
G01*
X183314474Y-91628983D01*
X183468623Y-91692833D01*
X183803548Y-91916623D01*
X184088377Y-92201452D01*
X184312167Y-92536377D01*
X184312167Y-92536378D01*
X184466316Y-92908526D01*
X184544900Y-93303594D01*
X184544900Y-93706406D01*
X184466316Y-94101474D01*
X184376017Y-94319474D01*
X184312167Y-94473623D01*
X184088377Y-94808548D01*
X183803548Y-95093377D01*
X183468623Y-95317167D01*
X183314474Y-95381017D01*
X183096474Y-95471316D01*
X182701406Y-95549900D01*
X182298594Y-95549900D01*
X181903526Y-95471316D01*
X181685526Y-95381017D01*
X181531377Y-95317167D01*
X181196452Y-95093377D01*
X180911623Y-94808548D01*
X180687833Y-94473623D01*
X180623983Y-94319474D01*
X180533684Y-94101474D01*
X180455100Y-93706406D01*
X180455100Y-93303594D01*
X180533684Y-92908526D01*
X180687833Y-92536378D01*
X180687833Y-92536377D01*
X180911623Y-92201452D01*
X181196452Y-91916623D01*
X181531377Y-91692833D01*
X181685526Y-91628983D01*
X181903526Y-91538684D01*
X182298594Y-91460100D01*
X182701406Y-91460100D01*
X183096474Y-91538684D01*
X183096474Y-91538684D01*
G37*
G36*
X175096474Y-91538684D02*
G01*
X175314474Y-91628983D01*
X175468623Y-91692833D01*
X175803548Y-91916623D01*
X176088377Y-92201452D01*
X176312167Y-92536377D01*
X176312167Y-92536378D01*
X176466316Y-92908526D01*
X176544900Y-93303594D01*
X176544900Y-93706406D01*
X176466316Y-94101474D01*
X176376017Y-94319474D01*
X176312167Y-94473623D01*
X176088377Y-94808548D01*
X175803548Y-95093377D01*
X175468623Y-95317167D01*
X175314474Y-95381017D01*
X175096474Y-95471316D01*
X174701406Y-95549900D01*
X174298594Y-95549900D01*
X173903526Y-95471316D01*
X173685526Y-95381017D01*
X173531377Y-95317167D01*
X173196452Y-95093377D01*
X172911623Y-94808548D01*
X172687833Y-94473623D01*
X172623983Y-94319474D01*
X172533684Y-94101474D01*
X172455100Y-93706406D01*
X172455100Y-93303594D01*
X172533684Y-92908526D01*
X172687833Y-92536378D01*
X172687833Y-92536377D01*
X172911623Y-92201452D01*
X173196452Y-91916623D01*
X173531377Y-91692833D01*
X173685526Y-91628983D01*
X173903526Y-91538684D01*
X174298594Y-91460100D01*
X174701406Y-91460100D01*
X175096474Y-91538684D01*
X175096474Y-91538684D01*
G37*
G36*
X199096474Y-91538684D02*
G01*
X199314474Y-91628983D01*
X199468623Y-91692833D01*
X199803548Y-91916623D01*
X200088377Y-92201452D01*
X200312167Y-92536377D01*
X200312167Y-92536378D01*
X200466316Y-92908526D01*
X200544900Y-93303594D01*
X200544900Y-93706406D01*
X200466316Y-94101474D01*
X200376017Y-94319474D01*
X200312167Y-94473623D01*
X200088377Y-94808548D01*
X199803548Y-95093377D01*
X199468623Y-95317167D01*
X199314474Y-95381017D01*
X199096474Y-95471316D01*
X198701406Y-95549900D01*
X198298594Y-95549900D01*
X197903526Y-95471316D01*
X197685526Y-95381017D01*
X197531377Y-95317167D01*
X197196452Y-95093377D01*
X196911623Y-94808548D01*
X196687833Y-94473623D01*
X196623983Y-94319474D01*
X196533684Y-94101474D01*
X196455100Y-93706406D01*
X196455100Y-93303594D01*
X196533684Y-92908526D01*
X196687833Y-92536378D01*
X196687833Y-92536377D01*
X196911623Y-92201452D01*
X197196452Y-91916623D01*
X197531377Y-91692833D01*
X197685526Y-91628983D01*
X197903526Y-91538684D01*
X198298594Y-91460100D01*
X198701406Y-91460100D01*
X199096474Y-91538684D01*
X199096474Y-91538684D01*
G37*
G36*
X167096474Y-91538684D02*
G01*
X167314474Y-91628983D01*
X167468623Y-91692833D01*
X167803548Y-91916623D01*
X168088377Y-92201452D01*
X168312167Y-92536377D01*
X168312167Y-92536378D01*
X168466316Y-92908526D01*
X168544900Y-93303594D01*
X168544900Y-93706406D01*
X168466316Y-94101474D01*
X168376017Y-94319474D01*
X168312167Y-94473623D01*
X168088377Y-94808548D01*
X167803548Y-95093377D01*
X167468623Y-95317167D01*
X167314474Y-95381017D01*
X167096474Y-95471316D01*
X166701406Y-95549900D01*
X166298594Y-95549900D01*
X165903526Y-95471316D01*
X165685526Y-95381017D01*
X165531377Y-95317167D01*
X165196452Y-95093377D01*
X164911623Y-94808548D01*
X164687833Y-94473623D01*
X164623983Y-94319474D01*
X164533684Y-94101474D01*
X164455100Y-93706406D01*
X164455100Y-93303594D01*
X164533684Y-92908526D01*
X164687833Y-92536378D01*
X164687833Y-92536377D01*
X164911623Y-92201452D01*
X165196452Y-91916623D01*
X165531377Y-91692833D01*
X165685526Y-91628983D01*
X165903526Y-91538684D01*
X166298594Y-91460100D01*
X166701406Y-91460100D01*
X167096474Y-91538684D01*
X167096474Y-91538684D01*
G37*
G36*
X151096474Y-91538684D02*
G01*
X151314474Y-91628983D01*
X151468623Y-91692833D01*
X151803548Y-91916623D01*
X152088377Y-92201452D01*
X152312167Y-92536377D01*
X152312167Y-92536378D01*
X152466316Y-92908526D01*
X152544900Y-93303594D01*
X152544900Y-93706406D01*
X152466316Y-94101474D01*
X152376017Y-94319474D01*
X152312167Y-94473623D01*
X152088377Y-94808548D01*
X151803548Y-95093377D01*
X151468623Y-95317167D01*
X151314474Y-95381017D01*
X151096474Y-95471316D01*
X150701406Y-95549900D01*
X150298594Y-95549900D01*
X149903526Y-95471316D01*
X149685526Y-95381017D01*
X149531377Y-95317167D01*
X149196452Y-95093377D01*
X148911623Y-94808548D01*
X148687833Y-94473623D01*
X148623983Y-94319474D01*
X148533684Y-94101474D01*
X148455100Y-93706406D01*
X148455100Y-93303594D01*
X148533684Y-92908526D01*
X148687833Y-92536378D01*
X148687833Y-92536377D01*
X148911623Y-92201452D01*
X149196452Y-91916623D01*
X149531377Y-91692833D01*
X149685526Y-91628983D01*
X149903526Y-91538684D01*
X150298594Y-91460100D01*
X150701406Y-91460100D01*
X151096474Y-91538684D01*
X151096474Y-91538684D01*
G37*
G36*
X191096474Y-91538684D02*
G01*
X191314474Y-91628983D01*
X191468623Y-91692833D01*
X191803548Y-91916623D01*
X192088377Y-92201452D01*
X192312167Y-92536377D01*
X192312167Y-92536378D01*
X192466316Y-92908526D01*
X192544900Y-93303594D01*
X192544900Y-93706406D01*
X192466316Y-94101474D01*
X192376017Y-94319474D01*
X192312167Y-94473623D01*
X192088377Y-94808548D01*
X191803548Y-95093377D01*
X191468623Y-95317167D01*
X191314474Y-95381017D01*
X191096474Y-95471316D01*
X190701406Y-95549900D01*
X190298594Y-95549900D01*
X189903526Y-95471316D01*
X189685526Y-95381017D01*
X189531377Y-95317167D01*
X189196452Y-95093377D01*
X188911623Y-94808548D01*
X188687833Y-94473623D01*
X188623983Y-94319474D01*
X188533684Y-94101474D01*
X188455100Y-93706406D01*
X188455100Y-93303594D01*
X188533684Y-92908526D01*
X188687833Y-92536378D01*
X188687833Y-92536377D01*
X188911623Y-92201452D01*
X189196452Y-91916623D01*
X189531377Y-91692833D01*
X189685526Y-91628983D01*
X189903526Y-91538684D01*
X190298594Y-91460100D01*
X190701406Y-91460100D01*
X191096474Y-91538684D01*
X191096474Y-91538684D01*
G37*
G36*
X168504053Y-81250534D02*
G01*
X168504059Y-81250534D01*
X168621292Y-81265968D01*
X168621294Y-81265969D01*
X168629410Y-81267037D01*
X168636975Y-81270170D01*
X168636977Y-81270171D01*
X168706620Y-81299018D01*
X168750000Y-81316987D01*
X168853553Y-81396447D01*
X168933013Y-81500000D01*
X168982963Y-81620590D01*
X169000000Y-81750000D01*
X169000000Y-89750000D01*
X168982963Y-89879410D01*
X168933013Y-90000000D01*
X168853553Y-90103553D01*
X168750000Y-90183013D01*
X168742431Y-90186148D01*
X168636977Y-90229829D01*
X168636975Y-90229830D01*
X168629410Y-90232963D01*
X168621294Y-90234031D01*
X168621292Y-90234032D01*
X168504059Y-90249466D01*
X168504053Y-90249466D01*
X168500000Y-90250000D01*
X164500000Y-90250000D01*
X164495947Y-90249466D01*
X164495941Y-90249466D01*
X164378708Y-90234032D01*
X164378706Y-90234031D01*
X164370590Y-90232963D01*
X164363025Y-90229830D01*
X164363023Y-90229829D01*
X164257569Y-90186148D01*
X164250000Y-90183013D01*
X164146447Y-90103553D01*
X164066987Y-90000000D01*
X164017037Y-89879410D01*
X164000000Y-89750000D01*
X164000000Y-81750000D01*
X164017037Y-81620590D01*
X164066987Y-81500000D01*
X164146447Y-81396447D01*
X164250000Y-81316987D01*
X164293380Y-81299018D01*
X164363023Y-81270171D01*
X164363025Y-81270170D01*
X164370590Y-81267037D01*
X164378706Y-81265969D01*
X164378708Y-81265968D01*
X164495941Y-81250534D01*
X164495947Y-81250534D01*
X164500000Y-81250000D01*
X168500000Y-81250000D01*
X168504053Y-81250534D01*
X168504053Y-81250534D01*
G37*
G36*
X152504053Y-81250534D02*
G01*
X152504059Y-81250534D01*
X152621292Y-81265968D01*
X152621294Y-81265969D01*
X152629410Y-81267037D01*
X152636975Y-81270170D01*
X152636977Y-81270171D01*
X152706620Y-81299018D01*
X152750000Y-81316987D01*
X152853553Y-81396447D01*
X152933013Y-81500000D01*
X152982963Y-81620590D01*
X153000000Y-81750000D01*
X153000000Y-89750000D01*
X152982963Y-89879410D01*
X152933013Y-90000000D01*
X152853553Y-90103553D01*
X152750000Y-90183013D01*
X152742431Y-90186148D01*
X152636977Y-90229829D01*
X152636975Y-90229830D01*
X152629410Y-90232963D01*
X152621294Y-90234031D01*
X152621292Y-90234032D01*
X152504059Y-90249466D01*
X152504053Y-90249466D01*
X152500000Y-90250000D01*
X148500000Y-90250000D01*
X148495947Y-90249466D01*
X148495941Y-90249466D01*
X148378708Y-90234032D01*
X148378706Y-90234031D01*
X148370590Y-90232963D01*
X148363025Y-90229830D01*
X148363023Y-90229829D01*
X148257569Y-90186148D01*
X148250000Y-90183013D01*
X148146447Y-90103553D01*
X148066987Y-90000000D01*
X148017037Y-89879410D01*
X148000000Y-89750000D01*
X148000000Y-81750000D01*
X148017037Y-81620590D01*
X148066987Y-81500000D01*
X148146447Y-81396447D01*
X148250000Y-81316987D01*
X148293380Y-81299018D01*
X148363023Y-81270171D01*
X148363025Y-81270170D01*
X148370590Y-81267037D01*
X148378706Y-81265969D01*
X148378708Y-81265968D01*
X148495941Y-81250534D01*
X148495947Y-81250534D01*
X148500000Y-81250000D01*
X152500000Y-81250000D01*
X152504053Y-81250534D01*
X152504053Y-81250534D01*
G37*
G36*
X216504053Y-81250534D02*
G01*
X216504059Y-81250534D01*
X216621292Y-81265968D01*
X216621294Y-81265969D01*
X216629410Y-81267037D01*
X216636975Y-81270170D01*
X216636977Y-81270171D01*
X216706620Y-81299018D01*
X216750000Y-81316987D01*
X216853553Y-81396447D01*
X216933013Y-81500000D01*
X216982963Y-81620590D01*
X217000000Y-81750000D01*
X217000000Y-89750000D01*
X216982963Y-89879410D01*
X216933013Y-90000000D01*
X216853553Y-90103553D01*
X216750000Y-90183013D01*
X216742431Y-90186148D01*
X216636977Y-90229829D01*
X216636975Y-90229830D01*
X216629410Y-90232963D01*
X216621294Y-90234031D01*
X216621292Y-90234032D01*
X216504059Y-90249466D01*
X216504053Y-90249466D01*
X216500000Y-90250000D01*
X212500000Y-90250000D01*
X212495947Y-90249466D01*
X212495941Y-90249466D01*
X212378708Y-90234032D01*
X212378706Y-90234031D01*
X212370590Y-90232963D01*
X212363025Y-90229830D01*
X212363023Y-90229829D01*
X212257569Y-90186148D01*
X212250000Y-90183013D01*
X212146447Y-90103553D01*
X212066987Y-90000000D01*
X212017037Y-89879410D01*
X212000000Y-89750000D01*
X212000000Y-81750000D01*
X212017037Y-81620590D01*
X212066987Y-81500000D01*
X212146447Y-81396447D01*
X212250000Y-81316987D01*
X212293380Y-81299018D01*
X212363023Y-81270171D01*
X212363025Y-81270170D01*
X212370590Y-81267037D01*
X212378706Y-81265969D01*
X212378708Y-81265968D01*
X212495941Y-81250534D01*
X212495947Y-81250534D01*
X212500000Y-81250000D01*
X216500000Y-81250000D01*
X216504053Y-81250534D01*
X216504053Y-81250534D01*
G37*
G36*
X160504053Y-81250534D02*
G01*
X160504059Y-81250534D01*
X160621292Y-81265968D01*
X160621294Y-81265969D01*
X160629410Y-81267037D01*
X160636975Y-81270170D01*
X160636977Y-81270171D01*
X160706620Y-81299018D01*
X160750000Y-81316987D01*
X160853553Y-81396447D01*
X160933013Y-81500000D01*
X160982963Y-81620590D01*
X161000000Y-81750000D01*
X161000000Y-89750000D01*
X160982963Y-89879410D01*
X160933013Y-90000000D01*
X160853553Y-90103553D01*
X160750000Y-90183013D01*
X160742431Y-90186148D01*
X160636977Y-90229829D01*
X160636975Y-90229830D01*
X160629410Y-90232963D01*
X160621294Y-90234031D01*
X160621292Y-90234032D01*
X160504059Y-90249466D01*
X160504053Y-90249466D01*
X160500000Y-90250000D01*
X156500000Y-90250000D01*
X156495947Y-90249466D01*
X156495941Y-90249466D01*
X156378708Y-90234032D01*
X156378706Y-90234031D01*
X156370590Y-90232963D01*
X156363025Y-90229830D01*
X156363023Y-90229829D01*
X156257569Y-90186148D01*
X156250000Y-90183013D01*
X156146447Y-90103553D01*
X156066987Y-90000000D01*
X156017037Y-89879410D01*
X156000000Y-89750000D01*
X156000000Y-81750000D01*
X156017037Y-81620590D01*
X156066987Y-81500000D01*
X156146447Y-81396447D01*
X156250000Y-81316987D01*
X156293380Y-81299018D01*
X156363023Y-81270171D01*
X156363025Y-81270170D01*
X156370590Y-81267037D01*
X156378706Y-81265969D01*
X156378708Y-81265968D01*
X156495941Y-81250534D01*
X156495947Y-81250534D01*
X156500000Y-81250000D01*
X160500000Y-81250000D01*
X160504053Y-81250534D01*
X160504053Y-81250534D01*
G37*
G36*
X144504053Y-81250534D02*
G01*
X144504059Y-81250534D01*
X144621292Y-81265968D01*
X144621294Y-81265969D01*
X144629410Y-81267037D01*
X144636975Y-81270170D01*
X144636977Y-81270171D01*
X144706620Y-81299018D01*
X144750000Y-81316987D01*
X144853553Y-81396447D01*
X144933013Y-81500000D01*
X144982963Y-81620590D01*
X145000000Y-81750000D01*
X145000000Y-89750000D01*
X144982963Y-89879410D01*
X144933013Y-90000000D01*
X144853553Y-90103553D01*
X144750000Y-90183013D01*
X144742431Y-90186148D01*
X144636977Y-90229829D01*
X144636975Y-90229830D01*
X144629410Y-90232963D01*
X144621294Y-90234031D01*
X144621292Y-90234032D01*
X144504059Y-90249466D01*
X144504053Y-90249466D01*
X144500000Y-90250000D01*
X140500000Y-90250000D01*
X140495947Y-90249466D01*
X140495941Y-90249466D01*
X140378708Y-90234032D01*
X140378706Y-90234031D01*
X140370590Y-90232963D01*
X140363025Y-90229830D01*
X140363023Y-90229829D01*
X140257569Y-90186148D01*
X140250000Y-90183013D01*
X140146447Y-90103553D01*
X140066987Y-90000000D01*
X140017037Y-89879410D01*
X140000000Y-89750000D01*
X140000000Y-81750000D01*
X140017037Y-81620590D01*
X140066987Y-81500000D01*
X140146447Y-81396447D01*
X140250000Y-81316987D01*
X140293380Y-81299018D01*
X140363023Y-81270171D01*
X140363025Y-81270170D01*
X140370590Y-81267037D01*
X140378706Y-81265969D01*
X140378708Y-81265968D01*
X140495941Y-81250534D01*
X140495947Y-81250534D01*
X140500000Y-81250000D01*
X144500000Y-81250000D01*
X144504053Y-81250534D01*
X144504053Y-81250534D01*
G37*
G36*
X192504053Y-81250534D02*
G01*
X192504059Y-81250534D01*
X192621292Y-81265968D01*
X192621294Y-81265969D01*
X192629410Y-81267037D01*
X192636975Y-81270170D01*
X192636977Y-81270171D01*
X192706620Y-81299018D01*
X192750000Y-81316987D01*
X192853553Y-81396447D01*
X192933013Y-81500000D01*
X192982963Y-81620590D01*
X193000000Y-81750000D01*
X193000000Y-89750000D01*
X192982963Y-89879410D01*
X192933013Y-90000000D01*
X192853553Y-90103553D01*
X192750000Y-90183013D01*
X192742431Y-90186148D01*
X192636977Y-90229829D01*
X192636975Y-90229830D01*
X192629410Y-90232963D01*
X192621294Y-90234031D01*
X192621292Y-90234032D01*
X192504059Y-90249466D01*
X192504053Y-90249466D01*
X192500000Y-90250000D01*
X188500000Y-90250000D01*
X188495947Y-90249466D01*
X188495941Y-90249466D01*
X188378708Y-90234032D01*
X188378706Y-90234031D01*
X188370590Y-90232963D01*
X188363025Y-90229830D01*
X188363023Y-90229829D01*
X188257569Y-90186148D01*
X188250000Y-90183013D01*
X188146447Y-90103553D01*
X188066987Y-90000000D01*
X188017037Y-89879410D01*
X188000000Y-89750000D01*
X188000000Y-81750000D01*
X188017037Y-81620590D01*
X188066987Y-81500000D01*
X188146447Y-81396447D01*
X188250000Y-81316987D01*
X188293380Y-81299018D01*
X188363023Y-81270171D01*
X188363025Y-81270170D01*
X188370590Y-81267037D01*
X188378706Y-81265969D01*
X188378708Y-81265968D01*
X188495941Y-81250534D01*
X188495947Y-81250534D01*
X188500000Y-81250000D01*
X192500000Y-81250000D01*
X192504053Y-81250534D01*
X192504053Y-81250534D01*
G37*
G36*
X208504053Y-81250534D02*
G01*
X208504059Y-81250534D01*
X208621292Y-81265968D01*
X208621294Y-81265969D01*
X208629410Y-81267037D01*
X208636975Y-81270170D01*
X208636977Y-81270171D01*
X208706620Y-81299018D01*
X208750000Y-81316987D01*
X208853553Y-81396447D01*
X208933013Y-81500000D01*
X208982963Y-81620590D01*
X209000000Y-81750000D01*
X209000000Y-89750000D01*
X208982963Y-89879410D01*
X208933013Y-90000000D01*
X208853553Y-90103553D01*
X208750000Y-90183013D01*
X208742431Y-90186148D01*
X208636977Y-90229829D01*
X208636975Y-90229830D01*
X208629410Y-90232963D01*
X208621294Y-90234031D01*
X208621292Y-90234032D01*
X208504059Y-90249466D01*
X208504053Y-90249466D01*
X208500000Y-90250000D01*
X204500000Y-90250000D01*
X204495947Y-90249466D01*
X204495941Y-90249466D01*
X204378708Y-90234032D01*
X204378706Y-90234031D01*
X204370590Y-90232963D01*
X204363025Y-90229830D01*
X204363023Y-90229829D01*
X204257569Y-90186148D01*
X204250000Y-90183013D01*
X204146447Y-90103553D01*
X204066987Y-90000000D01*
X204017037Y-89879410D01*
X204000000Y-89750000D01*
X204000000Y-81750000D01*
X204017037Y-81620590D01*
X204066987Y-81500000D01*
X204146447Y-81396447D01*
X204250000Y-81316987D01*
X204293380Y-81299018D01*
X204363023Y-81270171D01*
X204363025Y-81270170D01*
X204370590Y-81267037D01*
X204378706Y-81265969D01*
X204378708Y-81265968D01*
X204495941Y-81250534D01*
X204495947Y-81250534D01*
X204500000Y-81250000D01*
X208500000Y-81250000D01*
X208504053Y-81250534D01*
X208504053Y-81250534D01*
G37*
G36*
X136504053Y-81250534D02*
G01*
X136504059Y-81250534D01*
X136621292Y-81265968D01*
X136621294Y-81265969D01*
X136629410Y-81267037D01*
X136636975Y-81270170D01*
X136636977Y-81270171D01*
X136706620Y-81299018D01*
X136750000Y-81316987D01*
X136853553Y-81396447D01*
X136933013Y-81500000D01*
X136982963Y-81620590D01*
X137000000Y-81750000D01*
X137000000Y-89750000D01*
X136982963Y-89879410D01*
X136933013Y-90000000D01*
X136853553Y-90103553D01*
X136750000Y-90183013D01*
X136742431Y-90186148D01*
X136636977Y-90229829D01*
X136636975Y-90229830D01*
X136629410Y-90232963D01*
X136621294Y-90234031D01*
X136621292Y-90234032D01*
X136504059Y-90249466D01*
X136504053Y-90249466D01*
X136500000Y-90250000D01*
X132500000Y-90250000D01*
X132495947Y-90249466D01*
X132495941Y-90249466D01*
X132378708Y-90234032D01*
X132378706Y-90234031D01*
X132370590Y-90232963D01*
X132363025Y-90229830D01*
X132363023Y-90229829D01*
X132257569Y-90186148D01*
X132250000Y-90183013D01*
X132146447Y-90103553D01*
X132066987Y-90000000D01*
X132017037Y-89879410D01*
X132000000Y-89750000D01*
X132000000Y-81750000D01*
X132017037Y-81620590D01*
X132066987Y-81500000D01*
X132146447Y-81396447D01*
X132250000Y-81316987D01*
X132293380Y-81299018D01*
X132363023Y-81270171D01*
X132363025Y-81270170D01*
X132370590Y-81267037D01*
X132378706Y-81265969D01*
X132378708Y-81265968D01*
X132495941Y-81250534D01*
X132495947Y-81250534D01*
X132500000Y-81250000D01*
X136500000Y-81250000D01*
X136504053Y-81250534D01*
X136504053Y-81250534D01*
G37*
G36*
X200504053Y-81250534D02*
G01*
X200504059Y-81250534D01*
X200621292Y-81265968D01*
X200621294Y-81265969D01*
X200629410Y-81267037D01*
X200636975Y-81270170D01*
X200636977Y-81270171D01*
X200706620Y-81299018D01*
X200750000Y-81316987D01*
X200853553Y-81396447D01*
X200933013Y-81500000D01*
X200982963Y-81620590D01*
X201000000Y-81750000D01*
X201000000Y-89750000D01*
X200982963Y-89879410D01*
X200933013Y-90000000D01*
X200853553Y-90103553D01*
X200750000Y-90183013D01*
X200742431Y-90186148D01*
X200636977Y-90229829D01*
X200636975Y-90229830D01*
X200629410Y-90232963D01*
X200621294Y-90234031D01*
X200621292Y-90234032D01*
X200504059Y-90249466D01*
X200504053Y-90249466D01*
X200500000Y-90250000D01*
X196500000Y-90250000D01*
X196495947Y-90249466D01*
X196495941Y-90249466D01*
X196378708Y-90234032D01*
X196378706Y-90234031D01*
X196370590Y-90232963D01*
X196363025Y-90229830D01*
X196363023Y-90229829D01*
X196257569Y-90186148D01*
X196250000Y-90183013D01*
X196146447Y-90103553D01*
X196066987Y-90000000D01*
X196017037Y-89879410D01*
X196000000Y-89750000D01*
X196000000Y-81750000D01*
X196017037Y-81620590D01*
X196066987Y-81500000D01*
X196146447Y-81396447D01*
X196250000Y-81316987D01*
X196293380Y-81299018D01*
X196363023Y-81270171D01*
X196363025Y-81270170D01*
X196370590Y-81267037D01*
X196378706Y-81265969D01*
X196378708Y-81265968D01*
X196495941Y-81250534D01*
X196495947Y-81250534D01*
X196500000Y-81250000D01*
X200500000Y-81250000D01*
X200504053Y-81250534D01*
X200504053Y-81250534D01*
G37*
G36*
X128504053Y-81250534D02*
G01*
X128504059Y-81250534D01*
X128621292Y-81265968D01*
X128621294Y-81265969D01*
X128629410Y-81267037D01*
X128636975Y-81270170D01*
X128636977Y-81270171D01*
X128706620Y-81299018D01*
X128750000Y-81316987D01*
X128853553Y-81396447D01*
X128933013Y-81500000D01*
X128982963Y-81620590D01*
X129000000Y-81750000D01*
X129000000Y-89750000D01*
X128982963Y-89879410D01*
X128933013Y-90000000D01*
X128853553Y-90103553D01*
X128750000Y-90183013D01*
X128742431Y-90186148D01*
X128636977Y-90229829D01*
X128636975Y-90229830D01*
X128629410Y-90232963D01*
X128621294Y-90234031D01*
X128621292Y-90234032D01*
X128504059Y-90249466D01*
X128504053Y-90249466D01*
X128500000Y-90250000D01*
X124500000Y-90250000D01*
X124495947Y-90249466D01*
X124495941Y-90249466D01*
X124378708Y-90234032D01*
X124378706Y-90234031D01*
X124370590Y-90232963D01*
X124363025Y-90229830D01*
X124363023Y-90229829D01*
X124257569Y-90186148D01*
X124250000Y-90183013D01*
X124146447Y-90103553D01*
X124066987Y-90000000D01*
X124017037Y-89879410D01*
X124000000Y-89750000D01*
X124000000Y-81750000D01*
X124017037Y-81620590D01*
X124066987Y-81500000D01*
X124146447Y-81396447D01*
X124250000Y-81316987D01*
X124293380Y-81299018D01*
X124363023Y-81270171D01*
X124363025Y-81270170D01*
X124370590Y-81267037D01*
X124378706Y-81265969D01*
X124378708Y-81265968D01*
X124495941Y-81250534D01*
X124495947Y-81250534D01*
X124500000Y-81250000D01*
X128500000Y-81250000D01*
X128504053Y-81250534D01*
X128504053Y-81250534D01*
G37*
G36*
X184504053Y-81250534D02*
G01*
X184504059Y-81250534D01*
X184621292Y-81265968D01*
X184621294Y-81265969D01*
X184629410Y-81267037D01*
X184636975Y-81270170D01*
X184636977Y-81270171D01*
X184706620Y-81299018D01*
X184750000Y-81316987D01*
X184853553Y-81396447D01*
X184933013Y-81500000D01*
X184982963Y-81620590D01*
X185000000Y-81750000D01*
X185000000Y-89750000D01*
X184982963Y-89879410D01*
X184933013Y-90000000D01*
X184853553Y-90103553D01*
X184750000Y-90183013D01*
X184742431Y-90186148D01*
X184636977Y-90229829D01*
X184636975Y-90229830D01*
X184629410Y-90232963D01*
X184621294Y-90234031D01*
X184621292Y-90234032D01*
X184504059Y-90249466D01*
X184504053Y-90249466D01*
X184500000Y-90250000D01*
X180500000Y-90250000D01*
X180495947Y-90249466D01*
X180495941Y-90249466D01*
X180378708Y-90234032D01*
X180378706Y-90234031D01*
X180370590Y-90232963D01*
X180363025Y-90229830D01*
X180363023Y-90229829D01*
X180257569Y-90186148D01*
X180250000Y-90183013D01*
X180146447Y-90103553D01*
X180066987Y-90000000D01*
X180017037Y-89879410D01*
X180000000Y-89750000D01*
X180000000Y-81750000D01*
X180017037Y-81620590D01*
X180066987Y-81500000D01*
X180146447Y-81396447D01*
X180250000Y-81316987D01*
X180293380Y-81299018D01*
X180363023Y-81270171D01*
X180363025Y-81270170D01*
X180370590Y-81267037D01*
X180378706Y-81265969D01*
X180378708Y-81265968D01*
X180495941Y-81250534D01*
X180495947Y-81250534D01*
X180500000Y-81250000D01*
X184500000Y-81250000D01*
X184504053Y-81250534D01*
X184504053Y-81250534D01*
G37*
G36*
X176504053Y-81250534D02*
G01*
X176504059Y-81250534D01*
X176621292Y-81265968D01*
X176621294Y-81265969D01*
X176629410Y-81267037D01*
X176636975Y-81270170D01*
X176636977Y-81270171D01*
X176706620Y-81299018D01*
X176750000Y-81316987D01*
X176853553Y-81396447D01*
X176933013Y-81500000D01*
X176982963Y-81620590D01*
X177000000Y-81750000D01*
X177000000Y-89750000D01*
X176982963Y-89879410D01*
X176933013Y-90000000D01*
X176853553Y-90103553D01*
X176750000Y-90183013D01*
X176742431Y-90186148D01*
X176636977Y-90229829D01*
X176636975Y-90229830D01*
X176629410Y-90232963D01*
X176621294Y-90234031D01*
X176621292Y-90234032D01*
X176504059Y-90249466D01*
X176504053Y-90249466D01*
X176500000Y-90250000D01*
X172500000Y-90250000D01*
X172495947Y-90249466D01*
X172495941Y-90249466D01*
X172378708Y-90234032D01*
X172378706Y-90234031D01*
X172370590Y-90232963D01*
X172363025Y-90229830D01*
X172363023Y-90229829D01*
X172257569Y-90186148D01*
X172250000Y-90183013D01*
X172146447Y-90103553D01*
X172066987Y-90000000D01*
X172017037Y-89879410D01*
X172000000Y-89750000D01*
X172000000Y-81750000D01*
X172017037Y-81620590D01*
X172066987Y-81500000D01*
X172146447Y-81396447D01*
X172250000Y-81316987D01*
X172293380Y-81299018D01*
X172363023Y-81270171D01*
X172363025Y-81270170D01*
X172370590Y-81267037D01*
X172378706Y-81265969D01*
X172378708Y-81265968D01*
X172495941Y-81250534D01*
X172495947Y-81250534D01*
X172500000Y-81250000D01*
X176500000Y-81250000D01*
X176504053Y-81250534D01*
X176504053Y-81250534D01*
G37*
G36*
X150807267Y-76720263D02*
G01*
X150959411Y-76750526D01*
X151078137Y-76799704D01*
X151246041Y-76869252D01*
X151246042Y-76869253D01*
X151504004Y-77041617D01*
X151723383Y-77260996D01*
X151838553Y-77433361D01*
X151895748Y-77518959D01*
X152014474Y-77805590D01*
X152075000Y-78109875D01*
X152075000Y-78420125D01*
X152014474Y-78724410D01*
X151895748Y-79011041D01*
X151895747Y-79011042D01*
X151723383Y-79269004D01*
X151504004Y-79488383D01*
X151331639Y-79603553D01*
X151246041Y-79660748D01*
X151078137Y-79730296D01*
X150959411Y-79779474D01*
X150807267Y-79809737D01*
X150655125Y-79840000D01*
X150344875Y-79840000D01*
X150192733Y-79809737D01*
X150040589Y-79779474D01*
X149921863Y-79730296D01*
X149753959Y-79660748D01*
X149668361Y-79603553D01*
X149495996Y-79488383D01*
X149276617Y-79269004D01*
X149104253Y-79011042D01*
X149104252Y-79011041D01*
X148985526Y-78724410D01*
X148925000Y-78420125D01*
X148925000Y-78109875D01*
X148985526Y-77805590D01*
X149104252Y-77518959D01*
X149161447Y-77433361D01*
X149276617Y-77260996D01*
X149495996Y-77041617D01*
X149753958Y-76869253D01*
X149753959Y-76869252D01*
X149921863Y-76799704D01*
X150040589Y-76750526D01*
X150192733Y-76720263D01*
X150344875Y-76690000D01*
X150655125Y-76690000D01*
X150807267Y-76720263D01*
X150807267Y-76720263D01*
G37*
G36*
X174807267Y-76720263D02*
G01*
X174959411Y-76750526D01*
X175078137Y-76799704D01*
X175246041Y-76869252D01*
X175246042Y-76869253D01*
X175504004Y-77041617D01*
X175723383Y-77260996D01*
X175838553Y-77433361D01*
X175895748Y-77518959D01*
X176014474Y-77805590D01*
X176075000Y-78109875D01*
X176075000Y-78420125D01*
X176014474Y-78724410D01*
X175895748Y-79011041D01*
X175895747Y-79011042D01*
X175723383Y-79269004D01*
X175504004Y-79488383D01*
X175331639Y-79603553D01*
X175246041Y-79660748D01*
X175078137Y-79730296D01*
X174959411Y-79779474D01*
X174807267Y-79809737D01*
X174655125Y-79840000D01*
X174344875Y-79840000D01*
X174192733Y-79809737D01*
X174040589Y-79779474D01*
X173921863Y-79730296D01*
X173753959Y-79660748D01*
X173668361Y-79603553D01*
X173495996Y-79488383D01*
X173276617Y-79269004D01*
X173104253Y-79011042D01*
X173104252Y-79011041D01*
X172985526Y-78724410D01*
X172925000Y-78420125D01*
X172925000Y-78109875D01*
X172985526Y-77805590D01*
X173104252Y-77518959D01*
X173161447Y-77433361D01*
X173276617Y-77260996D01*
X173495996Y-77041617D01*
X173753958Y-76869253D01*
X173753959Y-76869252D01*
X173921863Y-76799704D01*
X174040589Y-76750526D01*
X174192733Y-76720263D01*
X174344875Y-76690000D01*
X174655125Y-76690000D01*
X174807267Y-76720263D01*
X174807267Y-76720263D01*
G37*
G36*
X158807267Y-76720263D02*
G01*
X158959411Y-76750526D01*
X159078137Y-76799704D01*
X159246041Y-76869252D01*
X159246042Y-76869253D01*
X159504004Y-77041617D01*
X159723383Y-77260996D01*
X159838553Y-77433361D01*
X159895748Y-77518959D01*
X160014474Y-77805590D01*
X160075000Y-78109875D01*
X160075000Y-78420125D01*
X160014474Y-78724410D01*
X159895748Y-79011041D01*
X159895747Y-79011042D01*
X159723383Y-79269004D01*
X159504004Y-79488383D01*
X159331639Y-79603553D01*
X159246041Y-79660748D01*
X159078137Y-79730296D01*
X158959411Y-79779474D01*
X158807267Y-79809737D01*
X158655125Y-79840000D01*
X158344875Y-79840000D01*
X158192733Y-79809737D01*
X158040589Y-79779474D01*
X157921863Y-79730296D01*
X157753959Y-79660748D01*
X157668361Y-79603553D01*
X157495996Y-79488383D01*
X157276617Y-79269004D01*
X157104253Y-79011042D01*
X157104252Y-79011041D01*
X156985526Y-78724410D01*
X156925000Y-78420125D01*
X156925000Y-78109875D01*
X156985526Y-77805590D01*
X157104252Y-77518959D01*
X157161447Y-77433361D01*
X157276617Y-77260996D01*
X157495996Y-77041617D01*
X157753958Y-76869253D01*
X157753959Y-76869252D01*
X157921863Y-76799704D01*
X158040589Y-76750526D01*
X158192733Y-76720263D01*
X158344875Y-76690000D01*
X158655125Y-76690000D01*
X158807267Y-76720263D01*
X158807267Y-76720263D01*
G37*
G36*
X182807267Y-76720263D02*
G01*
X182959411Y-76750526D01*
X183078137Y-76799704D01*
X183246041Y-76869252D01*
X183246042Y-76869253D01*
X183504004Y-77041617D01*
X183723383Y-77260996D01*
X183838553Y-77433361D01*
X183895748Y-77518959D01*
X184014474Y-77805590D01*
X184075000Y-78109875D01*
X184075000Y-78420125D01*
X184014474Y-78724410D01*
X183895748Y-79011041D01*
X183895747Y-79011042D01*
X183723383Y-79269004D01*
X183504004Y-79488383D01*
X183331639Y-79603553D01*
X183246041Y-79660748D01*
X183078137Y-79730296D01*
X182959411Y-79779474D01*
X182807267Y-79809737D01*
X182655125Y-79840000D01*
X182344875Y-79840000D01*
X182192733Y-79809737D01*
X182040589Y-79779474D01*
X181921863Y-79730296D01*
X181753959Y-79660748D01*
X181668361Y-79603553D01*
X181495996Y-79488383D01*
X181276617Y-79269004D01*
X181104253Y-79011042D01*
X181104252Y-79011041D01*
X180985526Y-78724410D01*
X180925000Y-78420125D01*
X180925000Y-78109875D01*
X180985526Y-77805590D01*
X181104252Y-77518959D01*
X181161447Y-77433361D01*
X181276617Y-77260996D01*
X181495996Y-77041617D01*
X181753958Y-76869253D01*
X181753959Y-76869252D01*
X181921863Y-76799704D01*
X182040589Y-76750526D01*
X182192733Y-76720263D01*
X182344875Y-76690000D01*
X182655125Y-76690000D01*
X182807267Y-76720263D01*
X182807267Y-76720263D01*
G37*
G36*
X190807267Y-76720263D02*
G01*
X190959411Y-76750526D01*
X191078137Y-76799704D01*
X191246041Y-76869252D01*
X191246042Y-76869253D01*
X191504004Y-77041617D01*
X191723383Y-77260996D01*
X191838553Y-77433361D01*
X191895748Y-77518959D01*
X192014474Y-77805590D01*
X192075000Y-78109875D01*
X192075000Y-78420125D01*
X192014474Y-78724410D01*
X191895748Y-79011041D01*
X191895747Y-79011042D01*
X191723383Y-79269004D01*
X191504004Y-79488383D01*
X191331639Y-79603553D01*
X191246041Y-79660748D01*
X191078137Y-79730296D01*
X190959411Y-79779474D01*
X190807267Y-79809737D01*
X190655125Y-79840000D01*
X190344875Y-79840000D01*
X190192733Y-79809737D01*
X190040589Y-79779474D01*
X189921863Y-79730296D01*
X189753959Y-79660748D01*
X189668361Y-79603553D01*
X189495996Y-79488383D01*
X189276617Y-79269004D01*
X189104253Y-79011042D01*
X189104252Y-79011041D01*
X188985526Y-78724410D01*
X188925000Y-78420125D01*
X188925000Y-78109875D01*
X188985526Y-77805590D01*
X189104252Y-77518959D01*
X189161447Y-77433361D01*
X189276617Y-77260996D01*
X189495996Y-77041617D01*
X189753958Y-76869253D01*
X189753959Y-76869252D01*
X189921863Y-76799704D01*
X190040589Y-76750526D01*
X190192733Y-76720263D01*
X190344875Y-76690000D01*
X190655125Y-76690000D01*
X190807267Y-76720263D01*
X190807267Y-76720263D01*
G37*
G36*
X198807267Y-76720263D02*
G01*
X198959411Y-76750526D01*
X199078137Y-76799704D01*
X199246041Y-76869252D01*
X199246042Y-76869253D01*
X199504004Y-77041617D01*
X199723383Y-77260996D01*
X199838553Y-77433361D01*
X199895748Y-77518959D01*
X200014474Y-77805590D01*
X200075000Y-78109875D01*
X200075000Y-78420125D01*
X200014474Y-78724410D01*
X199895748Y-79011041D01*
X199895747Y-79011042D01*
X199723383Y-79269004D01*
X199504004Y-79488383D01*
X199331639Y-79603553D01*
X199246041Y-79660748D01*
X199078137Y-79730296D01*
X198959411Y-79779474D01*
X198807267Y-79809737D01*
X198655125Y-79840000D01*
X198344875Y-79840000D01*
X198192733Y-79809737D01*
X198040589Y-79779474D01*
X197921863Y-79730296D01*
X197753959Y-79660748D01*
X197668361Y-79603553D01*
X197495996Y-79488383D01*
X197276617Y-79269004D01*
X197104253Y-79011042D01*
X197104252Y-79011041D01*
X196985526Y-78724410D01*
X196925000Y-78420125D01*
X196925000Y-78109875D01*
X196985526Y-77805590D01*
X197104252Y-77518959D01*
X197161447Y-77433361D01*
X197276617Y-77260996D01*
X197495996Y-77041617D01*
X197753958Y-76869253D01*
X197753959Y-76869252D01*
X197921863Y-76799704D01*
X198040589Y-76750526D01*
X198192733Y-76720263D01*
X198344875Y-76690000D01*
X198655125Y-76690000D01*
X198807267Y-76720263D01*
X198807267Y-76720263D01*
G37*
G36*
X214807267Y-76720263D02*
G01*
X214959411Y-76750526D01*
X215078137Y-76799704D01*
X215246041Y-76869252D01*
X215246042Y-76869253D01*
X215504004Y-77041617D01*
X215723383Y-77260996D01*
X215838553Y-77433361D01*
X215895748Y-77518959D01*
X216014474Y-77805590D01*
X216075000Y-78109875D01*
X216075000Y-78420125D01*
X216014474Y-78724410D01*
X215895748Y-79011041D01*
X215895747Y-79011042D01*
X215723383Y-79269004D01*
X215504004Y-79488383D01*
X215331639Y-79603553D01*
X215246041Y-79660748D01*
X215078137Y-79730296D01*
X214959411Y-79779474D01*
X214807267Y-79809737D01*
X214655125Y-79840000D01*
X214344875Y-79840000D01*
X214192733Y-79809737D01*
X214040589Y-79779474D01*
X213921863Y-79730296D01*
X213753959Y-79660748D01*
X213668361Y-79603553D01*
X213495996Y-79488383D01*
X213276617Y-79269004D01*
X213104253Y-79011042D01*
X213104252Y-79011041D01*
X212985526Y-78724410D01*
X212925000Y-78420125D01*
X212925000Y-78109875D01*
X212985526Y-77805590D01*
X213104252Y-77518959D01*
X213161447Y-77433361D01*
X213276617Y-77260996D01*
X213495996Y-77041617D01*
X213753958Y-76869253D01*
X213753959Y-76869252D01*
X213921863Y-76799704D01*
X214040589Y-76750526D01*
X214192733Y-76720263D01*
X214344875Y-76690000D01*
X214655125Y-76690000D01*
X214807267Y-76720263D01*
X214807267Y-76720263D01*
G37*
G36*
X142807267Y-76720263D02*
G01*
X142959411Y-76750526D01*
X143078137Y-76799704D01*
X143246041Y-76869252D01*
X143246042Y-76869253D01*
X143504004Y-77041617D01*
X143723383Y-77260996D01*
X143838553Y-77433361D01*
X143895748Y-77518959D01*
X144014474Y-77805590D01*
X144075000Y-78109875D01*
X144075000Y-78420125D01*
X144014474Y-78724410D01*
X143895748Y-79011041D01*
X143895747Y-79011042D01*
X143723383Y-79269004D01*
X143504004Y-79488383D01*
X143331639Y-79603553D01*
X143246041Y-79660748D01*
X143078137Y-79730296D01*
X142959411Y-79779474D01*
X142807267Y-79809737D01*
X142655125Y-79840000D01*
X142344875Y-79840000D01*
X142192733Y-79809737D01*
X142040589Y-79779474D01*
X141921863Y-79730296D01*
X141753959Y-79660748D01*
X141668361Y-79603553D01*
X141495996Y-79488383D01*
X141276617Y-79269004D01*
X141104253Y-79011042D01*
X141104252Y-79011041D01*
X140985526Y-78724410D01*
X140925000Y-78420125D01*
X140925000Y-78109875D01*
X140985526Y-77805590D01*
X141104252Y-77518959D01*
X141161447Y-77433361D01*
X141276617Y-77260996D01*
X141495996Y-77041617D01*
X141753958Y-76869253D01*
X141753959Y-76869252D01*
X141921863Y-76799704D01*
X142040589Y-76750526D01*
X142192733Y-76720263D01*
X142344875Y-76690000D01*
X142655125Y-76690000D01*
X142807267Y-76720263D01*
X142807267Y-76720263D01*
G37*
G36*
X134807267Y-76720263D02*
G01*
X134959411Y-76750526D01*
X135078137Y-76799704D01*
X135246041Y-76869252D01*
X135246042Y-76869253D01*
X135504004Y-77041617D01*
X135723383Y-77260996D01*
X135838553Y-77433361D01*
X135895748Y-77518959D01*
X136014474Y-77805590D01*
X136075000Y-78109875D01*
X136075000Y-78420125D01*
X136014474Y-78724410D01*
X135895748Y-79011041D01*
X135895747Y-79011042D01*
X135723383Y-79269004D01*
X135504004Y-79488383D01*
X135331639Y-79603553D01*
X135246041Y-79660748D01*
X135078137Y-79730296D01*
X134959411Y-79779474D01*
X134807267Y-79809737D01*
X134655125Y-79840000D01*
X134344875Y-79840000D01*
X134192733Y-79809737D01*
X134040589Y-79779474D01*
X133921863Y-79730296D01*
X133753959Y-79660748D01*
X133668361Y-79603553D01*
X133495996Y-79488383D01*
X133276617Y-79269004D01*
X133104253Y-79011042D01*
X133104252Y-79011041D01*
X132985526Y-78724410D01*
X132925000Y-78420125D01*
X132925000Y-78109875D01*
X132985526Y-77805590D01*
X133104252Y-77518959D01*
X133161447Y-77433361D01*
X133276617Y-77260996D01*
X133495996Y-77041617D01*
X133753958Y-76869253D01*
X133753959Y-76869252D01*
X133921863Y-76799704D01*
X134040589Y-76750526D01*
X134192733Y-76720263D01*
X134344875Y-76690000D01*
X134655125Y-76690000D01*
X134807267Y-76720263D01*
X134807267Y-76720263D01*
G37*
G36*
X126807267Y-76720263D02*
G01*
X126959411Y-76750526D01*
X127078137Y-76799704D01*
X127246041Y-76869252D01*
X127246042Y-76869253D01*
X127504004Y-77041617D01*
X127723383Y-77260996D01*
X127838553Y-77433361D01*
X127895748Y-77518959D01*
X128014474Y-77805590D01*
X128075000Y-78109875D01*
X128075000Y-78420125D01*
X128014474Y-78724410D01*
X127895748Y-79011041D01*
X127895747Y-79011042D01*
X127723383Y-79269004D01*
X127504004Y-79488383D01*
X127331639Y-79603553D01*
X127246041Y-79660748D01*
X127078137Y-79730296D01*
X126959411Y-79779474D01*
X126807267Y-79809737D01*
X126655125Y-79840000D01*
X126344875Y-79840000D01*
X126192733Y-79809737D01*
X126040589Y-79779474D01*
X125921863Y-79730296D01*
X125753959Y-79660748D01*
X125668361Y-79603553D01*
X125495996Y-79488383D01*
X125276617Y-79269004D01*
X125104253Y-79011042D01*
X125104252Y-79011041D01*
X124985526Y-78724410D01*
X124925000Y-78420125D01*
X124925000Y-78109875D01*
X124985526Y-77805590D01*
X125104252Y-77518959D01*
X125161447Y-77433361D01*
X125276617Y-77260996D01*
X125495996Y-77041617D01*
X125753958Y-76869253D01*
X125753959Y-76869252D01*
X125921863Y-76799704D01*
X126040589Y-76750526D01*
X126192733Y-76720263D01*
X126344875Y-76690000D01*
X126655125Y-76690000D01*
X126807267Y-76720263D01*
X126807267Y-76720263D01*
G37*
G36*
X206807267Y-76720263D02*
G01*
X206959411Y-76750526D01*
X207078137Y-76799704D01*
X207246041Y-76869252D01*
X207246042Y-76869253D01*
X207504004Y-77041617D01*
X207723383Y-77260996D01*
X207838553Y-77433361D01*
X207895748Y-77518959D01*
X208014474Y-77805590D01*
X208075000Y-78109875D01*
X208075000Y-78420125D01*
X208014474Y-78724410D01*
X207895748Y-79011041D01*
X207895747Y-79011042D01*
X207723383Y-79269004D01*
X207504004Y-79488383D01*
X207331639Y-79603553D01*
X207246041Y-79660748D01*
X207078137Y-79730296D01*
X206959411Y-79779474D01*
X206807267Y-79809737D01*
X206655125Y-79840000D01*
X206344875Y-79840000D01*
X206192733Y-79809737D01*
X206040589Y-79779474D01*
X205921863Y-79730296D01*
X205753959Y-79660748D01*
X205668361Y-79603553D01*
X205495996Y-79488383D01*
X205276617Y-79269004D01*
X205104253Y-79011042D01*
X205104252Y-79011041D01*
X204985526Y-78724410D01*
X204925000Y-78420125D01*
X204925000Y-78109875D01*
X204985526Y-77805590D01*
X205104252Y-77518959D01*
X205161447Y-77433361D01*
X205276617Y-77260996D01*
X205495996Y-77041617D01*
X205753958Y-76869253D01*
X205753959Y-76869252D01*
X205921863Y-76799704D01*
X206040589Y-76750526D01*
X206192733Y-76720263D01*
X206344875Y-76690000D01*
X206655125Y-76690000D01*
X206807267Y-76720263D01*
X206807267Y-76720263D01*
G37*
G36*
X166807267Y-76720263D02*
G01*
X166959411Y-76750526D01*
X167078137Y-76799704D01*
X167246041Y-76869252D01*
X167246042Y-76869253D01*
X167504004Y-77041617D01*
X167723383Y-77260996D01*
X167838553Y-77433361D01*
X167895748Y-77518959D01*
X168014474Y-77805590D01*
X168075000Y-78109875D01*
X168075000Y-78420125D01*
X168014474Y-78724410D01*
X167895748Y-79011041D01*
X167895747Y-79011042D01*
X167723383Y-79269004D01*
X167504004Y-79488383D01*
X167331639Y-79603553D01*
X167246041Y-79660748D01*
X167078137Y-79730296D01*
X166959411Y-79779474D01*
X166807267Y-79809737D01*
X166655125Y-79840000D01*
X166344875Y-79840000D01*
X166192733Y-79809737D01*
X166040589Y-79779474D01*
X165921863Y-79730296D01*
X165753959Y-79660748D01*
X165668361Y-79603553D01*
X165495996Y-79488383D01*
X165276617Y-79269004D01*
X165104253Y-79011042D01*
X165104252Y-79011041D01*
X164985526Y-78724410D01*
X164925000Y-78420125D01*
X164925000Y-78109875D01*
X164985526Y-77805590D01*
X165104252Y-77518959D01*
X165161447Y-77433361D01*
X165276617Y-77260996D01*
X165495996Y-77041617D01*
X165753958Y-76869253D01*
X165753959Y-76869252D01*
X165921863Y-76799704D01*
X166040589Y-76750526D01*
X166192733Y-76720263D01*
X166344875Y-76690000D01*
X166655125Y-76690000D01*
X166807267Y-76720263D01*
X166807267Y-76720263D01*
G37*
G36*
X159096474Y-70788684D02*
G01*
X159314474Y-70878983D01*
X159468623Y-70942833D01*
X159803548Y-71166623D01*
X160088377Y-71451452D01*
X160312167Y-71786377D01*
X160312167Y-71786378D01*
X160466316Y-72158526D01*
X160544900Y-72553594D01*
X160544900Y-72956406D01*
X160466316Y-73351474D01*
X160376017Y-73569474D01*
X160312167Y-73723623D01*
X160088377Y-74058548D01*
X159803548Y-74343377D01*
X159468623Y-74567167D01*
X159314474Y-74631017D01*
X159096474Y-74721316D01*
X158701406Y-74799900D01*
X158298594Y-74799900D01*
X157903526Y-74721316D01*
X157685526Y-74631017D01*
X157531377Y-74567167D01*
X157196452Y-74343377D01*
X156911623Y-74058548D01*
X156687833Y-73723623D01*
X156623983Y-73569474D01*
X156533684Y-73351474D01*
X156455100Y-72956406D01*
X156455100Y-72553594D01*
X156533684Y-72158526D01*
X156687833Y-71786378D01*
X156687833Y-71786377D01*
X156911623Y-71451452D01*
X157196452Y-71166623D01*
X157531377Y-70942833D01*
X157685526Y-70878983D01*
X157903526Y-70788684D01*
X158298594Y-70710100D01*
X158701406Y-70710100D01*
X159096474Y-70788684D01*
X159096474Y-70788684D01*
G37*
G36*
X151096474Y-70788684D02*
G01*
X151314474Y-70878983D01*
X151468623Y-70942833D01*
X151803548Y-71166623D01*
X152088377Y-71451452D01*
X152312167Y-71786377D01*
X152312167Y-71786378D01*
X152466316Y-72158526D01*
X152544900Y-72553594D01*
X152544900Y-72956406D01*
X152466316Y-73351474D01*
X152376017Y-73569474D01*
X152312167Y-73723623D01*
X152088377Y-74058548D01*
X151803548Y-74343377D01*
X151468623Y-74567167D01*
X151314474Y-74631017D01*
X151096474Y-74721316D01*
X150701406Y-74799900D01*
X150298594Y-74799900D01*
X149903526Y-74721316D01*
X149685526Y-74631017D01*
X149531377Y-74567167D01*
X149196452Y-74343377D01*
X148911623Y-74058548D01*
X148687833Y-73723623D01*
X148623983Y-73569474D01*
X148533684Y-73351474D01*
X148455100Y-72956406D01*
X148455100Y-72553594D01*
X148533684Y-72158526D01*
X148687833Y-71786378D01*
X148687833Y-71786377D01*
X148911623Y-71451452D01*
X149196452Y-71166623D01*
X149531377Y-70942833D01*
X149685526Y-70878983D01*
X149903526Y-70788684D01*
X150298594Y-70710100D01*
X150701406Y-70710100D01*
X151096474Y-70788684D01*
X151096474Y-70788684D01*
G37*
G36*
X175096474Y-70788684D02*
G01*
X175314474Y-70878983D01*
X175468623Y-70942833D01*
X175803548Y-71166623D01*
X176088377Y-71451452D01*
X176312167Y-71786377D01*
X176312167Y-71786378D01*
X176466316Y-72158526D01*
X176544900Y-72553594D01*
X176544900Y-72956406D01*
X176466316Y-73351474D01*
X176376017Y-73569474D01*
X176312167Y-73723623D01*
X176088377Y-74058548D01*
X175803548Y-74343377D01*
X175468623Y-74567167D01*
X175314474Y-74631017D01*
X175096474Y-74721316D01*
X174701406Y-74799900D01*
X174298594Y-74799900D01*
X173903526Y-74721316D01*
X173685526Y-74631017D01*
X173531377Y-74567167D01*
X173196452Y-74343377D01*
X172911623Y-74058548D01*
X172687833Y-73723623D01*
X172623983Y-73569474D01*
X172533684Y-73351474D01*
X172455100Y-72956406D01*
X172455100Y-72553594D01*
X172533684Y-72158526D01*
X172687833Y-71786378D01*
X172687833Y-71786377D01*
X172911623Y-71451452D01*
X173196452Y-71166623D01*
X173531377Y-70942833D01*
X173685526Y-70878983D01*
X173903526Y-70788684D01*
X174298594Y-70710100D01*
X174701406Y-70710100D01*
X175096474Y-70788684D01*
X175096474Y-70788684D01*
G37*
G36*
X183096474Y-70788684D02*
G01*
X183314474Y-70878983D01*
X183468623Y-70942833D01*
X183803548Y-71166623D01*
X184088377Y-71451452D01*
X184312167Y-71786377D01*
X184312167Y-71786378D01*
X184466316Y-72158526D01*
X184544900Y-72553594D01*
X184544900Y-72956406D01*
X184466316Y-73351474D01*
X184376017Y-73569474D01*
X184312167Y-73723623D01*
X184088377Y-74058548D01*
X183803548Y-74343377D01*
X183468623Y-74567167D01*
X183314474Y-74631017D01*
X183096474Y-74721316D01*
X182701406Y-74799900D01*
X182298594Y-74799900D01*
X181903526Y-74721316D01*
X181685526Y-74631017D01*
X181531377Y-74567167D01*
X181196452Y-74343377D01*
X180911623Y-74058548D01*
X180687833Y-73723623D01*
X180623983Y-73569474D01*
X180533684Y-73351474D01*
X180455100Y-72956406D01*
X180455100Y-72553594D01*
X180533684Y-72158526D01*
X180687833Y-71786378D01*
X180687833Y-71786377D01*
X180911623Y-71451452D01*
X181196452Y-71166623D01*
X181531377Y-70942833D01*
X181685526Y-70878983D01*
X181903526Y-70788684D01*
X182298594Y-70710100D01*
X182701406Y-70710100D01*
X183096474Y-70788684D01*
X183096474Y-70788684D01*
G37*
G36*
X143096474Y-70788684D02*
G01*
X143314474Y-70878983D01*
X143468623Y-70942833D01*
X143803548Y-71166623D01*
X144088377Y-71451452D01*
X144312167Y-71786377D01*
X144312167Y-71786378D01*
X144466316Y-72158526D01*
X144544900Y-72553594D01*
X144544900Y-72956406D01*
X144466316Y-73351474D01*
X144376017Y-73569474D01*
X144312167Y-73723623D01*
X144088377Y-74058548D01*
X143803548Y-74343377D01*
X143468623Y-74567167D01*
X143314474Y-74631017D01*
X143096474Y-74721316D01*
X142701406Y-74799900D01*
X142298594Y-74799900D01*
X141903526Y-74721316D01*
X141685526Y-74631017D01*
X141531377Y-74567167D01*
X141196452Y-74343377D01*
X140911623Y-74058548D01*
X140687833Y-73723623D01*
X140623983Y-73569474D01*
X140533684Y-73351474D01*
X140455100Y-72956406D01*
X140455100Y-72553594D01*
X140533684Y-72158526D01*
X140687833Y-71786378D01*
X140687833Y-71786377D01*
X140911623Y-71451452D01*
X141196452Y-71166623D01*
X141531377Y-70942833D01*
X141685526Y-70878983D01*
X141903526Y-70788684D01*
X142298594Y-70710100D01*
X142701406Y-70710100D01*
X143096474Y-70788684D01*
X143096474Y-70788684D01*
G37*
G36*
X135096474Y-70788684D02*
G01*
X135314474Y-70878983D01*
X135468623Y-70942833D01*
X135803548Y-71166623D01*
X136088377Y-71451452D01*
X136312167Y-71786377D01*
X136312167Y-71786378D01*
X136466316Y-72158526D01*
X136544900Y-72553594D01*
X136544900Y-72956406D01*
X136466316Y-73351474D01*
X136376017Y-73569474D01*
X136312167Y-73723623D01*
X136088377Y-74058548D01*
X135803548Y-74343377D01*
X135468623Y-74567167D01*
X135314474Y-74631017D01*
X135096474Y-74721316D01*
X134701406Y-74799900D01*
X134298594Y-74799900D01*
X133903526Y-74721316D01*
X133685526Y-74631017D01*
X133531377Y-74567167D01*
X133196452Y-74343377D01*
X132911623Y-74058548D01*
X132687833Y-73723623D01*
X132623983Y-73569474D01*
X132533684Y-73351474D01*
X132455100Y-72956406D01*
X132455100Y-72553594D01*
X132533684Y-72158526D01*
X132687833Y-71786378D01*
X132687833Y-71786377D01*
X132911623Y-71451452D01*
X133196452Y-71166623D01*
X133531377Y-70942833D01*
X133685526Y-70878983D01*
X133903526Y-70788684D01*
X134298594Y-70710100D01*
X134701406Y-70710100D01*
X135096474Y-70788684D01*
X135096474Y-70788684D01*
G37*
G36*
X207096474Y-70788684D02*
G01*
X207314474Y-70878983D01*
X207468623Y-70942833D01*
X207803548Y-71166623D01*
X208088377Y-71451452D01*
X208312167Y-71786377D01*
X208312167Y-71786378D01*
X208466316Y-72158526D01*
X208544900Y-72553594D01*
X208544900Y-72956406D01*
X208466316Y-73351474D01*
X208376017Y-73569474D01*
X208312167Y-73723623D01*
X208088377Y-74058548D01*
X207803548Y-74343377D01*
X207468623Y-74567167D01*
X207314474Y-74631017D01*
X207096474Y-74721316D01*
X206701406Y-74799900D01*
X206298594Y-74799900D01*
X205903526Y-74721316D01*
X205685526Y-74631017D01*
X205531377Y-74567167D01*
X205196452Y-74343377D01*
X204911623Y-74058548D01*
X204687833Y-73723623D01*
X204623983Y-73569474D01*
X204533684Y-73351474D01*
X204455100Y-72956406D01*
X204455100Y-72553594D01*
X204533684Y-72158526D01*
X204687833Y-71786378D01*
X204687833Y-71786377D01*
X204911623Y-71451452D01*
X205196452Y-71166623D01*
X205531377Y-70942833D01*
X205685526Y-70878983D01*
X205903526Y-70788684D01*
X206298594Y-70710100D01*
X206701406Y-70710100D01*
X207096474Y-70788684D01*
X207096474Y-70788684D01*
G37*
G36*
X215096474Y-70788684D02*
G01*
X215314474Y-70878983D01*
X215468623Y-70942833D01*
X215803548Y-71166623D01*
X216088377Y-71451452D01*
X216312167Y-71786377D01*
X216312167Y-71786378D01*
X216466316Y-72158526D01*
X216544900Y-72553594D01*
X216544900Y-72956406D01*
X216466316Y-73351474D01*
X216376017Y-73569474D01*
X216312167Y-73723623D01*
X216088377Y-74058548D01*
X215803548Y-74343377D01*
X215468623Y-74567167D01*
X215314474Y-74631017D01*
X215096474Y-74721316D01*
X214701406Y-74799900D01*
X214298594Y-74799900D01*
X213903526Y-74721316D01*
X213685526Y-74631017D01*
X213531377Y-74567167D01*
X213196452Y-74343377D01*
X212911623Y-74058548D01*
X212687833Y-73723623D01*
X212623983Y-73569474D01*
X212533684Y-73351474D01*
X212455100Y-72956406D01*
X212455100Y-72553594D01*
X212533684Y-72158526D01*
X212687833Y-71786378D01*
X212687833Y-71786377D01*
X212911623Y-71451452D01*
X213196452Y-71166623D01*
X213531377Y-70942833D01*
X213685526Y-70878983D01*
X213903526Y-70788684D01*
X214298594Y-70710100D01*
X214701406Y-70710100D01*
X215096474Y-70788684D01*
X215096474Y-70788684D01*
G37*
G36*
X127096474Y-70788684D02*
G01*
X127314474Y-70878983D01*
X127468623Y-70942833D01*
X127803548Y-71166623D01*
X128088377Y-71451452D01*
X128312167Y-71786377D01*
X128312167Y-71786378D01*
X128466316Y-72158526D01*
X128544900Y-72553594D01*
X128544900Y-72956406D01*
X128466316Y-73351474D01*
X128376017Y-73569474D01*
X128312167Y-73723623D01*
X128088377Y-74058548D01*
X127803548Y-74343377D01*
X127468623Y-74567167D01*
X127314474Y-74631017D01*
X127096474Y-74721316D01*
X126701406Y-74799900D01*
X126298594Y-74799900D01*
X125903526Y-74721316D01*
X125685526Y-74631017D01*
X125531377Y-74567167D01*
X125196452Y-74343377D01*
X124911623Y-74058548D01*
X124687833Y-73723623D01*
X124623983Y-73569474D01*
X124533684Y-73351474D01*
X124455100Y-72956406D01*
X124455100Y-72553594D01*
X124533684Y-72158526D01*
X124687833Y-71786378D01*
X124687833Y-71786377D01*
X124911623Y-71451452D01*
X125196452Y-71166623D01*
X125531377Y-70942833D01*
X125685526Y-70878983D01*
X125903526Y-70788684D01*
X126298594Y-70710100D01*
X126701406Y-70710100D01*
X127096474Y-70788684D01*
X127096474Y-70788684D01*
G37*
G36*
X167096474Y-70788684D02*
G01*
X167314474Y-70878983D01*
X167468623Y-70942833D01*
X167803548Y-71166623D01*
X168088377Y-71451452D01*
X168312167Y-71786377D01*
X168312167Y-71786378D01*
X168466316Y-72158526D01*
X168544900Y-72553594D01*
X168544900Y-72956406D01*
X168466316Y-73351474D01*
X168376017Y-73569474D01*
X168312167Y-73723623D01*
X168088377Y-74058548D01*
X167803548Y-74343377D01*
X167468623Y-74567167D01*
X167314474Y-74631017D01*
X167096474Y-74721316D01*
X166701406Y-74799900D01*
X166298594Y-74799900D01*
X165903526Y-74721316D01*
X165685526Y-74631017D01*
X165531377Y-74567167D01*
X165196452Y-74343377D01*
X164911623Y-74058548D01*
X164687833Y-73723623D01*
X164623983Y-73569474D01*
X164533684Y-73351474D01*
X164455100Y-72956406D01*
X164455100Y-72553594D01*
X164533684Y-72158526D01*
X164687833Y-71786378D01*
X164687833Y-71786377D01*
X164911623Y-71451452D01*
X165196452Y-71166623D01*
X165531377Y-70942833D01*
X165685526Y-70878983D01*
X165903526Y-70788684D01*
X166298594Y-70710100D01*
X166701406Y-70710100D01*
X167096474Y-70788684D01*
X167096474Y-70788684D01*
G37*
G36*
X191096474Y-70788684D02*
G01*
X191314474Y-70878983D01*
X191468623Y-70942833D01*
X191803548Y-71166623D01*
X192088377Y-71451452D01*
X192312167Y-71786377D01*
X192312167Y-71786378D01*
X192466316Y-72158526D01*
X192544900Y-72553594D01*
X192544900Y-72956406D01*
X192466316Y-73351474D01*
X192376017Y-73569474D01*
X192312167Y-73723623D01*
X192088377Y-74058548D01*
X191803548Y-74343377D01*
X191468623Y-74567167D01*
X191314474Y-74631017D01*
X191096474Y-74721316D01*
X190701406Y-74799900D01*
X190298594Y-74799900D01*
X189903526Y-74721316D01*
X189685526Y-74631017D01*
X189531377Y-74567167D01*
X189196452Y-74343377D01*
X188911623Y-74058548D01*
X188687833Y-73723623D01*
X188623983Y-73569474D01*
X188533684Y-73351474D01*
X188455100Y-72956406D01*
X188455100Y-72553594D01*
X188533684Y-72158526D01*
X188687833Y-71786378D01*
X188687833Y-71786377D01*
X188911623Y-71451452D01*
X189196452Y-71166623D01*
X189531377Y-70942833D01*
X189685526Y-70878983D01*
X189903526Y-70788684D01*
X190298594Y-70710100D01*
X190701406Y-70710100D01*
X191096474Y-70788684D01*
X191096474Y-70788684D01*
G37*
G36*
X199096474Y-70788684D02*
G01*
X199314474Y-70878983D01*
X199468623Y-70942833D01*
X199803548Y-71166623D01*
X200088377Y-71451452D01*
X200312167Y-71786377D01*
X200312167Y-71786378D01*
X200466316Y-72158526D01*
X200544900Y-72553594D01*
X200544900Y-72956406D01*
X200466316Y-73351474D01*
X200376017Y-73569474D01*
X200312167Y-73723623D01*
X200088377Y-74058548D01*
X199803548Y-74343377D01*
X199468623Y-74567167D01*
X199314474Y-74631017D01*
X199096474Y-74721316D01*
X198701406Y-74799900D01*
X198298594Y-74799900D01*
X197903526Y-74721316D01*
X197685526Y-74631017D01*
X197531377Y-74567167D01*
X197196452Y-74343377D01*
X196911623Y-74058548D01*
X196687833Y-73723623D01*
X196623983Y-73569474D01*
X196533684Y-73351474D01*
X196455100Y-72956406D01*
X196455100Y-72553594D01*
X196533684Y-72158526D01*
X196687833Y-71786378D01*
X196687833Y-71786377D01*
X196911623Y-71451452D01*
X197196452Y-71166623D01*
X197531377Y-70942833D01*
X197685526Y-70878983D01*
X197903526Y-70788684D01*
X198298594Y-70710100D01*
X198701406Y-70710100D01*
X199096474Y-70788684D01*
X199096474Y-70788684D01*
G37*
G36*
X136504053Y-60500534D02*
G01*
X136504059Y-60500534D01*
X136621292Y-60515968D01*
X136621294Y-60515969D01*
X136629410Y-60517037D01*
X136636975Y-60520170D01*
X136636977Y-60520171D01*
X136706620Y-60549018D01*
X136750000Y-60566987D01*
X136853553Y-60646447D01*
X136933013Y-60750000D01*
X136982963Y-60870590D01*
X137000000Y-61000000D01*
X137000000Y-69000000D01*
X136982963Y-69129410D01*
X136933013Y-69250000D01*
X136853553Y-69353553D01*
X136750000Y-69433013D01*
X136742431Y-69436148D01*
X136636977Y-69479829D01*
X136636975Y-69479830D01*
X136629410Y-69482963D01*
X136621294Y-69484031D01*
X136621292Y-69484032D01*
X136504059Y-69499466D01*
X136504053Y-69499466D01*
X136500000Y-69500000D01*
X132500000Y-69500000D01*
X132495947Y-69499466D01*
X132495941Y-69499466D01*
X132378708Y-69484032D01*
X132378706Y-69484031D01*
X132370590Y-69482963D01*
X132363025Y-69479830D01*
X132363023Y-69479829D01*
X132257569Y-69436148D01*
X132250000Y-69433013D01*
X132146447Y-69353553D01*
X132066987Y-69250000D01*
X132017037Y-69129410D01*
X132000000Y-69000000D01*
X132000000Y-61000000D01*
X132017037Y-60870590D01*
X132066987Y-60750000D01*
X132146447Y-60646447D01*
X132250000Y-60566987D01*
X132293380Y-60549018D01*
X132363023Y-60520171D01*
X132363025Y-60520170D01*
X132370590Y-60517037D01*
X132378706Y-60515969D01*
X132378708Y-60515968D01*
X132495941Y-60500534D01*
X132495947Y-60500534D01*
X132500000Y-60500000D01*
X136500000Y-60500000D01*
X136504053Y-60500534D01*
X136504053Y-60500534D01*
G37*
G36*
X144504053Y-60500534D02*
G01*
X144504059Y-60500534D01*
X144621292Y-60515968D01*
X144621294Y-60515969D01*
X144629410Y-60517037D01*
X144636975Y-60520170D01*
X144636977Y-60520171D01*
X144706620Y-60549018D01*
X144750000Y-60566987D01*
X144853553Y-60646447D01*
X144933013Y-60750000D01*
X144982963Y-60870590D01*
X145000000Y-61000000D01*
X145000000Y-69000000D01*
X144982963Y-69129410D01*
X144933013Y-69250000D01*
X144853553Y-69353553D01*
X144750000Y-69433013D01*
X144742431Y-69436148D01*
X144636977Y-69479829D01*
X144636975Y-69479830D01*
X144629410Y-69482963D01*
X144621294Y-69484031D01*
X144621292Y-69484032D01*
X144504059Y-69499466D01*
X144504053Y-69499466D01*
X144500000Y-69500000D01*
X140500000Y-69500000D01*
X140495947Y-69499466D01*
X140495941Y-69499466D01*
X140378708Y-69484032D01*
X140378706Y-69484031D01*
X140370590Y-69482963D01*
X140363025Y-69479830D01*
X140363023Y-69479829D01*
X140257569Y-69436148D01*
X140250000Y-69433013D01*
X140146447Y-69353553D01*
X140066987Y-69250000D01*
X140017037Y-69129410D01*
X140000000Y-69000000D01*
X140000000Y-61000000D01*
X140017037Y-60870590D01*
X140066987Y-60750000D01*
X140146447Y-60646447D01*
X140250000Y-60566987D01*
X140293380Y-60549018D01*
X140363023Y-60520171D01*
X140363025Y-60520170D01*
X140370590Y-60517037D01*
X140378706Y-60515969D01*
X140378708Y-60515968D01*
X140495941Y-60500534D01*
X140495947Y-60500534D01*
X140500000Y-60500000D01*
X144500000Y-60500000D01*
X144504053Y-60500534D01*
X144504053Y-60500534D01*
G37*
G36*
X128504053Y-60500534D02*
G01*
X128504059Y-60500534D01*
X128621292Y-60515968D01*
X128621294Y-60515969D01*
X128629410Y-60517037D01*
X128636975Y-60520170D01*
X128636977Y-60520171D01*
X128706620Y-60549018D01*
X128750000Y-60566987D01*
X128853553Y-60646447D01*
X128933013Y-60750000D01*
X128982963Y-60870590D01*
X129000000Y-61000000D01*
X129000000Y-69000000D01*
X128982963Y-69129410D01*
X128933013Y-69250000D01*
X128853553Y-69353553D01*
X128750000Y-69433013D01*
X128742431Y-69436148D01*
X128636977Y-69479829D01*
X128636975Y-69479830D01*
X128629410Y-69482963D01*
X128621294Y-69484031D01*
X128621292Y-69484032D01*
X128504059Y-69499466D01*
X128504053Y-69499466D01*
X128500000Y-69500000D01*
X124500000Y-69500000D01*
X124495947Y-69499466D01*
X124495941Y-69499466D01*
X124378708Y-69484032D01*
X124378706Y-69484031D01*
X124370590Y-69482963D01*
X124363025Y-69479830D01*
X124363023Y-69479829D01*
X124257569Y-69436148D01*
X124250000Y-69433013D01*
X124146447Y-69353553D01*
X124066987Y-69250000D01*
X124017037Y-69129410D01*
X124000000Y-69000000D01*
X124000000Y-61000000D01*
X124017037Y-60870590D01*
X124066987Y-60750000D01*
X124146447Y-60646447D01*
X124250000Y-60566987D01*
X124293380Y-60549018D01*
X124363023Y-60520171D01*
X124363025Y-60520170D01*
X124370590Y-60517037D01*
X124378706Y-60515969D01*
X124378708Y-60515968D01*
X124495941Y-60500534D01*
X124495947Y-60500534D01*
X124500000Y-60500000D01*
X128500000Y-60500000D01*
X128504053Y-60500534D01*
X128504053Y-60500534D01*
G37*
G36*
X160504053Y-60500534D02*
G01*
X160504059Y-60500534D01*
X160621292Y-60515968D01*
X160621294Y-60515969D01*
X160629410Y-60517037D01*
X160636975Y-60520170D01*
X160636977Y-60520171D01*
X160706620Y-60549018D01*
X160750000Y-60566987D01*
X160853553Y-60646447D01*
X160933013Y-60750000D01*
X160982963Y-60870590D01*
X161000000Y-61000000D01*
X161000000Y-69000000D01*
X160982963Y-69129410D01*
X160933013Y-69250000D01*
X160853553Y-69353553D01*
X160750000Y-69433013D01*
X160742431Y-69436148D01*
X160636977Y-69479829D01*
X160636975Y-69479830D01*
X160629410Y-69482963D01*
X160621294Y-69484031D01*
X160621292Y-69484032D01*
X160504059Y-69499466D01*
X160504053Y-69499466D01*
X160500000Y-69500000D01*
X156500000Y-69500000D01*
X156495947Y-69499466D01*
X156495941Y-69499466D01*
X156378708Y-69484032D01*
X156378706Y-69484031D01*
X156370590Y-69482963D01*
X156363025Y-69479830D01*
X156363023Y-69479829D01*
X156257569Y-69436148D01*
X156250000Y-69433013D01*
X156146447Y-69353553D01*
X156066987Y-69250000D01*
X156017037Y-69129410D01*
X156000000Y-69000000D01*
X156000000Y-61000000D01*
X156017037Y-60870590D01*
X156066987Y-60750000D01*
X156146447Y-60646447D01*
X156250000Y-60566987D01*
X156293380Y-60549018D01*
X156363023Y-60520171D01*
X156363025Y-60520170D01*
X156370590Y-60517037D01*
X156378706Y-60515969D01*
X156378708Y-60515968D01*
X156495941Y-60500534D01*
X156495947Y-60500534D01*
X156500000Y-60500000D01*
X160500000Y-60500000D01*
X160504053Y-60500534D01*
X160504053Y-60500534D01*
G37*
G36*
X176504053Y-60500534D02*
G01*
X176504059Y-60500534D01*
X176621292Y-60515968D01*
X176621294Y-60515969D01*
X176629410Y-60517037D01*
X176636975Y-60520170D01*
X176636977Y-60520171D01*
X176706620Y-60549018D01*
X176750000Y-60566987D01*
X176853553Y-60646447D01*
X176933013Y-60750000D01*
X176982963Y-60870590D01*
X177000000Y-61000000D01*
X177000000Y-69000000D01*
X176982963Y-69129410D01*
X176933013Y-69250000D01*
X176853553Y-69353553D01*
X176750000Y-69433013D01*
X176742431Y-69436148D01*
X176636977Y-69479829D01*
X176636975Y-69479830D01*
X176629410Y-69482963D01*
X176621294Y-69484031D01*
X176621292Y-69484032D01*
X176504059Y-69499466D01*
X176504053Y-69499466D01*
X176500000Y-69500000D01*
X172500000Y-69500000D01*
X172495947Y-69499466D01*
X172495941Y-69499466D01*
X172378708Y-69484032D01*
X172378706Y-69484031D01*
X172370590Y-69482963D01*
X172363025Y-69479830D01*
X172363023Y-69479829D01*
X172257569Y-69436148D01*
X172250000Y-69433013D01*
X172146447Y-69353553D01*
X172066987Y-69250000D01*
X172017037Y-69129410D01*
X172000000Y-69000000D01*
X172000000Y-61000000D01*
X172017037Y-60870590D01*
X172066987Y-60750000D01*
X172146447Y-60646447D01*
X172250000Y-60566987D01*
X172293380Y-60549018D01*
X172363023Y-60520171D01*
X172363025Y-60520170D01*
X172370590Y-60517037D01*
X172378706Y-60515969D01*
X172378708Y-60515968D01*
X172495941Y-60500534D01*
X172495947Y-60500534D01*
X172500000Y-60500000D01*
X176500000Y-60500000D01*
X176504053Y-60500534D01*
X176504053Y-60500534D01*
G37*
G36*
X216504053Y-60500534D02*
G01*
X216504059Y-60500534D01*
X216621292Y-60515968D01*
X216621294Y-60515969D01*
X216629410Y-60517037D01*
X216636975Y-60520170D01*
X216636977Y-60520171D01*
X216706620Y-60549018D01*
X216750000Y-60566987D01*
X216853553Y-60646447D01*
X216933013Y-60750000D01*
X216982963Y-60870590D01*
X217000000Y-61000000D01*
X217000000Y-69000000D01*
X216982963Y-69129410D01*
X216933013Y-69250000D01*
X216853553Y-69353553D01*
X216750000Y-69433013D01*
X216742431Y-69436148D01*
X216636977Y-69479829D01*
X216636975Y-69479830D01*
X216629410Y-69482963D01*
X216621294Y-69484031D01*
X216621292Y-69484032D01*
X216504059Y-69499466D01*
X216504053Y-69499466D01*
X216500000Y-69500000D01*
X212500000Y-69500000D01*
X212495947Y-69499466D01*
X212495941Y-69499466D01*
X212378708Y-69484032D01*
X212378706Y-69484031D01*
X212370590Y-69482963D01*
X212363025Y-69479830D01*
X212363023Y-69479829D01*
X212257569Y-69436148D01*
X212250000Y-69433013D01*
X212146447Y-69353553D01*
X212066987Y-69250000D01*
X212017037Y-69129410D01*
X212000000Y-69000000D01*
X212000000Y-61000000D01*
X212017037Y-60870590D01*
X212066987Y-60750000D01*
X212146447Y-60646447D01*
X212250000Y-60566987D01*
X212293380Y-60549018D01*
X212363023Y-60520171D01*
X212363025Y-60520170D01*
X212370590Y-60517037D01*
X212378706Y-60515969D01*
X212378708Y-60515968D01*
X212495941Y-60500534D01*
X212495947Y-60500534D01*
X212500000Y-60500000D01*
X216500000Y-60500000D01*
X216504053Y-60500534D01*
X216504053Y-60500534D01*
G37*
G36*
X208504053Y-60500534D02*
G01*
X208504059Y-60500534D01*
X208621292Y-60515968D01*
X208621294Y-60515969D01*
X208629410Y-60517037D01*
X208636975Y-60520170D01*
X208636977Y-60520171D01*
X208706620Y-60549018D01*
X208750000Y-60566987D01*
X208853553Y-60646447D01*
X208933013Y-60750000D01*
X208982963Y-60870590D01*
X209000000Y-61000000D01*
X209000000Y-69000000D01*
X208982963Y-69129410D01*
X208933013Y-69250000D01*
X208853553Y-69353553D01*
X208750000Y-69433013D01*
X208742431Y-69436148D01*
X208636977Y-69479829D01*
X208636975Y-69479830D01*
X208629410Y-69482963D01*
X208621294Y-69484031D01*
X208621292Y-69484032D01*
X208504059Y-69499466D01*
X208504053Y-69499466D01*
X208500000Y-69500000D01*
X204500000Y-69500000D01*
X204495947Y-69499466D01*
X204495941Y-69499466D01*
X204378708Y-69484032D01*
X204378706Y-69484031D01*
X204370590Y-69482963D01*
X204363025Y-69479830D01*
X204363023Y-69479829D01*
X204257569Y-69436148D01*
X204250000Y-69433013D01*
X204146447Y-69353553D01*
X204066987Y-69250000D01*
X204017037Y-69129410D01*
X204000000Y-69000000D01*
X204000000Y-61000000D01*
X204017037Y-60870590D01*
X204066987Y-60750000D01*
X204146447Y-60646447D01*
X204250000Y-60566987D01*
X204293380Y-60549018D01*
X204363023Y-60520171D01*
X204363025Y-60520170D01*
X204370590Y-60517037D01*
X204378706Y-60515969D01*
X204378708Y-60515968D01*
X204495941Y-60500534D01*
X204495947Y-60500534D01*
X204500000Y-60500000D01*
X208500000Y-60500000D01*
X208504053Y-60500534D01*
X208504053Y-60500534D01*
G37*
G36*
X168504053Y-60500534D02*
G01*
X168504059Y-60500534D01*
X168621292Y-60515968D01*
X168621294Y-60515969D01*
X168629410Y-60517037D01*
X168636975Y-60520170D01*
X168636977Y-60520171D01*
X168706620Y-60549018D01*
X168750000Y-60566987D01*
X168853553Y-60646447D01*
X168933013Y-60750000D01*
X168982963Y-60870590D01*
X169000000Y-61000000D01*
X169000000Y-69000000D01*
X168982963Y-69129410D01*
X168933013Y-69250000D01*
X168853553Y-69353553D01*
X168750000Y-69433013D01*
X168742431Y-69436148D01*
X168636977Y-69479829D01*
X168636975Y-69479830D01*
X168629410Y-69482963D01*
X168621294Y-69484031D01*
X168621292Y-69484032D01*
X168504059Y-69499466D01*
X168504053Y-69499466D01*
X168500000Y-69500000D01*
X164500000Y-69500000D01*
X164495947Y-69499466D01*
X164495941Y-69499466D01*
X164378708Y-69484032D01*
X164378706Y-69484031D01*
X164370590Y-69482963D01*
X164363025Y-69479830D01*
X164363023Y-69479829D01*
X164257569Y-69436148D01*
X164250000Y-69433013D01*
X164146447Y-69353553D01*
X164066987Y-69250000D01*
X164017037Y-69129410D01*
X164000000Y-69000000D01*
X164000000Y-61000000D01*
X164017037Y-60870590D01*
X164066987Y-60750000D01*
X164146447Y-60646447D01*
X164250000Y-60566987D01*
X164293380Y-60549018D01*
X164363023Y-60520171D01*
X164363025Y-60520170D01*
X164370590Y-60517037D01*
X164378706Y-60515969D01*
X164378708Y-60515968D01*
X164495941Y-60500534D01*
X164495947Y-60500534D01*
X164500000Y-60500000D01*
X168500000Y-60500000D01*
X168504053Y-60500534D01*
X168504053Y-60500534D01*
G37*
G36*
X192504053Y-60500534D02*
G01*
X192504059Y-60500534D01*
X192621292Y-60515968D01*
X192621294Y-60515969D01*
X192629410Y-60517037D01*
X192636975Y-60520170D01*
X192636977Y-60520171D01*
X192706620Y-60549018D01*
X192750000Y-60566987D01*
X192853553Y-60646447D01*
X192933013Y-60750000D01*
X192982963Y-60870590D01*
X193000000Y-61000000D01*
X193000000Y-69000000D01*
X192982963Y-69129410D01*
X192933013Y-69250000D01*
X192853553Y-69353553D01*
X192750000Y-69433013D01*
X192742431Y-69436148D01*
X192636977Y-69479829D01*
X192636975Y-69479830D01*
X192629410Y-69482963D01*
X192621294Y-69484031D01*
X192621292Y-69484032D01*
X192504059Y-69499466D01*
X192504053Y-69499466D01*
X192500000Y-69500000D01*
X188500000Y-69500000D01*
X188495947Y-69499466D01*
X188495941Y-69499466D01*
X188378708Y-69484032D01*
X188378706Y-69484031D01*
X188370590Y-69482963D01*
X188363025Y-69479830D01*
X188363023Y-69479829D01*
X188257569Y-69436148D01*
X188250000Y-69433013D01*
X188146447Y-69353553D01*
X188066987Y-69250000D01*
X188017037Y-69129410D01*
X188000000Y-69000000D01*
X188000000Y-61000000D01*
X188017037Y-60870590D01*
X188066987Y-60750000D01*
X188146447Y-60646447D01*
X188250000Y-60566987D01*
X188293380Y-60549018D01*
X188363023Y-60520171D01*
X188363025Y-60520170D01*
X188370590Y-60517037D01*
X188378706Y-60515969D01*
X188378708Y-60515968D01*
X188495941Y-60500534D01*
X188495947Y-60500534D01*
X188500000Y-60500000D01*
X192500000Y-60500000D01*
X192504053Y-60500534D01*
X192504053Y-60500534D01*
G37*
G36*
X200504053Y-60500534D02*
G01*
X200504059Y-60500534D01*
X200621292Y-60515968D01*
X200621294Y-60515969D01*
X200629410Y-60517037D01*
X200636975Y-60520170D01*
X200636977Y-60520171D01*
X200706620Y-60549018D01*
X200750000Y-60566987D01*
X200853553Y-60646447D01*
X200933013Y-60750000D01*
X200982963Y-60870590D01*
X201000000Y-61000000D01*
X201000000Y-69000000D01*
X200982963Y-69129410D01*
X200933013Y-69250000D01*
X200853553Y-69353553D01*
X200750000Y-69433013D01*
X200742431Y-69436148D01*
X200636977Y-69479829D01*
X200636975Y-69479830D01*
X200629410Y-69482963D01*
X200621294Y-69484031D01*
X200621292Y-69484032D01*
X200504059Y-69499466D01*
X200504053Y-69499466D01*
X200500000Y-69500000D01*
X196500000Y-69500000D01*
X196495947Y-69499466D01*
X196495941Y-69499466D01*
X196378708Y-69484032D01*
X196378706Y-69484031D01*
X196370590Y-69482963D01*
X196363025Y-69479830D01*
X196363023Y-69479829D01*
X196257569Y-69436148D01*
X196250000Y-69433013D01*
X196146447Y-69353553D01*
X196066987Y-69250000D01*
X196017037Y-69129410D01*
X196000000Y-69000000D01*
X196000000Y-61000000D01*
X196017037Y-60870590D01*
X196066987Y-60750000D01*
X196146447Y-60646447D01*
X196250000Y-60566987D01*
X196293380Y-60549018D01*
X196363023Y-60520171D01*
X196363025Y-60520170D01*
X196370590Y-60517037D01*
X196378706Y-60515969D01*
X196378708Y-60515968D01*
X196495941Y-60500534D01*
X196495947Y-60500534D01*
X196500000Y-60500000D01*
X200500000Y-60500000D01*
X200504053Y-60500534D01*
X200504053Y-60500534D01*
G37*
G36*
X152504053Y-60500534D02*
G01*
X152504059Y-60500534D01*
X152621292Y-60515968D01*
X152621294Y-60515969D01*
X152629410Y-60517037D01*
X152636975Y-60520170D01*
X152636977Y-60520171D01*
X152706620Y-60549018D01*
X152750000Y-60566987D01*
X152853553Y-60646447D01*
X152933013Y-60750000D01*
X152982963Y-60870590D01*
X153000000Y-61000000D01*
X153000000Y-69000000D01*
X152982963Y-69129410D01*
X152933013Y-69250000D01*
X152853553Y-69353553D01*
X152750000Y-69433013D01*
X152742431Y-69436148D01*
X152636977Y-69479829D01*
X152636975Y-69479830D01*
X152629410Y-69482963D01*
X152621294Y-69484031D01*
X152621292Y-69484032D01*
X152504059Y-69499466D01*
X152504053Y-69499466D01*
X152500000Y-69500000D01*
X148500000Y-69500000D01*
X148495947Y-69499466D01*
X148495941Y-69499466D01*
X148378708Y-69484032D01*
X148378706Y-69484031D01*
X148370590Y-69482963D01*
X148363025Y-69479830D01*
X148363023Y-69479829D01*
X148257569Y-69436148D01*
X148250000Y-69433013D01*
X148146447Y-69353553D01*
X148066987Y-69250000D01*
X148017037Y-69129410D01*
X148000000Y-69000000D01*
X148000000Y-61000000D01*
X148017037Y-60870590D01*
X148066987Y-60750000D01*
X148146447Y-60646447D01*
X148250000Y-60566987D01*
X148293380Y-60549018D01*
X148363023Y-60520171D01*
X148363025Y-60520170D01*
X148370590Y-60517037D01*
X148378706Y-60515969D01*
X148378708Y-60515968D01*
X148495941Y-60500534D01*
X148495947Y-60500534D01*
X148500000Y-60500000D01*
X152500000Y-60500000D01*
X152504053Y-60500534D01*
X152504053Y-60500534D01*
G37*
G36*
X184504053Y-60500534D02*
G01*
X184504059Y-60500534D01*
X184621292Y-60515968D01*
X184621294Y-60515969D01*
X184629410Y-60517037D01*
X184636975Y-60520170D01*
X184636977Y-60520171D01*
X184706620Y-60549018D01*
X184750000Y-60566987D01*
X184853553Y-60646447D01*
X184933013Y-60750000D01*
X184982963Y-60870590D01*
X185000000Y-61000000D01*
X185000000Y-69000000D01*
X184982963Y-69129410D01*
X184933013Y-69250000D01*
X184853553Y-69353553D01*
X184750000Y-69433013D01*
X184742431Y-69436148D01*
X184636977Y-69479829D01*
X184636975Y-69479830D01*
X184629410Y-69482963D01*
X184621294Y-69484031D01*
X184621292Y-69484032D01*
X184504059Y-69499466D01*
X184504053Y-69499466D01*
X184500000Y-69500000D01*
X180500000Y-69500000D01*
X180495947Y-69499466D01*
X180495941Y-69499466D01*
X180378708Y-69484032D01*
X180378706Y-69484031D01*
X180370590Y-69482963D01*
X180363025Y-69479830D01*
X180363023Y-69479829D01*
X180257569Y-69436148D01*
X180250000Y-69433013D01*
X180146447Y-69353553D01*
X180066987Y-69250000D01*
X180017037Y-69129410D01*
X180000000Y-69000000D01*
X180000000Y-61000000D01*
X180017037Y-60870590D01*
X180066987Y-60750000D01*
X180146447Y-60646447D01*
X180250000Y-60566987D01*
X180293380Y-60549018D01*
X180363023Y-60520171D01*
X180363025Y-60520170D01*
X180370590Y-60517037D01*
X180378706Y-60515969D01*
X180378708Y-60515968D01*
X180495941Y-60500534D01*
X180495947Y-60500534D01*
X180500000Y-60500000D01*
X184500000Y-60500000D01*
X184504053Y-60500534D01*
X184504053Y-60500534D01*
G37*
G36*
X174959411Y-56000526D02*
G01*
X175078137Y-56049704D01*
X175246041Y-56119252D01*
X175246042Y-56119253D01*
X175504004Y-56291617D01*
X175723383Y-56510996D01*
X175838553Y-56683361D01*
X175895748Y-56768959D01*
X176014474Y-57055590D01*
X176075000Y-57359875D01*
X176075000Y-57670125D01*
X176014474Y-57974410D01*
X175895748Y-58261041D01*
X175895747Y-58261042D01*
X175723383Y-58519004D01*
X175504004Y-58738383D01*
X175331639Y-58853553D01*
X175246041Y-58910748D01*
X175078137Y-58980296D01*
X174959411Y-59029474D01*
X174807267Y-59059737D01*
X174655125Y-59090000D01*
X174344875Y-59090000D01*
X174192733Y-59059737D01*
X174040589Y-59029474D01*
X173921863Y-58980296D01*
X173753959Y-58910748D01*
X173668361Y-58853553D01*
X173495996Y-58738383D01*
X173276617Y-58519004D01*
X173104253Y-58261042D01*
X173104252Y-58261041D01*
X172985526Y-57974410D01*
X172925000Y-57670125D01*
X172925000Y-57359875D01*
X172985526Y-57055590D01*
X173104252Y-56768959D01*
X173161447Y-56683361D01*
X173276617Y-56510996D01*
X173495996Y-56291617D01*
X173753958Y-56119253D01*
X173753959Y-56119252D01*
X173921863Y-56049704D01*
X174040589Y-56000526D01*
X174344875Y-55940000D01*
X174655125Y-55940000D01*
X174959411Y-56000526D01*
X174959411Y-56000526D01*
G37*
G36*
X182959411Y-56000526D02*
G01*
X183078137Y-56049704D01*
X183246041Y-56119252D01*
X183246042Y-56119253D01*
X183504004Y-56291617D01*
X183723383Y-56510996D01*
X183838553Y-56683361D01*
X183895748Y-56768959D01*
X184014474Y-57055590D01*
X184075000Y-57359875D01*
X184075000Y-57670125D01*
X184014474Y-57974410D01*
X183895748Y-58261041D01*
X183895747Y-58261042D01*
X183723383Y-58519004D01*
X183504004Y-58738383D01*
X183331639Y-58853553D01*
X183246041Y-58910748D01*
X183078137Y-58980296D01*
X182959411Y-59029474D01*
X182807267Y-59059737D01*
X182655125Y-59090000D01*
X182344875Y-59090000D01*
X182192733Y-59059737D01*
X182040589Y-59029474D01*
X181921863Y-58980296D01*
X181753959Y-58910748D01*
X181668361Y-58853553D01*
X181495996Y-58738383D01*
X181276617Y-58519004D01*
X181104253Y-58261042D01*
X181104252Y-58261041D01*
X180985526Y-57974410D01*
X180925000Y-57670125D01*
X180925000Y-57359875D01*
X180985526Y-57055590D01*
X181104252Y-56768959D01*
X181161447Y-56683361D01*
X181276617Y-56510996D01*
X181495996Y-56291617D01*
X181753958Y-56119253D01*
X181753959Y-56119252D01*
X181921863Y-56049704D01*
X182040589Y-56000526D01*
X182344875Y-55940000D01*
X182655125Y-55940000D01*
X182959411Y-56000526D01*
X182959411Y-56000526D01*
G37*
G36*
X190959411Y-56000526D02*
G01*
X191078137Y-56049704D01*
X191246041Y-56119252D01*
X191246042Y-56119253D01*
X191504004Y-56291617D01*
X191723383Y-56510996D01*
X191838553Y-56683361D01*
X191895748Y-56768959D01*
X192014474Y-57055590D01*
X192075000Y-57359875D01*
X192075000Y-57670125D01*
X192014474Y-57974410D01*
X191895748Y-58261041D01*
X191895747Y-58261042D01*
X191723383Y-58519004D01*
X191504004Y-58738383D01*
X191331639Y-58853553D01*
X191246041Y-58910748D01*
X191078137Y-58980296D01*
X190959411Y-59029474D01*
X190807267Y-59059737D01*
X190655125Y-59090000D01*
X190344875Y-59090000D01*
X190192733Y-59059737D01*
X190040589Y-59029474D01*
X189921863Y-58980296D01*
X189753959Y-58910748D01*
X189668361Y-58853553D01*
X189495996Y-58738383D01*
X189276617Y-58519004D01*
X189104253Y-58261042D01*
X189104252Y-58261041D01*
X188985526Y-57974410D01*
X188925000Y-57670125D01*
X188925000Y-57359875D01*
X188985526Y-57055590D01*
X189104252Y-56768959D01*
X189161447Y-56683361D01*
X189276617Y-56510996D01*
X189495996Y-56291617D01*
X189753958Y-56119253D01*
X189753959Y-56119252D01*
X189921863Y-56049704D01*
X190040589Y-56000526D01*
X190344875Y-55940000D01*
X190655125Y-55940000D01*
X190959411Y-56000526D01*
X190959411Y-56000526D01*
G37*
G36*
X198959411Y-56000526D02*
G01*
X199078137Y-56049704D01*
X199246041Y-56119252D01*
X199246042Y-56119253D01*
X199504004Y-56291617D01*
X199723383Y-56510996D01*
X199838553Y-56683361D01*
X199895748Y-56768959D01*
X200014474Y-57055590D01*
X200075000Y-57359875D01*
X200075000Y-57670125D01*
X200014474Y-57974410D01*
X199895748Y-58261041D01*
X199895747Y-58261042D01*
X199723383Y-58519004D01*
X199504004Y-58738383D01*
X199331639Y-58853553D01*
X199246041Y-58910748D01*
X199078137Y-58980296D01*
X198959411Y-59029474D01*
X198807267Y-59059737D01*
X198655125Y-59090000D01*
X198344875Y-59090000D01*
X198192733Y-59059737D01*
X198040589Y-59029474D01*
X197921863Y-58980296D01*
X197753959Y-58910748D01*
X197668361Y-58853553D01*
X197495996Y-58738383D01*
X197276617Y-58519004D01*
X197104253Y-58261042D01*
X197104252Y-58261041D01*
X196985526Y-57974410D01*
X196925000Y-57670125D01*
X196925000Y-57359875D01*
X196985526Y-57055590D01*
X197104252Y-56768959D01*
X197161447Y-56683361D01*
X197276617Y-56510996D01*
X197495996Y-56291617D01*
X197753958Y-56119253D01*
X197753959Y-56119252D01*
X197921863Y-56049704D01*
X198040589Y-56000526D01*
X198344875Y-55940000D01*
X198655125Y-55940000D01*
X198959411Y-56000526D01*
X198959411Y-56000526D01*
G37*
G36*
X166959411Y-56000526D02*
G01*
X167078137Y-56049704D01*
X167246041Y-56119252D01*
X167246042Y-56119253D01*
X167504004Y-56291617D01*
X167723383Y-56510996D01*
X167838553Y-56683361D01*
X167895748Y-56768959D01*
X168014474Y-57055590D01*
X168075000Y-57359875D01*
X168075000Y-57670125D01*
X168014474Y-57974410D01*
X167895748Y-58261041D01*
X167895747Y-58261042D01*
X167723383Y-58519004D01*
X167504004Y-58738383D01*
X167331639Y-58853553D01*
X167246041Y-58910748D01*
X167078137Y-58980296D01*
X166959411Y-59029474D01*
X166807267Y-59059737D01*
X166655125Y-59090000D01*
X166344875Y-59090000D01*
X166192733Y-59059737D01*
X166040589Y-59029474D01*
X165921863Y-58980296D01*
X165753959Y-58910748D01*
X165668361Y-58853553D01*
X165495996Y-58738383D01*
X165276617Y-58519004D01*
X165104253Y-58261042D01*
X165104252Y-58261041D01*
X164985526Y-57974410D01*
X164925000Y-57670125D01*
X164925000Y-57359875D01*
X164985526Y-57055590D01*
X165104252Y-56768959D01*
X165161447Y-56683361D01*
X165276617Y-56510996D01*
X165495996Y-56291617D01*
X165753958Y-56119253D01*
X165753959Y-56119252D01*
X165921863Y-56049704D01*
X166040589Y-56000526D01*
X166344875Y-55940000D01*
X166655125Y-55940000D01*
X166959411Y-56000526D01*
X166959411Y-56000526D01*
G37*
G36*
X206959411Y-56000526D02*
G01*
X207078137Y-56049704D01*
X207246041Y-56119252D01*
X207246042Y-56119253D01*
X207504004Y-56291617D01*
X207723383Y-56510996D01*
X207838553Y-56683361D01*
X207895748Y-56768959D01*
X208014474Y-57055590D01*
X208075000Y-57359875D01*
X208075000Y-57670125D01*
X208014474Y-57974410D01*
X207895748Y-58261041D01*
X207895747Y-58261042D01*
X207723383Y-58519004D01*
X207504004Y-58738383D01*
X207331639Y-58853553D01*
X207246041Y-58910748D01*
X207078137Y-58980296D01*
X206959411Y-59029474D01*
X206807267Y-59059737D01*
X206655125Y-59090000D01*
X206344875Y-59090000D01*
X206192733Y-59059737D01*
X206040589Y-59029474D01*
X205921863Y-58980296D01*
X205753959Y-58910748D01*
X205668361Y-58853553D01*
X205495996Y-58738383D01*
X205276617Y-58519004D01*
X205104253Y-58261042D01*
X205104252Y-58261041D01*
X204985526Y-57974410D01*
X204925000Y-57670125D01*
X204925000Y-57359875D01*
X204985526Y-57055590D01*
X205104252Y-56768959D01*
X205161447Y-56683361D01*
X205276617Y-56510996D01*
X205495996Y-56291617D01*
X205753958Y-56119253D01*
X205753959Y-56119252D01*
X205921863Y-56049704D01*
X206040589Y-56000526D01*
X206344875Y-55940000D01*
X206655125Y-55940000D01*
X206959411Y-56000526D01*
X206959411Y-56000526D01*
G37*
G36*
X158959411Y-56000526D02*
G01*
X159078137Y-56049704D01*
X159246041Y-56119252D01*
X159246042Y-56119253D01*
X159504004Y-56291617D01*
X159723383Y-56510996D01*
X159838553Y-56683361D01*
X159895748Y-56768959D01*
X160014474Y-57055590D01*
X160075000Y-57359875D01*
X160075000Y-57670125D01*
X160014474Y-57974410D01*
X159895748Y-58261041D01*
X159895747Y-58261042D01*
X159723383Y-58519004D01*
X159504004Y-58738383D01*
X159331639Y-58853553D01*
X159246041Y-58910748D01*
X159078137Y-58980296D01*
X158959411Y-59029474D01*
X158807267Y-59059737D01*
X158655125Y-59090000D01*
X158344875Y-59090000D01*
X158192733Y-59059737D01*
X158040589Y-59029474D01*
X157921863Y-58980296D01*
X157753959Y-58910748D01*
X157668361Y-58853553D01*
X157495996Y-58738383D01*
X157276617Y-58519004D01*
X157104253Y-58261042D01*
X157104252Y-58261041D01*
X156985526Y-57974410D01*
X156925000Y-57670125D01*
X156925000Y-57359875D01*
X156985526Y-57055590D01*
X157104252Y-56768959D01*
X157161447Y-56683361D01*
X157276617Y-56510996D01*
X157495996Y-56291617D01*
X157753958Y-56119253D01*
X157753959Y-56119252D01*
X157921863Y-56049704D01*
X158040589Y-56000526D01*
X158344875Y-55940000D01*
X158655125Y-55940000D01*
X158959411Y-56000526D01*
X158959411Y-56000526D01*
G37*
G36*
X214959411Y-56000526D02*
G01*
X215078137Y-56049704D01*
X215246041Y-56119252D01*
X215246042Y-56119253D01*
X215504004Y-56291617D01*
X215723383Y-56510996D01*
X215838553Y-56683361D01*
X215895748Y-56768959D01*
X216014474Y-57055590D01*
X216075000Y-57359875D01*
X216075000Y-57670125D01*
X216014474Y-57974410D01*
X215895748Y-58261041D01*
X215895747Y-58261042D01*
X215723383Y-58519004D01*
X215504004Y-58738383D01*
X215331639Y-58853553D01*
X215246041Y-58910748D01*
X215078137Y-58980296D01*
X214959411Y-59029474D01*
X214807267Y-59059737D01*
X214655125Y-59090000D01*
X214344875Y-59090000D01*
X214192733Y-59059737D01*
X214040589Y-59029474D01*
X213921863Y-58980296D01*
X213753959Y-58910748D01*
X213668361Y-58853553D01*
X213495996Y-58738383D01*
X213276617Y-58519004D01*
X213104253Y-58261042D01*
X213104252Y-58261041D01*
X212985526Y-57974410D01*
X212925000Y-57670125D01*
X212925000Y-57359875D01*
X212985526Y-57055590D01*
X213104252Y-56768959D01*
X213161447Y-56683361D01*
X213276617Y-56510996D01*
X213495996Y-56291617D01*
X213753958Y-56119253D01*
X213753959Y-56119252D01*
X213921863Y-56049704D01*
X214040589Y-56000526D01*
X214344875Y-55940000D01*
X214655125Y-55940000D01*
X214959411Y-56000526D01*
X214959411Y-56000526D01*
G37*
G36*
X126959411Y-56000526D02*
G01*
X127078137Y-56049704D01*
X127246041Y-56119252D01*
X127246042Y-56119253D01*
X127504004Y-56291617D01*
X127723383Y-56510996D01*
X127838553Y-56683361D01*
X127895748Y-56768959D01*
X128014474Y-57055590D01*
X128075000Y-57359875D01*
X128075000Y-57670125D01*
X128014474Y-57974410D01*
X127895748Y-58261041D01*
X127895747Y-58261042D01*
X127723383Y-58519004D01*
X127504004Y-58738383D01*
X127331639Y-58853553D01*
X127246041Y-58910748D01*
X127078137Y-58980296D01*
X126959411Y-59029474D01*
X126807267Y-59059737D01*
X126655125Y-59090000D01*
X126344875Y-59090000D01*
X126192733Y-59059737D01*
X126040589Y-59029474D01*
X125921863Y-58980296D01*
X125753959Y-58910748D01*
X125668361Y-58853553D01*
X125495996Y-58738383D01*
X125276617Y-58519004D01*
X125104253Y-58261042D01*
X125104252Y-58261041D01*
X124985526Y-57974410D01*
X124925000Y-57670125D01*
X124925000Y-57359875D01*
X124985526Y-57055590D01*
X125104252Y-56768959D01*
X125161447Y-56683361D01*
X125276617Y-56510996D01*
X125495996Y-56291617D01*
X125753958Y-56119253D01*
X125753959Y-56119252D01*
X125921863Y-56049704D01*
X126040589Y-56000526D01*
X126344875Y-55940000D01*
X126655125Y-55940000D01*
X126959411Y-56000526D01*
X126959411Y-56000526D01*
G37*
G36*
X134959411Y-56000526D02*
G01*
X135078137Y-56049704D01*
X135246041Y-56119252D01*
X135246042Y-56119253D01*
X135504004Y-56291617D01*
X135723383Y-56510996D01*
X135838553Y-56683361D01*
X135895748Y-56768959D01*
X136014474Y-57055590D01*
X136075000Y-57359875D01*
X136075000Y-57670125D01*
X136014474Y-57974410D01*
X135895748Y-58261041D01*
X135895747Y-58261042D01*
X135723383Y-58519004D01*
X135504004Y-58738383D01*
X135331639Y-58853553D01*
X135246041Y-58910748D01*
X135078137Y-58980296D01*
X134959411Y-59029474D01*
X134807267Y-59059737D01*
X134655125Y-59090000D01*
X134344875Y-59090000D01*
X134192733Y-59059737D01*
X134040589Y-59029474D01*
X133921863Y-58980296D01*
X133753959Y-58910748D01*
X133668361Y-58853553D01*
X133495996Y-58738383D01*
X133276617Y-58519004D01*
X133104253Y-58261042D01*
X133104252Y-58261041D01*
X132985526Y-57974410D01*
X132925000Y-57670125D01*
X132925000Y-57359875D01*
X132985526Y-57055590D01*
X133104252Y-56768959D01*
X133161447Y-56683361D01*
X133276617Y-56510996D01*
X133495996Y-56291617D01*
X133753958Y-56119253D01*
X133753959Y-56119252D01*
X133921863Y-56049704D01*
X134040589Y-56000526D01*
X134344875Y-55940000D01*
X134655125Y-55940000D01*
X134959411Y-56000526D01*
X134959411Y-56000526D01*
G37*
G36*
X142959411Y-56000526D02*
G01*
X143078137Y-56049704D01*
X143246041Y-56119252D01*
X143246042Y-56119253D01*
X143504004Y-56291617D01*
X143723383Y-56510996D01*
X143838553Y-56683361D01*
X143895748Y-56768959D01*
X144014474Y-57055590D01*
X144075000Y-57359875D01*
X144075000Y-57670125D01*
X144014474Y-57974410D01*
X143895748Y-58261041D01*
X143895747Y-58261042D01*
X143723383Y-58519004D01*
X143504004Y-58738383D01*
X143331639Y-58853553D01*
X143246041Y-58910748D01*
X143078137Y-58980296D01*
X142959411Y-59029474D01*
X142807267Y-59059737D01*
X142655125Y-59090000D01*
X142344875Y-59090000D01*
X142192733Y-59059737D01*
X142040589Y-59029474D01*
X141921863Y-58980296D01*
X141753959Y-58910748D01*
X141668361Y-58853553D01*
X141495996Y-58738383D01*
X141276617Y-58519004D01*
X141104253Y-58261042D01*
X141104252Y-58261041D01*
X140985526Y-57974410D01*
X140925000Y-57670125D01*
X140925000Y-57359875D01*
X140985526Y-57055590D01*
X141104252Y-56768959D01*
X141161447Y-56683361D01*
X141276617Y-56510996D01*
X141495996Y-56291617D01*
X141753958Y-56119253D01*
X141753959Y-56119252D01*
X141921863Y-56049704D01*
X142040589Y-56000526D01*
X142344875Y-55940000D01*
X142655125Y-55940000D01*
X142959411Y-56000526D01*
X142959411Y-56000526D01*
G37*
G36*
X150959411Y-56000526D02*
G01*
X151078137Y-56049704D01*
X151246041Y-56119252D01*
X151246042Y-56119253D01*
X151504004Y-56291617D01*
X151723383Y-56510996D01*
X151838553Y-56683361D01*
X151895748Y-56768959D01*
X152014474Y-57055590D01*
X152075000Y-57359875D01*
X152075000Y-57670125D01*
X152014474Y-57974410D01*
X151895748Y-58261041D01*
X151895747Y-58261042D01*
X151723383Y-58519004D01*
X151504004Y-58738383D01*
X151331639Y-58853553D01*
X151246041Y-58910748D01*
X151078137Y-58980296D01*
X150959411Y-59029474D01*
X150807267Y-59059737D01*
X150655125Y-59090000D01*
X150344875Y-59090000D01*
X150192733Y-59059737D01*
X150040589Y-59029474D01*
X149921863Y-58980296D01*
X149753959Y-58910748D01*
X149668361Y-58853553D01*
X149495996Y-58738383D01*
X149276617Y-58519004D01*
X149104253Y-58261042D01*
X149104252Y-58261041D01*
X148985526Y-57974410D01*
X148925000Y-57670125D01*
X148925000Y-57359875D01*
X148985526Y-57055590D01*
X149104252Y-56768959D01*
X149161447Y-56683361D01*
X149276617Y-56510996D01*
X149495996Y-56291617D01*
X149753958Y-56119253D01*
X149753959Y-56119252D01*
X149921863Y-56049704D01*
X150040589Y-56000526D01*
X150344875Y-55940000D01*
X150655125Y-55940000D01*
X150959411Y-56000526D01*
X150959411Y-56000526D01*
G37*
M02*
