G04 #@! TF.GenerationSoftware,KiCad,Pcbnew,(5.1.4)-1*
G04 #@! TF.CreationDate,2020-07-23T11:35:07+09:00*
G04 #@! TF.ProjectId,StabilizerShims,53746162-696c-4697-9a65-725368696d73,rev?*
G04 #@! TF.SameCoordinates,Original*
G04 #@! TF.FileFunction,Profile,NP*
%FSLAX46Y46*%
G04 Gerber Fmt 4.6, Leading zero omitted, Abs format (unit mm)*
G04 Created by KiCad (PCBNEW (5.1.4)-1) date 2020-07-23 11:35:07*
%MOMM*%
%LPD*%
G04 APERTURE LIST*
%ADD10C,0.050000*%
G04 APERTURE END LIST*
D10*
X218500000Y-135250000D02*
X218500000Y-120000000D01*
X218500000Y-99250000D02*
X216250001Y-96999999D01*
X218500000Y-120000000D02*
X216250001Y-117749999D01*
X216250001Y-96999999D02*
G75*
G02X216250001Y-96000001I499999J499999D01*
G01*
X218500000Y-93750000D02*
X218500000Y-78500000D01*
X218500000Y-73000000D02*
X216250001Y-75250001D01*
X218500000Y-73000000D02*
X218500000Y-57750000D01*
X218500000Y-114500000D02*
X218500000Y-99250000D01*
X216250001Y-117749999D02*
G75*
G02X216250001Y-116750001I499999J499999D01*
G01*
X218500000Y-78500000D02*
X216250001Y-76249999D01*
X216250001Y-76249999D02*
G75*
G02X216250001Y-75250001I499999J499999D01*
G01*
X218500000Y-114500000D02*
X216250001Y-116750001D01*
X218500000Y-93750000D02*
X216250001Y-96000001D01*
X122500000Y-120000000D02*
X122500000Y-135250000D01*
X122500000Y-99250000D02*
X122500000Y-114500000D01*
X122500000Y-78500000D02*
X122500000Y-93750000D01*
X122500000Y-57750000D02*
X122500000Y-73000000D01*
X122500000Y-78500000D02*
X124749999Y-76249999D01*
X122500000Y-73000000D02*
X124749999Y-75250001D01*
X124749999Y-75250001D02*
G75*
G02X124749999Y-76249999I-499999J-499999D01*
G01*
X122500000Y-99250000D02*
X124749999Y-96999999D01*
X122500000Y-93750000D02*
X124749999Y-96000001D01*
X124749999Y-96000001D02*
G75*
G02X124749999Y-96999999I-499999J-499999D01*
G01*
X122500000Y-114500000D02*
X124749999Y-116750001D01*
X124749999Y-116750001D02*
G75*
G02X124749999Y-117749999I-499999J-499999D01*
G01*
X122500000Y-120000000D02*
X124749999Y-117749999D01*
X210000001Y-135750001D02*
G75*
G02X210999999Y-135750001I499999J-499999D01*
G01*
X213250000Y-138000000D02*
X210999999Y-135750001D01*
X162000001Y-135750001D02*
G75*
G02X162999999Y-135750001I499999J-499999D01*
G01*
X154000001Y-135750001D02*
G75*
G02X154999999Y-135750001I499999J-499999D01*
G01*
X138000001Y-135750001D02*
X135750000Y-138000000D01*
X183750000Y-138000000D02*
X181250000Y-138000000D01*
X207750000Y-138000000D02*
X205250000Y-138000000D01*
X125250000Y-138000000D02*
X127750000Y-138000000D01*
X194000001Y-135750001D02*
X191750000Y-138000000D01*
X181250000Y-138000000D02*
X178999999Y-135750001D01*
X165250000Y-138000000D02*
X162999999Y-135750001D01*
X191750000Y-138000000D02*
X189250000Y-138000000D01*
X186000001Y-135750001D02*
G75*
G02X186999999Y-135750001I499999J-499999D01*
G01*
X178000001Y-135750001D02*
G75*
G02X178999999Y-135750001I499999J-499999D01*
G01*
X162000001Y-135750001D02*
X159750000Y-138000000D01*
X143750000Y-138000000D02*
X141250000Y-138000000D01*
X149250000Y-138000000D02*
X146999999Y-135750001D01*
X178000001Y-135750001D02*
X175750000Y-138000000D01*
X170000001Y-135750001D02*
X167750000Y-138000000D01*
X202000001Y-135750001D02*
X199750000Y-138000000D01*
X135750000Y-138000000D02*
X133250000Y-138000000D01*
X138000001Y-135750001D02*
G75*
G02X138999999Y-135750001I499999J-499999D01*
G01*
X141250000Y-138000000D02*
X138999999Y-135750001D01*
X199750000Y-138000000D02*
X197250000Y-138000000D01*
X205250000Y-138000000D02*
X202999999Y-135750001D01*
X194000001Y-135750001D02*
G75*
G02X194999999Y-135750001I499999J-499999D01*
G01*
X167750000Y-138000000D02*
X165250000Y-138000000D01*
X154000001Y-135750001D02*
X151750000Y-138000000D01*
X170000001Y-135750001D02*
G75*
G02X170999999Y-135750001I499999J-499999D01*
G01*
X146000001Y-135750001D02*
G75*
G02X146999999Y-135750001I499999J-499999D01*
G01*
X159750000Y-138000000D02*
X157250000Y-138000000D01*
X157250000Y-138000000D02*
X154999999Y-135750001D01*
X146000001Y-135750001D02*
X143750000Y-138000000D01*
X175750000Y-138000000D02*
X173250000Y-138000000D01*
X151750000Y-138000000D02*
X149250000Y-138000000D01*
X197250000Y-138000000D02*
X194999999Y-135750001D01*
X189250000Y-138000000D02*
X186999999Y-135750001D01*
X173250000Y-138000000D02*
X170999999Y-135750001D01*
X202000001Y-135750001D02*
G75*
G02X202999999Y-135750001I499999J-499999D01*
G01*
X186000001Y-135750001D02*
X183750000Y-138000000D01*
X210000001Y-135750001D02*
X207750000Y-138000000D01*
X215750000Y-138000000D02*
X213250000Y-138000000D01*
X130000001Y-135750001D02*
G75*
G02X130999999Y-135750001I499999J-499999D01*
G01*
X130000001Y-135750001D02*
X127750000Y-138000000D01*
X133250000Y-138000000D02*
X130999999Y-135750001D01*
X218500000Y-135250000D02*
X215750000Y-138000000D01*
X125250000Y-138000000D02*
X122500000Y-135250000D01*
X215750000Y-55000000D02*
X218500000Y-57750000D01*
X122500000Y-57750000D02*
X125250000Y-55000000D01*
X125250000Y-55000000D02*
X127750000Y-55000000D01*
X130999999Y-57249999D02*
X133250000Y-55000000D01*
X133250000Y-55000000D02*
X135750000Y-55000000D01*
X130999999Y-57249999D02*
G75*
G02X130000001Y-57249999I-499999J499999D01*
G01*
X127750000Y-55000000D02*
X130000001Y-57249999D01*
X138999999Y-57249999D02*
X141250000Y-55000000D01*
X141250000Y-55000000D02*
X143750000Y-55000000D01*
X138999999Y-57249999D02*
G75*
G02X138000001Y-57249999I-499999J499999D01*
G01*
X135750000Y-55000000D02*
X138000001Y-57249999D01*
X146999999Y-57249999D02*
X149250000Y-55000000D01*
X149250000Y-55000000D02*
X151750000Y-55000000D01*
X146999999Y-57249999D02*
G75*
G02X146000001Y-57249999I-499999J499999D01*
G01*
X143750000Y-55000000D02*
X146000001Y-57249999D01*
X154999999Y-57249999D02*
X157250000Y-55000000D01*
X157250000Y-55000000D02*
X159750000Y-55000000D01*
X154999999Y-57249999D02*
G75*
G02X154000001Y-57249999I-499999J499999D01*
G01*
X151750000Y-55000000D02*
X154000001Y-57249999D01*
X162999999Y-57249999D02*
X165250000Y-55000000D01*
X165250000Y-55000000D02*
X167750000Y-55000000D01*
X162999999Y-57249999D02*
G75*
G02X162000001Y-57249999I-499999J499999D01*
G01*
X159750000Y-55000000D02*
X162000001Y-57249999D01*
X170999999Y-57249999D02*
X173250000Y-55000000D01*
X173250000Y-55000000D02*
X175750000Y-55000000D01*
X170999999Y-57249999D02*
G75*
G02X170000001Y-57249999I-499999J499999D01*
G01*
X167750000Y-55000000D02*
X170000001Y-57249999D01*
X178999999Y-57249999D02*
X181250000Y-55000000D01*
X181250000Y-55000000D02*
X183750000Y-55000000D01*
X178999999Y-57249999D02*
G75*
G02X178000001Y-57249999I-499999J499999D01*
G01*
X175750000Y-55000000D02*
X178000001Y-57249999D01*
X186999999Y-57249999D02*
X189250000Y-55000000D01*
X189250000Y-55000000D02*
X191750000Y-55000000D01*
X186999999Y-57249999D02*
G75*
G02X186000001Y-57249999I-499999J499999D01*
G01*
X183750000Y-55000000D02*
X186000001Y-57249999D01*
X194999999Y-57249999D02*
X197250000Y-55000000D01*
X197250000Y-55000000D02*
X199750000Y-55000000D01*
X194999999Y-57249999D02*
G75*
G02X194000001Y-57249999I-499999J499999D01*
G01*
X191750000Y-55000000D02*
X194000001Y-57249999D01*
X205250000Y-55000000D02*
X207750000Y-55000000D01*
X202999999Y-57249999D02*
G75*
G02X202000001Y-57249999I-499999J499999D01*
G01*
X202999999Y-57249999D02*
X205250000Y-55000000D01*
X199750000Y-55000000D02*
X202000001Y-57249999D01*
X215750000Y-55000000D02*
X213250000Y-55000000D01*
X210999999Y-57249999D02*
G75*
G02X210000001Y-57249999I-499999J499999D01*
G01*
X207750000Y-55000000D02*
X210000001Y-57249999D01*
X210999999Y-57249999D02*
X213250000Y-55000000D01*
X168250001Y-117749999D02*
G75*
G02X168250001Y-116750001I499999J499999D01*
G01*
X196749999Y-116750001D02*
G75*
G02X196749999Y-117749999I-499999J-499999D01*
G01*
X200250001Y-117749999D02*
X202000001Y-119499999D01*
X170000001Y-115000001D02*
G75*
G02X170999999Y-115000001I499999J-499999D01*
G01*
X170999999Y-115000001D02*
X172749999Y-116750001D01*
X186000001Y-115000001D02*
G75*
G02X186999999Y-115000001I499999J-499999D01*
G01*
X178000001Y-115000001D02*
G75*
G02X178999999Y-115000001I499999J-499999D01*
G01*
X168250001Y-117749999D02*
X170000001Y-119499999D01*
X194999999Y-115000001D02*
X196749999Y-116750001D01*
X202999999Y-115000001D02*
X204749999Y-116750001D01*
X162999999Y-119499999D02*
G75*
G02X162000001Y-119499999I-499999J499999D01*
G01*
X172749999Y-116750001D02*
G75*
G02X172749999Y-117749999I-499999J-499999D01*
G01*
X180749999Y-116750001D02*
G75*
G02X180749999Y-117749999I-499999J-499999D01*
G01*
X170999999Y-119499999D02*
X172749999Y-117749999D01*
X194000001Y-115000001D02*
G75*
G02X194999999Y-115000001I499999J-499999D01*
G01*
X202000001Y-115000001D02*
G75*
G02X202999999Y-115000001I499999J-499999D01*
G01*
X202999999Y-119499999D02*
G75*
G02X202000001Y-119499999I-499999J499999D01*
G01*
X186999999Y-119499999D02*
G75*
G02X186000001Y-119499999I-499999J499999D01*
G01*
X194999999Y-119499999D02*
X196749999Y-117749999D01*
X162000001Y-115000001D02*
G75*
G02X162999999Y-115000001I499999J-499999D01*
G01*
X170999999Y-119499999D02*
G75*
G02X170000001Y-119499999I-499999J499999D01*
G01*
X176250001Y-117749999D02*
G75*
G02X176250001Y-116750001I499999J499999D01*
G01*
X204749999Y-116750001D02*
G75*
G02X204749999Y-117749999I-499999J-499999D01*
G01*
X194999999Y-119499999D02*
G75*
G02X194000001Y-119499999I-499999J499999D01*
G01*
X202999999Y-119499999D02*
X204749999Y-117749999D01*
X192250001Y-116750001D02*
X194000001Y-115000001D01*
X192250001Y-117749999D02*
X194000001Y-119499999D01*
X200250001Y-117749999D02*
G75*
G02X200250001Y-116750001I499999J499999D01*
G01*
X178999999Y-119499999D02*
G75*
G02X178000001Y-119499999I-499999J499999D01*
G01*
X186999999Y-115000001D02*
X188749999Y-116750001D01*
X184250001Y-117749999D02*
G75*
G02X184250001Y-116750001I499999J499999D01*
G01*
X188749999Y-116750001D02*
G75*
G02X188749999Y-117749999I-499999J-499999D01*
G01*
X154000001Y-115000001D02*
G75*
G02X154999999Y-115000001I499999J-499999D01*
G01*
X176250001Y-116750001D02*
X178000001Y-115000001D01*
X178999999Y-119499999D02*
X180749999Y-117749999D01*
X154999999Y-119499999D02*
X156749999Y-117749999D01*
X160250001Y-116750001D02*
X162000001Y-115000001D01*
X168250001Y-116750001D02*
X170000001Y-115000001D01*
X178999999Y-115000001D02*
X180749999Y-116750001D01*
X160250001Y-117749999D02*
X162000001Y-119499999D01*
X162999999Y-115000001D02*
X164749999Y-116750001D01*
X176250001Y-117749999D02*
X178000001Y-119499999D01*
X164749999Y-116750001D02*
G75*
G02X164749999Y-117749999I-499999J-499999D01*
G01*
X184250001Y-117749999D02*
X186000001Y-119499999D01*
X140749999Y-116750001D02*
G75*
G02X140749999Y-117749999I-499999J-499999D01*
G01*
X152250001Y-117749999D02*
X154000001Y-119499999D01*
X128250001Y-116750001D02*
X130000001Y-115000001D01*
X146999999Y-119499999D02*
G75*
G02X146000001Y-119499999I-499999J499999D01*
G01*
X154999999Y-119499999D02*
G75*
G02X154000001Y-119499999I-499999J499999D01*
G01*
X146999999Y-115000001D02*
X148749999Y-116750001D01*
X138999999Y-115000001D02*
X140749999Y-116750001D01*
X152250001Y-116750001D02*
X154000001Y-115000001D01*
X138999999Y-119499999D02*
G75*
G02X138000001Y-119499999I-499999J499999D01*
G01*
X146999999Y-119499999D02*
X148749999Y-117749999D01*
X138000001Y-115000001D02*
G75*
G02X138999999Y-115000001I499999J-499999D01*
G01*
X160250001Y-117749999D02*
G75*
G02X160250001Y-116750001I499999J499999D01*
G01*
X162999999Y-119499999D02*
X164749999Y-117749999D01*
X130999999Y-115000001D02*
X132749999Y-116750001D01*
X130999999Y-119499999D02*
G75*
G02X130000001Y-119499999I-499999J499999D01*
G01*
X146000001Y-115000001D02*
G75*
G02X146999999Y-115000001I499999J-499999D01*
G01*
X130999999Y-119499999D02*
X132749999Y-117749999D01*
X136250001Y-117749999D02*
X138000001Y-119499999D01*
X210999999Y-115000001D02*
X212749999Y-116750001D01*
X212749999Y-116750001D02*
G75*
G02X212749999Y-117749999I-499999J-499999D01*
G01*
X208250001Y-116750001D02*
X210000001Y-115000001D01*
X210999999Y-119499999D02*
G75*
G02X210000001Y-119499999I-499999J499999D01*
G01*
X148749999Y-116750001D02*
G75*
G02X148749999Y-117749999I-499999J-499999D01*
G01*
X144250001Y-117749999D02*
X146000001Y-119499999D01*
X208250001Y-117749999D02*
X210000001Y-119499999D01*
X208250001Y-117749999D02*
G75*
G02X208250001Y-116750001I499999J499999D01*
G01*
X210000001Y-115000001D02*
G75*
G02X210999999Y-115000001I499999J-499999D01*
G01*
X210999999Y-119499999D02*
X212749999Y-117749999D01*
X128250001Y-117749999D02*
X130000001Y-119499999D01*
X144250001Y-117749999D02*
G75*
G02X144250001Y-116750001I499999J499999D01*
G01*
X156749999Y-116750001D02*
G75*
G02X156749999Y-117749999I-499999J-499999D01*
G01*
X132749999Y-116750001D02*
G75*
G02X132749999Y-117749999I-499999J-499999D01*
G01*
X138999999Y-119499999D02*
X140749999Y-117749999D01*
X152250001Y-117749999D02*
G75*
G02X152250001Y-116750001I499999J499999D01*
G01*
X136250001Y-117749999D02*
G75*
G02X136250001Y-116750001I499999J499999D01*
G01*
X128250001Y-117749999D02*
G75*
G02X128250001Y-116750001I499999J499999D01*
G01*
X136250001Y-116750001D02*
X138000001Y-115000001D01*
X144250001Y-116750001D02*
X146000001Y-115000001D01*
X154999999Y-115000001D02*
X156749999Y-116750001D01*
X130000001Y-115000001D02*
G75*
G02X130999999Y-115000001I499999J-499999D01*
G01*
X192250001Y-117749999D02*
G75*
G02X192250001Y-116750001I499999J499999D01*
G01*
X186999999Y-119499999D02*
X188749999Y-117749999D01*
X200250001Y-116750001D02*
X202000001Y-115000001D01*
X184250001Y-116750001D02*
X186000001Y-115000001D01*
X184250001Y-96000001D02*
X186000001Y-94250001D01*
X186999999Y-98749999D02*
X188749999Y-96999999D01*
X192250001Y-96999999D02*
G75*
G02X192250001Y-96000001I499999J499999D01*
G01*
X200250001Y-96000001D02*
X202000001Y-94250001D01*
X204749999Y-96000001D02*
G75*
G02X204749999Y-96999999I-499999J-499999D01*
G01*
X200250001Y-96999999D02*
X202000001Y-98749999D01*
X200250001Y-96999999D02*
G75*
G02X200250001Y-96000001I499999J499999D01*
G01*
X186000001Y-94250001D02*
G75*
G02X186999999Y-94250001I499999J-499999D01*
G01*
X194999999Y-94250001D02*
X196749999Y-96000001D01*
X194999999Y-98749999D02*
G75*
G02X194000001Y-98749999I-499999J499999D01*
G01*
X202999999Y-98749999D02*
G75*
G02X202000001Y-98749999I-499999J499999D01*
G01*
X192250001Y-96000001D02*
X194000001Y-94250001D01*
X196749999Y-96000001D02*
G75*
G02X196749999Y-96999999I-499999J-499999D01*
G01*
X192250001Y-96999999D02*
X194000001Y-98749999D01*
X202999999Y-94250001D02*
X204749999Y-96000001D01*
X186999999Y-98749999D02*
G75*
G02X186000001Y-98749999I-499999J499999D01*
G01*
X194000001Y-94250001D02*
G75*
G02X194999999Y-94250001I499999J-499999D01*
G01*
X194999999Y-98749999D02*
X196749999Y-96999999D01*
X202999999Y-98749999D02*
X204749999Y-96999999D01*
X202000001Y-94250001D02*
G75*
G02X202999999Y-94250001I499999J-499999D01*
G01*
X162999999Y-98749999D02*
G75*
G02X162000001Y-98749999I-499999J499999D01*
G01*
X178000001Y-94250001D02*
G75*
G02X178999999Y-94250001I499999J-499999D01*
G01*
X162000001Y-94250001D02*
G75*
G02X162999999Y-94250001I499999J-499999D01*
G01*
X170999999Y-94250001D02*
X172749999Y-96000001D01*
X172749999Y-96000001D02*
G75*
G02X172749999Y-96999999I-499999J-499999D01*
G01*
X170000001Y-94250001D02*
G75*
G02X170999999Y-94250001I499999J-499999D01*
G01*
X170999999Y-98749999D02*
X172749999Y-96999999D01*
X168250001Y-96999999D02*
X170000001Y-98749999D01*
X168250001Y-96999999D02*
G75*
G02X168250001Y-96000001I499999J499999D01*
G01*
X170999999Y-98749999D02*
G75*
G02X170000001Y-98749999I-499999J499999D01*
G01*
X180749999Y-96000001D02*
G75*
G02X180749999Y-96999999I-499999J-499999D01*
G01*
X176250001Y-96999999D02*
G75*
G02X176250001Y-96000001I499999J499999D01*
G01*
X178999999Y-98749999D02*
G75*
G02X178000001Y-98749999I-499999J499999D01*
G01*
X186999999Y-94250001D02*
X188749999Y-96000001D01*
X184250001Y-96999999D02*
G75*
G02X184250001Y-96000001I499999J499999D01*
G01*
X188749999Y-96000001D02*
G75*
G02X188749999Y-96999999I-499999J-499999D01*
G01*
X154000001Y-94250001D02*
G75*
G02X154999999Y-94250001I499999J-499999D01*
G01*
X176250001Y-96000001D02*
X178000001Y-94250001D01*
X154999999Y-98749999D02*
X156749999Y-96999999D01*
X160250001Y-96000001D02*
X162000001Y-94250001D01*
X168250001Y-96000001D02*
X170000001Y-94250001D01*
X178999999Y-94250001D02*
X180749999Y-96000001D01*
X176250001Y-96999999D02*
X178000001Y-98749999D01*
X162999999Y-94250001D02*
X164749999Y-96000001D01*
X164749999Y-96000001D02*
G75*
G02X164749999Y-96999999I-499999J-499999D01*
G01*
X160250001Y-96999999D02*
X162000001Y-98749999D01*
X178999999Y-98749999D02*
X180749999Y-96999999D01*
X184250001Y-96999999D02*
X186000001Y-98749999D01*
X160250001Y-96999999D02*
G75*
G02X160250001Y-96000001I499999J499999D01*
G01*
X162999999Y-98749999D02*
X164749999Y-96999999D01*
X210999999Y-94250001D02*
X212749999Y-96000001D01*
X212749999Y-96000001D02*
G75*
G02X212749999Y-96999999I-499999J-499999D01*
G01*
X208250001Y-96999999D02*
X210000001Y-98749999D01*
X208250001Y-96999999D02*
G75*
G02X208250001Y-96000001I499999J499999D01*
G01*
X210999999Y-98749999D02*
G75*
G02X210000001Y-98749999I-499999J499999D01*
G01*
X208250001Y-96000001D02*
X210000001Y-94250001D01*
X210000001Y-94250001D02*
G75*
G02X210999999Y-94250001I499999J-499999D01*
G01*
X210999999Y-98749999D02*
X212749999Y-96999999D01*
X128250001Y-96999999D02*
X130000001Y-98749999D01*
X144250001Y-96999999D02*
G75*
G02X144250001Y-96000001I499999J499999D01*
G01*
X132749999Y-96000001D02*
G75*
G02X132749999Y-96999999I-499999J-499999D01*
G01*
X130999999Y-94250001D02*
X132749999Y-96000001D01*
X138999999Y-98749999D02*
X140749999Y-96999999D01*
X148749999Y-96000001D02*
G75*
G02X148749999Y-96999999I-499999J-499999D01*
G01*
X130999999Y-98749999D02*
G75*
G02X130000001Y-98749999I-499999J499999D01*
G01*
X156749999Y-96000001D02*
G75*
G02X156749999Y-96999999I-499999J-499999D01*
G01*
X152250001Y-96999999D02*
G75*
G02X152250001Y-96000001I499999J499999D01*
G01*
X136250001Y-96999999D02*
G75*
G02X136250001Y-96000001I499999J499999D01*
G01*
X144250001Y-96999999D02*
X146000001Y-98749999D01*
X128250001Y-96999999D02*
G75*
G02X128250001Y-96000001I499999J499999D01*
G01*
X154999999Y-94250001D02*
X156749999Y-96000001D01*
X154999999Y-98749999D02*
G75*
G02X154000001Y-98749999I-499999J499999D01*
G01*
X130000001Y-94250001D02*
G75*
G02X130999999Y-94250001I499999J-499999D01*
G01*
X146999999Y-98749999D02*
G75*
G02X146000001Y-98749999I-499999J499999D01*
G01*
X140749999Y-96000001D02*
G75*
G02X140749999Y-96999999I-499999J-499999D01*
G01*
X136250001Y-96999999D02*
X138000001Y-98749999D01*
X146999999Y-98749999D02*
X148749999Y-96999999D01*
X152250001Y-96999999D02*
X154000001Y-98749999D01*
X130999999Y-98749999D02*
X132749999Y-96999999D01*
X144250001Y-96000001D02*
X146000001Y-94250001D01*
X138999999Y-98749999D02*
G75*
G02X138000001Y-98749999I-499999J499999D01*
G01*
X136250001Y-96000001D02*
X138000001Y-94250001D01*
X146999999Y-94250001D02*
X148749999Y-96000001D01*
X138999999Y-94250001D02*
X140749999Y-96000001D01*
X152250001Y-96000001D02*
X154000001Y-94250001D01*
X146000001Y-94250001D02*
G75*
G02X146999999Y-94250001I499999J-499999D01*
G01*
X128250001Y-96000001D02*
X130000001Y-94250001D01*
X138000001Y-94250001D02*
G75*
G02X138999999Y-94250001I499999J-499999D01*
G01*
X130999999Y-73500001D02*
X132749999Y-75250001D01*
X132749999Y-75250001D02*
G75*
G02X132749999Y-76249999I-499999J-499999D01*
G01*
X128250001Y-76249999D02*
X130000001Y-77999999D01*
X128250001Y-76249999D02*
G75*
G02X128250001Y-75250001I499999J499999D01*
G01*
X130999999Y-77999999D02*
G75*
G02X130000001Y-77999999I-499999J499999D01*
G01*
X128250001Y-75250001D02*
X130000001Y-73500001D01*
X130000001Y-73500001D02*
G75*
G02X130999999Y-73500001I499999J-499999D01*
G01*
X130999999Y-77999999D02*
X132749999Y-76249999D01*
X138999999Y-73500001D02*
X140749999Y-75250001D01*
X140749999Y-75250001D02*
G75*
G02X140749999Y-76249999I-499999J-499999D01*
G01*
X136250001Y-76249999D02*
X138000001Y-77999999D01*
X136250001Y-76249999D02*
G75*
G02X136250001Y-75250001I499999J499999D01*
G01*
X138999999Y-77999999D02*
G75*
G02X138000001Y-77999999I-499999J499999D01*
G01*
X136250001Y-75250001D02*
X138000001Y-73500001D01*
X138000001Y-73500001D02*
G75*
G02X138999999Y-73500001I499999J-499999D01*
G01*
X138999999Y-77999999D02*
X140749999Y-76249999D01*
X146999999Y-73500001D02*
X148749999Y-75250001D01*
X148749999Y-75250001D02*
G75*
G02X148749999Y-76249999I-499999J-499999D01*
G01*
X144250001Y-76249999D02*
X146000001Y-77999999D01*
X144250001Y-76249999D02*
G75*
G02X144250001Y-75250001I499999J499999D01*
G01*
X146999999Y-77999999D02*
G75*
G02X146000001Y-77999999I-499999J499999D01*
G01*
X144250001Y-75250001D02*
X146000001Y-73500001D01*
X146000001Y-73500001D02*
G75*
G02X146999999Y-73500001I499999J-499999D01*
G01*
X146999999Y-77999999D02*
X148749999Y-76249999D01*
X154999999Y-73500001D02*
X156749999Y-75250001D01*
X156749999Y-75250001D02*
G75*
G02X156749999Y-76249999I-499999J-499999D01*
G01*
X152250001Y-76249999D02*
X154000001Y-77999999D01*
X152250001Y-76249999D02*
G75*
G02X152250001Y-75250001I499999J499999D01*
G01*
X154999999Y-77999999D02*
G75*
G02X154000001Y-77999999I-499999J499999D01*
G01*
X152250001Y-75250001D02*
X154000001Y-73500001D01*
X154000001Y-73500001D02*
G75*
G02X154999999Y-73500001I499999J-499999D01*
G01*
X154999999Y-77999999D02*
X156749999Y-76249999D01*
X162999999Y-73500001D02*
X164749999Y-75250001D01*
X164749999Y-75250001D02*
G75*
G02X164749999Y-76249999I-499999J-499999D01*
G01*
X160250001Y-76249999D02*
X162000001Y-77999999D01*
X160250001Y-76249999D02*
G75*
G02X160250001Y-75250001I499999J499999D01*
G01*
X162999999Y-77999999D02*
G75*
G02X162000001Y-77999999I-499999J499999D01*
G01*
X160250001Y-75250001D02*
X162000001Y-73500001D01*
X162000001Y-73500001D02*
G75*
G02X162999999Y-73500001I499999J-499999D01*
G01*
X162999999Y-77999999D02*
X164749999Y-76249999D01*
X170999999Y-73500001D02*
X172749999Y-75250001D01*
X172749999Y-75250001D02*
G75*
G02X172749999Y-76249999I-499999J-499999D01*
G01*
X168250001Y-76249999D02*
X170000001Y-77999999D01*
X168250001Y-76249999D02*
G75*
G02X168250001Y-75250001I499999J499999D01*
G01*
X170999999Y-77999999D02*
G75*
G02X170000001Y-77999999I-499999J499999D01*
G01*
X168250001Y-75250001D02*
X170000001Y-73500001D01*
X170000001Y-73500001D02*
G75*
G02X170999999Y-73500001I499999J-499999D01*
G01*
X170999999Y-77999999D02*
X172749999Y-76249999D01*
X178999999Y-73500001D02*
X180749999Y-75250001D01*
X180749999Y-75250001D02*
G75*
G02X180749999Y-76249999I-499999J-499999D01*
G01*
X176250001Y-76249999D02*
X178000001Y-77999999D01*
X176250001Y-76249999D02*
G75*
G02X176250001Y-75250001I499999J499999D01*
G01*
X178999999Y-77999999D02*
G75*
G02X178000001Y-77999999I-499999J499999D01*
G01*
X176250001Y-75250001D02*
X178000001Y-73500001D01*
X178000001Y-73500001D02*
G75*
G02X178999999Y-73500001I499999J-499999D01*
G01*
X178999999Y-77999999D02*
X180749999Y-76249999D01*
X186999999Y-73500001D02*
X188749999Y-75250001D01*
X188749999Y-75250001D02*
G75*
G02X188749999Y-76249999I-499999J-499999D01*
G01*
X184250001Y-76249999D02*
X186000001Y-77999999D01*
X184250001Y-76249999D02*
G75*
G02X184250001Y-75250001I499999J499999D01*
G01*
X186999999Y-77999999D02*
G75*
G02X186000001Y-77999999I-499999J499999D01*
G01*
X184250001Y-75250001D02*
X186000001Y-73500001D01*
X186000001Y-73500001D02*
G75*
G02X186999999Y-73500001I499999J-499999D01*
G01*
X186999999Y-77999999D02*
X188749999Y-76249999D01*
X194999999Y-73500001D02*
X196749999Y-75250001D01*
X196749999Y-75250001D02*
G75*
G02X196749999Y-76249999I-499999J-499999D01*
G01*
X192250001Y-76249999D02*
X194000001Y-77999999D01*
X192250001Y-76249999D02*
G75*
G02X192250001Y-75250001I499999J499999D01*
G01*
X194999999Y-77999999D02*
G75*
G02X194000001Y-77999999I-499999J499999D01*
G01*
X192250001Y-75250001D02*
X194000001Y-73500001D01*
X194000001Y-73500001D02*
G75*
G02X194999999Y-73500001I499999J-499999D01*
G01*
X194999999Y-77999999D02*
X196749999Y-76249999D01*
X202999999Y-73500001D02*
X204749999Y-75250001D01*
X204749999Y-75250001D02*
G75*
G02X204749999Y-76249999I-499999J-499999D01*
G01*
X200250001Y-76249999D02*
X202000001Y-77999999D01*
X200250001Y-76249999D02*
G75*
G02X200250001Y-75250001I499999J499999D01*
G01*
X202999999Y-77999999D02*
G75*
G02X202000001Y-77999999I-499999J499999D01*
G01*
X200250001Y-75250001D02*
X202000001Y-73500001D01*
X202000001Y-73500001D02*
G75*
G02X202999999Y-73500001I499999J-499999D01*
G01*
X202999999Y-77999999D02*
X204749999Y-76249999D01*
X210999999Y-77999999D02*
X212749999Y-76249999D01*
X210000001Y-73500001D02*
G75*
G02X210999999Y-73500001I499999J-499999D01*
G01*
X208250001Y-75250001D02*
X210000001Y-73500001D01*
X210999999Y-77999999D02*
G75*
G02X210000001Y-77999999I-499999J499999D01*
G01*
X208250001Y-76249999D02*
G75*
G02X208250001Y-75250001I499999J499999D01*
G01*
X208250001Y-76249999D02*
X210000001Y-77999999D01*
X212749999Y-75250001D02*
G75*
G02X212749999Y-76249999I-499999J-499999D01*
G01*
X210999999Y-73500001D02*
X212749999Y-75250001D01*
M02*
