M48
; DRILL file {KiCad (5.1.2)-1} date 8/9/2019 3:28:20 PM
; FORMAT={-:-/ absolute / inch / decimal}
; #@! TF.CreationDate,2019-08-09T15:28:20+09:00
; #@! TF.GenerationSoftware,Kicad,Pcbnew,(5.1.2)-1
; #@! TF.FileFunction,NonPlated,1,2,NPTH
FMAT,2
INCH
T1C0.0310
T2C0.1200
T3C0.1570
%
G90
G05
T1
X6.2976Y-1.8502
X6.3476Y-1.8502
X6.3976Y-1.8502
X6.4476Y-1.8502
X6.4976Y-1.8502
X5.5018Y-4.9197
X5.5018Y-4.9697
X5.5018Y-5.0197
X5.5018Y-5.0697
X5.5018Y-5.1197
X7.8724Y-1.929
X7.9224Y-1.929
X7.9724Y-1.929
X8.0224Y-1.929
X8.0724Y-1.929
X5.5018Y-4.024
X5.5018Y-4.074
X5.5018Y-4.124
X5.5018Y-4.174
X5.5018Y-4.224
X5.2346Y-5.5317
X5.2846Y-5.5317
X5.3346Y-5.5317
X5.3846Y-5.5317
X5.4346Y-5.5317
X6.5648Y-2.2327
X6.5648Y-2.2827
X6.5648Y-2.3327
X6.5648Y-2.3827
X6.5648Y-2.4327
X6.2305Y-4.024
X6.2305Y-4.074
X6.2305Y-4.124
X6.2305Y-4.174
X6.2305Y-4.224
X7.8724Y-5.4529
X7.9224Y-5.4529
X7.9724Y-5.4529
X8.0224Y-5.4529
X8.0724Y-5.4529
X6.5648Y-4.9197
X6.5648Y-4.9697
X6.5648Y-5.0197
X6.5648Y-5.0697
X6.5648Y-5.1197
X5.2346Y-1.8502
X5.2846Y-1.8502
X5.3346Y-1.8502
X5.3846Y-1.8502
X5.4346Y-1.8502
X6.2305Y-2.2327
X6.2305Y-2.2827
X6.2305Y-2.3327
X6.2305Y-2.3827
X6.2305Y-2.4327
X5.1675Y-2.2327
X5.1675Y-2.2827
X5.1675Y-2.3327
X5.1675Y-2.3827
X5.1675Y-2.4327
X6.5648Y-3.1283
X6.5648Y-3.1783
X6.5648Y-3.2283
X6.5648Y-3.2783
X6.5648Y-3.3283
X5.5018Y-3.1283
X5.5018Y-3.1783
X5.5018Y-3.2283
X5.5018Y-3.2783
X5.5018Y-3.3283
X5.1675Y-4.9197
X5.1675Y-4.9697
X5.1675Y-5.0197
X5.1675Y-5.0697
X5.1675Y-5.1197
X6.2305Y-3.1283
X6.2305Y-3.1783
X6.2305Y-3.2283
X6.2305Y-3.2783
X6.2305Y-3.3283
X5.5018Y-2.2327
X5.5018Y-2.2827
X5.5018Y-2.3327
X5.5018Y-2.3827
X5.5018Y-2.4327
X6.2976Y-5.5317
X6.3476Y-5.5317
X6.3976Y-5.5317
X6.4476Y-5.5317
X6.4976Y-5.5317
X5.1675Y-3.1283
X5.1675Y-3.1783
X5.1675Y-3.2283
X5.1675Y-3.2783
X5.1675Y-3.3283
X6.5648Y-4.024
X6.5648Y-4.074
X6.5648Y-4.124
X6.5648Y-4.174
X6.5648Y-4.224
X6.2305Y-4.9197
X6.2305Y-4.9697
X6.2305Y-5.0197
X6.2305Y-5.0697
X6.2305Y-5.1197
X5.1675Y-4.024
X5.1675Y-4.074
X5.1675Y-4.124
X5.1675Y-4.174
X5.1675Y-4.224
T2
X5.6693Y-4.725
X6.7323Y-2.9337
X6.063Y-3.8293
X5.0Y-3.8293
X6.7323Y-4.725
X6.7323Y-2.038
X6.7323Y-3.8293
X6.063Y-2.9337
X5.0Y-4.725
X5.0Y-2.038
X5.6693Y-3.8293
X6.063Y-2.038
X5.0Y-2.9337
X5.6693Y-2.038
X5.6693Y-2.9337
X6.063Y-4.725
T3
X5.0Y-3.5337
X5.6693Y-2.638
X5.6693Y-3.5337
X6.063Y-5.325
X5.6693Y-5.325
X6.7323Y-3.5337
X6.063Y-4.4293
X5.0Y-4.4293
X6.7323Y-5.325
X6.7323Y-2.638
X6.7323Y-4.4293
X6.063Y-3.5337
X5.0Y-5.325
X5.0Y-2.638
X5.6693Y-4.4293
X6.063Y-2.638
T0
M30
