G04 #@! TF.GenerationSoftware,KiCad,Pcbnew,(5.1.4)-1*
G04 #@! TF.CreationDate,2020-07-23T11:35:07+09:00*
G04 #@! TF.ProjectId,StabilizerShims,53746162-696c-4697-9a65-725368696d73,rev?*
G04 #@! TF.SameCoordinates,Original*
G04 #@! TF.FileFunction,Legend,Top*
G04 #@! TF.FilePolarity,Positive*
%FSLAX46Y46*%
G04 Gerber Fmt 4.6, Leading zero omitted, Abs format (unit mm)*
G04 Created by KiCad (PCBNEW (5.1.4)-1) date 2020-07-23 11:35:07*
%MOMM*%
%LPD*%
G04 APERTURE LIST*
%ADD10C,0.120000*%
%ADD11C,0.010000*%
%ADD12C,3.150000*%
%ADD13C,4.089800*%
G04 APERTURE END LIST*
D10*
X216302776Y-99000000D02*
G75*
G03X216302776Y-99000000I-1802776J0D01*
G01*
X216804886Y-114250000D02*
G75*
G03X216804886Y-114250000I-2304886J0D01*
G01*
X216302776Y-57500000D02*
G75*
G03X216302776Y-57500000I-1802776J0D01*
G01*
X216302776Y-78250000D02*
G75*
G03X216302776Y-78250000I-1802776J0D01*
G01*
X216804886Y-72750000D02*
G75*
G03X216804886Y-72750000I-2304886J0D01*
G01*
X216804886Y-93500000D02*
G75*
G03X216804886Y-93500000I-2304886J0D01*
G01*
X216302776Y-119750000D02*
G75*
G03X216302776Y-119750000I-1802776J0D01*
G01*
X216804886Y-135000000D02*
G75*
G03X216804886Y-135000000I-2304886J0D01*
G01*
X208302776Y-99000000D02*
G75*
G03X208302776Y-99000000I-1802776J0D01*
G01*
X208804886Y-114250000D02*
G75*
G03X208804886Y-114250000I-2304886J0D01*
G01*
X208302776Y-57500000D02*
G75*
G03X208302776Y-57500000I-1802776J0D01*
G01*
X208302776Y-78250000D02*
G75*
G03X208302776Y-78250000I-1802776J0D01*
G01*
X208804886Y-72750000D02*
G75*
G03X208804886Y-72750000I-2304886J0D01*
G01*
X208804886Y-93500000D02*
G75*
G03X208804886Y-93500000I-2304886J0D01*
G01*
X208302776Y-119750000D02*
G75*
G03X208302776Y-119750000I-1802776J0D01*
G01*
X208804886Y-135000000D02*
G75*
G03X208804886Y-135000000I-2304886J0D01*
G01*
X200302776Y-99000000D02*
G75*
G03X200302776Y-99000000I-1802776J0D01*
G01*
X200804886Y-114250000D02*
G75*
G03X200804886Y-114250000I-2304886J0D01*
G01*
X200302776Y-57500000D02*
G75*
G03X200302776Y-57500000I-1802776J0D01*
G01*
X200302776Y-78250000D02*
G75*
G03X200302776Y-78250000I-1802776J0D01*
G01*
X200804886Y-72750000D02*
G75*
G03X200804886Y-72750000I-2304886J0D01*
G01*
X200804886Y-93500000D02*
G75*
G03X200804886Y-93500000I-2304886J0D01*
G01*
X200302776Y-119750000D02*
G75*
G03X200302776Y-119750000I-1802776J0D01*
G01*
X200804886Y-135000000D02*
G75*
G03X200804886Y-135000000I-2304886J0D01*
G01*
X192302776Y-99000000D02*
G75*
G03X192302776Y-99000000I-1802776J0D01*
G01*
X192804886Y-114250000D02*
G75*
G03X192804886Y-114250000I-2304886J0D01*
G01*
X192302776Y-57500000D02*
G75*
G03X192302776Y-57500000I-1802776J0D01*
G01*
X192302776Y-78250000D02*
G75*
G03X192302776Y-78250000I-1802776J0D01*
G01*
X192804886Y-72750000D02*
G75*
G03X192804886Y-72750000I-2304886J0D01*
G01*
X192804886Y-93500000D02*
G75*
G03X192804886Y-93500000I-2304886J0D01*
G01*
X192302776Y-119750000D02*
G75*
G03X192302776Y-119750000I-1802776J0D01*
G01*
X192804886Y-135000000D02*
G75*
G03X192804886Y-135000000I-2304886J0D01*
G01*
X184302776Y-99000000D02*
G75*
G03X184302776Y-99000000I-1802776J0D01*
G01*
X184804886Y-114250000D02*
G75*
G03X184804886Y-114250000I-2304886J0D01*
G01*
X184302776Y-57500000D02*
G75*
G03X184302776Y-57500000I-1802776J0D01*
G01*
X184302776Y-78250000D02*
G75*
G03X184302776Y-78250000I-1802776J0D01*
G01*
X184804886Y-72750000D02*
G75*
G03X184804886Y-72750000I-2304886J0D01*
G01*
X184804886Y-93500000D02*
G75*
G03X184804886Y-93500000I-2304886J0D01*
G01*
X184302776Y-119750000D02*
G75*
G03X184302776Y-119750000I-1802776J0D01*
G01*
X184804886Y-135000000D02*
G75*
G03X184804886Y-135000000I-2304886J0D01*
G01*
X176302776Y-99000000D02*
G75*
G03X176302776Y-99000000I-1802776J0D01*
G01*
X176804886Y-114250000D02*
G75*
G03X176804886Y-114250000I-2304886J0D01*
G01*
X176302776Y-57500000D02*
G75*
G03X176302776Y-57500000I-1802776J0D01*
G01*
X176302776Y-78250000D02*
G75*
G03X176302776Y-78250000I-1802776J0D01*
G01*
X176804886Y-72750000D02*
G75*
G03X176804886Y-72750000I-2304886J0D01*
G01*
X176804886Y-93500000D02*
G75*
G03X176804886Y-93500000I-2304886J0D01*
G01*
X176302776Y-119750000D02*
G75*
G03X176302776Y-119750000I-1802776J0D01*
G01*
X176804886Y-135000000D02*
G75*
G03X176804886Y-135000000I-2304886J0D01*
G01*
X168302776Y-99000000D02*
G75*
G03X168302776Y-99000000I-1802776J0D01*
G01*
X168804886Y-114250000D02*
G75*
G03X168804886Y-114250000I-2304886J0D01*
G01*
X168302776Y-57500000D02*
G75*
G03X168302776Y-57500000I-1802776J0D01*
G01*
X168302776Y-78250000D02*
G75*
G03X168302776Y-78250000I-1802776J0D01*
G01*
X168804886Y-72750000D02*
G75*
G03X168804886Y-72750000I-2304886J0D01*
G01*
X168804886Y-93500000D02*
G75*
G03X168804886Y-93500000I-2304886J0D01*
G01*
X168302776Y-119750000D02*
G75*
G03X168302776Y-119750000I-1802776J0D01*
G01*
X168804886Y-135000000D02*
G75*
G03X168804886Y-135000000I-2304886J0D01*
G01*
X160302776Y-99000000D02*
G75*
G03X160302776Y-99000000I-1802776J0D01*
G01*
X160804886Y-114250000D02*
G75*
G03X160804886Y-114250000I-2304886J0D01*
G01*
X160302776Y-57500000D02*
G75*
G03X160302776Y-57500000I-1802776J0D01*
G01*
X160302776Y-78250000D02*
G75*
G03X160302776Y-78250000I-1802776J0D01*
G01*
X160804886Y-72750000D02*
G75*
G03X160804886Y-72750000I-2304886J0D01*
G01*
X160804886Y-93500000D02*
G75*
G03X160804886Y-93500000I-2304886J0D01*
G01*
X160302776Y-119750000D02*
G75*
G03X160302776Y-119750000I-1802776J0D01*
G01*
X160804886Y-135000000D02*
G75*
G03X160804886Y-135000000I-2304886J0D01*
G01*
X152302776Y-99000000D02*
G75*
G03X152302776Y-99000000I-1802776J0D01*
G01*
X152804886Y-114250000D02*
G75*
G03X152804886Y-114250000I-2304886J0D01*
G01*
X152302776Y-57500000D02*
G75*
G03X152302776Y-57500000I-1802776J0D01*
G01*
X152302776Y-78250000D02*
G75*
G03X152302776Y-78250000I-1802776J0D01*
G01*
X152804886Y-72750000D02*
G75*
G03X152804886Y-72750000I-2304886J0D01*
G01*
X152804886Y-93500000D02*
G75*
G03X152804886Y-93500000I-2304886J0D01*
G01*
X152302776Y-119750000D02*
G75*
G03X152302776Y-119750000I-1802776J0D01*
G01*
X152804886Y-135000000D02*
G75*
G03X152804886Y-135000000I-2304886J0D01*
G01*
X144302776Y-99000000D02*
G75*
G03X144302776Y-99000000I-1802776J0D01*
G01*
X144804886Y-114250000D02*
G75*
G03X144804886Y-114250000I-2304886J0D01*
G01*
X144302776Y-57500000D02*
G75*
G03X144302776Y-57500000I-1802776J0D01*
G01*
X144302776Y-78250000D02*
G75*
G03X144302776Y-78250000I-1802776J0D01*
G01*
X144804886Y-72750000D02*
G75*
G03X144804886Y-72750000I-2304886J0D01*
G01*
X144804886Y-93500000D02*
G75*
G03X144804886Y-93500000I-2304886J0D01*
G01*
X144302776Y-119750000D02*
G75*
G03X144302776Y-119750000I-1802776J0D01*
G01*
X144804886Y-135000000D02*
G75*
G03X144804886Y-135000000I-2304886J0D01*
G01*
X136302776Y-99000000D02*
G75*
G03X136302776Y-99000000I-1802776J0D01*
G01*
X136804886Y-114250000D02*
G75*
G03X136804886Y-114250000I-2304886J0D01*
G01*
X136302776Y-57500000D02*
G75*
G03X136302776Y-57500000I-1802776J0D01*
G01*
X136302776Y-78250000D02*
G75*
G03X136302776Y-78250000I-1802776J0D01*
G01*
X136804886Y-72750000D02*
G75*
G03X136804886Y-72750000I-2304886J0D01*
G01*
X136804886Y-93500000D02*
G75*
G03X136804886Y-93500000I-2304886J0D01*
G01*
X136302776Y-119750000D02*
G75*
G03X136302776Y-119750000I-1802776J0D01*
G01*
X136804886Y-135000000D02*
G75*
G03X136804886Y-135000000I-2304886J0D01*
G01*
X128302776Y-57500000D02*
G75*
G03X128302776Y-57500000I-1802776J0D01*
G01*
X128804886Y-72750000D02*
G75*
G03X128804886Y-72750000I-2304886J0D01*
G01*
X128302776Y-78250000D02*
G75*
G03X128302776Y-78250000I-1802776J0D01*
G01*
X128804886Y-93500000D02*
G75*
G03X128804886Y-93500000I-2304886J0D01*
G01*
X128302776Y-99000000D02*
G75*
G03X128302776Y-99000000I-1802776J0D01*
G01*
X128804886Y-114250000D02*
G75*
G03X128804886Y-114250000I-2304886J0D01*
G01*
X128804886Y-135000000D02*
G75*
G03X128804886Y-135000000I-2304886J0D01*
G01*
X128302776Y-119750000D02*
G75*
G03X128302776Y-119750000I-1802776J0D01*
G01*
D11*
G36*
X213219840Y-128916240D02*
G01*
X212701680Y-128916240D01*
X212701680Y-128398080D01*
X213219840Y-128398080D01*
X213219840Y-128916240D01*
X213219840Y-128916240D01*
G37*
X213219840Y-128916240D02*
X212701680Y-128916240D01*
X212701680Y-128398080D01*
X213219840Y-128398080D01*
X213219840Y-128916240D01*
G36*
X216267840Y-128916240D02*
G01*
X215749680Y-128916240D01*
X215749680Y-128398080D01*
X216267840Y-128398080D01*
X216267840Y-128916240D01*
X216267840Y-128916240D01*
G37*
X216267840Y-128916240D02*
X215749680Y-128916240D01*
X215749680Y-128398080D01*
X216267840Y-128398080D01*
X216267840Y-128916240D01*
G36*
X213738000Y-127910400D02*
G01*
X213219840Y-127910400D01*
X213219840Y-127392240D01*
X213738000Y-127392240D01*
X213738000Y-127910400D01*
X213738000Y-127910400D01*
G37*
X213738000Y-127910400D02*
X213219840Y-127910400D01*
X213219840Y-127392240D01*
X213738000Y-127392240D01*
X213738000Y-127910400D01*
G36*
X214743840Y-127910400D02*
G01*
X214225680Y-127910400D01*
X214225680Y-127392240D01*
X214743840Y-127392240D01*
X214743840Y-127910400D01*
X214743840Y-127910400D01*
G37*
X214743840Y-127910400D02*
X214225680Y-127910400D01*
X214225680Y-127392240D01*
X214743840Y-127392240D01*
X214743840Y-127910400D01*
G36*
X215749680Y-127910400D02*
G01*
X215262000Y-127910400D01*
X215262000Y-127392240D01*
X215749680Y-127392240D01*
X215749680Y-127910400D01*
X215749680Y-127910400D01*
G37*
X215749680Y-127910400D02*
X215262000Y-127910400D01*
X215262000Y-127392240D01*
X215749680Y-127392240D01*
X215749680Y-127910400D01*
G36*
X214225680Y-126874080D02*
G01*
X213738000Y-126874080D01*
X213738000Y-126386400D01*
X214225680Y-126386400D01*
X214225680Y-126874080D01*
X214225680Y-126874080D01*
G37*
X214225680Y-126874080D02*
X213738000Y-126874080D01*
X213738000Y-126386400D01*
X214225680Y-126386400D01*
X214225680Y-126874080D01*
G36*
X215262000Y-126874080D02*
G01*
X214743840Y-126874080D01*
X214743840Y-126386400D01*
X215262000Y-126386400D01*
X215262000Y-126874080D01*
X215262000Y-126874080D01*
G37*
X215262000Y-126874080D02*
X214743840Y-126874080D01*
X214743840Y-126386400D01*
X215262000Y-126386400D01*
X215262000Y-126874080D01*
G36*
X214743840Y-125868240D02*
G01*
X214225680Y-125868240D01*
X214225680Y-125350080D01*
X214743840Y-125350080D01*
X214743840Y-125868240D01*
X214743840Y-125868240D01*
G37*
X214743840Y-125868240D02*
X214225680Y-125868240D01*
X214225680Y-125350080D01*
X214743840Y-125350080D01*
X214743840Y-125868240D01*
G36*
X205219840Y-128916240D02*
G01*
X204701680Y-128916240D01*
X204701680Y-128398080D01*
X205219840Y-128398080D01*
X205219840Y-128916240D01*
X205219840Y-128916240D01*
G37*
X205219840Y-128916240D02*
X204701680Y-128916240D01*
X204701680Y-128398080D01*
X205219840Y-128398080D01*
X205219840Y-128916240D01*
G36*
X208267840Y-128916240D02*
G01*
X207749680Y-128916240D01*
X207749680Y-128398080D01*
X208267840Y-128398080D01*
X208267840Y-128916240D01*
X208267840Y-128916240D01*
G37*
X208267840Y-128916240D02*
X207749680Y-128916240D01*
X207749680Y-128398080D01*
X208267840Y-128398080D01*
X208267840Y-128916240D01*
G36*
X205738000Y-127910400D02*
G01*
X205219840Y-127910400D01*
X205219840Y-127392240D01*
X205738000Y-127392240D01*
X205738000Y-127910400D01*
X205738000Y-127910400D01*
G37*
X205738000Y-127910400D02*
X205219840Y-127910400D01*
X205219840Y-127392240D01*
X205738000Y-127392240D01*
X205738000Y-127910400D01*
G36*
X206743840Y-127910400D02*
G01*
X206225680Y-127910400D01*
X206225680Y-127392240D01*
X206743840Y-127392240D01*
X206743840Y-127910400D01*
X206743840Y-127910400D01*
G37*
X206743840Y-127910400D02*
X206225680Y-127910400D01*
X206225680Y-127392240D01*
X206743840Y-127392240D01*
X206743840Y-127910400D01*
G36*
X207749680Y-127910400D02*
G01*
X207262000Y-127910400D01*
X207262000Y-127392240D01*
X207749680Y-127392240D01*
X207749680Y-127910400D01*
X207749680Y-127910400D01*
G37*
X207749680Y-127910400D02*
X207262000Y-127910400D01*
X207262000Y-127392240D01*
X207749680Y-127392240D01*
X207749680Y-127910400D01*
G36*
X206225680Y-126874080D02*
G01*
X205738000Y-126874080D01*
X205738000Y-126386400D01*
X206225680Y-126386400D01*
X206225680Y-126874080D01*
X206225680Y-126874080D01*
G37*
X206225680Y-126874080D02*
X205738000Y-126874080D01*
X205738000Y-126386400D01*
X206225680Y-126386400D01*
X206225680Y-126874080D01*
G36*
X207262000Y-126874080D02*
G01*
X206743840Y-126874080D01*
X206743840Y-126386400D01*
X207262000Y-126386400D01*
X207262000Y-126874080D01*
X207262000Y-126874080D01*
G37*
X207262000Y-126874080D02*
X206743840Y-126874080D01*
X206743840Y-126386400D01*
X207262000Y-126386400D01*
X207262000Y-126874080D01*
G36*
X206743840Y-125868240D02*
G01*
X206225680Y-125868240D01*
X206225680Y-125350080D01*
X206743840Y-125350080D01*
X206743840Y-125868240D01*
X206743840Y-125868240D01*
G37*
X206743840Y-125868240D02*
X206225680Y-125868240D01*
X206225680Y-125350080D01*
X206743840Y-125350080D01*
X206743840Y-125868240D01*
G36*
X197219840Y-128916240D02*
G01*
X196701680Y-128916240D01*
X196701680Y-128398080D01*
X197219840Y-128398080D01*
X197219840Y-128916240D01*
X197219840Y-128916240D01*
G37*
X197219840Y-128916240D02*
X196701680Y-128916240D01*
X196701680Y-128398080D01*
X197219840Y-128398080D01*
X197219840Y-128916240D01*
G36*
X200267840Y-128916240D02*
G01*
X199749680Y-128916240D01*
X199749680Y-128398080D01*
X200267840Y-128398080D01*
X200267840Y-128916240D01*
X200267840Y-128916240D01*
G37*
X200267840Y-128916240D02*
X199749680Y-128916240D01*
X199749680Y-128398080D01*
X200267840Y-128398080D01*
X200267840Y-128916240D01*
G36*
X197738000Y-127910400D02*
G01*
X197219840Y-127910400D01*
X197219840Y-127392240D01*
X197738000Y-127392240D01*
X197738000Y-127910400D01*
X197738000Y-127910400D01*
G37*
X197738000Y-127910400D02*
X197219840Y-127910400D01*
X197219840Y-127392240D01*
X197738000Y-127392240D01*
X197738000Y-127910400D01*
G36*
X198743840Y-127910400D02*
G01*
X198225680Y-127910400D01*
X198225680Y-127392240D01*
X198743840Y-127392240D01*
X198743840Y-127910400D01*
X198743840Y-127910400D01*
G37*
X198743840Y-127910400D02*
X198225680Y-127910400D01*
X198225680Y-127392240D01*
X198743840Y-127392240D01*
X198743840Y-127910400D01*
G36*
X199749680Y-127910400D02*
G01*
X199262000Y-127910400D01*
X199262000Y-127392240D01*
X199749680Y-127392240D01*
X199749680Y-127910400D01*
X199749680Y-127910400D01*
G37*
X199749680Y-127910400D02*
X199262000Y-127910400D01*
X199262000Y-127392240D01*
X199749680Y-127392240D01*
X199749680Y-127910400D01*
G36*
X198225680Y-126874080D02*
G01*
X197738000Y-126874080D01*
X197738000Y-126386400D01*
X198225680Y-126386400D01*
X198225680Y-126874080D01*
X198225680Y-126874080D01*
G37*
X198225680Y-126874080D02*
X197738000Y-126874080D01*
X197738000Y-126386400D01*
X198225680Y-126386400D01*
X198225680Y-126874080D01*
G36*
X199262000Y-126874080D02*
G01*
X198743840Y-126874080D01*
X198743840Y-126386400D01*
X199262000Y-126386400D01*
X199262000Y-126874080D01*
X199262000Y-126874080D01*
G37*
X199262000Y-126874080D02*
X198743840Y-126874080D01*
X198743840Y-126386400D01*
X199262000Y-126386400D01*
X199262000Y-126874080D01*
G36*
X198743840Y-125868240D02*
G01*
X198225680Y-125868240D01*
X198225680Y-125350080D01*
X198743840Y-125350080D01*
X198743840Y-125868240D01*
X198743840Y-125868240D01*
G37*
X198743840Y-125868240D02*
X198225680Y-125868240D01*
X198225680Y-125350080D01*
X198743840Y-125350080D01*
X198743840Y-125868240D01*
G36*
X189219840Y-128916240D02*
G01*
X188701680Y-128916240D01*
X188701680Y-128398080D01*
X189219840Y-128398080D01*
X189219840Y-128916240D01*
X189219840Y-128916240D01*
G37*
X189219840Y-128916240D02*
X188701680Y-128916240D01*
X188701680Y-128398080D01*
X189219840Y-128398080D01*
X189219840Y-128916240D01*
G36*
X192267840Y-128916240D02*
G01*
X191749680Y-128916240D01*
X191749680Y-128398080D01*
X192267840Y-128398080D01*
X192267840Y-128916240D01*
X192267840Y-128916240D01*
G37*
X192267840Y-128916240D02*
X191749680Y-128916240D01*
X191749680Y-128398080D01*
X192267840Y-128398080D01*
X192267840Y-128916240D01*
G36*
X189738000Y-127910400D02*
G01*
X189219840Y-127910400D01*
X189219840Y-127392240D01*
X189738000Y-127392240D01*
X189738000Y-127910400D01*
X189738000Y-127910400D01*
G37*
X189738000Y-127910400D02*
X189219840Y-127910400D01*
X189219840Y-127392240D01*
X189738000Y-127392240D01*
X189738000Y-127910400D01*
G36*
X190743840Y-127910400D02*
G01*
X190225680Y-127910400D01*
X190225680Y-127392240D01*
X190743840Y-127392240D01*
X190743840Y-127910400D01*
X190743840Y-127910400D01*
G37*
X190743840Y-127910400D02*
X190225680Y-127910400D01*
X190225680Y-127392240D01*
X190743840Y-127392240D01*
X190743840Y-127910400D01*
G36*
X191749680Y-127910400D02*
G01*
X191262000Y-127910400D01*
X191262000Y-127392240D01*
X191749680Y-127392240D01*
X191749680Y-127910400D01*
X191749680Y-127910400D01*
G37*
X191749680Y-127910400D02*
X191262000Y-127910400D01*
X191262000Y-127392240D01*
X191749680Y-127392240D01*
X191749680Y-127910400D01*
G36*
X190225680Y-126874080D02*
G01*
X189738000Y-126874080D01*
X189738000Y-126386400D01*
X190225680Y-126386400D01*
X190225680Y-126874080D01*
X190225680Y-126874080D01*
G37*
X190225680Y-126874080D02*
X189738000Y-126874080D01*
X189738000Y-126386400D01*
X190225680Y-126386400D01*
X190225680Y-126874080D01*
G36*
X191262000Y-126874080D02*
G01*
X190743840Y-126874080D01*
X190743840Y-126386400D01*
X191262000Y-126386400D01*
X191262000Y-126874080D01*
X191262000Y-126874080D01*
G37*
X191262000Y-126874080D02*
X190743840Y-126874080D01*
X190743840Y-126386400D01*
X191262000Y-126386400D01*
X191262000Y-126874080D01*
G36*
X190743840Y-125868240D02*
G01*
X190225680Y-125868240D01*
X190225680Y-125350080D01*
X190743840Y-125350080D01*
X190743840Y-125868240D01*
X190743840Y-125868240D01*
G37*
X190743840Y-125868240D02*
X190225680Y-125868240D01*
X190225680Y-125350080D01*
X190743840Y-125350080D01*
X190743840Y-125868240D01*
G36*
X181219840Y-128916240D02*
G01*
X180701680Y-128916240D01*
X180701680Y-128398080D01*
X181219840Y-128398080D01*
X181219840Y-128916240D01*
X181219840Y-128916240D01*
G37*
X181219840Y-128916240D02*
X180701680Y-128916240D01*
X180701680Y-128398080D01*
X181219840Y-128398080D01*
X181219840Y-128916240D01*
G36*
X184267840Y-128916240D02*
G01*
X183749680Y-128916240D01*
X183749680Y-128398080D01*
X184267840Y-128398080D01*
X184267840Y-128916240D01*
X184267840Y-128916240D01*
G37*
X184267840Y-128916240D02*
X183749680Y-128916240D01*
X183749680Y-128398080D01*
X184267840Y-128398080D01*
X184267840Y-128916240D01*
G36*
X181738000Y-127910400D02*
G01*
X181219840Y-127910400D01*
X181219840Y-127392240D01*
X181738000Y-127392240D01*
X181738000Y-127910400D01*
X181738000Y-127910400D01*
G37*
X181738000Y-127910400D02*
X181219840Y-127910400D01*
X181219840Y-127392240D01*
X181738000Y-127392240D01*
X181738000Y-127910400D01*
G36*
X182743840Y-127910400D02*
G01*
X182225680Y-127910400D01*
X182225680Y-127392240D01*
X182743840Y-127392240D01*
X182743840Y-127910400D01*
X182743840Y-127910400D01*
G37*
X182743840Y-127910400D02*
X182225680Y-127910400D01*
X182225680Y-127392240D01*
X182743840Y-127392240D01*
X182743840Y-127910400D01*
G36*
X183749680Y-127910400D02*
G01*
X183262000Y-127910400D01*
X183262000Y-127392240D01*
X183749680Y-127392240D01*
X183749680Y-127910400D01*
X183749680Y-127910400D01*
G37*
X183749680Y-127910400D02*
X183262000Y-127910400D01*
X183262000Y-127392240D01*
X183749680Y-127392240D01*
X183749680Y-127910400D01*
G36*
X182225680Y-126874080D02*
G01*
X181738000Y-126874080D01*
X181738000Y-126386400D01*
X182225680Y-126386400D01*
X182225680Y-126874080D01*
X182225680Y-126874080D01*
G37*
X182225680Y-126874080D02*
X181738000Y-126874080D01*
X181738000Y-126386400D01*
X182225680Y-126386400D01*
X182225680Y-126874080D01*
G36*
X183262000Y-126874080D02*
G01*
X182743840Y-126874080D01*
X182743840Y-126386400D01*
X183262000Y-126386400D01*
X183262000Y-126874080D01*
X183262000Y-126874080D01*
G37*
X183262000Y-126874080D02*
X182743840Y-126874080D01*
X182743840Y-126386400D01*
X183262000Y-126386400D01*
X183262000Y-126874080D01*
G36*
X182743840Y-125868240D02*
G01*
X182225680Y-125868240D01*
X182225680Y-125350080D01*
X182743840Y-125350080D01*
X182743840Y-125868240D01*
X182743840Y-125868240D01*
G37*
X182743840Y-125868240D02*
X182225680Y-125868240D01*
X182225680Y-125350080D01*
X182743840Y-125350080D01*
X182743840Y-125868240D01*
G36*
X173219840Y-128916240D02*
G01*
X172701680Y-128916240D01*
X172701680Y-128398080D01*
X173219840Y-128398080D01*
X173219840Y-128916240D01*
X173219840Y-128916240D01*
G37*
X173219840Y-128916240D02*
X172701680Y-128916240D01*
X172701680Y-128398080D01*
X173219840Y-128398080D01*
X173219840Y-128916240D01*
G36*
X176267840Y-128916240D02*
G01*
X175749680Y-128916240D01*
X175749680Y-128398080D01*
X176267840Y-128398080D01*
X176267840Y-128916240D01*
X176267840Y-128916240D01*
G37*
X176267840Y-128916240D02*
X175749680Y-128916240D01*
X175749680Y-128398080D01*
X176267840Y-128398080D01*
X176267840Y-128916240D01*
G36*
X173738000Y-127910400D02*
G01*
X173219840Y-127910400D01*
X173219840Y-127392240D01*
X173738000Y-127392240D01*
X173738000Y-127910400D01*
X173738000Y-127910400D01*
G37*
X173738000Y-127910400D02*
X173219840Y-127910400D01*
X173219840Y-127392240D01*
X173738000Y-127392240D01*
X173738000Y-127910400D01*
G36*
X174743840Y-127910400D02*
G01*
X174225680Y-127910400D01*
X174225680Y-127392240D01*
X174743840Y-127392240D01*
X174743840Y-127910400D01*
X174743840Y-127910400D01*
G37*
X174743840Y-127910400D02*
X174225680Y-127910400D01*
X174225680Y-127392240D01*
X174743840Y-127392240D01*
X174743840Y-127910400D01*
G36*
X175749680Y-127910400D02*
G01*
X175262000Y-127910400D01*
X175262000Y-127392240D01*
X175749680Y-127392240D01*
X175749680Y-127910400D01*
X175749680Y-127910400D01*
G37*
X175749680Y-127910400D02*
X175262000Y-127910400D01*
X175262000Y-127392240D01*
X175749680Y-127392240D01*
X175749680Y-127910400D01*
G36*
X174225680Y-126874080D02*
G01*
X173738000Y-126874080D01*
X173738000Y-126386400D01*
X174225680Y-126386400D01*
X174225680Y-126874080D01*
X174225680Y-126874080D01*
G37*
X174225680Y-126874080D02*
X173738000Y-126874080D01*
X173738000Y-126386400D01*
X174225680Y-126386400D01*
X174225680Y-126874080D01*
G36*
X175262000Y-126874080D02*
G01*
X174743840Y-126874080D01*
X174743840Y-126386400D01*
X175262000Y-126386400D01*
X175262000Y-126874080D01*
X175262000Y-126874080D01*
G37*
X175262000Y-126874080D02*
X174743840Y-126874080D01*
X174743840Y-126386400D01*
X175262000Y-126386400D01*
X175262000Y-126874080D01*
G36*
X174743840Y-125868240D02*
G01*
X174225680Y-125868240D01*
X174225680Y-125350080D01*
X174743840Y-125350080D01*
X174743840Y-125868240D01*
X174743840Y-125868240D01*
G37*
X174743840Y-125868240D02*
X174225680Y-125868240D01*
X174225680Y-125350080D01*
X174743840Y-125350080D01*
X174743840Y-125868240D01*
G36*
X165219840Y-128916240D02*
G01*
X164701680Y-128916240D01*
X164701680Y-128398080D01*
X165219840Y-128398080D01*
X165219840Y-128916240D01*
X165219840Y-128916240D01*
G37*
X165219840Y-128916240D02*
X164701680Y-128916240D01*
X164701680Y-128398080D01*
X165219840Y-128398080D01*
X165219840Y-128916240D01*
G36*
X168267840Y-128916240D02*
G01*
X167749680Y-128916240D01*
X167749680Y-128398080D01*
X168267840Y-128398080D01*
X168267840Y-128916240D01*
X168267840Y-128916240D01*
G37*
X168267840Y-128916240D02*
X167749680Y-128916240D01*
X167749680Y-128398080D01*
X168267840Y-128398080D01*
X168267840Y-128916240D01*
G36*
X165738000Y-127910400D02*
G01*
X165219840Y-127910400D01*
X165219840Y-127392240D01*
X165738000Y-127392240D01*
X165738000Y-127910400D01*
X165738000Y-127910400D01*
G37*
X165738000Y-127910400D02*
X165219840Y-127910400D01*
X165219840Y-127392240D01*
X165738000Y-127392240D01*
X165738000Y-127910400D01*
G36*
X166743840Y-127910400D02*
G01*
X166225680Y-127910400D01*
X166225680Y-127392240D01*
X166743840Y-127392240D01*
X166743840Y-127910400D01*
X166743840Y-127910400D01*
G37*
X166743840Y-127910400D02*
X166225680Y-127910400D01*
X166225680Y-127392240D01*
X166743840Y-127392240D01*
X166743840Y-127910400D01*
G36*
X167749680Y-127910400D02*
G01*
X167262000Y-127910400D01*
X167262000Y-127392240D01*
X167749680Y-127392240D01*
X167749680Y-127910400D01*
X167749680Y-127910400D01*
G37*
X167749680Y-127910400D02*
X167262000Y-127910400D01*
X167262000Y-127392240D01*
X167749680Y-127392240D01*
X167749680Y-127910400D01*
G36*
X166225680Y-126874080D02*
G01*
X165738000Y-126874080D01*
X165738000Y-126386400D01*
X166225680Y-126386400D01*
X166225680Y-126874080D01*
X166225680Y-126874080D01*
G37*
X166225680Y-126874080D02*
X165738000Y-126874080D01*
X165738000Y-126386400D01*
X166225680Y-126386400D01*
X166225680Y-126874080D01*
G36*
X167262000Y-126874080D02*
G01*
X166743840Y-126874080D01*
X166743840Y-126386400D01*
X167262000Y-126386400D01*
X167262000Y-126874080D01*
X167262000Y-126874080D01*
G37*
X167262000Y-126874080D02*
X166743840Y-126874080D01*
X166743840Y-126386400D01*
X167262000Y-126386400D01*
X167262000Y-126874080D01*
G36*
X166743840Y-125868240D02*
G01*
X166225680Y-125868240D01*
X166225680Y-125350080D01*
X166743840Y-125350080D01*
X166743840Y-125868240D01*
X166743840Y-125868240D01*
G37*
X166743840Y-125868240D02*
X166225680Y-125868240D01*
X166225680Y-125350080D01*
X166743840Y-125350080D01*
X166743840Y-125868240D01*
G36*
X157219840Y-128916240D02*
G01*
X156701680Y-128916240D01*
X156701680Y-128398080D01*
X157219840Y-128398080D01*
X157219840Y-128916240D01*
X157219840Y-128916240D01*
G37*
X157219840Y-128916240D02*
X156701680Y-128916240D01*
X156701680Y-128398080D01*
X157219840Y-128398080D01*
X157219840Y-128916240D01*
G36*
X160267840Y-128916240D02*
G01*
X159749680Y-128916240D01*
X159749680Y-128398080D01*
X160267840Y-128398080D01*
X160267840Y-128916240D01*
X160267840Y-128916240D01*
G37*
X160267840Y-128916240D02*
X159749680Y-128916240D01*
X159749680Y-128398080D01*
X160267840Y-128398080D01*
X160267840Y-128916240D01*
G36*
X157738000Y-127910400D02*
G01*
X157219840Y-127910400D01*
X157219840Y-127392240D01*
X157738000Y-127392240D01*
X157738000Y-127910400D01*
X157738000Y-127910400D01*
G37*
X157738000Y-127910400D02*
X157219840Y-127910400D01*
X157219840Y-127392240D01*
X157738000Y-127392240D01*
X157738000Y-127910400D01*
G36*
X158743840Y-127910400D02*
G01*
X158225680Y-127910400D01*
X158225680Y-127392240D01*
X158743840Y-127392240D01*
X158743840Y-127910400D01*
X158743840Y-127910400D01*
G37*
X158743840Y-127910400D02*
X158225680Y-127910400D01*
X158225680Y-127392240D01*
X158743840Y-127392240D01*
X158743840Y-127910400D01*
G36*
X159749680Y-127910400D02*
G01*
X159262000Y-127910400D01*
X159262000Y-127392240D01*
X159749680Y-127392240D01*
X159749680Y-127910400D01*
X159749680Y-127910400D01*
G37*
X159749680Y-127910400D02*
X159262000Y-127910400D01*
X159262000Y-127392240D01*
X159749680Y-127392240D01*
X159749680Y-127910400D01*
G36*
X158225680Y-126874080D02*
G01*
X157738000Y-126874080D01*
X157738000Y-126386400D01*
X158225680Y-126386400D01*
X158225680Y-126874080D01*
X158225680Y-126874080D01*
G37*
X158225680Y-126874080D02*
X157738000Y-126874080D01*
X157738000Y-126386400D01*
X158225680Y-126386400D01*
X158225680Y-126874080D01*
G36*
X159262000Y-126874080D02*
G01*
X158743840Y-126874080D01*
X158743840Y-126386400D01*
X159262000Y-126386400D01*
X159262000Y-126874080D01*
X159262000Y-126874080D01*
G37*
X159262000Y-126874080D02*
X158743840Y-126874080D01*
X158743840Y-126386400D01*
X159262000Y-126386400D01*
X159262000Y-126874080D01*
G36*
X158743840Y-125868240D02*
G01*
X158225680Y-125868240D01*
X158225680Y-125350080D01*
X158743840Y-125350080D01*
X158743840Y-125868240D01*
X158743840Y-125868240D01*
G37*
X158743840Y-125868240D02*
X158225680Y-125868240D01*
X158225680Y-125350080D01*
X158743840Y-125350080D01*
X158743840Y-125868240D01*
G36*
X149219840Y-128916240D02*
G01*
X148701680Y-128916240D01*
X148701680Y-128398080D01*
X149219840Y-128398080D01*
X149219840Y-128916240D01*
X149219840Y-128916240D01*
G37*
X149219840Y-128916240D02*
X148701680Y-128916240D01*
X148701680Y-128398080D01*
X149219840Y-128398080D01*
X149219840Y-128916240D01*
G36*
X152267840Y-128916240D02*
G01*
X151749680Y-128916240D01*
X151749680Y-128398080D01*
X152267840Y-128398080D01*
X152267840Y-128916240D01*
X152267840Y-128916240D01*
G37*
X152267840Y-128916240D02*
X151749680Y-128916240D01*
X151749680Y-128398080D01*
X152267840Y-128398080D01*
X152267840Y-128916240D01*
G36*
X149738000Y-127910400D02*
G01*
X149219840Y-127910400D01*
X149219840Y-127392240D01*
X149738000Y-127392240D01*
X149738000Y-127910400D01*
X149738000Y-127910400D01*
G37*
X149738000Y-127910400D02*
X149219840Y-127910400D01*
X149219840Y-127392240D01*
X149738000Y-127392240D01*
X149738000Y-127910400D01*
G36*
X150743840Y-127910400D02*
G01*
X150225680Y-127910400D01*
X150225680Y-127392240D01*
X150743840Y-127392240D01*
X150743840Y-127910400D01*
X150743840Y-127910400D01*
G37*
X150743840Y-127910400D02*
X150225680Y-127910400D01*
X150225680Y-127392240D01*
X150743840Y-127392240D01*
X150743840Y-127910400D01*
G36*
X151749680Y-127910400D02*
G01*
X151262000Y-127910400D01*
X151262000Y-127392240D01*
X151749680Y-127392240D01*
X151749680Y-127910400D01*
X151749680Y-127910400D01*
G37*
X151749680Y-127910400D02*
X151262000Y-127910400D01*
X151262000Y-127392240D01*
X151749680Y-127392240D01*
X151749680Y-127910400D01*
G36*
X150225680Y-126874080D02*
G01*
X149738000Y-126874080D01*
X149738000Y-126386400D01*
X150225680Y-126386400D01*
X150225680Y-126874080D01*
X150225680Y-126874080D01*
G37*
X150225680Y-126874080D02*
X149738000Y-126874080D01*
X149738000Y-126386400D01*
X150225680Y-126386400D01*
X150225680Y-126874080D01*
G36*
X151262000Y-126874080D02*
G01*
X150743840Y-126874080D01*
X150743840Y-126386400D01*
X151262000Y-126386400D01*
X151262000Y-126874080D01*
X151262000Y-126874080D01*
G37*
X151262000Y-126874080D02*
X150743840Y-126874080D01*
X150743840Y-126386400D01*
X151262000Y-126386400D01*
X151262000Y-126874080D01*
G36*
X150743840Y-125868240D02*
G01*
X150225680Y-125868240D01*
X150225680Y-125350080D01*
X150743840Y-125350080D01*
X150743840Y-125868240D01*
X150743840Y-125868240D01*
G37*
X150743840Y-125868240D02*
X150225680Y-125868240D01*
X150225680Y-125350080D01*
X150743840Y-125350080D01*
X150743840Y-125868240D01*
G36*
X141219840Y-128916240D02*
G01*
X140701680Y-128916240D01*
X140701680Y-128398080D01*
X141219840Y-128398080D01*
X141219840Y-128916240D01*
X141219840Y-128916240D01*
G37*
X141219840Y-128916240D02*
X140701680Y-128916240D01*
X140701680Y-128398080D01*
X141219840Y-128398080D01*
X141219840Y-128916240D01*
G36*
X144267840Y-128916240D02*
G01*
X143749680Y-128916240D01*
X143749680Y-128398080D01*
X144267840Y-128398080D01*
X144267840Y-128916240D01*
X144267840Y-128916240D01*
G37*
X144267840Y-128916240D02*
X143749680Y-128916240D01*
X143749680Y-128398080D01*
X144267840Y-128398080D01*
X144267840Y-128916240D01*
G36*
X141738000Y-127910400D02*
G01*
X141219840Y-127910400D01*
X141219840Y-127392240D01*
X141738000Y-127392240D01*
X141738000Y-127910400D01*
X141738000Y-127910400D01*
G37*
X141738000Y-127910400D02*
X141219840Y-127910400D01*
X141219840Y-127392240D01*
X141738000Y-127392240D01*
X141738000Y-127910400D01*
G36*
X142743840Y-127910400D02*
G01*
X142225680Y-127910400D01*
X142225680Y-127392240D01*
X142743840Y-127392240D01*
X142743840Y-127910400D01*
X142743840Y-127910400D01*
G37*
X142743840Y-127910400D02*
X142225680Y-127910400D01*
X142225680Y-127392240D01*
X142743840Y-127392240D01*
X142743840Y-127910400D01*
G36*
X143749680Y-127910400D02*
G01*
X143262000Y-127910400D01*
X143262000Y-127392240D01*
X143749680Y-127392240D01*
X143749680Y-127910400D01*
X143749680Y-127910400D01*
G37*
X143749680Y-127910400D02*
X143262000Y-127910400D01*
X143262000Y-127392240D01*
X143749680Y-127392240D01*
X143749680Y-127910400D01*
G36*
X142225680Y-126874080D02*
G01*
X141738000Y-126874080D01*
X141738000Y-126386400D01*
X142225680Y-126386400D01*
X142225680Y-126874080D01*
X142225680Y-126874080D01*
G37*
X142225680Y-126874080D02*
X141738000Y-126874080D01*
X141738000Y-126386400D01*
X142225680Y-126386400D01*
X142225680Y-126874080D01*
G36*
X143262000Y-126874080D02*
G01*
X142743840Y-126874080D01*
X142743840Y-126386400D01*
X143262000Y-126386400D01*
X143262000Y-126874080D01*
X143262000Y-126874080D01*
G37*
X143262000Y-126874080D02*
X142743840Y-126874080D01*
X142743840Y-126386400D01*
X143262000Y-126386400D01*
X143262000Y-126874080D01*
G36*
X142743840Y-125868240D02*
G01*
X142225680Y-125868240D01*
X142225680Y-125350080D01*
X142743840Y-125350080D01*
X142743840Y-125868240D01*
X142743840Y-125868240D01*
G37*
X142743840Y-125868240D02*
X142225680Y-125868240D01*
X142225680Y-125350080D01*
X142743840Y-125350080D01*
X142743840Y-125868240D01*
G36*
X133219840Y-128916240D02*
G01*
X132701680Y-128916240D01*
X132701680Y-128398080D01*
X133219840Y-128398080D01*
X133219840Y-128916240D01*
X133219840Y-128916240D01*
G37*
X133219840Y-128916240D02*
X132701680Y-128916240D01*
X132701680Y-128398080D01*
X133219840Y-128398080D01*
X133219840Y-128916240D01*
G36*
X136267840Y-128916240D02*
G01*
X135749680Y-128916240D01*
X135749680Y-128398080D01*
X136267840Y-128398080D01*
X136267840Y-128916240D01*
X136267840Y-128916240D01*
G37*
X136267840Y-128916240D02*
X135749680Y-128916240D01*
X135749680Y-128398080D01*
X136267840Y-128398080D01*
X136267840Y-128916240D01*
G36*
X133738000Y-127910400D02*
G01*
X133219840Y-127910400D01*
X133219840Y-127392240D01*
X133738000Y-127392240D01*
X133738000Y-127910400D01*
X133738000Y-127910400D01*
G37*
X133738000Y-127910400D02*
X133219840Y-127910400D01*
X133219840Y-127392240D01*
X133738000Y-127392240D01*
X133738000Y-127910400D01*
G36*
X134743840Y-127910400D02*
G01*
X134225680Y-127910400D01*
X134225680Y-127392240D01*
X134743840Y-127392240D01*
X134743840Y-127910400D01*
X134743840Y-127910400D01*
G37*
X134743840Y-127910400D02*
X134225680Y-127910400D01*
X134225680Y-127392240D01*
X134743840Y-127392240D01*
X134743840Y-127910400D01*
G36*
X135749680Y-127910400D02*
G01*
X135262000Y-127910400D01*
X135262000Y-127392240D01*
X135749680Y-127392240D01*
X135749680Y-127910400D01*
X135749680Y-127910400D01*
G37*
X135749680Y-127910400D02*
X135262000Y-127910400D01*
X135262000Y-127392240D01*
X135749680Y-127392240D01*
X135749680Y-127910400D01*
G36*
X134225680Y-126874080D02*
G01*
X133738000Y-126874080D01*
X133738000Y-126386400D01*
X134225680Y-126386400D01*
X134225680Y-126874080D01*
X134225680Y-126874080D01*
G37*
X134225680Y-126874080D02*
X133738000Y-126874080D01*
X133738000Y-126386400D01*
X134225680Y-126386400D01*
X134225680Y-126874080D01*
G36*
X135262000Y-126874080D02*
G01*
X134743840Y-126874080D01*
X134743840Y-126386400D01*
X135262000Y-126386400D01*
X135262000Y-126874080D01*
X135262000Y-126874080D01*
G37*
X135262000Y-126874080D02*
X134743840Y-126874080D01*
X134743840Y-126386400D01*
X135262000Y-126386400D01*
X135262000Y-126874080D01*
G36*
X134743840Y-125868240D02*
G01*
X134225680Y-125868240D01*
X134225680Y-125350080D01*
X134743840Y-125350080D01*
X134743840Y-125868240D01*
X134743840Y-125868240D01*
G37*
X134743840Y-125868240D02*
X134225680Y-125868240D01*
X134225680Y-125350080D01*
X134743840Y-125350080D01*
X134743840Y-125868240D01*
G36*
X125219840Y-128916240D02*
G01*
X124701680Y-128916240D01*
X124701680Y-128398080D01*
X125219840Y-128398080D01*
X125219840Y-128916240D01*
X125219840Y-128916240D01*
G37*
X125219840Y-128916240D02*
X124701680Y-128916240D01*
X124701680Y-128398080D01*
X125219840Y-128398080D01*
X125219840Y-128916240D01*
G36*
X128267840Y-128916240D02*
G01*
X127749680Y-128916240D01*
X127749680Y-128398080D01*
X128267840Y-128398080D01*
X128267840Y-128916240D01*
X128267840Y-128916240D01*
G37*
X128267840Y-128916240D02*
X127749680Y-128916240D01*
X127749680Y-128398080D01*
X128267840Y-128398080D01*
X128267840Y-128916240D01*
G36*
X125738000Y-127910400D02*
G01*
X125219840Y-127910400D01*
X125219840Y-127392240D01*
X125738000Y-127392240D01*
X125738000Y-127910400D01*
X125738000Y-127910400D01*
G37*
X125738000Y-127910400D02*
X125219840Y-127910400D01*
X125219840Y-127392240D01*
X125738000Y-127392240D01*
X125738000Y-127910400D01*
G36*
X126743840Y-127910400D02*
G01*
X126225680Y-127910400D01*
X126225680Y-127392240D01*
X126743840Y-127392240D01*
X126743840Y-127910400D01*
X126743840Y-127910400D01*
G37*
X126743840Y-127910400D02*
X126225680Y-127910400D01*
X126225680Y-127392240D01*
X126743840Y-127392240D01*
X126743840Y-127910400D01*
G36*
X127749680Y-127910400D02*
G01*
X127262000Y-127910400D01*
X127262000Y-127392240D01*
X127749680Y-127392240D01*
X127749680Y-127910400D01*
X127749680Y-127910400D01*
G37*
X127749680Y-127910400D02*
X127262000Y-127910400D01*
X127262000Y-127392240D01*
X127749680Y-127392240D01*
X127749680Y-127910400D01*
G36*
X126225680Y-126874080D02*
G01*
X125738000Y-126874080D01*
X125738000Y-126386400D01*
X126225680Y-126386400D01*
X126225680Y-126874080D01*
X126225680Y-126874080D01*
G37*
X126225680Y-126874080D02*
X125738000Y-126874080D01*
X125738000Y-126386400D01*
X126225680Y-126386400D01*
X126225680Y-126874080D01*
G36*
X127262000Y-126874080D02*
G01*
X126743840Y-126874080D01*
X126743840Y-126386400D01*
X127262000Y-126386400D01*
X127262000Y-126874080D01*
X127262000Y-126874080D01*
G37*
X127262000Y-126874080D02*
X126743840Y-126874080D01*
X126743840Y-126386400D01*
X127262000Y-126386400D01*
X127262000Y-126874080D01*
G36*
X126743840Y-125868240D02*
G01*
X126225680Y-125868240D01*
X126225680Y-125350080D01*
X126743840Y-125350080D01*
X126743840Y-125868240D01*
X126743840Y-125868240D01*
G37*
X126743840Y-125868240D02*
X126225680Y-125868240D01*
X126225680Y-125350080D01*
X126743840Y-125350080D01*
X126743840Y-125868240D01*
G36*
X213219840Y-108166240D02*
G01*
X212701680Y-108166240D01*
X212701680Y-107648080D01*
X213219840Y-107648080D01*
X213219840Y-108166240D01*
X213219840Y-108166240D01*
G37*
X213219840Y-108166240D02*
X212701680Y-108166240D01*
X212701680Y-107648080D01*
X213219840Y-107648080D01*
X213219840Y-108166240D01*
G36*
X216267840Y-108166240D02*
G01*
X215749680Y-108166240D01*
X215749680Y-107648080D01*
X216267840Y-107648080D01*
X216267840Y-108166240D01*
X216267840Y-108166240D01*
G37*
X216267840Y-108166240D02*
X215749680Y-108166240D01*
X215749680Y-107648080D01*
X216267840Y-107648080D01*
X216267840Y-108166240D01*
G36*
X213738000Y-107160400D02*
G01*
X213219840Y-107160400D01*
X213219840Y-106642240D01*
X213738000Y-106642240D01*
X213738000Y-107160400D01*
X213738000Y-107160400D01*
G37*
X213738000Y-107160400D02*
X213219840Y-107160400D01*
X213219840Y-106642240D01*
X213738000Y-106642240D01*
X213738000Y-107160400D01*
G36*
X214743840Y-107160400D02*
G01*
X214225680Y-107160400D01*
X214225680Y-106642240D01*
X214743840Y-106642240D01*
X214743840Y-107160400D01*
X214743840Y-107160400D01*
G37*
X214743840Y-107160400D02*
X214225680Y-107160400D01*
X214225680Y-106642240D01*
X214743840Y-106642240D01*
X214743840Y-107160400D01*
G36*
X215749680Y-107160400D02*
G01*
X215262000Y-107160400D01*
X215262000Y-106642240D01*
X215749680Y-106642240D01*
X215749680Y-107160400D01*
X215749680Y-107160400D01*
G37*
X215749680Y-107160400D02*
X215262000Y-107160400D01*
X215262000Y-106642240D01*
X215749680Y-106642240D01*
X215749680Y-107160400D01*
G36*
X214225680Y-106124080D02*
G01*
X213738000Y-106124080D01*
X213738000Y-105636400D01*
X214225680Y-105636400D01*
X214225680Y-106124080D01*
X214225680Y-106124080D01*
G37*
X214225680Y-106124080D02*
X213738000Y-106124080D01*
X213738000Y-105636400D01*
X214225680Y-105636400D01*
X214225680Y-106124080D01*
G36*
X215262000Y-106124080D02*
G01*
X214743840Y-106124080D01*
X214743840Y-105636400D01*
X215262000Y-105636400D01*
X215262000Y-106124080D01*
X215262000Y-106124080D01*
G37*
X215262000Y-106124080D02*
X214743840Y-106124080D01*
X214743840Y-105636400D01*
X215262000Y-105636400D01*
X215262000Y-106124080D01*
G36*
X214743840Y-105118240D02*
G01*
X214225680Y-105118240D01*
X214225680Y-104600080D01*
X214743840Y-104600080D01*
X214743840Y-105118240D01*
X214743840Y-105118240D01*
G37*
X214743840Y-105118240D02*
X214225680Y-105118240D01*
X214225680Y-104600080D01*
X214743840Y-104600080D01*
X214743840Y-105118240D01*
G36*
X205219840Y-108166240D02*
G01*
X204701680Y-108166240D01*
X204701680Y-107648080D01*
X205219840Y-107648080D01*
X205219840Y-108166240D01*
X205219840Y-108166240D01*
G37*
X205219840Y-108166240D02*
X204701680Y-108166240D01*
X204701680Y-107648080D01*
X205219840Y-107648080D01*
X205219840Y-108166240D01*
G36*
X208267840Y-108166240D02*
G01*
X207749680Y-108166240D01*
X207749680Y-107648080D01*
X208267840Y-107648080D01*
X208267840Y-108166240D01*
X208267840Y-108166240D01*
G37*
X208267840Y-108166240D02*
X207749680Y-108166240D01*
X207749680Y-107648080D01*
X208267840Y-107648080D01*
X208267840Y-108166240D01*
G36*
X205738000Y-107160400D02*
G01*
X205219840Y-107160400D01*
X205219840Y-106642240D01*
X205738000Y-106642240D01*
X205738000Y-107160400D01*
X205738000Y-107160400D01*
G37*
X205738000Y-107160400D02*
X205219840Y-107160400D01*
X205219840Y-106642240D01*
X205738000Y-106642240D01*
X205738000Y-107160400D01*
G36*
X206743840Y-107160400D02*
G01*
X206225680Y-107160400D01*
X206225680Y-106642240D01*
X206743840Y-106642240D01*
X206743840Y-107160400D01*
X206743840Y-107160400D01*
G37*
X206743840Y-107160400D02*
X206225680Y-107160400D01*
X206225680Y-106642240D01*
X206743840Y-106642240D01*
X206743840Y-107160400D01*
G36*
X207749680Y-107160400D02*
G01*
X207262000Y-107160400D01*
X207262000Y-106642240D01*
X207749680Y-106642240D01*
X207749680Y-107160400D01*
X207749680Y-107160400D01*
G37*
X207749680Y-107160400D02*
X207262000Y-107160400D01*
X207262000Y-106642240D01*
X207749680Y-106642240D01*
X207749680Y-107160400D01*
G36*
X206225680Y-106124080D02*
G01*
X205738000Y-106124080D01*
X205738000Y-105636400D01*
X206225680Y-105636400D01*
X206225680Y-106124080D01*
X206225680Y-106124080D01*
G37*
X206225680Y-106124080D02*
X205738000Y-106124080D01*
X205738000Y-105636400D01*
X206225680Y-105636400D01*
X206225680Y-106124080D01*
G36*
X207262000Y-106124080D02*
G01*
X206743840Y-106124080D01*
X206743840Y-105636400D01*
X207262000Y-105636400D01*
X207262000Y-106124080D01*
X207262000Y-106124080D01*
G37*
X207262000Y-106124080D02*
X206743840Y-106124080D01*
X206743840Y-105636400D01*
X207262000Y-105636400D01*
X207262000Y-106124080D01*
G36*
X206743840Y-105118240D02*
G01*
X206225680Y-105118240D01*
X206225680Y-104600080D01*
X206743840Y-104600080D01*
X206743840Y-105118240D01*
X206743840Y-105118240D01*
G37*
X206743840Y-105118240D02*
X206225680Y-105118240D01*
X206225680Y-104600080D01*
X206743840Y-104600080D01*
X206743840Y-105118240D01*
G36*
X197219840Y-108166240D02*
G01*
X196701680Y-108166240D01*
X196701680Y-107648080D01*
X197219840Y-107648080D01*
X197219840Y-108166240D01*
X197219840Y-108166240D01*
G37*
X197219840Y-108166240D02*
X196701680Y-108166240D01*
X196701680Y-107648080D01*
X197219840Y-107648080D01*
X197219840Y-108166240D01*
G36*
X200267840Y-108166240D02*
G01*
X199749680Y-108166240D01*
X199749680Y-107648080D01*
X200267840Y-107648080D01*
X200267840Y-108166240D01*
X200267840Y-108166240D01*
G37*
X200267840Y-108166240D02*
X199749680Y-108166240D01*
X199749680Y-107648080D01*
X200267840Y-107648080D01*
X200267840Y-108166240D01*
G36*
X197738000Y-107160400D02*
G01*
X197219840Y-107160400D01*
X197219840Y-106642240D01*
X197738000Y-106642240D01*
X197738000Y-107160400D01*
X197738000Y-107160400D01*
G37*
X197738000Y-107160400D02*
X197219840Y-107160400D01*
X197219840Y-106642240D01*
X197738000Y-106642240D01*
X197738000Y-107160400D01*
G36*
X198743840Y-107160400D02*
G01*
X198225680Y-107160400D01*
X198225680Y-106642240D01*
X198743840Y-106642240D01*
X198743840Y-107160400D01*
X198743840Y-107160400D01*
G37*
X198743840Y-107160400D02*
X198225680Y-107160400D01*
X198225680Y-106642240D01*
X198743840Y-106642240D01*
X198743840Y-107160400D01*
G36*
X199749680Y-107160400D02*
G01*
X199262000Y-107160400D01*
X199262000Y-106642240D01*
X199749680Y-106642240D01*
X199749680Y-107160400D01*
X199749680Y-107160400D01*
G37*
X199749680Y-107160400D02*
X199262000Y-107160400D01*
X199262000Y-106642240D01*
X199749680Y-106642240D01*
X199749680Y-107160400D01*
G36*
X198225680Y-106124080D02*
G01*
X197738000Y-106124080D01*
X197738000Y-105636400D01*
X198225680Y-105636400D01*
X198225680Y-106124080D01*
X198225680Y-106124080D01*
G37*
X198225680Y-106124080D02*
X197738000Y-106124080D01*
X197738000Y-105636400D01*
X198225680Y-105636400D01*
X198225680Y-106124080D01*
G36*
X199262000Y-106124080D02*
G01*
X198743840Y-106124080D01*
X198743840Y-105636400D01*
X199262000Y-105636400D01*
X199262000Y-106124080D01*
X199262000Y-106124080D01*
G37*
X199262000Y-106124080D02*
X198743840Y-106124080D01*
X198743840Y-105636400D01*
X199262000Y-105636400D01*
X199262000Y-106124080D01*
G36*
X198743840Y-105118240D02*
G01*
X198225680Y-105118240D01*
X198225680Y-104600080D01*
X198743840Y-104600080D01*
X198743840Y-105118240D01*
X198743840Y-105118240D01*
G37*
X198743840Y-105118240D02*
X198225680Y-105118240D01*
X198225680Y-104600080D01*
X198743840Y-104600080D01*
X198743840Y-105118240D01*
G36*
X189219840Y-108166240D02*
G01*
X188701680Y-108166240D01*
X188701680Y-107648080D01*
X189219840Y-107648080D01*
X189219840Y-108166240D01*
X189219840Y-108166240D01*
G37*
X189219840Y-108166240D02*
X188701680Y-108166240D01*
X188701680Y-107648080D01*
X189219840Y-107648080D01*
X189219840Y-108166240D01*
G36*
X192267840Y-108166240D02*
G01*
X191749680Y-108166240D01*
X191749680Y-107648080D01*
X192267840Y-107648080D01*
X192267840Y-108166240D01*
X192267840Y-108166240D01*
G37*
X192267840Y-108166240D02*
X191749680Y-108166240D01*
X191749680Y-107648080D01*
X192267840Y-107648080D01*
X192267840Y-108166240D01*
G36*
X189738000Y-107160400D02*
G01*
X189219840Y-107160400D01*
X189219840Y-106642240D01*
X189738000Y-106642240D01*
X189738000Y-107160400D01*
X189738000Y-107160400D01*
G37*
X189738000Y-107160400D02*
X189219840Y-107160400D01*
X189219840Y-106642240D01*
X189738000Y-106642240D01*
X189738000Y-107160400D01*
G36*
X190743840Y-107160400D02*
G01*
X190225680Y-107160400D01*
X190225680Y-106642240D01*
X190743840Y-106642240D01*
X190743840Y-107160400D01*
X190743840Y-107160400D01*
G37*
X190743840Y-107160400D02*
X190225680Y-107160400D01*
X190225680Y-106642240D01*
X190743840Y-106642240D01*
X190743840Y-107160400D01*
G36*
X191749680Y-107160400D02*
G01*
X191262000Y-107160400D01*
X191262000Y-106642240D01*
X191749680Y-106642240D01*
X191749680Y-107160400D01*
X191749680Y-107160400D01*
G37*
X191749680Y-107160400D02*
X191262000Y-107160400D01*
X191262000Y-106642240D01*
X191749680Y-106642240D01*
X191749680Y-107160400D01*
G36*
X190225680Y-106124080D02*
G01*
X189738000Y-106124080D01*
X189738000Y-105636400D01*
X190225680Y-105636400D01*
X190225680Y-106124080D01*
X190225680Y-106124080D01*
G37*
X190225680Y-106124080D02*
X189738000Y-106124080D01*
X189738000Y-105636400D01*
X190225680Y-105636400D01*
X190225680Y-106124080D01*
G36*
X191262000Y-106124080D02*
G01*
X190743840Y-106124080D01*
X190743840Y-105636400D01*
X191262000Y-105636400D01*
X191262000Y-106124080D01*
X191262000Y-106124080D01*
G37*
X191262000Y-106124080D02*
X190743840Y-106124080D01*
X190743840Y-105636400D01*
X191262000Y-105636400D01*
X191262000Y-106124080D01*
G36*
X190743840Y-105118240D02*
G01*
X190225680Y-105118240D01*
X190225680Y-104600080D01*
X190743840Y-104600080D01*
X190743840Y-105118240D01*
X190743840Y-105118240D01*
G37*
X190743840Y-105118240D02*
X190225680Y-105118240D01*
X190225680Y-104600080D01*
X190743840Y-104600080D01*
X190743840Y-105118240D01*
G36*
X181219840Y-108166240D02*
G01*
X180701680Y-108166240D01*
X180701680Y-107648080D01*
X181219840Y-107648080D01*
X181219840Y-108166240D01*
X181219840Y-108166240D01*
G37*
X181219840Y-108166240D02*
X180701680Y-108166240D01*
X180701680Y-107648080D01*
X181219840Y-107648080D01*
X181219840Y-108166240D01*
G36*
X184267840Y-108166240D02*
G01*
X183749680Y-108166240D01*
X183749680Y-107648080D01*
X184267840Y-107648080D01*
X184267840Y-108166240D01*
X184267840Y-108166240D01*
G37*
X184267840Y-108166240D02*
X183749680Y-108166240D01*
X183749680Y-107648080D01*
X184267840Y-107648080D01*
X184267840Y-108166240D01*
G36*
X181738000Y-107160400D02*
G01*
X181219840Y-107160400D01*
X181219840Y-106642240D01*
X181738000Y-106642240D01*
X181738000Y-107160400D01*
X181738000Y-107160400D01*
G37*
X181738000Y-107160400D02*
X181219840Y-107160400D01*
X181219840Y-106642240D01*
X181738000Y-106642240D01*
X181738000Y-107160400D01*
G36*
X182743840Y-107160400D02*
G01*
X182225680Y-107160400D01*
X182225680Y-106642240D01*
X182743840Y-106642240D01*
X182743840Y-107160400D01*
X182743840Y-107160400D01*
G37*
X182743840Y-107160400D02*
X182225680Y-107160400D01*
X182225680Y-106642240D01*
X182743840Y-106642240D01*
X182743840Y-107160400D01*
G36*
X183749680Y-107160400D02*
G01*
X183262000Y-107160400D01*
X183262000Y-106642240D01*
X183749680Y-106642240D01*
X183749680Y-107160400D01*
X183749680Y-107160400D01*
G37*
X183749680Y-107160400D02*
X183262000Y-107160400D01*
X183262000Y-106642240D01*
X183749680Y-106642240D01*
X183749680Y-107160400D01*
G36*
X182225680Y-106124080D02*
G01*
X181738000Y-106124080D01*
X181738000Y-105636400D01*
X182225680Y-105636400D01*
X182225680Y-106124080D01*
X182225680Y-106124080D01*
G37*
X182225680Y-106124080D02*
X181738000Y-106124080D01*
X181738000Y-105636400D01*
X182225680Y-105636400D01*
X182225680Y-106124080D01*
G36*
X183262000Y-106124080D02*
G01*
X182743840Y-106124080D01*
X182743840Y-105636400D01*
X183262000Y-105636400D01*
X183262000Y-106124080D01*
X183262000Y-106124080D01*
G37*
X183262000Y-106124080D02*
X182743840Y-106124080D01*
X182743840Y-105636400D01*
X183262000Y-105636400D01*
X183262000Y-106124080D01*
G36*
X182743840Y-105118240D02*
G01*
X182225680Y-105118240D01*
X182225680Y-104600080D01*
X182743840Y-104600080D01*
X182743840Y-105118240D01*
X182743840Y-105118240D01*
G37*
X182743840Y-105118240D02*
X182225680Y-105118240D01*
X182225680Y-104600080D01*
X182743840Y-104600080D01*
X182743840Y-105118240D01*
G36*
X173219840Y-108166240D02*
G01*
X172701680Y-108166240D01*
X172701680Y-107648080D01*
X173219840Y-107648080D01*
X173219840Y-108166240D01*
X173219840Y-108166240D01*
G37*
X173219840Y-108166240D02*
X172701680Y-108166240D01*
X172701680Y-107648080D01*
X173219840Y-107648080D01*
X173219840Y-108166240D01*
G36*
X176267840Y-108166240D02*
G01*
X175749680Y-108166240D01*
X175749680Y-107648080D01*
X176267840Y-107648080D01*
X176267840Y-108166240D01*
X176267840Y-108166240D01*
G37*
X176267840Y-108166240D02*
X175749680Y-108166240D01*
X175749680Y-107648080D01*
X176267840Y-107648080D01*
X176267840Y-108166240D01*
G36*
X173738000Y-107160400D02*
G01*
X173219840Y-107160400D01*
X173219840Y-106642240D01*
X173738000Y-106642240D01*
X173738000Y-107160400D01*
X173738000Y-107160400D01*
G37*
X173738000Y-107160400D02*
X173219840Y-107160400D01*
X173219840Y-106642240D01*
X173738000Y-106642240D01*
X173738000Y-107160400D01*
G36*
X174743840Y-107160400D02*
G01*
X174225680Y-107160400D01*
X174225680Y-106642240D01*
X174743840Y-106642240D01*
X174743840Y-107160400D01*
X174743840Y-107160400D01*
G37*
X174743840Y-107160400D02*
X174225680Y-107160400D01*
X174225680Y-106642240D01*
X174743840Y-106642240D01*
X174743840Y-107160400D01*
G36*
X175749680Y-107160400D02*
G01*
X175262000Y-107160400D01*
X175262000Y-106642240D01*
X175749680Y-106642240D01*
X175749680Y-107160400D01*
X175749680Y-107160400D01*
G37*
X175749680Y-107160400D02*
X175262000Y-107160400D01*
X175262000Y-106642240D01*
X175749680Y-106642240D01*
X175749680Y-107160400D01*
G36*
X174225680Y-106124080D02*
G01*
X173738000Y-106124080D01*
X173738000Y-105636400D01*
X174225680Y-105636400D01*
X174225680Y-106124080D01*
X174225680Y-106124080D01*
G37*
X174225680Y-106124080D02*
X173738000Y-106124080D01*
X173738000Y-105636400D01*
X174225680Y-105636400D01*
X174225680Y-106124080D01*
G36*
X175262000Y-106124080D02*
G01*
X174743840Y-106124080D01*
X174743840Y-105636400D01*
X175262000Y-105636400D01*
X175262000Y-106124080D01*
X175262000Y-106124080D01*
G37*
X175262000Y-106124080D02*
X174743840Y-106124080D01*
X174743840Y-105636400D01*
X175262000Y-105636400D01*
X175262000Y-106124080D01*
G36*
X174743840Y-105118240D02*
G01*
X174225680Y-105118240D01*
X174225680Y-104600080D01*
X174743840Y-104600080D01*
X174743840Y-105118240D01*
X174743840Y-105118240D01*
G37*
X174743840Y-105118240D02*
X174225680Y-105118240D01*
X174225680Y-104600080D01*
X174743840Y-104600080D01*
X174743840Y-105118240D01*
G36*
X165219840Y-108166240D02*
G01*
X164701680Y-108166240D01*
X164701680Y-107648080D01*
X165219840Y-107648080D01*
X165219840Y-108166240D01*
X165219840Y-108166240D01*
G37*
X165219840Y-108166240D02*
X164701680Y-108166240D01*
X164701680Y-107648080D01*
X165219840Y-107648080D01*
X165219840Y-108166240D01*
G36*
X168267840Y-108166240D02*
G01*
X167749680Y-108166240D01*
X167749680Y-107648080D01*
X168267840Y-107648080D01*
X168267840Y-108166240D01*
X168267840Y-108166240D01*
G37*
X168267840Y-108166240D02*
X167749680Y-108166240D01*
X167749680Y-107648080D01*
X168267840Y-107648080D01*
X168267840Y-108166240D01*
G36*
X165738000Y-107160400D02*
G01*
X165219840Y-107160400D01*
X165219840Y-106642240D01*
X165738000Y-106642240D01*
X165738000Y-107160400D01*
X165738000Y-107160400D01*
G37*
X165738000Y-107160400D02*
X165219840Y-107160400D01*
X165219840Y-106642240D01*
X165738000Y-106642240D01*
X165738000Y-107160400D01*
G36*
X166743840Y-107160400D02*
G01*
X166225680Y-107160400D01*
X166225680Y-106642240D01*
X166743840Y-106642240D01*
X166743840Y-107160400D01*
X166743840Y-107160400D01*
G37*
X166743840Y-107160400D02*
X166225680Y-107160400D01*
X166225680Y-106642240D01*
X166743840Y-106642240D01*
X166743840Y-107160400D01*
G36*
X167749680Y-107160400D02*
G01*
X167262000Y-107160400D01*
X167262000Y-106642240D01*
X167749680Y-106642240D01*
X167749680Y-107160400D01*
X167749680Y-107160400D01*
G37*
X167749680Y-107160400D02*
X167262000Y-107160400D01*
X167262000Y-106642240D01*
X167749680Y-106642240D01*
X167749680Y-107160400D01*
G36*
X166225680Y-106124080D02*
G01*
X165738000Y-106124080D01*
X165738000Y-105636400D01*
X166225680Y-105636400D01*
X166225680Y-106124080D01*
X166225680Y-106124080D01*
G37*
X166225680Y-106124080D02*
X165738000Y-106124080D01*
X165738000Y-105636400D01*
X166225680Y-105636400D01*
X166225680Y-106124080D01*
G36*
X167262000Y-106124080D02*
G01*
X166743840Y-106124080D01*
X166743840Y-105636400D01*
X167262000Y-105636400D01*
X167262000Y-106124080D01*
X167262000Y-106124080D01*
G37*
X167262000Y-106124080D02*
X166743840Y-106124080D01*
X166743840Y-105636400D01*
X167262000Y-105636400D01*
X167262000Y-106124080D01*
G36*
X166743840Y-105118240D02*
G01*
X166225680Y-105118240D01*
X166225680Y-104600080D01*
X166743840Y-104600080D01*
X166743840Y-105118240D01*
X166743840Y-105118240D01*
G37*
X166743840Y-105118240D02*
X166225680Y-105118240D01*
X166225680Y-104600080D01*
X166743840Y-104600080D01*
X166743840Y-105118240D01*
G36*
X157219840Y-108166240D02*
G01*
X156701680Y-108166240D01*
X156701680Y-107648080D01*
X157219840Y-107648080D01*
X157219840Y-108166240D01*
X157219840Y-108166240D01*
G37*
X157219840Y-108166240D02*
X156701680Y-108166240D01*
X156701680Y-107648080D01*
X157219840Y-107648080D01*
X157219840Y-108166240D01*
G36*
X160267840Y-108166240D02*
G01*
X159749680Y-108166240D01*
X159749680Y-107648080D01*
X160267840Y-107648080D01*
X160267840Y-108166240D01*
X160267840Y-108166240D01*
G37*
X160267840Y-108166240D02*
X159749680Y-108166240D01*
X159749680Y-107648080D01*
X160267840Y-107648080D01*
X160267840Y-108166240D01*
G36*
X157738000Y-107160400D02*
G01*
X157219840Y-107160400D01*
X157219840Y-106642240D01*
X157738000Y-106642240D01*
X157738000Y-107160400D01*
X157738000Y-107160400D01*
G37*
X157738000Y-107160400D02*
X157219840Y-107160400D01*
X157219840Y-106642240D01*
X157738000Y-106642240D01*
X157738000Y-107160400D01*
G36*
X158743840Y-107160400D02*
G01*
X158225680Y-107160400D01*
X158225680Y-106642240D01*
X158743840Y-106642240D01*
X158743840Y-107160400D01*
X158743840Y-107160400D01*
G37*
X158743840Y-107160400D02*
X158225680Y-107160400D01*
X158225680Y-106642240D01*
X158743840Y-106642240D01*
X158743840Y-107160400D01*
G36*
X159749680Y-107160400D02*
G01*
X159262000Y-107160400D01*
X159262000Y-106642240D01*
X159749680Y-106642240D01*
X159749680Y-107160400D01*
X159749680Y-107160400D01*
G37*
X159749680Y-107160400D02*
X159262000Y-107160400D01*
X159262000Y-106642240D01*
X159749680Y-106642240D01*
X159749680Y-107160400D01*
G36*
X158225680Y-106124080D02*
G01*
X157738000Y-106124080D01*
X157738000Y-105636400D01*
X158225680Y-105636400D01*
X158225680Y-106124080D01*
X158225680Y-106124080D01*
G37*
X158225680Y-106124080D02*
X157738000Y-106124080D01*
X157738000Y-105636400D01*
X158225680Y-105636400D01*
X158225680Y-106124080D01*
G36*
X159262000Y-106124080D02*
G01*
X158743840Y-106124080D01*
X158743840Y-105636400D01*
X159262000Y-105636400D01*
X159262000Y-106124080D01*
X159262000Y-106124080D01*
G37*
X159262000Y-106124080D02*
X158743840Y-106124080D01*
X158743840Y-105636400D01*
X159262000Y-105636400D01*
X159262000Y-106124080D01*
G36*
X158743840Y-105118240D02*
G01*
X158225680Y-105118240D01*
X158225680Y-104600080D01*
X158743840Y-104600080D01*
X158743840Y-105118240D01*
X158743840Y-105118240D01*
G37*
X158743840Y-105118240D02*
X158225680Y-105118240D01*
X158225680Y-104600080D01*
X158743840Y-104600080D01*
X158743840Y-105118240D01*
G36*
X149219840Y-108166240D02*
G01*
X148701680Y-108166240D01*
X148701680Y-107648080D01*
X149219840Y-107648080D01*
X149219840Y-108166240D01*
X149219840Y-108166240D01*
G37*
X149219840Y-108166240D02*
X148701680Y-108166240D01*
X148701680Y-107648080D01*
X149219840Y-107648080D01*
X149219840Y-108166240D01*
G36*
X152267840Y-108166240D02*
G01*
X151749680Y-108166240D01*
X151749680Y-107648080D01*
X152267840Y-107648080D01*
X152267840Y-108166240D01*
X152267840Y-108166240D01*
G37*
X152267840Y-108166240D02*
X151749680Y-108166240D01*
X151749680Y-107648080D01*
X152267840Y-107648080D01*
X152267840Y-108166240D01*
G36*
X149738000Y-107160400D02*
G01*
X149219840Y-107160400D01*
X149219840Y-106642240D01*
X149738000Y-106642240D01*
X149738000Y-107160400D01*
X149738000Y-107160400D01*
G37*
X149738000Y-107160400D02*
X149219840Y-107160400D01*
X149219840Y-106642240D01*
X149738000Y-106642240D01*
X149738000Y-107160400D01*
G36*
X150743840Y-107160400D02*
G01*
X150225680Y-107160400D01*
X150225680Y-106642240D01*
X150743840Y-106642240D01*
X150743840Y-107160400D01*
X150743840Y-107160400D01*
G37*
X150743840Y-107160400D02*
X150225680Y-107160400D01*
X150225680Y-106642240D01*
X150743840Y-106642240D01*
X150743840Y-107160400D01*
G36*
X151749680Y-107160400D02*
G01*
X151262000Y-107160400D01*
X151262000Y-106642240D01*
X151749680Y-106642240D01*
X151749680Y-107160400D01*
X151749680Y-107160400D01*
G37*
X151749680Y-107160400D02*
X151262000Y-107160400D01*
X151262000Y-106642240D01*
X151749680Y-106642240D01*
X151749680Y-107160400D01*
G36*
X150225680Y-106124080D02*
G01*
X149738000Y-106124080D01*
X149738000Y-105636400D01*
X150225680Y-105636400D01*
X150225680Y-106124080D01*
X150225680Y-106124080D01*
G37*
X150225680Y-106124080D02*
X149738000Y-106124080D01*
X149738000Y-105636400D01*
X150225680Y-105636400D01*
X150225680Y-106124080D01*
G36*
X151262000Y-106124080D02*
G01*
X150743840Y-106124080D01*
X150743840Y-105636400D01*
X151262000Y-105636400D01*
X151262000Y-106124080D01*
X151262000Y-106124080D01*
G37*
X151262000Y-106124080D02*
X150743840Y-106124080D01*
X150743840Y-105636400D01*
X151262000Y-105636400D01*
X151262000Y-106124080D01*
G36*
X150743840Y-105118240D02*
G01*
X150225680Y-105118240D01*
X150225680Y-104600080D01*
X150743840Y-104600080D01*
X150743840Y-105118240D01*
X150743840Y-105118240D01*
G37*
X150743840Y-105118240D02*
X150225680Y-105118240D01*
X150225680Y-104600080D01*
X150743840Y-104600080D01*
X150743840Y-105118240D01*
G36*
X141219840Y-108166240D02*
G01*
X140701680Y-108166240D01*
X140701680Y-107648080D01*
X141219840Y-107648080D01*
X141219840Y-108166240D01*
X141219840Y-108166240D01*
G37*
X141219840Y-108166240D02*
X140701680Y-108166240D01*
X140701680Y-107648080D01*
X141219840Y-107648080D01*
X141219840Y-108166240D01*
G36*
X144267840Y-108166240D02*
G01*
X143749680Y-108166240D01*
X143749680Y-107648080D01*
X144267840Y-107648080D01*
X144267840Y-108166240D01*
X144267840Y-108166240D01*
G37*
X144267840Y-108166240D02*
X143749680Y-108166240D01*
X143749680Y-107648080D01*
X144267840Y-107648080D01*
X144267840Y-108166240D01*
G36*
X141738000Y-107160400D02*
G01*
X141219840Y-107160400D01*
X141219840Y-106642240D01*
X141738000Y-106642240D01*
X141738000Y-107160400D01*
X141738000Y-107160400D01*
G37*
X141738000Y-107160400D02*
X141219840Y-107160400D01*
X141219840Y-106642240D01*
X141738000Y-106642240D01*
X141738000Y-107160400D01*
G36*
X142743840Y-107160400D02*
G01*
X142225680Y-107160400D01*
X142225680Y-106642240D01*
X142743840Y-106642240D01*
X142743840Y-107160400D01*
X142743840Y-107160400D01*
G37*
X142743840Y-107160400D02*
X142225680Y-107160400D01*
X142225680Y-106642240D01*
X142743840Y-106642240D01*
X142743840Y-107160400D01*
G36*
X143749680Y-107160400D02*
G01*
X143262000Y-107160400D01*
X143262000Y-106642240D01*
X143749680Y-106642240D01*
X143749680Y-107160400D01*
X143749680Y-107160400D01*
G37*
X143749680Y-107160400D02*
X143262000Y-107160400D01*
X143262000Y-106642240D01*
X143749680Y-106642240D01*
X143749680Y-107160400D01*
G36*
X142225680Y-106124080D02*
G01*
X141738000Y-106124080D01*
X141738000Y-105636400D01*
X142225680Y-105636400D01*
X142225680Y-106124080D01*
X142225680Y-106124080D01*
G37*
X142225680Y-106124080D02*
X141738000Y-106124080D01*
X141738000Y-105636400D01*
X142225680Y-105636400D01*
X142225680Y-106124080D01*
G36*
X143262000Y-106124080D02*
G01*
X142743840Y-106124080D01*
X142743840Y-105636400D01*
X143262000Y-105636400D01*
X143262000Y-106124080D01*
X143262000Y-106124080D01*
G37*
X143262000Y-106124080D02*
X142743840Y-106124080D01*
X142743840Y-105636400D01*
X143262000Y-105636400D01*
X143262000Y-106124080D01*
G36*
X142743840Y-105118240D02*
G01*
X142225680Y-105118240D01*
X142225680Y-104600080D01*
X142743840Y-104600080D01*
X142743840Y-105118240D01*
X142743840Y-105118240D01*
G37*
X142743840Y-105118240D02*
X142225680Y-105118240D01*
X142225680Y-104600080D01*
X142743840Y-104600080D01*
X142743840Y-105118240D01*
G36*
X133219840Y-108166240D02*
G01*
X132701680Y-108166240D01*
X132701680Y-107648080D01*
X133219840Y-107648080D01*
X133219840Y-108166240D01*
X133219840Y-108166240D01*
G37*
X133219840Y-108166240D02*
X132701680Y-108166240D01*
X132701680Y-107648080D01*
X133219840Y-107648080D01*
X133219840Y-108166240D01*
G36*
X136267840Y-108166240D02*
G01*
X135749680Y-108166240D01*
X135749680Y-107648080D01*
X136267840Y-107648080D01*
X136267840Y-108166240D01*
X136267840Y-108166240D01*
G37*
X136267840Y-108166240D02*
X135749680Y-108166240D01*
X135749680Y-107648080D01*
X136267840Y-107648080D01*
X136267840Y-108166240D01*
G36*
X133738000Y-107160400D02*
G01*
X133219840Y-107160400D01*
X133219840Y-106642240D01*
X133738000Y-106642240D01*
X133738000Y-107160400D01*
X133738000Y-107160400D01*
G37*
X133738000Y-107160400D02*
X133219840Y-107160400D01*
X133219840Y-106642240D01*
X133738000Y-106642240D01*
X133738000Y-107160400D01*
G36*
X134743840Y-107160400D02*
G01*
X134225680Y-107160400D01*
X134225680Y-106642240D01*
X134743840Y-106642240D01*
X134743840Y-107160400D01*
X134743840Y-107160400D01*
G37*
X134743840Y-107160400D02*
X134225680Y-107160400D01*
X134225680Y-106642240D01*
X134743840Y-106642240D01*
X134743840Y-107160400D01*
G36*
X135749680Y-107160400D02*
G01*
X135262000Y-107160400D01*
X135262000Y-106642240D01*
X135749680Y-106642240D01*
X135749680Y-107160400D01*
X135749680Y-107160400D01*
G37*
X135749680Y-107160400D02*
X135262000Y-107160400D01*
X135262000Y-106642240D01*
X135749680Y-106642240D01*
X135749680Y-107160400D01*
G36*
X134225680Y-106124080D02*
G01*
X133738000Y-106124080D01*
X133738000Y-105636400D01*
X134225680Y-105636400D01*
X134225680Y-106124080D01*
X134225680Y-106124080D01*
G37*
X134225680Y-106124080D02*
X133738000Y-106124080D01*
X133738000Y-105636400D01*
X134225680Y-105636400D01*
X134225680Y-106124080D01*
G36*
X135262000Y-106124080D02*
G01*
X134743840Y-106124080D01*
X134743840Y-105636400D01*
X135262000Y-105636400D01*
X135262000Y-106124080D01*
X135262000Y-106124080D01*
G37*
X135262000Y-106124080D02*
X134743840Y-106124080D01*
X134743840Y-105636400D01*
X135262000Y-105636400D01*
X135262000Y-106124080D01*
G36*
X134743840Y-105118240D02*
G01*
X134225680Y-105118240D01*
X134225680Y-104600080D01*
X134743840Y-104600080D01*
X134743840Y-105118240D01*
X134743840Y-105118240D01*
G37*
X134743840Y-105118240D02*
X134225680Y-105118240D01*
X134225680Y-104600080D01*
X134743840Y-104600080D01*
X134743840Y-105118240D01*
G36*
X125219840Y-108166240D02*
G01*
X124701680Y-108166240D01*
X124701680Y-107648080D01*
X125219840Y-107648080D01*
X125219840Y-108166240D01*
X125219840Y-108166240D01*
G37*
X125219840Y-108166240D02*
X124701680Y-108166240D01*
X124701680Y-107648080D01*
X125219840Y-107648080D01*
X125219840Y-108166240D01*
G36*
X128267840Y-108166240D02*
G01*
X127749680Y-108166240D01*
X127749680Y-107648080D01*
X128267840Y-107648080D01*
X128267840Y-108166240D01*
X128267840Y-108166240D01*
G37*
X128267840Y-108166240D02*
X127749680Y-108166240D01*
X127749680Y-107648080D01*
X128267840Y-107648080D01*
X128267840Y-108166240D01*
G36*
X125738000Y-107160400D02*
G01*
X125219840Y-107160400D01*
X125219840Y-106642240D01*
X125738000Y-106642240D01*
X125738000Y-107160400D01*
X125738000Y-107160400D01*
G37*
X125738000Y-107160400D02*
X125219840Y-107160400D01*
X125219840Y-106642240D01*
X125738000Y-106642240D01*
X125738000Y-107160400D01*
G36*
X126743840Y-107160400D02*
G01*
X126225680Y-107160400D01*
X126225680Y-106642240D01*
X126743840Y-106642240D01*
X126743840Y-107160400D01*
X126743840Y-107160400D01*
G37*
X126743840Y-107160400D02*
X126225680Y-107160400D01*
X126225680Y-106642240D01*
X126743840Y-106642240D01*
X126743840Y-107160400D01*
G36*
X127749680Y-107160400D02*
G01*
X127262000Y-107160400D01*
X127262000Y-106642240D01*
X127749680Y-106642240D01*
X127749680Y-107160400D01*
X127749680Y-107160400D01*
G37*
X127749680Y-107160400D02*
X127262000Y-107160400D01*
X127262000Y-106642240D01*
X127749680Y-106642240D01*
X127749680Y-107160400D01*
G36*
X126225680Y-106124080D02*
G01*
X125738000Y-106124080D01*
X125738000Y-105636400D01*
X126225680Y-105636400D01*
X126225680Y-106124080D01*
X126225680Y-106124080D01*
G37*
X126225680Y-106124080D02*
X125738000Y-106124080D01*
X125738000Y-105636400D01*
X126225680Y-105636400D01*
X126225680Y-106124080D01*
G36*
X127262000Y-106124080D02*
G01*
X126743840Y-106124080D01*
X126743840Y-105636400D01*
X127262000Y-105636400D01*
X127262000Y-106124080D01*
X127262000Y-106124080D01*
G37*
X127262000Y-106124080D02*
X126743840Y-106124080D01*
X126743840Y-105636400D01*
X127262000Y-105636400D01*
X127262000Y-106124080D01*
G36*
X126743840Y-105118240D02*
G01*
X126225680Y-105118240D01*
X126225680Y-104600080D01*
X126743840Y-104600080D01*
X126743840Y-105118240D01*
X126743840Y-105118240D01*
G37*
X126743840Y-105118240D02*
X126225680Y-105118240D01*
X126225680Y-104600080D01*
X126743840Y-104600080D01*
X126743840Y-105118240D01*
G36*
X213219840Y-87416240D02*
G01*
X212701680Y-87416240D01*
X212701680Y-86898080D01*
X213219840Y-86898080D01*
X213219840Y-87416240D01*
X213219840Y-87416240D01*
G37*
X213219840Y-87416240D02*
X212701680Y-87416240D01*
X212701680Y-86898080D01*
X213219840Y-86898080D01*
X213219840Y-87416240D01*
G36*
X216267840Y-87416240D02*
G01*
X215749680Y-87416240D01*
X215749680Y-86898080D01*
X216267840Y-86898080D01*
X216267840Y-87416240D01*
X216267840Y-87416240D01*
G37*
X216267840Y-87416240D02*
X215749680Y-87416240D01*
X215749680Y-86898080D01*
X216267840Y-86898080D01*
X216267840Y-87416240D01*
G36*
X213738000Y-86410400D02*
G01*
X213219840Y-86410400D01*
X213219840Y-85892240D01*
X213738000Y-85892240D01*
X213738000Y-86410400D01*
X213738000Y-86410400D01*
G37*
X213738000Y-86410400D02*
X213219840Y-86410400D01*
X213219840Y-85892240D01*
X213738000Y-85892240D01*
X213738000Y-86410400D01*
G36*
X214743840Y-86410400D02*
G01*
X214225680Y-86410400D01*
X214225680Y-85892240D01*
X214743840Y-85892240D01*
X214743840Y-86410400D01*
X214743840Y-86410400D01*
G37*
X214743840Y-86410400D02*
X214225680Y-86410400D01*
X214225680Y-85892240D01*
X214743840Y-85892240D01*
X214743840Y-86410400D01*
G36*
X215749680Y-86410400D02*
G01*
X215262000Y-86410400D01*
X215262000Y-85892240D01*
X215749680Y-85892240D01*
X215749680Y-86410400D01*
X215749680Y-86410400D01*
G37*
X215749680Y-86410400D02*
X215262000Y-86410400D01*
X215262000Y-85892240D01*
X215749680Y-85892240D01*
X215749680Y-86410400D01*
G36*
X214225680Y-85374080D02*
G01*
X213738000Y-85374080D01*
X213738000Y-84886400D01*
X214225680Y-84886400D01*
X214225680Y-85374080D01*
X214225680Y-85374080D01*
G37*
X214225680Y-85374080D02*
X213738000Y-85374080D01*
X213738000Y-84886400D01*
X214225680Y-84886400D01*
X214225680Y-85374080D01*
G36*
X215262000Y-85374080D02*
G01*
X214743840Y-85374080D01*
X214743840Y-84886400D01*
X215262000Y-84886400D01*
X215262000Y-85374080D01*
X215262000Y-85374080D01*
G37*
X215262000Y-85374080D02*
X214743840Y-85374080D01*
X214743840Y-84886400D01*
X215262000Y-84886400D01*
X215262000Y-85374080D01*
G36*
X214743840Y-84368240D02*
G01*
X214225680Y-84368240D01*
X214225680Y-83850080D01*
X214743840Y-83850080D01*
X214743840Y-84368240D01*
X214743840Y-84368240D01*
G37*
X214743840Y-84368240D02*
X214225680Y-84368240D01*
X214225680Y-83850080D01*
X214743840Y-83850080D01*
X214743840Y-84368240D01*
G36*
X205219840Y-87416240D02*
G01*
X204701680Y-87416240D01*
X204701680Y-86898080D01*
X205219840Y-86898080D01*
X205219840Y-87416240D01*
X205219840Y-87416240D01*
G37*
X205219840Y-87416240D02*
X204701680Y-87416240D01*
X204701680Y-86898080D01*
X205219840Y-86898080D01*
X205219840Y-87416240D01*
G36*
X208267840Y-87416240D02*
G01*
X207749680Y-87416240D01*
X207749680Y-86898080D01*
X208267840Y-86898080D01*
X208267840Y-87416240D01*
X208267840Y-87416240D01*
G37*
X208267840Y-87416240D02*
X207749680Y-87416240D01*
X207749680Y-86898080D01*
X208267840Y-86898080D01*
X208267840Y-87416240D01*
G36*
X205738000Y-86410400D02*
G01*
X205219840Y-86410400D01*
X205219840Y-85892240D01*
X205738000Y-85892240D01*
X205738000Y-86410400D01*
X205738000Y-86410400D01*
G37*
X205738000Y-86410400D02*
X205219840Y-86410400D01*
X205219840Y-85892240D01*
X205738000Y-85892240D01*
X205738000Y-86410400D01*
G36*
X206743840Y-86410400D02*
G01*
X206225680Y-86410400D01*
X206225680Y-85892240D01*
X206743840Y-85892240D01*
X206743840Y-86410400D01*
X206743840Y-86410400D01*
G37*
X206743840Y-86410400D02*
X206225680Y-86410400D01*
X206225680Y-85892240D01*
X206743840Y-85892240D01*
X206743840Y-86410400D01*
G36*
X207749680Y-86410400D02*
G01*
X207262000Y-86410400D01*
X207262000Y-85892240D01*
X207749680Y-85892240D01*
X207749680Y-86410400D01*
X207749680Y-86410400D01*
G37*
X207749680Y-86410400D02*
X207262000Y-86410400D01*
X207262000Y-85892240D01*
X207749680Y-85892240D01*
X207749680Y-86410400D01*
G36*
X206225680Y-85374080D02*
G01*
X205738000Y-85374080D01*
X205738000Y-84886400D01*
X206225680Y-84886400D01*
X206225680Y-85374080D01*
X206225680Y-85374080D01*
G37*
X206225680Y-85374080D02*
X205738000Y-85374080D01*
X205738000Y-84886400D01*
X206225680Y-84886400D01*
X206225680Y-85374080D01*
G36*
X207262000Y-85374080D02*
G01*
X206743840Y-85374080D01*
X206743840Y-84886400D01*
X207262000Y-84886400D01*
X207262000Y-85374080D01*
X207262000Y-85374080D01*
G37*
X207262000Y-85374080D02*
X206743840Y-85374080D01*
X206743840Y-84886400D01*
X207262000Y-84886400D01*
X207262000Y-85374080D01*
G36*
X206743840Y-84368240D02*
G01*
X206225680Y-84368240D01*
X206225680Y-83850080D01*
X206743840Y-83850080D01*
X206743840Y-84368240D01*
X206743840Y-84368240D01*
G37*
X206743840Y-84368240D02*
X206225680Y-84368240D01*
X206225680Y-83850080D01*
X206743840Y-83850080D01*
X206743840Y-84368240D01*
G36*
X197219840Y-87416240D02*
G01*
X196701680Y-87416240D01*
X196701680Y-86898080D01*
X197219840Y-86898080D01*
X197219840Y-87416240D01*
X197219840Y-87416240D01*
G37*
X197219840Y-87416240D02*
X196701680Y-87416240D01*
X196701680Y-86898080D01*
X197219840Y-86898080D01*
X197219840Y-87416240D01*
G36*
X200267840Y-87416240D02*
G01*
X199749680Y-87416240D01*
X199749680Y-86898080D01*
X200267840Y-86898080D01*
X200267840Y-87416240D01*
X200267840Y-87416240D01*
G37*
X200267840Y-87416240D02*
X199749680Y-87416240D01*
X199749680Y-86898080D01*
X200267840Y-86898080D01*
X200267840Y-87416240D01*
G36*
X197738000Y-86410400D02*
G01*
X197219840Y-86410400D01*
X197219840Y-85892240D01*
X197738000Y-85892240D01*
X197738000Y-86410400D01*
X197738000Y-86410400D01*
G37*
X197738000Y-86410400D02*
X197219840Y-86410400D01*
X197219840Y-85892240D01*
X197738000Y-85892240D01*
X197738000Y-86410400D01*
G36*
X198743840Y-86410400D02*
G01*
X198225680Y-86410400D01*
X198225680Y-85892240D01*
X198743840Y-85892240D01*
X198743840Y-86410400D01*
X198743840Y-86410400D01*
G37*
X198743840Y-86410400D02*
X198225680Y-86410400D01*
X198225680Y-85892240D01*
X198743840Y-85892240D01*
X198743840Y-86410400D01*
G36*
X199749680Y-86410400D02*
G01*
X199262000Y-86410400D01*
X199262000Y-85892240D01*
X199749680Y-85892240D01*
X199749680Y-86410400D01*
X199749680Y-86410400D01*
G37*
X199749680Y-86410400D02*
X199262000Y-86410400D01*
X199262000Y-85892240D01*
X199749680Y-85892240D01*
X199749680Y-86410400D01*
G36*
X198225680Y-85374080D02*
G01*
X197738000Y-85374080D01*
X197738000Y-84886400D01*
X198225680Y-84886400D01*
X198225680Y-85374080D01*
X198225680Y-85374080D01*
G37*
X198225680Y-85374080D02*
X197738000Y-85374080D01*
X197738000Y-84886400D01*
X198225680Y-84886400D01*
X198225680Y-85374080D01*
G36*
X199262000Y-85374080D02*
G01*
X198743840Y-85374080D01*
X198743840Y-84886400D01*
X199262000Y-84886400D01*
X199262000Y-85374080D01*
X199262000Y-85374080D01*
G37*
X199262000Y-85374080D02*
X198743840Y-85374080D01*
X198743840Y-84886400D01*
X199262000Y-84886400D01*
X199262000Y-85374080D01*
G36*
X198743840Y-84368240D02*
G01*
X198225680Y-84368240D01*
X198225680Y-83850080D01*
X198743840Y-83850080D01*
X198743840Y-84368240D01*
X198743840Y-84368240D01*
G37*
X198743840Y-84368240D02*
X198225680Y-84368240D01*
X198225680Y-83850080D01*
X198743840Y-83850080D01*
X198743840Y-84368240D01*
G36*
X189219840Y-87416240D02*
G01*
X188701680Y-87416240D01*
X188701680Y-86898080D01*
X189219840Y-86898080D01*
X189219840Y-87416240D01*
X189219840Y-87416240D01*
G37*
X189219840Y-87416240D02*
X188701680Y-87416240D01*
X188701680Y-86898080D01*
X189219840Y-86898080D01*
X189219840Y-87416240D01*
G36*
X192267840Y-87416240D02*
G01*
X191749680Y-87416240D01*
X191749680Y-86898080D01*
X192267840Y-86898080D01*
X192267840Y-87416240D01*
X192267840Y-87416240D01*
G37*
X192267840Y-87416240D02*
X191749680Y-87416240D01*
X191749680Y-86898080D01*
X192267840Y-86898080D01*
X192267840Y-87416240D01*
G36*
X189738000Y-86410400D02*
G01*
X189219840Y-86410400D01*
X189219840Y-85892240D01*
X189738000Y-85892240D01*
X189738000Y-86410400D01*
X189738000Y-86410400D01*
G37*
X189738000Y-86410400D02*
X189219840Y-86410400D01*
X189219840Y-85892240D01*
X189738000Y-85892240D01*
X189738000Y-86410400D01*
G36*
X190743840Y-86410400D02*
G01*
X190225680Y-86410400D01*
X190225680Y-85892240D01*
X190743840Y-85892240D01*
X190743840Y-86410400D01*
X190743840Y-86410400D01*
G37*
X190743840Y-86410400D02*
X190225680Y-86410400D01*
X190225680Y-85892240D01*
X190743840Y-85892240D01*
X190743840Y-86410400D01*
G36*
X191749680Y-86410400D02*
G01*
X191262000Y-86410400D01*
X191262000Y-85892240D01*
X191749680Y-85892240D01*
X191749680Y-86410400D01*
X191749680Y-86410400D01*
G37*
X191749680Y-86410400D02*
X191262000Y-86410400D01*
X191262000Y-85892240D01*
X191749680Y-85892240D01*
X191749680Y-86410400D01*
G36*
X190225680Y-85374080D02*
G01*
X189738000Y-85374080D01*
X189738000Y-84886400D01*
X190225680Y-84886400D01*
X190225680Y-85374080D01*
X190225680Y-85374080D01*
G37*
X190225680Y-85374080D02*
X189738000Y-85374080D01*
X189738000Y-84886400D01*
X190225680Y-84886400D01*
X190225680Y-85374080D01*
G36*
X191262000Y-85374080D02*
G01*
X190743840Y-85374080D01*
X190743840Y-84886400D01*
X191262000Y-84886400D01*
X191262000Y-85374080D01*
X191262000Y-85374080D01*
G37*
X191262000Y-85374080D02*
X190743840Y-85374080D01*
X190743840Y-84886400D01*
X191262000Y-84886400D01*
X191262000Y-85374080D01*
G36*
X190743840Y-84368240D02*
G01*
X190225680Y-84368240D01*
X190225680Y-83850080D01*
X190743840Y-83850080D01*
X190743840Y-84368240D01*
X190743840Y-84368240D01*
G37*
X190743840Y-84368240D02*
X190225680Y-84368240D01*
X190225680Y-83850080D01*
X190743840Y-83850080D01*
X190743840Y-84368240D01*
G36*
X181219840Y-87416240D02*
G01*
X180701680Y-87416240D01*
X180701680Y-86898080D01*
X181219840Y-86898080D01*
X181219840Y-87416240D01*
X181219840Y-87416240D01*
G37*
X181219840Y-87416240D02*
X180701680Y-87416240D01*
X180701680Y-86898080D01*
X181219840Y-86898080D01*
X181219840Y-87416240D01*
G36*
X184267840Y-87416240D02*
G01*
X183749680Y-87416240D01*
X183749680Y-86898080D01*
X184267840Y-86898080D01*
X184267840Y-87416240D01*
X184267840Y-87416240D01*
G37*
X184267840Y-87416240D02*
X183749680Y-87416240D01*
X183749680Y-86898080D01*
X184267840Y-86898080D01*
X184267840Y-87416240D01*
G36*
X181738000Y-86410400D02*
G01*
X181219840Y-86410400D01*
X181219840Y-85892240D01*
X181738000Y-85892240D01*
X181738000Y-86410400D01*
X181738000Y-86410400D01*
G37*
X181738000Y-86410400D02*
X181219840Y-86410400D01*
X181219840Y-85892240D01*
X181738000Y-85892240D01*
X181738000Y-86410400D01*
G36*
X182743840Y-86410400D02*
G01*
X182225680Y-86410400D01*
X182225680Y-85892240D01*
X182743840Y-85892240D01*
X182743840Y-86410400D01*
X182743840Y-86410400D01*
G37*
X182743840Y-86410400D02*
X182225680Y-86410400D01*
X182225680Y-85892240D01*
X182743840Y-85892240D01*
X182743840Y-86410400D01*
G36*
X183749680Y-86410400D02*
G01*
X183262000Y-86410400D01*
X183262000Y-85892240D01*
X183749680Y-85892240D01*
X183749680Y-86410400D01*
X183749680Y-86410400D01*
G37*
X183749680Y-86410400D02*
X183262000Y-86410400D01*
X183262000Y-85892240D01*
X183749680Y-85892240D01*
X183749680Y-86410400D01*
G36*
X182225680Y-85374080D02*
G01*
X181738000Y-85374080D01*
X181738000Y-84886400D01*
X182225680Y-84886400D01*
X182225680Y-85374080D01*
X182225680Y-85374080D01*
G37*
X182225680Y-85374080D02*
X181738000Y-85374080D01*
X181738000Y-84886400D01*
X182225680Y-84886400D01*
X182225680Y-85374080D01*
G36*
X183262000Y-85374080D02*
G01*
X182743840Y-85374080D01*
X182743840Y-84886400D01*
X183262000Y-84886400D01*
X183262000Y-85374080D01*
X183262000Y-85374080D01*
G37*
X183262000Y-85374080D02*
X182743840Y-85374080D01*
X182743840Y-84886400D01*
X183262000Y-84886400D01*
X183262000Y-85374080D01*
G36*
X182743840Y-84368240D02*
G01*
X182225680Y-84368240D01*
X182225680Y-83850080D01*
X182743840Y-83850080D01*
X182743840Y-84368240D01*
X182743840Y-84368240D01*
G37*
X182743840Y-84368240D02*
X182225680Y-84368240D01*
X182225680Y-83850080D01*
X182743840Y-83850080D01*
X182743840Y-84368240D01*
G36*
X173219840Y-87416240D02*
G01*
X172701680Y-87416240D01*
X172701680Y-86898080D01*
X173219840Y-86898080D01*
X173219840Y-87416240D01*
X173219840Y-87416240D01*
G37*
X173219840Y-87416240D02*
X172701680Y-87416240D01*
X172701680Y-86898080D01*
X173219840Y-86898080D01*
X173219840Y-87416240D01*
G36*
X176267840Y-87416240D02*
G01*
X175749680Y-87416240D01*
X175749680Y-86898080D01*
X176267840Y-86898080D01*
X176267840Y-87416240D01*
X176267840Y-87416240D01*
G37*
X176267840Y-87416240D02*
X175749680Y-87416240D01*
X175749680Y-86898080D01*
X176267840Y-86898080D01*
X176267840Y-87416240D01*
G36*
X173738000Y-86410400D02*
G01*
X173219840Y-86410400D01*
X173219840Y-85892240D01*
X173738000Y-85892240D01*
X173738000Y-86410400D01*
X173738000Y-86410400D01*
G37*
X173738000Y-86410400D02*
X173219840Y-86410400D01*
X173219840Y-85892240D01*
X173738000Y-85892240D01*
X173738000Y-86410400D01*
G36*
X174743840Y-86410400D02*
G01*
X174225680Y-86410400D01*
X174225680Y-85892240D01*
X174743840Y-85892240D01*
X174743840Y-86410400D01*
X174743840Y-86410400D01*
G37*
X174743840Y-86410400D02*
X174225680Y-86410400D01*
X174225680Y-85892240D01*
X174743840Y-85892240D01*
X174743840Y-86410400D01*
G36*
X175749680Y-86410400D02*
G01*
X175262000Y-86410400D01*
X175262000Y-85892240D01*
X175749680Y-85892240D01*
X175749680Y-86410400D01*
X175749680Y-86410400D01*
G37*
X175749680Y-86410400D02*
X175262000Y-86410400D01*
X175262000Y-85892240D01*
X175749680Y-85892240D01*
X175749680Y-86410400D01*
G36*
X174225680Y-85374080D02*
G01*
X173738000Y-85374080D01*
X173738000Y-84886400D01*
X174225680Y-84886400D01*
X174225680Y-85374080D01*
X174225680Y-85374080D01*
G37*
X174225680Y-85374080D02*
X173738000Y-85374080D01*
X173738000Y-84886400D01*
X174225680Y-84886400D01*
X174225680Y-85374080D01*
G36*
X175262000Y-85374080D02*
G01*
X174743840Y-85374080D01*
X174743840Y-84886400D01*
X175262000Y-84886400D01*
X175262000Y-85374080D01*
X175262000Y-85374080D01*
G37*
X175262000Y-85374080D02*
X174743840Y-85374080D01*
X174743840Y-84886400D01*
X175262000Y-84886400D01*
X175262000Y-85374080D01*
G36*
X174743840Y-84368240D02*
G01*
X174225680Y-84368240D01*
X174225680Y-83850080D01*
X174743840Y-83850080D01*
X174743840Y-84368240D01*
X174743840Y-84368240D01*
G37*
X174743840Y-84368240D02*
X174225680Y-84368240D01*
X174225680Y-83850080D01*
X174743840Y-83850080D01*
X174743840Y-84368240D01*
G36*
X165219840Y-87416240D02*
G01*
X164701680Y-87416240D01*
X164701680Y-86898080D01*
X165219840Y-86898080D01*
X165219840Y-87416240D01*
X165219840Y-87416240D01*
G37*
X165219840Y-87416240D02*
X164701680Y-87416240D01*
X164701680Y-86898080D01*
X165219840Y-86898080D01*
X165219840Y-87416240D01*
G36*
X168267840Y-87416240D02*
G01*
X167749680Y-87416240D01*
X167749680Y-86898080D01*
X168267840Y-86898080D01*
X168267840Y-87416240D01*
X168267840Y-87416240D01*
G37*
X168267840Y-87416240D02*
X167749680Y-87416240D01*
X167749680Y-86898080D01*
X168267840Y-86898080D01*
X168267840Y-87416240D01*
G36*
X165738000Y-86410400D02*
G01*
X165219840Y-86410400D01*
X165219840Y-85892240D01*
X165738000Y-85892240D01*
X165738000Y-86410400D01*
X165738000Y-86410400D01*
G37*
X165738000Y-86410400D02*
X165219840Y-86410400D01*
X165219840Y-85892240D01*
X165738000Y-85892240D01*
X165738000Y-86410400D01*
G36*
X166743840Y-86410400D02*
G01*
X166225680Y-86410400D01*
X166225680Y-85892240D01*
X166743840Y-85892240D01*
X166743840Y-86410400D01*
X166743840Y-86410400D01*
G37*
X166743840Y-86410400D02*
X166225680Y-86410400D01*
X166225680Y-85892240D01*
X166743840Y-85892240D01*
X166743840Y-86410400D01*
G36*
X167749680Y-86410400D02*
G01*
X167262000Y-86410400D01*
X167262000Y-85892240D01*
X167749680Y-85892240D01*
X167749680Y-86410400D01*
X167749680Y-86410400D01*
G37*
X167749680Y-86410400D02*
X167262000Y-86410400D01*
X167262000Y-85892240D01*
X167749680Y-85892240D01*
X167749680Y-86410400D01*
G36*
X166225680Y-85374080D02*
G01*
X165738000Y-85374080D01*
X165738000Y-84886400D01*
X166225680Y-84886400D01*
X166225680Y-85374080D01*
X166225680Y-85374080D01*
G37*
X166225680Y-85374080D02*
X165738000Y-85374080D01*
X165738000Y-84886400D01*
X166225680Y-84886400D01*
X166225680Y-85374080D01*
G36*
X167262000Y-85374080D02*
G01*
X166743840Y-85374080D01*
X166743840Y-84886400D01*
X167262000Y-84886400D01*
X167262000Y-85374080D01*
X167262000Y-85374080D01*
G37*
X167262000Y-85374080D02*
X166743840Y-85374080D01*
X166743840Y-84886400D01*
X167262000Y-84886400D01*
X167262000Y-85374080D01*
G36*
X166743840Y-84368240D02*
G01*
X166225680Y-84368240D01*
X166225680Y-83850080D01*
X166743840Y-83850080D01*
X166743840Y-84368240D01*
X166743840Y-84368240D01*
G37*
X166743840Y-84368240D02*
X166225680Y-84368240D01*
X166225680Y-83850080D01*
X166743840Y-83850080D01*
X166743840Y-84368240D01*
G36*
X157219840Y-87416240D02*
G01*
X156701680Y-87416240D01*
X156701680Y-86898080D01*
X157219840Y-86898080D01*
X157219840Y-87416240D01*
X157219840Y-87416240D01*
G37*
X157219840Y-87416240D02*
X156701680Y-87416240D01*
X156701680Y-86898080D01*
X157219840Y-86898080D01*
X157219840Y-87416240D01*
G36*
X160267840Y-87416240D02*
G01*
X159749680Y-87416240D01*
X159749680Y-86898080D01*
X160267840Y-86898080D01*
X160267840Y-87416240D01*
X160267840Y-87416240D01*
G37*
X160267840Y-87416240D02*
X159749680Y-87416240D01*
X159749680Y-86898080D01*
X160267840Y-86898080D01*
X160267840Y-87416240D01*
G36*
X157738000Y-86410400D02*
G01*
X157219840Y-86410400D01*
X157219840Y-85892240D01*
X157738000Y-85892240D01*
X157738000Y-86410400D01*
X157738000Y-86410400D01*
G37*
X157738000Y-86410400D02*
X157219840Y-86410400D01*
X157219840Y-85892240D01*
X157738000Y-85892240D01*
X157738000Y-86410400D01*
G36*
X158743840Y-86410400D02*
G01*
X158225680Y-86410400D01*
X158225680Y-85892240D01*
X158743840Y-85892240D01*
X158743840Y-86410400D01*
X158743840Y-86410400D01*
G37*
X158743840Y-86410400D02*
X158225680Y-86410400D01*
X158225680Y-85892240D01*
X158743840Y-85892240D01*
X158743840Y-86410400D01*
G36*
X159749680Y-86410400D02*
G01*
X159262000Y-86410400D01*
X159262000Y-85892240D01*
X159749680Y-85892240D01*
X159749680Y-86410400D01*
X159749680Y-86410400D01*
G37*
X159749680Y-86410400D02*
X159262000Y-86410400D01*
X159262000Y-85892240D01*
X159749680Y-85892240D01*
X159749680Y-86410400D01*
G36*
X158225680Y-85374080D02*
G01*
X157738000Y-85374080D01*
X157738000Y-84886400D01*
X158225680Y-84886400D01*
X158225680Y-85374080D01*
X158225680Y-85374080D01*
G37*
X158225680Y-85374080D02*
X157738000Y-85374080D01*
X157738000Y-84886400D01*
X158225680Y-84886400D01*
X158225680Y-85374080D01*
G36*
X159262000Y-85374080D02*
G01*
X158743840Y-85374080D01*
X158743840Y-84886400D01*
X159262000Y-84886400D01*
X159262000Y-85374080D01*
X159262000Y-85374080D01*
G37*
X159262000Y-85374080D02*
X158743840Y-85374080D01*
X158743840Y-84886400D01*
X159262000Y-84886400D01*
X159262000Y-85374080D01*
G36*
X158743840Y-84368240D02*
G01*
X158225680Y-84368240D01*
X158225680Y-83850080D01*
X158743840Y-83850080D01*
X158743840Y-84368240D01*
X158743840Y-84368240D01*
G37*
X158743840Y-84368240D02*
X158225680Y-84368240D01*
X158225680Y-83850080D01*
X158743840Y-83850080D01*
X158743840Y-84368240D01*
G36*
X149219840Y-87416240D02*
G01*
X148701680Y-87416240D01*
X148701680Y-86898080D01*
X149219840Y-86898080D01*
X149219840Y-87416240D01*
X149219840Y-87416240D01*
G37*
X149219840Y-87416240D02*
X148701680Y-87416240D01*
X148701680Y-86898080D01*
X149219840Y-86898080D01*
X149219840Y-87416240D01*
G36*
X152267840Y-87416240D02*
G01*
X151749680Y-87416240D01*
X151749680Y-86898080D01*
X152267840Y-86898080D01*
X152267840Y-87416240D01*
X152267840Y-87416240D01*
G37*
X152267840Y-87416240D02*
X151749680Y-87416240D01*
X151749680Y-86898080D01*
X152267840Y-86898080D01*
X152267840Y-87416240D01*
G36*
X149738000Y-86410400D02*
G01*
X149219840Y-86410400D01*
X149219840Y-85892240D01*
X149738000Y-85892240D01*
X149738000Y-86410400D01*
X149738000Y-86410400D01*
G37*
X149738000Y-86410400D02*
X149219840Y-86410400D01*
X149219840Y-85892240D01*
X149738000Y-85892240D01*
X149738000Y-86410400D01*
G36*
X150743840Y-86410400D02*
G01*
X150225680Y-86410400D01*
X150225680Y-85892240D01*
X150743840Y-85892240D01*
X150743840Y-86410400D01*
X150743840Y-86410400D01*
G37*
X150743840Y-86410400D02*
X150225680Y-86410400D01*
X150225680Y-85892240D01*
X150743840Y-85892240D01*
X150743840Y-86410400D01*
G36*
X151749680Y-86410400D02*
G01*
X151262000Y-86410400D01*
X151262000Y-85892240D01*
X151749680Y-85892240D01*
X151749680Y-86410400D01*
X151749680Y-86410400D01*
G37*
X151749680Y-86410400D02*
X151262000Y-86410400D01*
X151262000Y-85892240D01*
X151749680Y-85892240D01*
X151749680Y-86410400D01*
G36*
X150225680Y-85374080D02*
G01*
X149738000Y-85374080D01*
X149738000Y-84886400D01*
X150225680Y-84886400D01*
X150225680Y-85374080D01*
X150225680Y-85374080D01*
G37*
X150225680Y-85374080D02*
X149738000Y-85374080D01*
X149738000Y-84886400D01*
X150225680Y-84886400D01*
X150225680Y-85374080D01*
G36*
X151262000Y-85374080D02*
G01*
X150743840Y-85374080D01*
X150743840Y-84886400D01*
X151262000Y-84886400D01*
X151262000Y-85374080D01*
X151262000Y-85374080D01*
G37*
X151262000Y-85374080D02*
X150743840Y-85374080D01*
X150743840Y-84886400D01*
X151262000Y-84886400D01*
X151262000Y-85374080D01*
G36*
X150743840Y-84368240D02*
G01*
X150225680Y-84368240D01*
X150225680Y-83850080D01*
X150743840Y-83850080D01*
X150743840Y-84368240D01*
X150743840Y-84368240D01*
G37*
X150743840Y-84368240D02*
X150225680Y-84368240D01*
X150225680Y-83850080D01*
X150743840Y-83850080D01*
X150743840Y-84368240D01*
G36*
X141219840Y-87416240D02*
G01*
X140701680Y-87416240D01*
X140701680Y-86898080D01*
X141219840Y-86898080D01*
X141219840Y-87416240D01*
X141219840Y-87416240D01*
G37*
X141219840Y-87416240D02*
X140701680Y-87416240D01*
X140701680Y-86898080D01*
X141219840Y-86898080D01*
X141219840Y-87416240D01*
G36*
X144267840Y-87416240D02*
G01*
X143749680Y-87416240D01*
X143749680Y-86898080D01*
X144267840Y-86898080D01*
X144267840Y-87416240D01*
X144267840Y-87416240D01*
G37*
X144267840Y-87416240D02*
X143749680Y-87416240D01*
X143749680Y-86898080D01*
X144267840Y-86898080D01*
X144267840Y-87416240D01*
G36*
X141738000Y-86410400D02*
G01*
X141219840Y-86410400D01*
X141219840Y-85892240D01*
X141738000Y-85892240D01*
X141738000Y-86410400D01*
X141738000Y-86410400D01*
G37*
X141738000Y-86410400D02*
X141219840Y-86410400D01*
X141219840Y-85892240D01*
X141738000Y-85892240D01*
X141738000Y-86410400D01*
G36*
X142743840Y-86410400D02*
G01*
X142225680Y-86410400D01*
X142225680Y-85892240D01*
X142743840Y-85892240D01*
X142743840Y-86410400D01*
X142743840Y-86410400D01*
G37*
X142743840Y-86410400D02*
X142225680Y-86410400D01*
X142225680Y-85892240D01*
X142743840Y-85892240D01*
X142743840Y-86410400D01*
G36*
X143749680Y-86410400D02*
G01*
X143262000Y-86410400D01*
X143262000Y-85892240D01*
X143749680Y-85892240D01*
X143749680Y-86410400D01*
X143749680Y-86410400D01*
G37*
X143749680Y-86410400D02*
X143262000Y-86410400D01*
X143262000Y-85892240D01*
X143749680Y-85892240D01*
X143749680Y-86410400D01*
G36*
X142225680Y-85374080D02*
G01*
X141738000Y-85374080D01*
X141738000Y-84886400D01*
X142225680Y-84886400D01*
X142225680Y-85374080D01*
X142225680Y-85374080D01*
G37*
X142225680Y-85374080D02*
X141738000Y-85374080D01*
X141738000Y-84886400D01*
X142225680Y-84886400D01*
X142225680Y-85374080D01*
G36*
X143262000Y-85374080D02*
G01*
X142743840Y-85374080D01*
X142743840Y-84886400D01*
X143262000Y-84886400D01*
X143262000Y-85374080D01*
X143262000Y-85374080D01*
G37*
X143262000Y-85374080D02*
X142743840Y-85374080D01*
X142743840Y-84886400D01*
X143262000Y-84886400D01*
X143262000Y-85374080D01*
G36*
X142743840Y-84368240D02*
G01*
X142225680Y-84368240D01*
X142225680Y-83850080D01*
X142743840Y-83850080D01*
X142743840Y-84368240D01*
X142743840Y-84368240D01*
G37*
X142743840Y-84368240D02*
X142225680Y-84368240D01*
X142225680Y-83850080D01*
X142743840Y-83850080D01*
X142743840Y-84368240D01*
G36*
X133219840Y-87416240D02*
G01*
X132701680Y-87416240D01*
X132701680Y-86898080D01*
X133219840Y-86898080D01*
X133219840Y-87416240D01*
X133219840Y-87416240D01*
G37*
X133219840Y-87416240D02*
X132701680Y-87416240D01*
X132701680Y-86898080D01*
X133219840Y-86898080D01*
X133219840Y-87416240D01*
G36*
X136267840Y-87416240D02*
G01*
X135749680Y-87416240D01*
X135749680Y-86898080D01*
X136267840Y-86898080D01*
X136267840Y-87416240D01*
X136267840Y-87416240D01*
G37*
X136267840Y-87416240D02*
X135749680Y-87416240D01*
X135749680Y-86898080D01*
X136267840Y-86898080D01*
X136267840Y-87416240D01*
G36*
X133738000Y-86410400D02*
G01*
X133219840Y-86410400D01*
X133219840Y-85892240D01*
X133738000Y-85892240D01*
X133738000Y-86410400D01*
X133738000Y-86410400D01*
G37*
X133738000Y-86410400D02*
X133219840Y-86410400D01*
X133219840Y-85892240D01*
X133738000Y-85892240D01*
X133738000Y-86410400D01*
G36*
X134743840Y-86410400D02*
G01*
X134225680Y-86410400D01*
X134225680Y-85892240D01*
X134743840Y-85892240D01*
X134743840Y-86410400D01*
X134743840Y-86410400D01*
G37*
X134743840Y-86410400D02*
X134225680Y-86410400D01*
X134225680Y-85892240D01*
X134743840Y-85892240D01*
X134743840Y-86410400D01*
G36*
X135749680Y-86410400D02*
G01*
X135262000Y-86410400D01*
X135262000Y-85892240D01*
X135749680Y-85892240D01*
X135749680Y-86410400D01*
X135749680Y-86410400D01*
G37*
X135749680Y-86410400D02*
X135262000Y-86410400D01*
X135262000Y-85892240D01*
X135749680Y-85892240D01*
X135749680Y-86410400D01*
G36*
X134225680Y-85374080D02*
G01*
X133738000Y-85374080D01*
X133738000Y-84886400D01*
X134225680Y-84886400D01*
X134225680Y-85374080D01*
X134225680Y-85374080D01*
G37*
X134225680Y-85374080D02*
X133738000Y-85374080D01*
X133738000Y-84886400D01*
X134225680Y-84886400D01*
X134225680Y-85374080D01*
G36*
X135262000Y-85374080D02*
G01*
X134743840Y-85374080D01*
X134743840Y-84886400D01*
X135262000Y-84886400D01*
X135262000Y-85374080D01*
X135262000Y-85374080D01*
G37*
X135262000Y-85374080D02*
X134743840Y-85374080D01*
X134743840Y-84886400D01*
X135262000Y-84886400D01*
X135262000Y-85374080D01*
G36*
X134743840Y-84368240D02*
G01*
X134225680Y-84368240D01*
X134225680Y-83850080D01*
X134743840Y-83850080D01*
X134743840Y-84368240D01*
X134743840Y-84368240D01*
G37*
X134743840Y-84368240D02*
X134225680Y-84368240D01*
X134225680Y-83850080D01*
X134743840Y-83850080D01*
X134743840Y-84368240D01*
G36*
X125219840Y-87416240D02*
G01*
X124701680Y-87416240D01*
X124701680Y-86898080D01*
X125219840Y-86898080D01*
X125219840Y-87416240D01*
X125219840Y-87416240D01*
G37*
X125219840Y-87416240D02*
X124701680Y-87416240D01*
X124701680Y-86898080D01*
X125219840Y-86898080D01*
X125219840Y-87416240D01*
G36*
X128267840Y-87416240D02*
G01*
X127749680Y-87416240D01*
X127749680Y-86898080D01*
X128267840Y-86898080D01*
X128267840Y-87416240D01*
X128267840Y-87416240D01*
G37*
X128267840Y-87416240D02*
X127749680Y-87416240D01*
X127749680Y-86898080D01*
X128267840Y-86898080D01*
X128267840Y-87416240D01*
G36*
X125738000Y-86410400D02*
G01*
X125219840Y-86410400D01*
X125219840Y-85892240D01*
X125738000Y-85892240D01*
X125738000Y-86410400D01*
X125738000Y-86410400D01*
G37*
X125738000Y-86410400D02*
X125219840Y-86410400D01*
X125219840Y-85892240D01*
X125738000Y-85892240D01*
X125738000Y-86410400D01*
G36*
X126743840Y-86410400D02*
G01*
X126225680Y-86410400D01*
X126225680Y-85892240D01*
X126743840Y-85892240D01*
X126743840Y-86410400D01*
X126743840Y-86410400D01*
G37*
X126743840Y-86410400D02*
X126225680Y-86410400D01*
X126225680Y-85892240D01*
X126743840Y-85892240D01*
X126743840Y-86410400D01*
G36*
X127749680Y-86410400D02*
G01*
X127262000Y-86410400D01*
X127262000Y-85892240D01*
X127749680Y-85892240D01*
X127749680Y-86410400D01*
X127749680Y-86410400D01*
G37*
X127749680Y-86410400D02*
X127262000Y-86410400D01*
X127262000Y-85892240D01*
X127749680Y-85892240D01*
X127749680Y-86410400D01*
G36*
X126225680Y-85374080D02*
G01*
X125738000Y-85374080D01*
X125738000Y-84886400D01*
X126225680Y-84886400D01*
X126225680Y-85374080D01*
X126225680Y-85374080D01*
G37*
X126225680Y-85374080D02*
X125738000Y-85374080D01*
X125738000Y-84886400D01*
X126225680Y-84886400D01*
X126225680Y-85374080D01*
G36*
X127262000Y-85374080D02*
G01*
X126743840Y-85374080D01*
X126743840Y-84886400D01*
X127262000Y-84886400D01*
X127262000Y-85374080D01*
X127262000Y-85374080D01*
G37*
X127262000Y-85374080D02*
X126743840Y-85374080D01*
X126743840Y-84886400D01*
X127262000Y-84886400D01*
X127262000Y-85374080D01*
G36*
X126743840Y-84368240D02*
G01*
X126225680Y-84368240D01*
X126225680Y-83850080D01*
X126743840Y-83850080D01*
X126743840Y-84368240D01*
X126743840Y-84368240D01*
G37*
X126743840Y-84368240D02*
X126225680Y-84368240D01*
X126225680Y-83850080D01*
X126743840Y-83850080D01*
X126743840Y-84368240D01*
G36*
X213219840Y-66666240D02*
G01*
X212701680Y-66666240D01*
X212701680Y-66148080D01*
X213219840Y-66148080D01*
X213219840Y-66666240D01*
X213219840Y-66666240D01*
G37*
X213219840Y-66666240D02*
X212701680Y-66666240D01*
X212701680Y-66148080D01*
X213219840Y-66148080D01*
X213219840Y-66666240D01*
G36*
X216267840Y-66666240D02*
G01*
X215749680Y-66666240D01*
X215749680Y-66148080D01*
X216267840Y-66148080D01*
X216267840Y-66666240D01*
X216267840Y-66666240D01*
G37*
X216267840Y-66666240D02*
X215749680Y-66666240D01*
X215749680Y-66148080D01*
X216267840Y-66148080D01*
X216267840Y-66666240D01*
G36*
X213738000Y-65660400D02*
G01*
X213219840Y-65660400D01*
X213219840Y-65142240D01*
X213738000Y-65142240D01*
X213738000Y-65660400D01*
X213738000Y-65660400D01*
G37*
X213738000Y-65660400D02*
X213219840Y-65660400D01*
X213219840Y-65142240D01*
X213738000Y-65142240D01*
X213738000Y-65660400D01*
G36*
X214743840Y-65660400D02*
G01*
X214225680Y-65660400D01*
X214225680Y-65142240D01*
X214743840Y-65142240D01*
X214743840Y-65660400D01*
X214743840Y-65660400D01*
G37*
X214743840Y-65660400D02*
X214225680Y-65660400D01*
X214225680Y-65142240D01*
X214743840Y-65142240D01*
X214743840Y-65660400D01*
G36*
X215749680Y-65660400D02*
G01*
X215262000Y-65660400D01*
X215262000Y-65142240D01*
X215749680Y-65142240D01*
X215749680Y-65660400D01*
X215749680Y-65660400D01*
G37*
X215749680Y-65660400D02*
X215262000Y-65660400D01*
X215262000Y-65142240D01*
X215749680Y-65142240D01*
X215749680Y-65660400D01*
G36*
X214225680Y-64624080D02*
G01*
X213738000Y-64624080D01*
X213738000Y-64136400D01*
X214225680Y-64136400D01*
X214225680Y-64624080D01*
X214225680Y-64624080D01*
G37*
X214225680Y-64624080D02*
X213738000Y-64624080D01*
X213738000Y-64136400D01*
X214225680Y-64136400D01*
X214225680Y-64624080D01*
G36*
X215262000Y-64624080D02*
G01*
X214743840Y-64624080D01*
X214743840Y-64136400D01*
X215262000Y-64136400D01*
X215262000Y-64624080D01*
X215262000Y-64624080D01*
G37*
X215262000Y-64624080D02*
X214743840Y-64624080D01*
X214743840Y-64136400D01*
X215262000Y-64136400D01*
X215262000Y-64624080D01*
G36*
X214743840Y-63618240D02*
G01*
X214225680Y-63618240D01*
X214225680Y-63100080D01*
X214743840Y-63100080D01*
X214743840Y-63618240D01*
X214743840Y-63618240D01*
G37*
X214743840Y-63618240D02*
X214225680Y-63618240D01*
X214225680Y-63100080D01*
X214743840Y-63100080D01*
X214743840Y-63618240D01*
G36*
X205219840Y-66666240D02*
G01*
X204701680Y-66666240D01*
X204701680Y-66148080D01*
X205219840Y-66148080D01*
X205219840Y-66666240D01*
X205219840Y-66666240D01*
G37*
X205219840Y-66666240D02*
X204701680Y-66666240D01*
X204701680Y-66148080D01*
X205219840Y-66148080D01*
X205219840Y-66666240D01*
G36*
X208267840Y-66666240D02*
G01*
X207749680Y-66666240D01*
X207749680Y-66148080D01*
X208267840Y-66148080D01*
X208267840Y-66666240D01*
X208267840Y-66666240D01*
G37*
X208267840Y-66666240D02*
X207749680Y-66666240D01*
X207749680Y-66148080D01*
X208267840Y-66148080D01*
X208267840Y-66666240D01*
G36*
X205738000Y-65660400D02*
G01*
X205219840Y-65660400D01*
X205219840Y-65142240D01*
X205738000Y-65142240D01*
X205738000Y-65660400D01*
X205738000Y-65660400D01*
G37*
X205738000Y-65660400D02*
X205219840Y-65660400D01*
X205219840Y-65142240D01*
X205738000Y-65142240D01*
X205738000Y-65660400D01*
G36*
X206743840Y-65660400D02*
G01*
X206225680Y-65660400D01*
X206225680Y-65142240D01*
X206743840Y-65142240D01*
X206743840Y-65660400D01*
X206743840Y-65660400D01*
G37*
X206743840Y-65660400D02*
X206225680Y-65660400D01*
X206225680Y-65142240D01*
X206743840Y-65142240D01*
X206743840Y-65660400D01*
G36*
X207749680Y-65660400D02*
G01*
X207262000Y-65660400D01*
X207262000Y-65142240D01*
X207749680Y-65142240D01*
X207749680Y-65660400D01*
X207749680Y-65660400D01*
G37*
X207749680Y-65660400D02*
X207262000Y-65660400D01*
X207262000Y-65142240D01*
X207749680Y-65142240D01*
X207749680Y-65660400D01*
G36*
X206225680Y-64624080D02*
G01*
X205738000Y-64624080D01*
X205738000Y-64136400D01*
X206225680Y-64136400D01*
X206225680Y-64624080D01*
X206225680Y-64624080D01*
G37*
X206225680Y-64624080D02*
X205738000Y-64624080D01*
X205738000Y-64136400D01*
X206225680Y-64136400D01*
X206225680Y-64624080D01*
G36*
X207262000Y-64624080D02*
G01*
X206743840Y-64624080D01*
X206743840Y-64136400D01*
X207262000Y-64136400D01*
X207262000Y-64624080D01*
X207262000Y-64624080D01*
G37*
X207262000Y-64624080D02*
X206743840Y-64624080D01*
X206743840Y-64136400D01*
X207262000Y-64136400D01*
X207262000Y-64624080D01*
G36*
X206743840Y-63618240D02*
G01*
X206225680Y-63618240D01*
X206225680Y-63100080D01*
X206743840Y-63100080D01*
X206743840Y-63618240D01*
X206743840Y-63618240D01*
G37*
X206743840Y-63618240D02*
X206225680Y-63618240D01*
X206225680Y-63100080D01*
X206743840Y-63100080D01*
X206743840Y-63618240D01*
G36*
X197219840Y-66666240D02*
G01*
X196701680Y-66666240D01*
X196701680Y-66148080D01*
X197219840Y-66148080D01*
X197219840Y-66666240D01*
X197219840Y-66666240D01*
G37*
X197219840Y-66666240D02*
X196701680Y-66666240D01*
X196701680Y-66148080D01*
X197219840Y-66148080D01*
X197219840Y-66666240D01*
G36*
X200267840Y-66666240D02*
G01*
X199749680Y-66666240D01*
X199749680Y-66148080D01*
X200267840Y-66148080D01*
X200267840Y-66666240D01*
X200267840Y-66666240D01*
G37*
X200267840Y-66666240D02*
X199749680Y-66666240D01*
X199749680Y-66148080D01*
X200267840Y-66148080D01*
X200267840Y-66666240D01*
G36*
X197738000Y-65660400D02*
G01*
X197219840Y-65660400D01*
X197219840Y-65142240D01*
X197738000Y-65142240D01*
X197738000Y-65660400D01*
X197738000Y-65660400D01*
G37*
X197738000Y-65660400D02*
X197219840Y-65660400D01*
X197219840Y-65142240D01*
X197738000Y-65142240D01*
X197738000Y-65660400D01*
G36*
X198743840Y-65660400D02*
G01*
X198225680Y-65660400D01*
X198225680Y-65142240D01*
X198743840Y-65142240D01*
X198743840Y-65660400D01*
X198743840Y-65660400D01*
G37*
X198743840Y-65660400D02*
X198225680Y-65660400D01*
X198225680Y-65142240D01*
X198743840Y-65142240D01*
X198743840Y-65660400D01*
G36*
X199749680Y-65660400D02*
G01*
X199262000Y-65660400D01*
X199262000Y-65142240D01*
X199749680Y-65142240D01*
X199749680Y-65660400D01*
X199749680Y-65660400D01*
G37*
X199749680Y-65660400D02*
X199262000Y-65660400D01*
X199262000Y-65142240D01*
X199749680Y-65142240D01*
X199749680Y-65660400D01*
G36*
X198225680Y-64624080D02*
G01*
X197738000Y-64624080D01*
X197738000Y-64136400D01*
X198225680Y-64136400D01*
X198225680Y-64624080D01*
X198225680Y-64624080D01*
G37*
X198225680Y-64624080D02*
X197738000Y-64624080D01*
X197738000Y-64136400D01*
X198225680Y-64136400D01*
X198225680Y-64624080D01*
G36*
X199262000Y-64624080D02*
G01*
X198743840Y-64624080D01*
X198743840Y-64136400D01*
X199262000Y-64136400D01*
X199262000Y-64624080D01*
X199262000Y-64624080D01*
G37*
X199262000Y-64624080D02*
X198743840Y-64624080D01*
X198743840Y-64136400D01*
X199262000Y-64136400D01*
X199262000Y-64624080D01*
G36*
X198743840Y-63618240D02*
G01*
X198225680Y-63618240D01*
X198225680Y-63100080D01*
X198743840Y-63100080D01*
X198743840Y-63618240D01*
X198743840Y-63618240D01*
G37*
X198743840Y-63618240D02*
X198225680Y-63618240D01*
X198225680Y-63100080D01*
X198743840Y-63100080D01*
X198743840Y-63618240D01*
G36*
X189219840Y-66666240D02*
G01*
X188701680Y-66666240D01*
X188701680Y-66148080D01*
X189219840Y-66148080D01*
X189219840Y-66666240D01*
X189219840Y-66666240D01*
G37*
X189219840Y-66666240D02*
X188701680Y-66666240D01*
X188701680Y-66148080D01*
X189219840Y-66148080D01*
X189219840Y-66666240D01*
G36*
X192267840Y-66666240D02*
G01*
X191749680Y-66666240D01*
X191749680Y-66148080D01*
X192267840Y-66148080D01*
X192267840Y-66666240D01*
X192267840Y-66666240D01*
G37*
X192267840Y-66666240D02*
X191749680Y-66666240D01*
X191749680Y-66148080D01*
X192267840Y-66148080D01*
X192267840Y-66666240D01*
G36*
X189738000Y-65660400D02*
G01*
X189219840Y-65660400D01*
X189219840Y-65142240D01*
X189738000Y-65142240D01*
X189738000Y-65660400D01*
X189738000Y-65660400D01*
G37*
X189738000Y-65660400D02*
X189219840Y-65660400D01*
X189219840Y-65142240D01*
X189738000Y-65142240D01*
X189738000Y-65660400D01*
G36*
X190743840Y-65660400D02*
G01*
X190225680Y-65660400D01*
X190225680Y-65142240D01*
X190743840Y-65142240D01*
X190743840Y-65660400D01*
X190743840Y-65660400D01*
G37*
X190743840Y-65660400D02*
X190225680Y-65660400D01*
X190225680Y-65142240D01*
X190743840Y-65142240D01*
X190743840Y-65660400D01*
G36*
X191749680Y-65660400D02*
G01*
X191262000Y-65660400D01*
X191262000Y-65142240D01*
X191749680Y-65142240D01*
X191749680Y-65660400D01*
X191749680Y-65660400D01*
G37*
X191749680Y-65660400D02*
X191262000Y-65660400D01*
X191262000Y-65142240D01*
X191749680Y-65142240D01*
X191749680Y-65660400D01*
G36*
X190225680Y-64624080D02*
G01*
X189738000Y-64624080D01*
X189738000Y-64136400D01*
X190225680Y-64136400D01*
X190225680Y-64624080D01*
X190225680Y-64624080D01*
G37*
X190225680Y-64624080D02*
X189738000Y-64624080D01*
X189738000Y-64136400D01*
X190225680Y-64136400D01*
X190225680Y-64624080D01*
G36*
X191262000Y-64624080D02*
G01*
X190743840Y-64624080D01*
X190743840Y-64136400D01*
X191262000Y-64136400D01*
X191262000Y-64624080D01*
X191262000Y-64624080D01*
G37*
X191262000Y-64624080D02*
X190743840Y-64624080D01*
X190743840Y-64136400D01*
X191262000Y-64136400D01*
X191262000Y-64624080D01*
G36*
X190743840Y-63618240D02*
G01*
X190225680Y-63618240D01*
X190225680Y-63100080D01*
X190743840Y-63100080D01*
X190743840Y-63618240D01*
X190743840Y-63618240D01*
G37*
X190743840Y-63618240D02*
X190225680Y-63618240D01*
X190225680Y-63100080D01*
X190743840Y-63100080D01*
X190743840Y-63618240D01*
G36*
X181219840Y-66666240D02*
G01*
X180701680Y-66666240D01*
X180701680Y-66148080D01*
X181219840Y-66148080D01*
X181219840Y-66666240D01*
X181219840Y-66666240D01*
G37*
X181219840Y-66666240D02*
X180701680Y-66666240D01*
X180701680Y-66148080D01*
X181219840Y-66148080D01*
X181219840Y-66666240D01*
G36*
X184267840Y-66666240D02*
G01*
X183749680Y-66666240D01*
X183749680Y-66148080D01*
X184267840Y-66148080D01*
X184267840Y-66666240D01*
X184267840Y-66666240D01*
G37*
X184267840Y-66666240D02*
X183749680Y-66666240D01*
X183749680Y-66148080D01*
X184267840Y-66148080D01*
X184267840Y-66666240D01*
G36*
X181738000Y-65660400D02*
G01*
X181219840Y-65660400D01*
X181219840Y-65142240D01*
X181738000Y-65142240D01*
X181738000Y-65660400D01*
X181738000Y-65660400D01*
G37*
X181738000Y-65660400D02*
X181219840Y-65660400D01*
X181219840Y-65142240D01*
X181738000Y-65142240D01*
X181738000Y-65660400D01*
G36*
X182743840Y-65660400D02*
G01*
X182225680Y-65660400D01*
X182225680Y-65142240D01*
X182743840Y-65142240D01*
X182743840Y-65660400D01*
X182743840Y-65660400D01*
G37*
X182743840Y-65660400D02*
X182225680Y-65660400D01*
X182225680Y-65142240D01*
X182743840Y-65142240D01*
X182743840Y-65660400D01*
G36*
X183749680Y-65660400D02*
G01*
X183262000Y-65660400D01*
X183262000Y-65142240D01*
X183749680Y-65142240D01*
X183749680Y-65660400D01*
X183749680Y-65660400D01*
G37*
X183749680Y-65660400D02*
X183262000Y-65660400D01*
X183262000Y-65142240D01*
X183749680Y-65142240D01*
X183749680Y-65660400D01*
G36*
X182225680Y-64624080D02*
G01*
X181738000Y-64624080D01*
X181738000Y-64136400D01*
X182225680Y-64136400D01*
X182225680Y-64624080D01*
X182225680Y-64624080D01*
G37*
X182225680Y-64624080D02*
X181738000Y-64624080D01*
X181738000Y-64136400D01*
X182225680Y-64136400D01*
X182225680Y-64624080D01*
G36*
X183262000Y-64624080D02*
G01*
X182743840Y-64624080D01*
X182743840Y-64136400D01*
X183262000Y-64136400D01*
X183262000Y-64624080D01*
X183262000Y-64624080D01*
G37*
X183262000Y-64624080D02*
X182743840Y-64624080D01*
X182743840Y-64136400D01*
X183262000Y-64136400D01*
X183262000Y-64624080D01*
G36*
X182743840Y-63618240D02*
G01*
X182225680Y-63618240D01*
X182225680Y-63100080D01*
X182743840Y-63100080D01*
X182743840Y-63618240D01*
X182743840Y-63618240D01*
G37*
X182743840Y-63618240D02*
X182225680Y-63618240D01*
X182225680Y-63100080D01*
X182743840Y-63100080D01*
X182743840Y-63618240D01*
G36*
X173219840Y-66666240D02*
G01*
X172701680Y-66666240D01*
X172701680Y-66148080D01*
X173219840Y-66148080D01*
X173219840Y-66666240D01*
X173219840Y-66666240D01*
G37*
X173219840Y-66666240D02*
X172701680Y-66666240D01*
X172701680Y-66148080D01*
X173219840Y-66148080D01*
X173219840Y-66666240D01*
G36*
X176267840Y-66666240D02*
G01*
X175749680Y-66666240D01*
X175749680Y-66148080D01*
X176267840Y-66148080D01*
X176267840Y-66666240D01*
X176267840Y-66666240D01*
G37*
X176267840Y-66666240D02*
X175749680Y-66666240D01*
X175749680Y-66148080D01*
X176267840Y-66148080D01*
X176267840Y-66666240D01*
G36*
X173738000Y-65660400D02*
G01*
X173219840Y-65660400D01*
X173219840Y-65142240D01*
X173738000Y-65142240D01*
X173738000Y-65660400D01*
X173738000Y-65660400D01*
G37*
X173738000Y-65660400D02*
X173219840Y-65660400D01*
X173219840Y-65142240D01*
X173738000Y-65142240D01*
X173738000Y-65660400D01*
G36*
X174743840Y-65660400D02*
G01*
X174225680Y-65660400D01*
X174225680Y-65142240D01*
X174743840Y-65142240D01*
X174743840Y-65660400D01*
X174743840Y-65660400D01*
G37*
X174743840Y-65660400D02*
X174225680Y-65660400D01*
X174225680Y-65142240D01*
X174743840Y-65142240D01*
X174743840Y-65660400D01*
G36*
X175749680Y-65660400D02*
G01*
X175262000Y-65660400D01*
X175262000Y-65142240D01*
X175749680Y-65142240D01*
X175749680Y-65660400D01*
X175749680Y-65660400D01*
G37*
X175749680Y-65660400D02*
X175262000Y-65660400D01*
X175262000Y-65142240D01*
X175749680Y-65142240D01*
X175749680Y-65660400D01*
G36*
X174225680Y-64624080D02*
G01*
X173738000Y-64624080D01*
X173738000Y-64136400D01*
X174225680Y-64136400D01*
X174225680Y-64624080D01*
X174225680Y-64624080D01*
G37*
X174225680Y-64624080D02*
X173738000Y-64624080D01*
X173738000Y-64136400D01*
X174225680Y-64136400D01*
X174225680Y-64624080D01*
G36*
X175262000Y-64624080D02*
G01*
X174743840Y-64624080D01*
X174743840Y-64136400D01*
X175262000Y-64136400D01*
X175262000Y-64624080D01*
X175262000Y-64624080D01*
G37*
X175262000Y-64624080D02*
X174743840Y-64624080D01*
X174743840Y-64136400D01*
X175262000Y-64136400D01*
X175262000Y-64624080D01*
G36*
X174743840Y-63618240D02*
G01*
X174225680Y-63618240D01*
X174225680Y-63100080D01*
X174743840Y-63100080D01*
X174743840Y-63618240D01*
X174743840Y-63618240D01*
G37*
X174743840Y-63618240D02*
X174225680Y-63618240D01*
X174225680Y-63100080D01*
X174743840Y-63100080D01*
X174743840Y-63618240D01*
G36*
X165219840Y-66666240D02*
G01*
X164701680Y-66666240D01*
X164701680Y-66148080D01*
X165219840Y-66148080D01*
X165219840Y-66666240D01*
X165219840Y-66666240D01*
G37*
X165219840Y-66666240D02*
X164701680Y-66666240D01*
X164701680Y-66148080D01*
X165219840Y-66148080D01*
X165219840Y-66666240D01*
G36*
X168267840Y-66666240D02*
G01*
X167749680Y-66666240D01*
X167749680Y-66148080D01*
X168267840Y-66148080D01*
X168267840Y-66666240D01*
X168267840Y-66666240D01*
G37*
X168267840Y-66666240D02*
X167749680Y-66666240D01*
X167749680Y-66148080D01*
X168267840Y-66148080D01*
X168267840Y-66666240D01*
G36*
X165738000Y-65660400D02*
G01*
X165219840Y-65660400D01*
X165219840Y-65142240D01*
X165738000Y-65142240D01*
X165738000Y-65660400D01*
X165738000Y-65660400D01*
G37*
X165738000Y-65660400D02*
X165219840Y-65660400D01*
X165219840Y-65142240D01*
X165738000Y-65142240D01*
X165738000Y-65660400D01*
G36*
X166743840Y-65660400D02*
G01*
X166225680Y-65660400D01*
X166225680Y-65142240D01*
X166743840Y-65142240D01*
X166743840Y-65660400D01*
X166743840Y-65660400D01*
G37*
X166743840Y-65660400D02*
X166225680Y-65660400D01*
X166225680Y-65142240D01*
X166743840Y-65142240D01*
X166743840Y-65660400D01*
G36*
X167749680Y-65660400D02*
G01*
X167262000Y-65660400D01*
X167262000Y-65142240D01*
X167749680Y-65142240D01*
X167749680Y-65660400D01*
X167749680Y-65660400D01*
G37*
X167749680Y-65660400D02*
X167262000Y-65660400D01*
X167262000Y-65142240D01*
X167749680Y-65142240D01*
X167749680Y-65660400D01*
G36*
X166225680Y-64624080D02*
G01*
X165738000Y-64624080D01*
X165738000Y-64136400D01*
X166225680Y-64136400D01*
X166225680Y-64624080D01*
X166225680Y-64624080D01*
G37*
X166225680Y-64624080D02*
X165738000Y-64624080D01*
X165738000Y-64136400D01*
X166225680Y-64136400D01*
X166225680Y-64624080D01*
G36*
X167262000Y-64624080D02*
G01*
X166743840Y-64624080D01*
X166743840Y-64136400D01*
X167262000Y-64136400D01*
X167262000Y-64624080D01*
X167262000Y-64624080D01*
G37*
X167262000Y-64624080D02*
X166743840Y-64624080D01*
X166743840Y-64136400D01*
X167262000Y-64136400D01*
X167262000Y-64624080D01*
G36*
X166743840Y-63618240D02*
G01*
X166225680Y-63618240D01*
X166225680Y-63100080D01*
X166743840Y-63100080D01*
X166743840Y-63618240D01*
X166743840Y-63618240D01*
G37*
X166743840Y-63618240D02*
X166225680Y-63618240D01*
X166225680Y-63100080D01*
X166743840Y-63100080D01*
X166743840Y-63618240D01*
G36*
X157219840Y-66666240D02*
G01*
X156701680Y-66666240D01*
X156701680Y-66148080D01*
X157219840Y-66148080D01*
X157219840Y-66666240D01*
X157219840Y-66666240D01*
G37*
X157219840Y-66666240D02*
X156701680Y-66666240D01*
X156701680Y-66148080D01*
X157219840Y-66148080D01*
X157219840Y-66666240D01*
G36*
X160267840Y-66666240D02*
G01*
X159749680Y-66666240D01*
X159749680Y-66148080D01*
X160267840Y-66148080D01*
X160267840Y-66666240D01*
X160267840Y-66666240D01*
G37*
X160267840Y-66666240D02*
X159749680Y-66666240D01*
X159749680Y-66148080D01*
X160267840Y-66148080D01*
X160267840Y-66666240D01*
G36*
X157738000Y-65660400D02*
G01*
X157219840Y-65660400D01*
X157219840Y-65142240D01*
X157738000Y-65142240D01*
X157738000Y-65660400D01*
X157738000Y-65660400D01*
G37*
X157738000Y-65660400D02*
X157219840Y-65660400D01*
X157219840Y-65142240D01*
X157738000Y-65142240D01*
X157738000Y-65660400D01*
G36*
X158743840Y-65660400D02*
G01*
X158225680Y-65660400D01*
X158225680Y-65142240D01*
X158743840Y-65142240D01*
X158743840Y-65660400D01*
X158743840Y-65660400D01*
G37*
X158743840Y-65660400D02*
X158225680Y-65660400D01*
X158225680Y-65142240D01*
X158743840Y-65142240D01*
X158743840Y-65660400D01*
G36*
X159749680Y-65660400D02*
G01*
X159262000Y-65660400D01*
X159262000Y-65142240D01*
X159749680Y-65142240D01*
X159749680Y-65660400D01*
X159749680Y-65660400D01*
G37*
X159749680Y-65660400D02*
X159262000Y-65660400D01*
X159262000Y-65142240D01*
X159749680Y-65142240D01*
X159749680Y-65660400D01*
G36*
X158225680Y-64624080D02*
G01*
X157738000Y-64624080D01*
X157738000Y-64136400D01*
X158225680Y-64136400D01*
X158225680Y-64624080D01*
X158225680Y-64624080D01*
G37*
X158225680Y-64624080D02*
X157738000Y-64624080D01*
X157738000Y-64136400D01*
X158225680Y-64136400D01*
X158225680Y-64624080D01*
G36*
X159262000Y-64624080D02*
G01*
X158743840Y-64624080D01*
X158743840Y-64136400D01*
X159262000Y-64136400D01*
X159262000Y-64624080D01*
X159262000Y-64624080D01*
G37*
X159262000Y-64624080D02*
X158743840Y-64624080D01*
X158743840Y-64136400D01*
X159262000Y-64136400D01*
X159262000Y-64624080D01*
G36*
X158743840Y-63618240D02*
G01*
X158225680Y-63618240D01*
X158225680Y-63100080D01*
X158743840Y-63100080D01*
X158743840Y-63618240D01*
X158743840Y-63618240D01*
G37*
X158743840Y-63618240D02*
X158225680Y-63618240D01*
X158225680Y-63100080D01*
X158743840Y-63100080D01*
X158743840Y-63618240D01*
G36*
X149219840Y-66666240D02*
G01*
X148701680Y-66666240D01*
X148701680Y-66148080D01*
X149219840Y-66148080D01*
X149219840Y-66666240D01*
X149219840Y-66666240D01*
G37*
X149219840Y-66666240D02*
X148701680Y-66666240D01*
X148701680Y-66148080D01*
X149219840Y-66148080D01*
X149219840Y-66666240D01*
G36*
X152267840Y-66666240D02*
G01*
X151749680Y-66666240D01*
X151749680Y-66148080D01*
X152267840Y-66148080D01*
X152267840Y-66666240D01*
X152267840Y-66666240D01*
G37*
X152267840Y-66666240D02*
X151749680Y-66666240D01*
X151749680Y-66148080D01*
X152267840Y-66148080D01*
X152267840Y-66666240D01*
G36*
X149738000Y-65660400D02*
G01*
X149219840Y-65660400D01*
X149219840Y-65142240D01*
X149738000Y-65142240D01*
X149738000Y-65660400D01*
X149738000Y-65660400D01*
G37*
X149738000Y-65660400D02*
X149219840Y-65660400D01*
X149219840Y-65142240D01*
X149738000Y-65142240D01*
X149738000Y-65660400D01*
G36*
X150743840Y-65660400D02*
G01*
X150225680Y-65660400D01*
X150225680Y-65142240D01*
X150743840Y-65142240D01*
X150743840Y-65660400D01*
X150743840Y-65660400D01*
G37*
X150743840Y-65660400D02*
X150225680Y-65660400D01*
X150225680Y-65142240D01*
X150743840Y-65142240D01*
X150743840Y-65660400D01*
G36*
X151749680Y-65660400D02*
G01*
X151262000Y-65660400D01*
X151262000Y-65142240D01*
X151749680Y-65142240D01*
X151749680Y-65660400D01*
X151749680Y-65660400D01*
G37*
X151749680Y-65660400D02*
X151262000Y-65660400D01*
X151262000Y-65142240D01*
X151749680Y-65142240D01*
X151749680Y-65660400D01*
G36*
X150225680Y-64624080D02*
G01*
X149738000Y-64624080D01*
X149738000Y-64136400D01*
X150225680Y-64136400D01*
X150225680Y-64624080D01*
X150225680Y-64624080D01*
G37*
X150225680Y-64624080D02*
X149738000Y-64624080D01*
X149738000Y-64136400D01*
X150225680Y-64136400D01*
X150225680Y-64624080D01*
G36*
X151262000Y-64624080D02*
G01*
X150743840Y-64624080D01*
X150743840Y-64136400D01*
X151262000Y-64136400D01*
X151262000Y-64624080D01*
X151262000Y-64624080D01*
G37*
X151262000Y-64624080D02*
X150743840Y-64624080D01*
X150743840Y-64136400D01*
X151262000Y-64136400D01*
X151262000Y-64624080D01*
G36*
X150743840Y-63618240D02*
G01*
X150225680Y-63618240D01*
X150225680Y-63100080D01*
X150743840Y-63100080D01*
X150743840Y-63618240D01*
X150743840Y-63618240D01*
G37*
X150743840Y-63618240D02*
X150225680Y-63618240D01*
X150225680Y-63100080D01*
X150743840Y-63100080D01*
X150743840Y-63618240D01*
G36*
X141219840Y-66666240D02*
G01*
X140701680Y-66666240D01*
X140701680Y-66148080D01*
X141219840Y-66148080D01*
X141219840Y-66666240D01*
X141219840Y-66666240D01*
G37*
X141219840Y-66666240D02*
X140701680Y-66666240D01*
X140701680Y-66148080D01*
X141219840Y-66148080D01*
X141219840Y-66666240D01*
G36*
X144267840Y-66666240D02*
G01*
X143749680Y-66666240D01*
X143749680Y-66148080D01*
X144267840Y-66148080D01*
X144267840Y-66666240D01*
X144267840Y-66666240D01*
G37*
X144267840Y-66666240D02*
X143749680Y-66666240D01*
X143749680Y-66148080D01*
X144267840Y-66148080D01*
X144267840Y-66666240D01*
G36*
X141738000Y-65660400D02*
G01*
X141219840Y-65660400D01*
X141219840Y-65142240D01*
X141738000Y-65142240D01*
X141738000Y-65660400D01*
X141738000Y-65660400D01*
G37*
X141738000Y-65660400D02*
X141219840Y-65660400D01*
X141219840Y-65142240D01*
X141738000Y-65142240D01*
X141738000Y-65660400D01*
G36*
X142743840Y-65660400D02*
G01*
X142225680Y-65660400D01*
X142225680Y-65142240D01*
X142743840Y-65142240D01*
X142743840Y-65660400D01*
X142743840Y-65660400D01*
G37*
X142743840Y-65660400D02*
X142225680Y-65660400D01*
X142225680Y-65142240D01*
X142743840Y-65142240D01*
X142743840Y-65660400D01*
G36*
X143749680Y-65660400D02*
G01*
X143262000Y-65660400D01*
X143262000Y-65142240D01*
X143749680Y-65142240D01*
X143749680Y-65660400D01*
X143749680Y-65660400D01*
G37*
X143749680Y-65660400D02*
X143262000Y-65660400D01*
X143262000Y-65142240D01*
X143749680Y-65142240D01*
X143749680Y-65660400D01*
G36*
X142225680Y-64624080D02*
G01*
X141738000Y-64624080D01*
X141738000Y-64136400D01*
X142225680Y-64136400D01*
X142225680Y-64624080D01*
X142225680Y-64624080D01*
G37*
X142225680Y-64624080D02*
X141738000Y-64624080D01*
X141738000Y-64136400D01*
X142225680Y-64136400D01*
X142225680Y-64624080D01*
G36*
X143262000Y-64624080D02*
G01*
X142743840Y-64624080D01*
X142743840Y-64136400D01*
X143262000Y-64136400D01*
X143262000Y-64624080D01*
X143262000Y-64624080D01*
G37*
X143262000Y-64624080D02*
X142743840Y-64624080D01*
X142743840Y-64136400D01*
X143262000Y-64136400D01*
X143262000Y-64624080D01*
G36*
X142743840Y-63618240D02*
G01*
X142225680Y-63618240D01*
X142225680Y-63100080D01*
X142743840Y-63100080D01*
X142743840Y-63618240D01*
X142743840Y-63618240D01*
G37*
X142743840Y-63618240D02*
X142225680Y-63618240D01*
X142225680Y-63100080D01*
X142743840Y-63100080D01*
X142743840Y-63618240D01*
G36*
X133219840Y-66666240D02*
G01*
X132701680Y-66666240D01*
X132701680Y-66148080D01*
X133219840Y-66148080D01*
X133219840Y-66666240D01*
X133219840Y-66666240D01*
G37*
X133219840Y-66666240D02*
X132701680Y-66666240D01*
X132701680Y-66148080D01*
X133219840Y-66148080D01*
X133219840Y-66666240D01*
G36*
X136267840Y-66666240D02*
G01*
X135749680Y-66666240D01*
X135749680Y-66148080D01*
X136267840Y-66148080D01*
X136267840Y-66666240D01*
X136267840Y-66666240D01*
G37*
X136267840Y-66666240D02*
X135749680Y-66666240D01*
X135749680Y-66148080D01*
X136267840Y-66148080D01*
X136267840Y-66666240D01*
G36*
X133738000Y-65660400D02*
G01*
X133219840Y-65660400D01*
X133219840Y-65142240D01*
X133738000Y-65142240D01*
X133738000Y-65660400D01*
X133738000Y-65660400D01*
G37*
X133738000Y-65660400D02*
X133219840Y-65660400D01*
X133219840Y-65142240D01*
X133738000Y-65142240D01*
X133738000Y-65660400D01*
G36*
X134743840Y-65660400D02*
G01*
X134225680Y-65660400D01*
X134225680Y-65142240D01*
X134743840Y-65142240D01*
X134743840Y-65660400D01*
X134743840Y-65660400D01*
G37*
X134743840Y-65660400D02*
X134225680Y-65660400D01*
X134225680Y-65142240D01*
X134743840Y-65142240D01*
X134743840Y-65660400D01*
G36*
X135749680Y-65660400D02*
G01*
X135262000Y-65660400D01*
X135262000Y-65142240D01*
X135749680Y-65142240D01*
X135749680Y-65660400D01*
X135749680Y-65660400D01*
G37*
X135749680Y-65660400D02*
X135262000Y-65660400D01*
X135262000Y-65142240D01*
X135749680Y-65142240D01*
X135749680Y-65660400D01*
G36*
X134225680Y-64624080D02*
G01*
X133738000Y-64624080D01*
X133738000Y-64136400D01*
X134225680Y-64136400D01*
X134225680Y-64624080D01*
X134225680Y-64624080D01*
G37*
X134225680Y-64624080D02*
X133738000Y-64624080D01*
X133738000Y-64136400D01*
X134225680Y-64136400D01*
X134225680Y-64624080D01*
G36*
X135262000Y-64624080D02*
G01*
X134743840Y-64624080D01*
X134743840Y-64136400D01*
X135262000Y-64136400D01*
X135262000Y-64624080D01*
X135262000Y-64624080D01*
G37*
X135262000Y-64624080D02*
X134743840Y-64624080D01*
X134743840Y-64136400D01*
X135262000Y-64136400D01*
X135262000Y-64624080D01*
G36*
X134743840Y-63618240D02*
G01*
X134225680Y-63618240D01*
X134225680Y-63100080D01*
X134743840Y-63100080D01*
X134743840Y-63618240D01*
X134743840Y-63618240D01*
G37*
X134743840Y-63618240D02*
X134225680Y-63618240D01*
X134225680Y-63100080D01*
X134743840Y-63100080D01*
X134743840Y-63618240D01*
G36*
X126743840Y-63618240D02*
G01*
X126225680Y-63618240D01*
X126225680Y-63100080D01*
X126743840Y-63100080D01*
X126743840Y-63618240D01*
X126743840Y-63618240D01*
G37*
X126743840Y-63618240D02*
X126225680Y-63618240D01*
X126225680Y-63100080D01*
X126743840Y-63100080D01*
X126743840Y-63618240D01*
G36*
X127262000Y-64624080D02*
G01*
X126743840Y-64624080D01*
X126743840Y-64136400D01*
X127262000Y-64136400D01*
X127262000Y-64624080D01*
X127262000Y-64624080D01*
G37*
X127262000Y-64624080D02*
X126743840Y-64624080D01*
X126743840Y-64136400D01*
X127262000Y-64136400D01*
X127262000Y-64624080D01*
G36*
X126225680Y-64624080D02*
G01*
X125738000Y-64624080D01*
X125738000Y-64136400D01*
X126225680Y-64136400D01*
X126225680Y-64624080D01*
X126225680Y-64624080D01*
G37*
X126225680Y-64624080D02*
X125738000Y-64624080D01*
X125738000Y-64136400D01*
X126225680Y-64136400D01*
X126225680Y-64624080D01*
G36*
X127749680Y-65660400D02*
G01*
X127262000Y-65660400D01*
X127262000Y-65142240D01*
X127749680Y-65142240D01*
X127749680Y-65660400D01*
X127749680Y-65660400D01*
G37*
X127749680Y-65660400D02*
X127262000Y-65660400D01*
X127262000Y-65142240D01*
X127749680Y-65142240D01*
X127749680Y-65660400D01*
G36*
X126743840Y-65660400D02*
G01*
X126225680Y-65660400D01*
X126225680Y-65142240D01*
X126743840Y-65142240D01*
X126743840Y-65660400D01*
X126743840Y-65660400D01*
G37*
X126743840Y-65660400D02*
X126225680Y-65660400D01*
X126225680Y-65142240D01*
X126743840Y-65142240D01*
X126743840Y-65660400D01*
G36*
X125738000Y-65660400D02*
G01*
X125219840Y-65660400D01*
X125219840Y-65142240D01*
X125738000Y-65142240D01*
X125738000Y-65660400D01*
X125738000Y-65660400D01*
G37*
X125738000Y-65660400D02*
X125219840Y-65660400D01*
X125219840Y-65142240D01*
X125738000Y-65142240D01*
X125738000Y-65660400D01*
G36*
X128267840Y-66666240D02*
G01*
X127749680Y-66666240D01*
X127749680Y-66148080D01*
X128267840Y-66148080D01*
X128267840Y-66666240D01*
X128267840Y-66666240D01*
G37*
X128267840Y-66666240D02*
X127749680Y-66666240D01*
X127749680Y-66148080D01*
X128267840Y-66148080D01*
X128267840Y-66666240D01*
G36*
X125219840Y-66666240D02*
G01*
X124701680Y-66666240D01*
X124701680Y-66148080D01*
X125219840Y-66148080D01*
X125219840Y-66666240D01*
X125219840Y-66666240D01*
G37*
X125219840Y-66666240D02*
X124701680Y-66666240D01*
X124701680Y-66148080D01*
X125219840Y-66148080D01*
X125219840Y-66666240D01*
%LPC*%
D12*
X190500000Y-57515000D03*
D13*
X190500000Y-72755000D03*
D12*
X214500000Y-57515000D03*
D13*
X214500000Y-72755000D03*
D12*
X206500000Y-57515000D03*
D13*
X206500000Y-72755000D03*
D12*
X198500000Y-57515000D03*
D13*
X198500000Y-72755000D03*
D12*
X134500000Y-57515000D03*
D13*
X134500000Y-72755000D03*
D12*
X142500000Y-57515000D03*
D13*
X142500000Y-72755000D03*
D12*
X150500000Y-57515000D03*
D13*
X150500000Y-72755000D03*
D12*
X174500000Y-57515000D03*
D13*
X174500000Y-72755000D03*
D12*
X166500000Y-57515000D03*
D13*
X166500000Y-72755000D03*
D12*
X158500000Y-57515000D03*
D13*
X158500000Y-72755000D03*
D12*
X182500000Y-57515000D03*
D13*
X182500000Y-72755000D03*
D12*
X190500000Y-78265000D03*
D13*
X190500000Y-93505000D03*
X198500000Y-135005000D03*
D12*
X198500000Y-119765000D03*
X214500000Y-78265000D03*
D13*
X214500000Y-93505000D03*
X214500000Y-135005000D03*
D12*
X214500000Y-119765000D03*
X206500000Y-78265000D03*
D13*
X206500000Y-93505000D03*
D12*
X198500000Y-99015000D03*
D13*
X198500000Y-114255000D03*
X206500000Y-135005000D03*
D12*
X206500000Y-119765000D03*
X214500000Y-99015000D03*
D13*
X214500000Y-114255000D03*
D12*
X206500000Y-99015000D03*
D13*
X206500000Y-114255000D03*
D12*
X198500000Y-78265000D03*
D13*
X198500000Y-93505000D03*
D12*
X142500000Y-99015000D03*
D13*
X142500000Y-114255000D03*
D12*
X134500000Y-78265000D03*
D13*
X134500000Y-93505000D03*
D12*
X150500000Y-78265000D03*
D13*
X150500000Y-93505000D03*
D12*
X142500000Y-78265000D03*
D13*
X142500000Y-93505000D03*
D12*
X134500000Y-99015000D03*
D13*
X134500000Y-114255000D03*
D12*
X150500000Y-99015000D03*
D13*
X150500000Y-114255000D03*
X134500000Y-135005000D03*
D12*
X134500000Y-119765000D03*
D13*
X142500000Y-135005000D03*
D12*
X142500000Y-119765000D03*
D13*
X150500000Y-135005000D03*
D12*
X150500000Y-119765000D03*
D13*
X166500000Y-135005000D03*
D12*
X166500000Y-119765000D03*
X182500000Y-99015000D03*
D13*
X182500000Y-114255000D03*
D12*
X174500000Y-78265000D03*
D13*
X174500000Y-93505000D03*
X190500000Y-135005000D03*
D12*
X190500000Y-119765000D03*
X174500000Y-99015000D03*
D13*
X174500000Y-114255000D03*
D12*
X190500000Y-99015000D03*
D13*
X190500000Y-114255000D03*
D12*
X166500000Y-99015000D03*
D13*
X166500000Y-114255000D03*
D12*
X166500000Y-78265000D03*
D13*
X166500000Y-93505000D03*
D12*
X182500000Y-78265000D03*
D13*
X182500000Y-93505000D03*
X182500000Y-135005000D03*
D12*
X182500000Y-119765000D03*
X158500000Y-78265000D03*
D13*
X158500000Y-93505000D03*
X174500000Y-135005000D03*
D12*
X174500000Y-119765000D03*
D13*
X158500000Y-135005000D03*
D12*
X158500000Y-119765000D03*
X158500000Y-99015000D03*
D13*
X158500000Y-114255000D03*
X126500000Y-72755000D03*
D12*
X126500000Y-57515000D03*
D13*
X126500000Y-93505000D03*
D12*
X126500000Y-78265000D03*
D13*
X126500000Y-114255000D03*
D12*
X126500000Y-99015000D03*
X126500000Y-119765000D03*
D13*
X126500000Y-135005000D03*
M02*
