M48
; DRILL file {KiCad (5.1.4)-1} date 7/23/2020 11:35:09 AM
; FORMAT={-:-/ absolute / inch / decimal}
; #@! TF.CreationDate,2020-07-23T11:35:09+09:00
; #@! TF.GenerationSoftware,Kicad,Pcbnew,(5.1.4)-1
; #@! TF.FileFunction,NonPlated,1,2,NPTH
FMAT,2
INCH
T1C0.1200
T2C0.1570
%
G90
G05
T1
X6.5551Y-4.7152
X4.9803Y-3.8982
X5.6102Y-2.2644
X6.8701Y-3.8982
X6.8701Y-2.2644
X7.5Y-3.0813
X7.815Y-3.0813
X7.815Y-2.2644
X7.815Y-3.8982
X8.4449Y-4.7152
X6.5551Y-3.8982
X5.2953Y-3.0813
X4.9803Y-4.7152
X5.9252Y-3.8982
X8.1299Y-4.7152
X6.8701Y-4.7152
X5.9252Y-3.0813
X4.9803Y-3.0813
X8.4449Y-2.2644
X5.2953Y-3.8982
X5.9252Y-2.2644
X6.8701Y-3.0813
X6.5551Y-2.2644
X7.815Y-4.7152
X7.5Y-3.8982
X7.5Y-2.2644
X8.1299Y-3.0813
X7.185Y-4.7152
X6.2402Y-4.7152
X6.2402Y-3.0813
X5.6102Y-3.0813
X8.1299Y-3.8982
X5.2953Y-4.7152
X5.9252Y-4.7152
X5.6102Y-4.7152
X4.9803Y-2.2644
X5.2953Y-2.2644
X7.5Y-4.7152
X8.1299Y-2.2644
X7.185Y-2.2644
X8.4449Y-3.8982
X6.2402Y-2.2644
X6.5551Y-3.0813
X8.4449Y-3.0813
X7.185Y-3.0813
X7.185Y-3.8982
X5.6102Y-3.8982
X6.2402Y-3.8982
T2
X7.185Y-2.8644
X8.4449Y-4.4982
X6.2402Y-2.8644
X6.5551Y-3.6813
X8.4449Y-3.6813
X7.185Y-3.6813
X7.185Y-4.4982
X5.6102Y-4.4982
X6.2402Y-4.4982
X6.5551Y-5.3152
X4.9803Y-4.4982
X5.6102Y-2.8644
X6.8701Y-4.4982
X6.8701Y-2.8644
X7.5Y-3.6813
X7.815Y-3.6813
X7.815Y-2.8644
X7.815Y-4.4982
X8.4449Y-5.3152
X6.5551Y-4.4982
X5.2953Y-3.6813
X4.9803Y-5.3152
X5.9252Y-4.4982
X8.1299Y-5.3152
X6.8701Y-5.3152
X5.9252Y-3.6813
X4.9803Y-3.6813
X8.4449Y-2.8644
X5.2953Y-4.4982
X5.9252Y-2.8644
X6.8701Y-3.6813
X6.5551Y-2.8644
X7.815Y-5.3152
X7.5Y-4.4982
X7.5Y-2.8644
X8.1299Y-3.6813
X7.185Y-5.3152
X6.2402Y-5.3152
X6.2402Y-3.6813
X5.6102Y-3.6813
X8.1299Y-4.4982
X5.2953Y-5.3152
X5.9252Y-5.3152
X5.6102Y-5.3152
X4.9803Y-2.8644
X5.2953Y-2.8644
X7.5Y-5.3152
X8.1299Y-2.8644
T0
M30
