G04 #@! TF.GenerationSoftware,KiCad,Pcbnew,(5.1.4)-1*
G04 #@! TF.CreationDate,2020-07-23T11:35:07+09:00*
G04 #@! TF.ProjectId,StabilizerShims,53746162-696c-4697-9a65-725368696d73,rev?*
G04 #@! TF.SameCoordinates,Original*
G04 #@! TF.FileFunction,Legend,Bot*
G04 #@! TF.FilePolarity,Positive*
%FSLAX46Y46*%
G04 Gerber Fmt 4.6, Leading zero omitted, Abs format (unit mm)*
G04 Created by KiCad (PCBNEW (5.1.4)-1) date 2020-07-23 11:35:07*
%MOMM*%
%LPD*%
G04 APERTURE LIST*
%ADD10C,3.150000*%
%ADD11C,4.089800*%
G04 APERTURE END LIST*
%LPC*%
D10*
X190500000Y-57515000D03*
D11*
X190500000Y-72755000D03*
D10*
X214500000Y-57515000D03*
D11*
X214500000Y-72755000D03*
D10*
X206500000Y-57515000D03*
D11*
X206500000Y-72755000D03*
D10*
X198500000Y-57515000D03*
D11*
X198500000Y-72755000D03*
D10*
X134500000Y-57515000D03*
D11*
X134500000Y-72755000D03*
D10*
X142500000Y-57515000D03*
D11*
X142500000Y-72755000D03*
D10*
X150500000Y-57515000D03*
D11*
X150500000Y-72755000D03*
D10*
X174500000Y-57515000D03*
D11*
X174500000Y-72755000D03*
D10*
X166500000Y-57515000D03*
D11*
X166500000Y-72755000D03*
D10*
X158500000Y-57515000D03*
D11*
X158500000Y-72755000D03*
D10*
X182500000Y-57515000D03*
D11*
X182500000Y-72755000D03*
D10*
X190500000Y-78265000D03*
D11*
X190500000Y-93505000D03*
X198500000Y-135005000D03*
D10*
X198500000Y-119765000D03*
X214500000Y-78265000D03*
D11*
X214500000Y-93505000D03*
X214500000Y-135005000D03*
D10*
X214500000Y-119765000D03*
X206500000Y-78265000D03*
D11*
X206500000Y-93505000D03*
D10*
X198500000Y-99015000D03*
D11*
X198500000Y-114255000D03*
X206500000Y-135005000D03*
D10*
X206500000Y-119765000D03*
X214500000Y-99015000D03*
D11*
X214500000Y-114255000D03*
D10*
X206500000Y-99015000D03*
D11*
X206500000Y-114255000D03*
D10*
X198500000Y-78265000D03*
D11*
X198500000Y-93505000D03*
D10*
X142500000Y-99015000D03*
D11*
X142500000Y-114255000D03*
D10*
X134500000Y-78265000D03*
D11*
X134500000Y-93505000D03*
D10*
X150500000Y-78265000D03*
D11*
X150500000Y-93505000D03*
D10*
X142500000Y-78265000D03*
D11*
X142500000Y-93505000D03*
D10*
X134500000Y-99015000D03*
D11*
X134500000Y-114255000D03*
D10*
X150500000Y-99015000D03*
D11*
X150500000Y-114255000D03*
X134500000Y-135005000D03*
D10*
X134500000Y-119765000D03*
D11*
X142500000Y-135005000D03*
D10*
X142500000Y-119765000D03*
D11*
X150500000Y-135005000D03*
D10*
X150500000Y-119765000D03*
D11*
X166500000Y-135005000D03*
D10*
X166500000Y-119765000D03*
X182500000Y-99015000D03*
D11*
X182500000Y-114255000D03*
D10*
X174500000Y-78265000D03*
D11*
X174500000Y-93505000D03*
X190500000Y-135005000D03*
D10*
X190500000Y-119765000D03*
X174500000Y-99015000D03*
D11*
X174500000Y-114255000D03*
D10*
X190500000Y-99015000D03*
D11*
X190500000Y-114255000D03*
D10*
X166500000Y-99015000D03*
D11*
X166500000Y-114255000D03*
D10*
X166500000Y-78265000D03*
D11*
X166500000Y-93505000D03*
D10*
X182500000Y-78265000D03*
D11*
X182500000Y-93505000D03*
X182500000Y-135005000D03*
D10*
X182500000Y-119765000D03*
X158500000Y-78265000D03*
D11*
X158500000Y-93505000D03*
X174500000Y-135005000D03*
D10*
X174500000Y-119765000D03*
D11*
X158500000Y-135005000D03*
D10*
X158500000Y-119765000D03*
X158500000Y-99015000D03*
D11*
X158500000Y-114255000D03*
X126500000Y-72755000D03*
D10*
X126500000Y-57515000D03*
D11*
X126500000Y-93505000D03*
D10*
X126500000Y-78265000D03*
D11*
X126500000Y-114255000D03*
D10*
X126500000Y-99015000D03*
X126500000Y-119765000D03*
D11*
X126500000Y-135005000D03*
M02*
